<svg width="80" height="80" viewBox="0 0 80 80" fill="none" xmlns="http://www.w3.org/2000/svg">
<g clip-path="url(#clip0_382_1435)">
<path d="M39.9922 3.24365C32.7206 3.24365 25.6124 5.40004 19.5664 9.44008C13.5203 13.4801 8.80819 19.2224 6.02582 25.9406C3.24345 32.6588 2.51584 40.0512 3.93502 47.183C5.35419 54.3148 8.8564 60.8655 13.9987 66.0068C19.1411 71.148 25.6925 74.6489 32.8246 76.0666C39.9566 77.4843 47.3489 76.7551 54.0666 73.9714C60.7842 71.1876 66.5255 66.4742 70.5643 60.4274C74.6031 54.3805 76.7579 47.2718 76.7564 40.0002C76.7463 30.2536 72.8695 20.9091 65.9768 14.0179C59.0842 7.12668 49.7389 3.25175 39.9922 3.24365Z" fill="#FDFFFF"/>
<path d="M12.1322 50.3502C12.1781 50.9239 12.224 51.49 12.2776 52.0561C12.6142 55.9803 13.3485 58.0534 14.4807 57.2885C15.3298 56.7377 15.957 54.7717 16.4925 52.2397L16.6991 52.1632C16.6991 53.4789 16.7526 54.7947 16.7756 56.0951L16.6608 56.164C16.569 55.9804 16.5231 55.8809 16.3472 55.9803C15.6924 56.634 15.0029 57.252 14.2818 57.8316C12.1169 59.3615 10.6329 57.9463 9.98268 52.2932C9.29421 46.3036 10.7476 43.1137 13.3332 43.2513C14.649 43.2513 15.2839 43.871 15.7199 43.8557C15.9265 43.8557 15.9647 43.7103 16.0488 43.4655H16.1865C16.2707 44.8348 16.3625 46.1888 16.4466 47.5198L16.2324 47.5581C15.4675 45.378 14.626 43.6797 13.5398 43.6797C12.2393 43.6568 11.7344 45.7451 12.1322 50.3502Z" fill="#068FFF"/>
<path d="M21.9315 43.4193V43.7559H20.6005C20.6005 47.1982 20.6209 50.5589 20.6617 53.8381L21.0824 53.6698C22.5358 53.0655 23.2166 51.5891 23.9587 49.7914L24.2188 49.7302C24.1193 50.7859 24.0275 51.8415 23.9357 52.8895C21.8178 53.6274 19.7549 54.5145 17.7624 55.544C17.7624 55.4292 17.7624 55.3068 17.7624 55.1844L18.428 54.8555C18.3362 51.2857 18.2469 47.6036 18.1602 43.8094H17.3953V43.4116L21.9315 43.4193Z" fill="#068FFF"/>
<path d="M31.4935 43.3735C31.4935 44.1385 31.5394 44.8499 31.5547 45.5766H31.3328C30.675 44.1615 30.1013 43.626 28.5713 43.6413H28.1353C28.1353 44.9034 28.0588 46.1503 28.0282 47.3819L28.4566 47.336C28.8612 47.2523 29.2311 47.0483 29.5178 46.7507C29.8044 46.4532 29.9945 46.0759 30.063 45.6684H30.2542C30.2542 46.7853 30.1854 47.8945 30.1548 48.9884L29.933 49.0266C29.6652 47.948 29.168 47.5502 28.3189 47.665L28.0205 47.7032C28.0205 48.9731 27.9441 50.2352 27.9135 51.4821L28.3877 51.3674C29.0983 51.2103 29.7592 50.8803 30.3116 50.4066C30.8641 49.9329 31.2911 49.3301 31.5547 48.6518H31.8071C31.7536 49.4168 31.6924 50.1817 31.6388 50.9467C29.306 51.3425 27.005 51.9075 24.7542 52.6372V52.3542L25.4732 52.1324C25.5344 49.3785 25.5956 46.5558 25.6568 43.7178H24.8918V43.4194L31.4935 43.3735Z" fill="#068FFF"/>
<path d="M36.8789 48.04C36.0298 48.0782 35.1807 48.1318 34.3393 48.2006C33.9874 48.9656 33.6431 49.7306 33.2912 50.4955L34.2551 50.3731V50.5644C33.5896 50.6409 32.9394 50.7327 32.2815 50.8321V50.6409L32.8858 50.5491C34.0486 48.017 35.1807 45.6303 36.2976 43.2896H37.3379C38.3553 45.5844 39.4186 47.8258 40.5278 50.0518H41.1321V50.2354C39.7093 50.2048 38.2865 50.2354 36.8636 50.3272V50.136L37.7892 50.0901C37.4909 49.4322 37.1849 48.7437 36.8789 48.04ZM34.454 47.9635C35.219 47.9099 35.9839 47.864 36.7489 47.8334C36.3894 46.9767 36.0375 46.1123 35.6856 45.2326C35.2929 46.1556 34.8824 47.0659 34.454 47.9635Z" fill="#068FFF"/>
<path d="M48.8582 51.0234C48.2616 50.9163 47.6649 50.8245 47.0606 50.7403C45.5306 48.3001 44.0007 46.0817 42.5396 43.9015C42.5396 46.0052 42.5855 48.0859 42.6085 50.1283L43.3275 50.1666V50.3502C42.7385 50.3119 42.1418 50.289 41.5452 50.266V50.0824H42.2642C42.2642 47.9354 42.2413 45.7502 42.1954 43.5267H41.4993V43.3354H44.9799C46.112 45.0796 47.2747 46.8849 48.4528 48.8279C48.3967 47.094 48.3431 45.3371 48.2922 43.5573H47.6037V43.3508H49.3325V43.565H48.6364C48.7052 46.1123 48.7817 48.5908 48.8582 51.0234Z" fill="#068FFF"/>
<path d="M53.8076 43.3965V43.6413H53.1191C53.1879 46.4181 53.2568 49.149 53.3256 51.8187L54.0065 52.01C54.0065 52.0865 54.0065 52.163 54.0065 52.2395C52.7519 51.8723 51.4744 51.551 50.1816 51.2909V51.0767L50.8778 51.2221C50.8013 48.7359 50.7248 46.1962 50.6483 43.6183H49.9521V43.3965H53.8076Z" fill="#068FFF"/>
<path d="M61.312 55.0314C60.7842 54.7713 60.2487 54.5189 59.7056 54.2665C58.5257 50.7826 57.1151 47.3811 55.483 44.0848C55.5289 46.9305 55.5824 49.7149 55.6283 52.4458L56.2938 52.6677V52.9201C55.7354 52.7289 55.1846 52.5453 54.6262 52.3693V52.1322L55.2994 52.3464C55.2433 49.4905 55.1897 46.5811 55.1387 43.6182H54.4426V43.3657H57.9232C59.1196 46.0904 60.1716 48.8762 61.0749 51.7115C61.1208 49.0953 61.1692 46.4281 61.2202 43.71H60.5317V43.3963H62.2606V43.7329H61.5644C61.4777 47.624 61.3936 51.3902 61.312 55.0314Z" fill="#068FFF"/>
<path d="M67.2326 56.6455C67.3397 55.3145 67.4468 53.9681 67.5616 52.6065L66.8502 52.3234C66.8502 52.1705 66.8502 52.0251 66.8502 51.8721C67.9288 52.2699 68.9921 52.6906 70.0324 53.1343C70.0324 53.3102 70.0324 53.4786 69.9712 53.6545L69.5581 53.4633C69.3286 55.6103 69.1042 57.7216 68.885 59.7972L68.7396 59.6824C68.735 59.5067 68.693 59.334 68.6165 59.1757C68.5401 59.0174 68.4308 58.8772 68.2959 58.7645C67.8982 58.4891 67.0796 58.688 66.1846 58.076C63.9968 56.5461 62.5969 53.9069 62.7193 49.8679C62.8417 45.6759 64.6853 43.3504 67.3091 43.251C68.6249 43.251 69.2368 43.97 69.6729 44.0159C69.8718 44.0159 69.9406 43.8553 70.063 43.5417H70.2007C70.0554 45.2934 69.91 47.0222 69.7723 48.7434L69.5581 48.6899C69.168 45.8901 68.5407 43.71 67.4315 43.71C66.177 43.71 65.3967 45.5612 65.1825 49.5925C65.1825 50.1051 65.129 50.6099 65.0984 51.1225C64.8918 54.9473 65.3585 57.1045 66.3147 57.7624C67.0643 58.2137 67.1408 57.6935 67.2326 56.6455Z" fill="#068FFF"/>
<path d="M39.9922 77.9807C32.4883 77.9792 25.1533 75.7526 18.9147 71.5826C12.6762 67.4125 7.81421 61.4862 4.94362 54.553C2.07303 47.6199 1.32274 39.9912 2.78762 32.6316C4.25249 25.272 7.86674 18.5121 13.1734 13.2065C18.48 7.90098 25.2407 4.28809 32.6005 2.8247C39.9604 1.36131 47.5889 2.11314 54.5215 4.98513C61.4541 7.85711 67.3794 12.7203 71.5482 18.9597C75.717 25.1991 77.9421 32.5345 77.9421 40.0384C77.93 50.099 73.9275 59.7438 66.813 66.857C59.6984 73.9701 50.0527 77.9706 39.9922 77.9807ZM39.9922 4.08511C32.8813 4.08511 25.9301 6.19374 20.0176 10.1443C14.1051 14.0949 9.4969 19.7101 6.77568 26.2797C4.05445 32.8493 3.34246 40.0783 4.72973 47.0526C6.11699 54.0269 9.54122 60.4331 14.5694 65.4613C19.5975 70.4895 26.0038 73.9137 32.9781 75.301C39.9524 76.6882 47.1814 75.9762 53.751 73.255C60.3206 70.5338 65.9357 65.9256 69.8863 60.0131C73.8369 54.1006 75.9456 47.1493 75.9456 40.0384C75.9456 30.4995 72.1589 21.3507 65.4174 14.6021C58.6759 7.85343 49.5312 4.05701 39.9922 4.04687V4.08511Z" fill="#068FFF"/>
<path d="M39.9925 80C32.0812 80 24.3476 77.6541 17.7696 73.2588C11.1917 68.8636 6.06477 62.6164 3.03727 55.3074C0.00976283 47.9983 -0.78237 39.9556 0.761039 32.1964C2.30445 24.4372 6.11408 17.3099 11.7082 11.7158C17.3023 6.12166 24.4296 2.31201 32.1888 0.768604C39.9481 -0.774805 47.9907 0.0173398 55.2998 3.04485C62.6088 6.07235 68.856 11.1992 73.2512 17.7772C77.6465 24.3552 79.9924 32.0888 79.9924 40C79.9823 50.6056 75.7648 60.7739 68.2655 68.2731C60.7663 75.7724 50.598 79.9899 39.9925 80ZM39.9925 0.680851C32.2134 0.677824 24.6081 2.9819 18.1387 7.30169C11.6692 11.6215 6.62623 17.7629 3.64756 24.9491C0.668882 32.1353 -0.111658 40.0435 1.40467 47.6734C2.92099 55.3033 6.66607 62.3121 12.1662 67.8132C17.6663 73.3144 24.6743 77.0609 32.3039 78.5787C39.9335 80.0965 47.8418 79.3175 55.0286 76.3402C62.2154 73.3629 68.3578 68.3211 72.6789 61.8525C76.9999 55.3839 79.3055 47.7791 79.304 40C79.2817 29.5836 75.1319 19.6006 67.7635 12.238C60.3951 4.87532 50.4089 0.733235 39.9925 0.719089V0.680851Z" fill="#068FFF"/>
<path d="M24.9913 59.147C24.9187 58.8778 24.8852 58.5995 24.8919 58.3208C24.8638 57.7428 24.9962 57.1683 25.2744 56.6608C25.4448 56.4375 25.6708 56.2627 25.9299 56.154C26.1889 56.0452 26.472 56.0064 26.7507 56.0412C27.1484 56.0046 27.5446 56.1249 27.8548 56.3764C28.165 56.628 28.3645 56.9909 28.4107 57.3875C28.4883 57.8706 28.5241 58.3594 28.5178 58.8486V59.4223H27.4316V58.7721C27.4492 58.3569 27.4184 57.941 27.3398 57.5329C27.307 57.3729 27.227 57.2264 27.1103 57.1122C27.0049 57.0399 26.8783 57.0049 26.7507 57.0127C26.6348 57.0045 26.5187 57.0279 26.415 57.0804C26.3113 57.133 26.2237 57.2127 26.1617 57.3111C26.0217 57.5877 25.9583 57.8967 25.9781 58.2061C25.9607 58.5038 26.0186 58.801 26.1464 59.0705C26.2471 59.2695 26.3731 59.4546 26.5213 59.6212L26.789 59.9043L27.4469 60.6004C27.8177 60.9623 28.1134 61.3939 28.3169 61.8704C28.5204 62.347 28.6276 62.8591 28.6326 63.3772C28.6688 64.0351 28.5344 64.6913 28.2424 65.282C28.0374 65.5255 27.773 65.712 27.4748 65.8236C27.1766 65.9351 26.8547 65.9678 26.5402 65.9186C26.2256 65.8694 25.9291 65.7398 25.6792 65.5426C25.4294 65.3453 25.2346 65.0869 25.1137 64.7924C24.9604 64.2425 24.8907 63.6725 24.9072 63.1018V62.1074H26.0087V63.0865C25.985 63.5836 26.0366 64.0813 26.1617 64.5629C26.1987 64.6852 26.2749 64.792 26.3786 64.8667C26.4823 64.9413 26.6077 64.9798 26.7354 64.976C26.8398 64.9872 26.9454 64.9752 27.0446 64.9408C27.1438 64.9064 27.2341 64.8505 27.3092 64.7771C27.4299 64.6045 27.494 64.3987 27.4928 64.1881C27.4928 63.9203 27.4928 63.622 27.4928 63.2854C27.4811 62.9286 27.3971 62.5778 27.2458 62.2543C27.0946 61.9309 26.8794 61.6414 26.6131 61.4036L25.9858 60.7687C25.5268 60.3175 25.1854 59.7607 24.9913 59.147Z" fill="#068FFF"/>
<path d="M29.8794 56.1636H32.7557V57.1045H31.0115V60.3862H32.6409V61.3271H31.0115V64.8459H32.7786V65.7868H29.8794V56.1636Z" fill="#068FFF"/>
<path d="M34.1021 56.1637H36.1216C36.5641 56.1217 37.0064 56.2472 37.3608 56.5156C37.6549 56.8522 37.8154 57.2849 37.8121 57.7319C37.8121 57.9614 37.8121 58.3286 37.8121 58.8182C37.8228 59.2425 37.7553 59.6651 37.6132 60.065C37.5597 60.2219 37.4692 60.3636 37.3494 60.4781C37.2295 60.5926 37.0839 60.6765 36.9248 60.7229C37.0389 60.7398 37.1477 60.7823 37.2431 60.8472C37.3385 60.9121 37.4179 60.9978 37.4755 61.0977C37.6291 61.4189 37.7175 61.7673 37.7356 62.1228C37.7973 62.812 37.8228 63.504 37.8121 64.1959C37.7829 64.7331 37.8136 65.2719 37.9039 65.8023H36.81C36.7174 64.7212 36.6893 63.6356 36.7259 62.5512C36.7259 61.8627 36.657 61.4649 36.5193 61.3502C36.3405 61.226 36.1246 61.1667 35.9074 61.1819L35.2342 61.1436V65.8023H34.1021V56.1637ZM36.7259 58.5198C36.7259 57.7548 36.657 57.3494 36.527 57.2347C36.3602 57.1089 36.1541 57.0465 35.9456 57.0587H35.2342V60.3175H35.9992C36.1698 60.3292 36.3395 60.2834 36.4811 60.1874C36.6074 60.0573 36.6833 59.8864 36.6953 59.7055C36.7503 59.3359 36.7733 58.9622 36.7641 58.5887L36.7259 58.5198Z" fill="#068FFF"/>
<path d="M42.142 56.1636H43.2129L41.7518 65.8021H40.4284L38.822 56.1636H39.9006L40.5432 60.2408L41.094 63.8285L41.5682 60.2408L42.142 56.1636Z" fill="#068FFF"/>
<path d="M44.4138 56.1636H45.5536V65.8021H44.4138V56.1636Z" fill="#068FFF"/>
<path d="M47.1066 58.9481C47.0826 58.4037 47.1446 57.859 47.2902 57.334C47.3709 57.0567 47.5033 56.7972 47.6803 56.569C47.855 56.387 48.0674 56.2455 48.3027 56.1543C48.5379 56.0631 48.7902 56.0245 49.042 56.0412C49.396 56.0096 49.75 56.1023 50.0431 56.3033C50.3363 56.5043 50.5503 56.8011 50.6484 57.1428C50.8099 57.6859 50.8822 58.2517 50.8626 58.818V59.8813H49.7457V58.8563C49.7654 58.4356 49.732 58.0141 49.6463 57.6017C49.6107 57.4371 49.5252 57.2876 49.4015 57.1733C49.2982 57.0961 49.1707 57.0581 49.042 57.0663C48.9049 57.0592 48.7694 57.0973 48.6561 57.1747C48.5428 57.2521 48.458 57.3645 48.4147 57.4946C48.2774 57.9322 48.2178 58.3905 48.2387 58.8486V63.0253C48.2125 63.5406 48.2667 64.0567 48.3994 64.5553C48.4423 64.6804 48.5233 64.7889 48.631 64.8658C48.7386 64.9426 48.8676 64.984 48.9999 64.984C49.1322 64.984 49.2611 64.9426 49.3688 64.8658C49.4764 64.7889 49.5574 64.6804 49.6004 64.5553C49.7211 64.0548 49.77 63.5396 49.7457 63.0253V61.9161H50.8702V62.9718C50.9193 63.7391 50.7773 64.5065 50.4571 65.2055C50.3062 65.4468 50.0909 65.6413 49.8355 65.7669C49.5801 65.8926 49.2947 65.9446 49.0114 65.9169C48.7198 65.9374 48.4282 65.8767 48.169 65.7417C47.9098 65.6067 47.693 65.4026 47.5426 65.1519C47.2082 64.4598 47.058 63.6931 47.1066 62.9259V58.9481Z" fill="#068FFF"/>
<path d="M52.2471 56.1636H55.131V57.1045H53.3792V60.3862H55.0315V61.3271H53.3792V64.8459H55.1463V65.7868H52.2471V56.1636Z" fill="#068FFF"/>
<path d="M74.6375 39.9999H5.3623C5.3623 30.8134 9.01161 22.0032 15.5074 15.5074C22.0032 9.01161 30.8134 5.3623 39.9999 5.3623C40.9102 5.3623 41.8205 5.36229 42.7155 5.46939C51.4037 6.15622 59.514 10.0916 65.4302 16.4912C71.3463 22.8908 74.6338 31.2846 74.6375 39.9999Z" fill="#068FFF"/>
<path d="M61.5874 25.1978C61.5518 25.096 61.4951 25.0028 61.421 24.9245C61.3469 24.8461 61.257 24.7843 61.1573 24.7431C61.0576 24.702 60.9503 24.6823 60.8425 24.6855C60.7347 24.6887 60.6288 24.7147 60.5317 24.7617L54.5268 27.2326C54.4915 27.2405 54.4549 27.2405 54.4197 27.2326C54.3638 27.2322 54.3093 27.2153 54.263 27.184C54.2167 27.1527 54.1807 27.1084 54.1596 27.0566C54.1524 27.0213 54.1524 26.9849 54.1596 26.9495C54.1517 26.9143 54.1517 26.8777 54.1596 26.8424C54.1734 26.8079 54.1941 26.7766 54.2204 26.7503C54.2467 26.724 54.2781 26.7033 54.3126 26.6895L59.4073 24.5934C59.605 24.509 59.7617 24.3502 59.8433 24.1512C59.9249 23.9522 59.9249 23.7291 59.8433 23.5302C59.8038 23.4312 59.745 23.341 59.6704 23.265C59.5957 23.1889 59.5067 23.1285 59.4084 23.0872C59.3102 23.0459 59.2047 23.0245 59.0981 23.0244C58.9915 23.0243 58.886 23.0454 58.7876 23.0865L53.4329 25.2896L52.0712 25.8556L51.4134 26.1234L52.9433 24.2263C53.1083 24.0229 53.1865 23.7625 53.1607 23.5018C53.1349 23.2412 53.0073 23.0012 52.8056 22.834C52.6022 22.669 52.3419 22.5909 52.0812 22.6166C51.8205 22.6424 51.5805 22.77 51.4134 22.9717L47.5427 27.7298L46.8695 28.0052L39.8012 30.1548V30.2542C39.7894 30.2238 39.7717 30.1962 39.7491 30.1728C39.7265 30.1494 39.6994 30.1307 39.6695 30.1179C39.6396 30.1051 39.6074 30.0983 39.5748 30.0981C39.5423 30.0979 39.51 30.1041 39.4799 30.1165C39.4181 30.1419 39.3689 30.1908 39.3431 30.2525C39.3172 30.3142 39.317 30.3835 39.3422 30.4454L42.9682 39.2425C42.995 39.303 43.0445 39.3505 43.106 39.3748C43.1676 39.3991 43.2362 39.3983 43.2971 39.3726C43.3274 39.3608 43.3551 39.3431 43.3785 39.3204C43.4019 39.2978 43.4206 39.2707 43.4334 39.2408C43.4462 39.2109 43.453 39.1787 43.4532 39.1462C43.4534 39.1136 43.4472 39.0814 43.4348 39.0513L49.9676 35.6013L55.1693 33.4517L56.531 32.8933L60.2028 31.3634C60.3018 31.3249 60.3916 31.2663 60.4667 31.1913C60.5418 31.1162 60.6004 31.0263 60.6388 30.9273C60.6789 30.8303 60.6996 30.7264 60.7 30.6214C60.7051 30.5134 60.6841 30.4058 60.6388 30.3077C60.5978 30.2091 60.5378 30.1196 60.4621 30.0443C60.3864 29.969 60.2966 29.9093 60.1978 29.8688C60.099 29.8283 59.9932 29.8077 59.8864 29.8082C59.7796 29.8087 59.674 29.8303 59.5755 29.8717L56.1715 31.2716C56.1374 31.2865 56.1007 31.2943 56.0635 31.2947C56.0264 31.295 55.9895 31.2878 55.9552 31.2735C55.9209 31.2592 55.8898 31.2381 55.8639 31.2115C55.838 31.1849 55.8177 31.1533 55.8043 31.1186C55.7891 31.0849 55.7812 31.0484 55.7812 31.0115C55.7812 30.9746 55.7891 30.9381 55.8043 30.9044C55.8168 30.8692 55.8371 30.8372 55.8635 30.8107C55.89 30.7842 55.922 30.764 55.9573 30.7514L60.5471 28.8466C60.6985 28.7849 60.8278 28.6789 60.9179 28.5423C61.008 28.4058 61.0548 28.2452 61.0519 28.0817C61.0538 27.974 61.033 27.8671 60.9907 27.768C60.9093 27.5694 60.7525 27.4112 60.5546 27.328C60.3567 27.2448 60.1339 27.2435 59.9351 27.3244L55.3453 29.2368C55.2761 29.2627 55.1996 29.2614 55.1314 29.2329C55.0632 29.2045 55.0084 29.1512 54.9781 29.0838C54.9629 29.0501 54.955 29.0136 54.955 28.9767C54.955 28.9398 54.9629 28.9032 54.9781 28.8696C54.9907 28.8343 55.0109 28.8023 55.0374 28.7759C55.0638 28.7494 55.0959 28.7292 55.1311 28.7166L61.1284 26.2381C61.3261 26.1596 61.485 26.0065 61.5708 25.8119C61.6567 25.6173 61.6626 25.3967 61.5874 25.1978Z" fill="white"/>
<path d="M62.2911 24.869C62.1737 24.5776 61.9719 24.3279 61.7115 24.1521C61.4512 23.9763 61.1442 23.8823 60.8301 23.8822H60.6618C60.6771 23.6469 60.6378 23.4113 60.547 23.1937C60.4287 22.9029 60.2267 22.6538 59.9665 22.4781C59.7064 22.3024 59.3999 22.208 59.0859 22.2069C58.8783 22.2062 58.6727 22.2479 58.4816 22.3293L53.7847 24.2646C53.9011 23.9952 53.9489 23.7011 53.9237 23.4087C53.8986 23.1163 53.8013 22.8347 53.6406 22.5891C53.4799 22.3436 53.2608 22.1417 53.003 22.0015C52.7451 21.8614 52.4565 21.7874 52.163 21.7862C51.9036 21.7848 51.6472 21.8419 51.4128 21.9531C51.1784 22.0643 50.972 22.2269 50.809 22.4287L47.0607 27.0185L46.5941 27.2098L39.8012 29.2751C39.7325 29.2676 39.6633 29.2676 39.5946 29.2751C39.4281 29.2754 39.2642 29.3166 39.1173 29.3951C38.9704 29.4735 38.845 29.5868 38.7521 29.725C38.6592 29.8632 38.6017 30.0221 38.5845 30.1878C38.5674 30.3534 38.5911 30.5207 38.6537 30.675L42.2797 39.4721C42.3538 39.6587 42.4826 39.8184 42.6491 39.9303C42.8157 40.0423 43.0122 40.1012 43.2129 40.0994C43.3469 40.1015 43.4798 40.0755 43.6031 40.0229C43.8274 39.9317 44.0118 39.7636 44.1232 39.5486L50.3271 36.2669L55.4906 34.1403L56.8522 33.5743L60.5241 32.0443C60.8138 31.9308 61.0621 31.7315 61.2357 31.4732C61.4093 31.2149 61.4999 30.9097 61.4956 30.5985C61.4997 30.3888 61.4606 30.1805 61.3808 29.9866C61.2975 29.7861 61.1753 29.6041 61.0213 29.4511C61.2772 29.3189 61.4923 29.1194 61.6432 28.8741C61.7942 28.6288 61.8754 28.3469 61.8781 28.0589C61.8797 27.8486 61.8381 27.6403 61.7557 27.4469C61.675 27.2469 61.5554 27.0648 61.4038 26.9114C61.5958 26.8334 61.7705 26.7181 61.9177 26.5722C62.0649 26.4263 62.1817 26.2526 62.2614 26.0613C62.3411 25.8699 62.382 25.6646 62.3819 25.4574C62.3817 25.2501 62.3405 25.0449 62.2605 24.8536L62.2911 24.869ZM61.1437 26.2153L55.1464 28.6938C55.1111 28.7064 55.0791 28.7266 55.0527 28.7531C55.0262 28.7795 55.0059 28.8115 54.9934 28.8468C54.9782 28.8804 54.9703 28.9169 54.9703 28.9539C54.9703 28.9908 54.9782 29.0273 54.9934 29.061C55.0157 29.1112 55.0522 29.154 55.0984 29.1838C55.1445 29.2137 55.1984 29.2295 55.2535 29.2292H55.3606L59.9503 27.3168C60.0478 27.2782 60.1515 27.2575 60.2563 27.2556C60.4199 27.2528 60.5805 27.2995 60.717 27.3896C60.8535 27.4797 60.9596 27.609 61.0213 27.7605C61.0636 27.8596 61.0844 27.9665 61.0825 28.0742C61.0853 28.2377 61.0386 28.3983 60.9485 28.5348C60.8584 28.6713 60.7291 28.7774 60.5776 28.8391L55.9878 30.7439C55.9526 30.7565 55.9206 30.7767 55.8941 30.8032C55.8677 30.8296 55.8474 30.8616 55.8348 30.8969C55.8196 30.9305 55.8118 30.967 55.8118 31.004C55.8118 31.0409 55.8196 31.0774 55.8348 31.1111C55.8568 31.1622 55.893 31.206 55.9391 31.2372C55.9852 31.2684 56.0393 31.2857 56.0949 31.287C56.1303 31.2942 56.1667 31.2942 56.202 31.287L59.6061 29.8871C59.7052 29.8449 59.8121 29.824 59.9198 29.8259C60.0824 29.8225 60.2424 29.8681 60.3788 29.9567C60.5152 30.0454 60.6218 30.1731 60.6847 30.3232C60.73 30.4213 60.751 30.5288 60.7459 30.6368C60.7455 30.7418 60.7247 30.8457 60.6847 30.9428C60.6463 31.0417 60.5877 31.1316 60.5126 31.2067C60.4375 31.2817 60.3476 31.3404 60.2487 31.3788L56.5769 32.9087L55.2152 33.4672L50.0135 35.6167L43.4807 39.0667C43.493 39.0968 43.4993 39.1291 43.4991 39.1616C43.4988 39.1942 43.4921 39.2263 43.4793 39.2563C43.4665 39.2862 43.4478 39.3132 43.4244 39.3358C43.401 39.3585 43.3733 39.3762 43.343 39.388C43.3102 39.395 43.2763 39.395 43.2435 39.388C43.1946 39.3875 43.1468 39.3728 43.106 39.3456C43.0653 39.3184 43.0333 39.28 43.014 39.235L39.3881 30.4379C39.3628 30.376 39.3631 30.3066 39.3889 30.245C39.4147 30.1833 39.464 30.1344 39.5258 30.109C39.5559 30.1015 39.5874 30.1015 39.6176 30.109C39.667 30.1074 39.7157 30.1212 39.7569 30.1487C39.798 30.1761 39.8296 30.2157 39.8471 30.262V30.1625L46.9154 28.013L47.5885 27.7376L51.398 22.903C51.4913 22.7906 51.6082 22.7001 51.7404 22.6379C51.8726 22.5758 52.0169 22.5435 52.163 22.5435C52.3917 22.5413 52.6138 22.6198 52.7903 22.7653C52.992 22.9325 53.1196 23.1724 53.1453 23.4331C53.1711 23.6938 53.093 23.9541 52.928 24.1576L51.398 26.0546L52.0559 25.7869L53.4176 25.2208L58.7723 23.0177C58.8698 22.9791 58.9734 22.9584 59.0783 22.9566C59.2432 22.9468 59.4069 22.9907 59.5448 23.0817C59.6826 23.1727 59.7874 23.306 59.8433 23.4614C59.9248 23.6604 59.9248 23.8835 59.8432 24.0825C59.7616 24.2814 59.605 24.4403 59.4072 24.5247L54.3126 26.6207C54.2781 26.6346 54.2467 26.6553 54.2204 26.6816C54.1941 26.7079 54.1734 26.7392 54.1596 26.7737C54.1517 26.809 54.1517 26.8456 54.1596 26.8808C54.1524 26.9162 54.1524 26.9526 54.1596 26.9879C54.1807 27.0396 54.2167 27.0839 54.263 27.1153C54.3093 27.1466 54.3638 27.1635 54.4197 27.1639C54.4549 27.1718 54.4915 27.1718 54.5268 27.1639L60.5317 24.693C60.6284 24.6518 60.7326 24.631 60.8377 24.6318C61.0006 24.6273 61.161 24.6725 61.2976 24.7613C61.4343 24.8501 61.5407 24.9784 61.6027 25.129C61.6471 25.2301 61.6705 25.3392 61.6713 25.4496C61.6721 25.56 61.6503 25.6694 61.6074 25.7711C61.5644 25.8728 61.5011 25.9647 61.4214 26.0411C61.3416 26.1174 61.2472 26.1767 61.1437 26.2153Z" fill="#068FFF"/>
<path d="M62.8648 32.8476H56.355C56.2799 32.8476 56.2079 32.8178 56.1548 32.7647C56.1017 32.7117 56.0719 32.6397 56.0719 32.5646C56.0719 32.4895 56.1017 32.4175 56.1548 32.3645C56.2079 32.3114 56.2799 32.2816 56.355 32.2816H61.8627C62.0778 32.2816 62.284 32.1961 62.4361 32.0441C62.5881 31.892 62.6736 31.6858 62.6736 31.4707C62.6716 31.2563 62.5855 31.0512 62.4339 30.8995C62.2822 30.7479 62.0771 30.6618 61.8627 30.6598H53.9071L56.0643 29.4971C56.2932 29.371 56.4632 29.1598 56.5377 28.9093C56.6121 28.6588 56.585 28.389 56.462 28.1584C56.4003 28.0443 56.3167 27.9435 56.216 27.8618C56.1153 27.78 55.9995 27.7189 55.8752 27.682C55.7508 27.645 55.6204 27.633 55.4914 27.6465C55.3624 27.66 55.2374 27.6988 55.1234 27.7606L49.7686 30.6751H49.0036L41.6523 29.9714V30.0785C41.6523 30.0115 41.6257 29.9473 41.5784 29.9C41.5311 29.8526 41.4668 29.826 41.3999 29.826C41.3329 29.826 41.2687 29.8526 41.2214 29.9C41.1741 29.9473 41.1475 30.0115 41.1475 30.0785V39.5793C41.1475 39.6463 41.1741 39.7105 41.2214 39.7578C41.2687 39.8052 41.3329 39.8318 41.3999 39.8318C41.4668 39.8318 41.5311 39.8052 41.5784 39.7578C41.6257 39.7105 41.6523 39.6463 41.6523 39.5793V39.6252L49.0036 38.9215H60.0727C60.1795 38.9225 60.2854 38.9022 60.3842 38.8618C60.483 38.8214 60.5728 38.7617 60.6483 38.6862C60.7238 38.6107 60.7835 38.521 60.8239 38.4221C60.8643 38.3233 60.8846 38.2174 60.8835 38.1106C60.8835 37.8955 60.7981 37.6893 60.646 37.5372C60.494 37.3852 60.2877 37.2997 60.0727 37.2997H56.355C56.3182 37.3008 56.2815 37.2944 56.2472 37.281C56.2129 37.2676 56.1817 37.2475 56.1553 37.2218C56.1289 37.1962 56.1079 37.1655 56.0936 37.1315C56.0793 37.0976 56.0719 37.0612 56.0719 37.0243C56.0709 36.9869 56.0775 36.9496 56.0913 36.9148C56.1052 36.88 56.126 36.8484 56.1525 36.8219C56.179 36.7954 56.2106 36.7746 56.2454 36.7607C56.2802 36.7469 56.3175 36.7402 56.355 36.7413H61.3578C61.5723 36.7393 61.7773 36.6532 61.929 36.5016C62.0806 36.35 62.1667 36.1449 62.1687 35.9304C62.1687 35.7154 62.0833 35.5091 61.9312 35.3571C61.7791 35.205 61.5729 35.1196 61.3578 35.1196H56.355C56.2805 35.1176 56.2096 35.0872 56.157 35.0345C56.1043 34.9819 56.0739 34.911 56.0719 34.8365C56.064 34.8013 56.064 34.7647 56.0719 34.7294C56.0988 34.6616 56.1509 34.6068 56.2173 34.5765H56.332H62.8189C63.034 34.5765 63.2402 34.491 63.3923 34.339C63.5443 34.1869 63.6298 33.9807 63.6298 33.7656C63.6459 33.6541 63.6385 33.5404 63.6078 33.4319C63.5772 33.3235 63.5241 33.2227 63.4519 33.1361C63.3798 33.0495 63.2902 32.9791 63.1891 32.9294C63.0879 32.8797 62.9774 32.8518 62.8648 32.8476Z" fill="white"/>
<path d="M64.4406 33.7043C64.4433 33.361 64.3343 33.0262 64.1301 32.7503C63.9259 32.4743 63.6375 32.2722 63.3085 32.1744C63.4067 31.9607 63.4588 31.7287 63.4615 31.4936C63.4625 31.2856 63.4225 31.0795 63.3439 30.887C63.2652 30.6945 63.1494 30.5194 63.0031 30.3716C62.8568 30.2239 62.6828 30.1064 62.491 30.0259C62.2993 29.9454 62.0936 29.9034 61.8856 29.9024H56.7986C57.063 29.6616 57.2478 29.3459 57.3282 28.9974C57.4086 28.6489 57.381 28.2842 57.2488 27.9518C57.1167 27.6194 56.8865 27.3352 56.5887 27.1371C56.291 26.9389 55.9399 26.8362 55.5823 26.8426C55.2911 26.8448 55.0048 26.9183 54.7485 27.0568L49.5315 29.8795H49.0266L41.9583 29.2063C41.8173 29.1102 41.6543 29.0513 41.4844 29.0353C41.3145 29.0192 41.1433 29.0465 40.9868 29.1145H40.8721V29.1834C40.7188 29.2736 40.5917 29.4021 40.5032 29.5564C40.4147 29.7106 40.3678 29.8852 40.3672 30.0631V39.5792C40.3678 39.7571 40.4147 39.9317 40.5032 40.0859C40.5917 40.2401 40.7188 40.3687 40.8721 40.459C41.0234 40.5455 41.195 40.5903 41.3693 40.589C41.6095 40.5888 41.8421 40.505 42.0272 40.3518L49.0113 39.6787H60.0421C60.46 39.6787 60.8608 39.5126 61.1564 39.2171C61.4519 38.9216 61.6179 38.5208 61.6179 38.1028C61.6177 37.8846 61.5735 37.6687 61.4879 37.4679C61.8829 37.4372 62.2519 37.2587 62.5212 36.9681C62.7906 36.6774 62.9406 36.296 62.9413 35.8997C62.9427 35.6838 62.8984 35.4701 62.8113 35.2725H62.8495C63.0571 35.2745 63.263 35.2355 63.4555 35.1577C63.6479 35.0799 63.8231 34.9648 63.971 34.8191C64.1188 34.6733 64.2364 34.4999 64.317 34.3086C64.3976 34.1173 64.4396 33.9119 64.4406 33.7043ZM56.3549 34.5152H56.2402C56.1738 34.5455 56.1218 34.6003 56.0949 34.6682C56.087 34.7034 56.087 34.74 56.0949 34.7752C56.0968 34.8497 56.1272 34.9206 56.1799 34.9733C56.2326 35.0259 56.3034 35.0564 56.3779 35.0583H61.3808C61.5958 35.0583 61.8021 35.1437 61.9541 35.2958C62.1062 35.4479 62.1916 35.6541 62.1916 35.8692C62.1896 36.0836 62.1036 36.2887 61.9519 36.4403C61.8003 36.592 61.5952 36.678 61.3808 36.68H56.3549C56.3175 36.679 56.2802 36.6856 56.2454 36.6994C56.2106 36.7133 56.179 36.7341 56.1525 36.7606C56.126 36.7871 56.1052 36.8187 56.0913 36.8535C56.0775 36.8883 56.0709 36.9256 56.0719 36.9631C56.0719 36.9999 56.0793 37.0363 56.0936 37.0702C56.1079 37.1042 56.1289 37.1349 56.1553 37.1605C56.1816 37.1862 56.2129 37.2063 56.2472 37.2197C56.2815 37.2331 56.3181 37.2395 56.3549 37.2384H60.0344C60.2495 37.2384 60.4557 37.3239 60.6078 37.4759C60.7599 37.628 60.8453 37.8342 60.8453 38.0493C60.8463 38.1561 60.826 38.262 60.7856 38.3608C60.7453 38.4596 60.6856 38.5495 60.6101 38.625C60.5346 38.7005 60.4448 38.7601 60.3459 38.8005C60.2471 38.8409 60.1412 38.8612 60.0344 38.8602H48.9883L41.637 39.5639V39.518C41.637 39.585 41.6104 39.6492 41.5631 39.6965C41.5158 39.7439 41.4515 39.7705 41.3846 39.7705C41.3176 39.7705 41.2534 39.7439 41.2061 39.6965C41.1587 39.6492 41.1322 39.585 41.1322 39.518V30.0707C41.1322 30.0038 41.1587 29.9396 41.2061 29.8922C41.2534 29.8449 41.3176 29.8183 41.3846 29.8183C41.4515 29.8183 41.5158 29.8449 41.5631 29.8922C41.6104 29.9396 41.637 30.0038 41.637 30.0707V29.9636L48.9883 30.6674H49.7533L55.1081 27.7529C55.25 27.6716 55.4111 27.6293 55.5747 27.6305C55.7535 27.63 55.9292 27.6782 56.0828 27.7698C56.2364 27.8614 56.3622 27.9931 56.4467 28.1507C56.5697 28.3813 56.5968 28.6511 56.5224 28.9016C56.4479 29.1521 56.2779 29.3632 56.049 29.4893L53.8918 30.6521H61.8703C62.0848 30.6541 62.2899 30.7402 62.4415 30.8918C62.5931 31.0434 62.6792 31.2485 62.6812 31.463C62.6812 31.678 62.5958 31.8843 62.4437 32.0363C62.2916 32.1884 62.0854 32.2738 61.8703 32.2738H56.3549C56.2799 32.2738 56.2079 32.3036 56.1548 32.3567C56.1017 32.4098 56.0719 32.4818 56.0719 32.5569C56.0719 32.6319 56.1017 32.7039 56.1548 32.757C56.2079 32.8101 56.2799 32.8399 56.3549 32.8399H62.8419C62.9486 32.8389 63.0545 32.8591 63.1534 32.8995C63.2522 32.9399 63.342 32.9996 63.4175 33.0751C63.493 33.1506 63.5527 33.2404 63.5931 33.3393C63.6335 33.4381 63.6537 33.544 63.6527 33.6507C63.6527 33.8658 63.5673 34.0721 63.4152 34.2241C63.2631 34.3762 63.0569 34.4616 62.8419 34.4616L56.3549 34.5152Z" fill="#068FFF"/>
<path d="M38.6137 17.1786L38.2905 18.0132L56.4735 25.055L56.7968 24.2204L38.6137 17.1786Z" fill="white"/>
<path d="M57.709 23.0714L38.7226 15.7124L38.6155 17.1964L56.7987 24.2418L57.709 23.0714Z" fill="white"/>
<path d="M56.967 22.7805L39.4722 16.0029L39.3269 17.4717L56.0796 23.9662L56.967 22.7805Z" fill="#068FFF"/>
<path d="M55.2534 25.7333L46.5405 23.7138L38.7608 19.3382C38.5417 19.2139 38.3747 19.0148 38.2904 18.7773C38.2061 18.5399 38.2101 18.2801 38.3018 18.0454L56.485 25.0907C56.3936 25.3297 56.2179 25.527 55.991 25.6454C55.7641 25.7638 55.5018 25.795 55.2534 25.7333Z" fill="white"/>
<path d="M45.7335 22.3586L43.4451 28.2646L45.7847 29.1712L48.0731 23.2651L45.7335 22.3586Z" fill="white"/>
<path d="M40.4895 40.1989L39.9081 39.9771C39.6626 39.8815 39.4585 39.7028 39.3312 39.4722C39.204 39.2415 39.1618 38.9735 39.212 38.7149C39.9414 34.991 41.3773 31.4414 43.4423 28.2578L45.7831 29.1681C45.07 32.8885 43.7301 36.4607 41.8205 39.7323C41.6872 39.9524 41.4816 40.1193 41.2387 40.2044C40.9959 40.2895 40.731 40.2876 40.4895 40.1989Z" fill="white"/>
<path d="M43.7356 26.8449L43.3431 27.8577C43.2744 28.035 43.3624 28.2344 43.5397 28.3031L45.6796 29.1322C45.8569 29.2009 46.0563 29.1129 46.125 28.9356L46.5174 27.9227C46.5861 27.7455 46.4981 27.5461 46.3208 27.4774L44.1809 26.6482C44.0036 26.5796 43.8043 26.6676 43.7356 26.8449Z" fill="white"/>
<path d="M40.8949 40.6579C40.7095 40.6566 40.5257 40.623 40.3518 40.5584L39.7704 40.329C39.4377 40.2046 39.1609 39.9644 38.9908 39.6525C38.8208 39.3406 38.769 38.9778 38.8448 38.6307C39.5807 34.8549 41.035 31.2556 43.1286 28.0283L43.2969 27.7759L46.2114 28.908L46.1579 29.2217C45.4479 32.991 44.1028 36.6123 42.1801 39.9312C42.0479 40.1539 41.8597 40.3382 41.6343 40.4657C41.4088 40.5932 41.1539 40.6594 40.8949 40.6579ZM43.5876 28.7091C41.6476 31.7964 40.2915 35.2139 39.5869 38.7914C39.5598 38.9606 39.5903 39.134 39.6735 39.2838C39.7567 39.4336 39.8878 39.5511 40.0458 39.6175L40.6272 39.8394C40.7881 39.8942 40.9626 39.8939 41.1233 39.8385C41.284 39.7831 41.4217 39.6757 41.5146 39.5334C43.3343 36.3835 44.6263 32.9571 45.3394 29.39L43.5876 28.7091Z" fill="#068FFF"/>
<path d="M45.8062 29.5201C45.7166 29.5215 45.6278 29.5032 45.5461 29.4665L43.4042 28.6404C43.3147 28.6066 43.2328 28.5552 43.1633 28.4893C43.0939 28.4235 43.0383 28.3444 42.9999 28.2568C42.9614 28.1691 42.9408 28.0747 42.9393 27.979C42.9378 27.8833 42.9554 27.7883 42.9911 27.6995L43.3506 26.728C43.4282 26.5546 43.5675 26.4163 43.7414 26.3399C43.9153 26.2636 44.1114 26.2546 44.2915 26.3149L46.4334 27.1411C46.5217 27.1755 46.6022 27.227 46.6705 27.2926C46.7388 27.3583 46.7934 27.4367 46.8312 27.5235C46.9016 27.703 46.9016 27.9025 46.8312 28.082L46.487 29.0229C46.4347 29.1633 46.3423 29.2853 46.2213 29.3737C46.1002 29.4621 45.9559 29.513 45.8062 29.5201ZM44.0468 26.9881L43.7025 27.9749L45.7832 28.7398L46.1657 27.7683L44.0468 26.9881Z" fill="#068FFF"/>
<path d="M37.8428 14.0675L37.6668 14.0292C37.5988 14.0229 37.5319 14.0075 37.4679 13.9833L37.2231 13.8915C37.1325 13.8475 37.0456 13.7963 36.9631 13.7385C36.8671 13.6789 36.7774 13.6097 36.6953 13.532C36.6036 13.4503 36.5191 13.3607 36.4429 13.2643C36.3603 13.167 36.2837 13.0648 36.2134 12.9583C36.0773 12.7456 35.9571 12.5232 35.8539 12.2928C35.7544 12.0709 35.6703 11.8491 35.6091 11.6655C35.5479 11.4819 35.502 11.3136 35.4714 11.1989L35.4178 11.0153C35.4017 10.9577 35.3759 10.9034 35.3413 10.8546C35.691 10.6395 36.0935 10.5256 36.5041 10.5257H37.3838C37.4658 10.5268 37.5471 10.5112 37.6228 10.4799C37.6986 10.4485 37.7672 10.4021 37.8244 10.3435C37.8817 10.2848 37.9264 10.2151 37.9558 10.1386C37.9853 10.062 37.9989 9.98035 37.9958 9.89843V9.4471C37.9958 9.28683 37.9321 9.13311 37.8188 9.01977C37.7054 8.90644 37.5517 8.84277 37.3914 8.84277H32.5416C31.5954 8.8448 30.6887 9.22207 30.0204 9.8918C29.3521 10.5615 28.9768 11.469 28.9768 12.4152L29.4052 12.7135C29.876 13.0313 30.2616 13.4597 30.5284 13.9611C30.7951 14.4626 30.9348 15.0218 30.9351 15.5898H31.4171V16.2935C31.2534 16.3163 31.0979 16.3792 30.9645 16.4767C30.831 16.5741 30.7237 16.703 30.6521 16.852C30.0984 18.0186 29.6131 19.2165 29.1987 20.4396C28.4333 22.7742 28.0611 25.2197 28.0971 27.6762V36.0908C28.0971 36.6629 28.3244 37.2116 28.7289 37.6162C29.1335 38.0207 29.6822 38.248 30.2543 38.248H36.1675C36.5469 38.248 36.9107 38.0973 37.179 37.829C37.4473 37.5608 37.598 37.1969 37.598 36.8175V34.1172C37.5982 30.5912 36.734 27.119 35.0812 24.0044L34.737 23.3542C34.4686 22.9965 34.276 22.5878 34.1709 22.1532C34.1663 21.9342 34.2489 21.7223 34.4004 21.5641C34.4365 21.5258 34.4565 21.4752 34.4565 21.4226C34.4565 21.37 34.4365 21.3194 34.4004 21.2811C34.3253 21.2045 34.2662 21.1135 34.2268 21.0136C34.1874 20.9138 34.1684 20.807 34.1709 20.6997C34.1594 20.6237 34.1594 20.5463 34.1709 20.4702C34.2032 20.3345 34.272 20.2102 34.3698 20.1107C34.4059 20.0724 34.4259 20.0218 34.4259 19.9692C34.4259 19.9166 34.4059 19.866 34.3698 19.8277C34.2941 19.7499 34.2347 19.6576 34.1953 19.5564C34.1559 19.4553 34.1372 19.3472 34.1403 19.2386C34.1358 19.1167 34.1605 18.9954 34.2124 18.885C34.2643 18.7745 34.3419 18.6781 34.4387 18.6037C34.5126 18.5466 34.5679 18.469 34.5979 18.3805C34.6278 18.2921 34.631 18.1967 34.607 18.1065L34.3545 17.0355C34.3069 16.8676 34.2161 16.715 34.0914 16.5929C33.9666 16.4708 33.8121 16.3834 33.6431 16.3394V15.6204H33.8497C33.9288 15.6204 34.0047 15.5889 34.0606 15.533C34.1166 15.477 34.148 15.4011 34.148 15.322V12.7747C34.1501 12.427 34.2312 12.0844 34.3851 11.7726C34.4357 11.875 34.4919 11.9746 34.5534 12.0709C34.6786 12.2978 34.8165 12.5175 34.9665 12.7288C35.1428 12.9749 35.3371 13.2076 35.5479 13.4249C35.6626 13.5243 35.7697 13.6391 35.8921 13.7309C36.0121 13.8245 36.1373 13.9113 36.2669 13.991C36.3871 14.0638 36.5124 14.1277 36.6418 14.1822C36.7611 14.2298 36.8838 14.2682 37.009 14.297C37.1124 14.321 37.2171 14.3389 37.3226 14.3505C37.4038 14.3616 37.4862 14.3616 37.5674 14.3505H37.7739C37.7957 14.3506 37.8172 14.3461 37.8372 14.3376C37.8572 14.329 37.8753 14.3165 37.8903 14.3008C37.9053 14.2851 37.917 14.2664 37.9246 14.2461C37.9322 14.2257 37.9356 14.204 37.9346 14.1822C37.9289 14.1574 37.9178 14.1342 37.9018 14.1143C37.886 14.0944 37.8658 14.0784 37.8428 14.0675Z" fill="white"/>
<path d="M24.7312 17.5485C24.7312 17.8874 24.6307 18.2187 24.4425 18.5005C24.2542 18.7822 23.9866 19.0019 23.6735 19.1316C23.3604 19.2613 23.0158 19.2952 22.6834 19.2291C22.351 19.163 22.0457 18.9998 21.8061 18.7601C21.5664 18.5205 21.4032 18.2152 21.3371 17.8828C21.271 17.5504 21.3049 17.2058 21.4346 16.8927C21.5643 16.5796 21.784 16.312 22.0657 16.1237C22.3475 15.9355 22.6788 15.835 23.0177 15.835C23.4722 15.835 23.908 16.0155 24.2294 16.3368C24.5507 16.6582 24.7312 17.094 24.7312 17.5485Z" fill="white"/>
<path d="M22.0769 18.4894C22.047 18.4907 22.0173 18.4844 21.9905 18.471C21.9637 18.4576 21.9408 18.4376 21.9239 18.4129C21.7393 18.1743 21.6397 17.8808 21.6409 17.5791C21.6409 17.2139 21.786 16.8637 22.0442 16.6055C22.3024 16.3472 22.6526 16.2021 23.0178 16.2021C23.2372 16.2024 23.4534 16.2545 23.6488 16.3542C23.8442 16.4539 24.0133 16.5984 24.1423 16.7759C24.1696 16.8168 24.18 16.8667 24.1715 16.9151C24.1629 16.9636 24.136 17.0068 24.0964 17.036C24.0765 17.0504 24.0538 17.0608 24.0298 17.0663C24.0058 17.0718 23.9809 17.0725 23.9566 17.0682C23.9324 17.0639 23.9092 17.0548 23.8885 17.0414C23.8679 17.0279 23.8501 17.0105 23.8363 16.9901C23.7417 16.862 23.6184 16.7579 23.4762 16.6861C23.3341 16.6144 23.1771 16.577 23.0178 16.577C22.7573 16.5769 22.5069 16.6782 22.3198 16.8596C22.1327 17.041 22.0237 17.2881 22.0157 17.5485C22.014 17.7699 22.0867 17.9854 22.2223 18.1605C22.2551 18.1958 22.2733 18.2423 22.2733 18.2905C22.2733 18.3387 22.2551 18.3852 22.2223 18.4206C22.1837 18.4603 22.1321 18.4847 22.0769 18.4894Z" fill="#068FFF"/>
<path d="M69.4205 35.846C69.4205 36.138 69.3339 36.4235 69.1717 36.6663C69.0095 36.9091 68.7789 37.0983 68.5091 37.21C68.2394 37.3218 67.9425 37.351 67.6561 37.2941C67.3697 37.2371 67.1067 37.0965 66.9002 36.89C66.6937 36.6835 66.5531 36.4205 66.4961 36.1341C66.4392 35.8477 66.4684 35.5508 66.5802 35.2811C66.6919 35.0113 66.8811 34.7807 67.1239 34.6185C67.3667 34.4563 67.6522 34.3696 67.9442 34.3696C68.1383 34.3686 68.3308 34.4061 68.5103 34.48C68.6899 34.5538 68.8531 34.6625 68.9904 34.7998C69.1277 34.9371 69.2364 35.1003 69.3102 35.2799C69.3841 35.4594 69.4216 35.6519 69.4205 35.846Z" fill="white"/>
<path d="M67.1334 36.6263C67.1086 36.6259 67.0842 36.6202 67.0618 36.6096C67.0394 36.5991 67.0195 36.5839 67.0033 36.5651C66.8441 36.3593 66.7579 36.1063 66.7586 35.8461C66.7574 35.5945 66.8362 35.3491 66.9837 35.1453C67.1312 34.9416 67.3396 34.79 67.5789 34.7125C67.8182 34.635 68.076 34.6356 68.3149 34.7142C68.5539 34.7929 68.7616 34.9455 68.9081 35.15C68.9371 35.1811 68.9533 35.2221 68.9533 35.2647C68.9533 35.3073 68.9371 35.3483 68.9081 35.3794C68.8718 35.4021 68.8284 35.4107 68.7861 35.4037C68.7439 35.3966 68.7057 35.3744 68.6786 35.3412C68.5678 35.2069 68.419 35.1092 68.2517 35.0609C68.0844 35.0126 67.9064 35.0159 67.741 35.0705C67.5757 35.1251 67.4306 35.2283 67.3249 35.3667C67.2193 35.5051 67.1578 35.6722 67.1487 35.8461C67.1469 36.0344 67.2089 36.2177 67.3246 36.3663C67.3537 36.3974 67.3698 36.4384 67.3698 36.481C67.3698 36.5236 67.3537 36.5646 67.3246 36.5957C67.3012 36.6221 67.2693 36.6396 67.2345 36.6452C67.1996 36.6507 67.1639 36.6441 67.1334 36.6263Z" fill="#068FFF"/>
<path d="M26.4296 27.7148C26.4296 28.2323 26.2762 28.7381 25.9887 29.1683C25.7013 29.5985 25.2927 29.9338 24.8146 30.1319C24.3366 30.3299 23.8105 30.3817 23.3031 30.2807C22.7956 30.1798 22.3294 29.9306 21.9635 29.5647C21.5976 29.1989 21.3485 28.7327 21.2475 28.2252C21.1466 27.7177 21.1984 27.1917 21.3964 26.7137C21.5944 26.2356 21.9297 25.827 22.36 25.5395C22.7902 25.2521 23.296 25.0986 23.8134 25.0986C24.5073 25.0986 25.1727 25.3743 25.6634 25.8649C26.154 26.3555 26.4296 27.021 26.4296 27.7148Z" fill="white"/>
<path d="M22.3675 29.107C22.323 29.1073 22.2789 29.0971 22.239 29.0771C22.1992 29.0572 22.1646 29.0281 22.1381 28.9922C21.8548 28.6267 21.7014 28.1772 21.702 27.7148C21.6973 27.2658 21.8363 26.8271 22.0988 26.4628C22.3612 26.0985 22.7334 25.8277 23.1608 25.6901C23.5882 25.5525 24.0484 25.5552 24.4741 25.6979C24.8998 25.8406 25.2687 26.1158 25.5268 26.4832C25.5489 26.5133 25.5649 26.5475 25.5738 26.5838C25.5827 26.6201 25.5843 26.6578 25.5786 26.6947C25.5729 26.7317 25.56 26.7671 25.5407 26.7991C25.5213 26.831 25.4958 26.8589 25.4656 26.881C25.4355 26.9031 25.4013 26.919 25.365 26.9279C25.3287 26.9368 25.291 26.9384 25.2541 26.9327C25.2171 26.9271 25.1817 26.9141 25.1497 26.8948C25.1178 26.8754 25.09 26.8499 25.0679 26.8197C24.9263 26.621 24.7393 26.4589 24.5224 26.3472C24.3055 26.2354 24.065 26.1771 23.821 26.1772C23.5336 26.1753 23.2514 26.2545 23.0069 26.4055C22.7624 26.5566 22.5654 26.7735 22.4384 27.0314C22.3115 27.2893 22.2597 27.5777 22.2891 27.8636C22.3186 28.1495 22.4279 28.4214 22.6047 28.648C22.6486 28.7085 22.6675 28.7836 22.6576 28.8576C22.6476 28.9317 22.6095 28.9991 22.5511 29.0458C22.4982 29.0855 22.4337 29.107 22.3675 29.107Z" fill="#068FFF"/>
<path d="M54.4962 32.5874C54.4977 33.0026 54.3759 33.4089 54.1461 33.7547C53.9164 34.1006 53.5891 34.3704 53.2058 34.53C52.8225 34.6896 52.4005 34.7318 51.9932 34.6511C51.5859 34.5705 51.2117 34.3707 50.9181 34.0771C50.6245 33.7835 50.4247 33.4094 50.3441 33.0021C50.2635 32.5948 50.3056 32.1727 50.4652 31.7894C50.6248 31.4061 50.8946 31.0788 51.2405 30.8491C51.5863 30.6194 51.9926 30.4975 52.4078 30.499C52.9617 30.499 53.4929 30.7191 53.8845 31.1107C54.2762 31.5023 54.4962 32.0335 54.4962 32.5874Z" fill="#068FFF"/>
<path d="M51.2525 33.7046C51.2169 33.7046 51.1818 33.6963 51.1499 33.6803C51.118 33.6644 51.0903 33.6413 51.0689 33.6128C50.8408 33.3198 50.7169 32.9591 50.717 32.5877C50.718 32.2309 50.8319 31.8835 51.0424 31.5953C51.2528 31.3072 51.5491 31.093 51.8887 30.9835C52.2283 30.8739 52.5939 30.8747 52.9331 30.9856C53.2722 31.0965 53.5676 31.3119 53.7769 31.6009C53.795 31.625 53.8081 31.6525 53.8156 31.6817C53.8231 31.7109 53.8248 31.7412 53.8205 31.7711C53.8162 31.8009 53.8061 31.8296 53.7908 31.8555C53.7754 31.8815 53.7551 31.9041 53.731 31.9222C53.7069 31.9403 53.6795 31.9534 53.6503 31.9609C53.6211 31.9684 53.5907 31.9701 53.5609 31.9658C53.531 31.9615 53.5023 31.9514 53.4764 31.9361C53.4505 31.9207 53.4278 31.9004 53.4097 31.8763C53.3143 31.7467 53.1943 31.6372 53.0565 31.554C52.9187 31.4708 52.7659 31.4155 52.6068 31.3914C52.4477 31.3672 52.2854 31.3747 52.1291 31.4132C51.9729 31.4518 51.8258 31.5208 51.6962 31.6162C51.5666 31.7117 51.4571 31.8317 51.3739 31.9694C51.2907 32.1072 51.2354 32.26 51.2113 32.4191C51.1871 32.5782 51.1945 32.7406 51.2331 32.8968C51.2717 33.053 51.3407 33.2002 51.4361 33.3298C51.4782 33.3726 51.5017 33.4303 51.5017 33.4904C51.5017 33.5505 51.4782 33.6081 51.4361 33.651C51.4121 33.6741 51.3829 33.691 51.3509 33.7003C51.3189 33.7097 51.2852 33.7111 51.2525 33.7046Z" fill="white"/>
<path d="M28.1659 35.739C29.6826 35.739 30.9121 34.5095 30.9121 32.9928C30.9121 31.4761 29.6826 30.2466 28.1659 30.2466C26.6492 30.2466 25.4197 31.4761 25.4197 32.9928C25.4197 34.5095 26.6492 35.739 28.1659 35.739Z" fill="white"/>
<path d="M42.8379 38.7299L42.027 39.4949C41.7921 39.7193 41.4798 39.8446 41.1549 39.8446C40.8301 39.8446 40.5177 39.7193 40.2829 39.4949L39.9692 39.1889C39.7331 38.9639 39.4195 38.8385 39.0934 38.8385C38.7672 38.8385 38.4536 38.9639 38.2175 39.1889L37.9038 39.4949C37.669 39.7193 37.3566 39.8446 37.0318 39.8446C36.7069 39.8446 36.3946 39.7193 36.1597 39.4949L35.8384 39.1889C35.6036 38.9645 35.2912 38.8392 34.9664 38.8392C34.6415 38.8392 34.3292 38.9645 34.0943 39.1889L33.773 39.4949C33.5382 39.7193 33.2258 39.8446 32.901 39.8446C32.5761 39.8446 32.2638 39.7193 32.0289 39.4949L31.7153 39.1889C31.4791 38.9639 31.1655 38.8385 30.8394 38.8385C30.5133 38.8385 30.1996 38.9639 29.9635 39.1889L29.6499 39.4949C29.415 39.7193 29.1027 39.8446 28.7778 39.8446C28.453 39.8446 28.1406 39.7193 27.9058 39.4949L27.1025 38.7299C26.9788 38.6129 26.8803 38.4717 26.8132 38.3151C26.7461 38.1586 26.7118 37.9899 26.7124 37.8196V33.0615H43.2203V37.8196C43.2206 37.9892 43.1869 38.1571 43.1212 38.3135C43.0555 38.4698 42.9592 38.6114 42.8379 38.7299Z" fill="white"/>
<path d="M42.4554 33.8265V37.8196C42.4564 37.8869 42.4433 37.9536 42.417 38.0156C42.3906 38.0775 42.3516 38.1332 42.3024 38.1791L41.5374 38.9441C41.492 38.9886 41.4382 39.0237 41.3791 39.0474C41.32 39.071 41.2568 39.0827 41.1932 39.0818C41.0648 39.0828 40.9412 39.0334 40.849 38.9441L40.5353 38.6381C40.1578 38.2758 39.6548 38.0735 39.1316 38.0735C38.6084 38.0735 38.1054 38.2758 37.7279 38.6381L37.4143 38.9441C37.322 39.0334 37.1984 39.0828 37.07 39.0818C37.0064 39.0827 36.9432 39.071 36.8841 39.0474C36.8251 39.0237 36.7712 38.9886 36.7258 38.9441L36.4045 38.6381C36.0292 38.2745 35.5272 38.0712 35.0046 38.0712C34.4821 38.0712 33.98 38.2745 33.6047 38.6381L33.2835 38.9441C33.238 38.9886 33.1842 39.0237 33.1251 39.0474C33.066 39.071 33.0028 39.0827 32.9392 39.0818C32.8768 39.0821 32.815 39.0701 32.7572 39.0465C32.6994 39.0229 32.6469 38.9881 32.6026 38.9441L32.2814 38.6381C31.9039 38.2758 31.4009 38.0735 30.8776 38.0735C30.3544 38.0735 29.8514 38.2758 29.4739 38.6381L29.1603 38.9441C29.068 39.0334 28.9444 39.0828 28.8161 39.0818C28.7524 39.0827 28.6893 39.071 28.6302 39.0474C28.5711 39.0237 28.5173 38.9886 28.4718 38.9441L27.7069 38.1791C27.6577 38.1332 27.6186 38.0775 27.5923 38.0156C27.5659 37.9536 27.5529 37.8869 27.5539 37.8196V33.8265H42.4554ZM43.2203 33.0615H26.7124V37.8196C26.7118 37.9899 26.7461 38.1586 26.8132 38.3151C26.8803 38.4717 26.9788 38.6129 27.1025 38.7299L27.9058 39.4949C28.1397 39.7211 28.4524 39.8475 28.7778 39.8475C29.1032 39.8475 29.4159 39.7211 29.6499 39.4949L29.9635 39.1889C30.1996 38.9639 30.5133 38.8385 30.8394 38.8385C31.1655 38.8385 31.4791 38.9639 31.7153 39.1889L32.0289 39.4949C32.2625 39.7215 32.5755 39.8478 32.901 39.8468C33.2268 39.8494 33.5403 39.7229 33.773 39.4949L34.0943 39.1889C34.3283 38.9627 34.641 38.8362 34.9664 38.8362C35.2918 38.8362 35.6045 38.9627 35.8384 39.1889L36.1597 39.4949C36.3937 39.7211 36.7064 39.8475 37.0318 39.8475C37.3572 39.8475 37.6699 39.7211 37.9038 39.4949L38.2175 39.1889C38.4536 38.9639 38.7672 38.8385 39.0934 38.8385C39.4195 38.8385 39.7331 38.9639 39.9692 39.1889L40.2829 39.4949C40.5165 39.7215 40.8295 39.8478 41.1549 39.8468C41.4807 39.8494 41.7943 39.7229 42.027 39.4949L42.8379 38.7299C42.9592 38.6114 43.0555 38.4698 43.1212 38.3135C43.1869 38.1571 43.2206 37.9892 43.2203 37.8196V33.0615Z" fill="#068FFF"/>
<path d="M43.2206 32.1133H26.7126V33.0618H43.2206V32.1133Z" fill="#068FFF"/>
<path d="M34.7448 37.6515C34.7463 37.7471 34.7193 37.8411 34.6673 37.9213C34.6153 38.0016 34.5406 38.0645 34.4527 38.1022C34.3647 38.1398 34.2676 38.1505 34.1736 38.1328C34.0796 38.115 33.9931 38.0697 33.9249 38.0027C33.8567 37.9356 33.8101 37.8497 33.7908 37.756C33.7716 37.6623 33.7807 37.5651 33.8169 37.4766C33.8532 37.388 33.9149 37.3123 33.9944 37.259C34.0738 37.2057 34.1672 37.1773 34.2629 37.1772C34.3894 37.1772 34.5108 37.227 34.601 37.3157C34.6911 37.4044 34.7428 37.525 34.7448 37.6515Z" fill="#068FFF"/>
<path d="M27.47 35.6089C27.4772 35.6558 27.4742 35.7037 27.4611 35.7493C27.4481 35.7949 27.4254 35.8371 27.3945 35.8731C27.3636 35.9091 27.3253 35.938 27.2822 35.9578C27.2391 35.9776 27.1923 35.9879 27.1449 35.9879C27.0974 35.9879 27.0506 35.9776 27.0075 35.9578C26.9644 35.938 26.9261 35.9091 26.8952 35.8731C26.8643 35.8371 26.8416 35.7949 26.8286 35.7493C26.8155 35.7037 26.8125 35.6558 26.8197 35.6089C26.8125 35.562 26.8155 35.5142 26.8286 35.4686C26.8416 35.423 26.8643 35.3807 26.8952 35.3447C26.9261 35.3087 26.9644 35.2799 27.0075 35.26C27.0506 35.2402 27.0974 35.23 27.1449 35.23C27.1923 35.23 27.2391 35.2402 27.2822 35.26C27.3253 35.2799 27.3636 35.3087 27.3945 35.3447C27.4254 35.3807 27.4481 35.423 27.4611 35.4686C27.4742 35.5142 27.4772 35.562 27.47 35.6089Z" fill="#068FFF"/>
<path d="M28.5637 38.0952C28.7031 38.0952 28.8162 37.9822 28.8162 37.8428C28.8162 37.7034 28.7031 37.5903 28.5637 37.5903C28.4243 37.5903 28.3113 37.7034 28.3113 37.8428C28.3113 37.9822 28.4243 38.0952 28.5637 38.0952Z" fill="#068FFF"/>
<path d="M30.6138 37.6437C30.6138 37.6849 30.6057 37.7257 30.59 37.7638C30.5742 37.8018 30.5511 37.8364 30.522 37.8655C30.4929 37.8946 30.4583 37.9177 30.4202 37.9335C30.3822 37.9493 30.3414 37.9574 30.3002 37.9574C30.217 37.9574 30.1373 37.9243 30.0784 37.8655C30.0196 37.8067 29.9866 37.7269 29.9866 37.6437C29.9866 37.5605 30.0196 37.4808 30.0784 37.4219C30.1373 37.3631 30.217 37.3301 30.3002 37.3301C30.3834 37.3301 30.4632 37.3631 30.522 37.4219C30.5808 37.4808 30.6138 37.5605 30.6138 37.6437Z" fill="#068FFF"/>
<path d="M33.1535 34.1019C33.1535 34.2135 33.1092 34.3205 33.0303 34.3994C32.9514 34.4783 32.8444 34.5226 32.7328 34.5226C32.6773 34.5237 32.6221 34.5135 32.5706 34.4927C32.5191 34.4719 32.4723 34.441 32.433 34.4017C32.3937 34.3624 32.3628 34.3156 32.342 34.2641C32.3212 34.2126 32.311 34.1574 32.3121 34.1019C32.3121 33.9903 32.3564 33.8833 32.4353 33.8044C32.5142 33.7255 32.6212 33.6812 32.7328 33.6812C32.8444 33.6812 32.9514 33.7255 33.0303 33.8044C33.1092 33.8833 33.1535 33.9903 33.1535 34.1019Z" fill="#068FFF"/>
<path d="M36.9785 39.3955C37.1306 39.3955 37.2539 39.2722 37.2539 39.1201C37.2539 38.968 37.1306 38.8447 36.9785 38.8447C36.8264 38.8447 36.7031 38.968 36.7031 39.1201C36.7031 39.2722 36.8264 39.3955 36.9785 39.3955Z" fill="#068FFF"/>
<path d="M36.2747 33.6813C36.2747 33.7388 36.2577 33.795 36.2257 33.8428C36.1938 33.8906 36.1484 33.9279 36.0953 33.9499C36.0422 33.9719 35.9837 33.9776 35.9273 33.9664C35.871 33.9552 35.8192 33.9275 35.7785 33.8869C35.7379 33.8462 35.7102 33.7944 35.6989 33.738C35.6877 33.6816 35.6935 33.6232 35.7155 33.5701C35.7375 33.517 35.7747 33.4716 35.8225 33.4396C35.8704 33.4077 35.9266 33.3906 35.984 33.3906C36.0611 33.3906 36.1351 33.4212 36.1896 33.4758C36.2441 33.5303 36.2747 33.6042 36.2747 33.6813Z" fill="#068FFF"/>
<path d="M39.9158 35.6012C40.1355 35.6012 40.3136 35.4231 40.3136 35.2034C40.3136 34.9838 40.1355 34.8057 39.9158 34.8057C39.6962 34.8057 39.5181 34.9838 39.5181 35.2034C39.5181 35.4231 39.6962 35.6012 39.9158 35.6012Z" fill="#068FFF"/>
<path d="M40.3212 34.2015C40.5324 34.2015 40.7037 34.0302 40.7037 33.819C40.7037 33.6078 40.5324 33.4365 40.3212 33.4365C40.11 33.4365 39.9387 33.6078 39.9387 33.819C39.9387 34.0302 40.11 34.2015 40.3212 34.2015Z" fill="#068FFF"/>
<path d="M42.3561 36.8333C42.3576 36.8838 42.3439 36.9337 42.3167 36.9763C42.2896 37.019 42.2503 37.0525 42.2038 37.0726C42.1574 37.0926 42.106 37.0982 42.0564 37.0887C42.0067 37.0793 41.961 37.0551 41.9253 37.0193C41.8895 36.9835 41.8653 36.9379 41.8558 36.8882C41.8463 36.8385 41.852 36.7871 41.872 36.7407C41.8921 36.6943 41.9256 36.655 41.9682 36.6278C42.0109 36.6007 42.0607 36.587 42.1113 36.5885C42.1762 36.5885 42.2385 36.6143 42.2844 36.6602C42.3303 36.7061 42.3561 36.7683 42.3561 36.8333Z" fill="#068FFF"/>
<path d="M27.6763 38.3322C27.6763 38.3851 27.6606 38.4369 27.6312 38.4809C27.6018 38.525 27.56 38.5593 27.5111 38.5795C27.4621 38.5998 27.4083 38.6051 27.3564 38.5948C27.3044 38.5844 27.2567 38.5589 27.2193 38.5215C27.1818 38.4841 27.1563 38.4364 27.146 38.3844C27.1357 38.3325 27.141 38.2787 27.1612 38.2297C27.1815 38.1808 27.2158 38.139 27.2599 38.1096C27.3039 38.0802 27.3557 38.0645 27.4086 38.0645C27.4796 38.0645 27.5477 38.0927 27.5979 38.1429C27.6481 38.1931 27.6763 38.2612 27.6763 38.3322Z" fill="#068FFF"/>
<path d="M29.1682 34.8745C29.1682 34.9543 29.137 35.031 29.0813 35.0882C29.0255 35.1454 28.9496 35.1785 28.8698 35.1805C28.7979 35.169 28.7325 35.1323 28.6853 35.0769C28.638 35.0215 28.6121 34.9511 28.6121 34.8783C28.6121 34.8055 28.638 34.7351 28.6853 34.6798C28.7325 34.6244 28.7979 34.5876 28.8698 34.5762C28.9483 34.5781 29.0231 34.6102 29.0786 34.6657C29.1342 34.7212 29.1662 34.796 29.1682 34.8745Z" fill="#068FFF"/>
<path d="M28.8009 39.2809C28.9445 39.2809 29.0609 39.1645 29.0609 39.0208C29.0609 38.8772 28.9445 38.7607 28.8009 38.7607C28.6572 38.7607 28.5408 38.8772 28.5408 39.0208C28.5408 39.1645 28.6572 39.2809 28.8009 39.2809Z" fill="#068FFF"/>
<path d="M30.2543 34.6297C30.4909 34.6297 30.6827 34.4379 30.6827 34.2013C30.6827 33.9647 30.4909 33.7729 30.2543 33.7729C30.0177 33.7729 29.8259 33.9647 29.8259 34.2013C29.8259 34.4379 30.0177 34.6297 30.2543 34.6297Z" fill="#068FFF"/>
<path d="M36.6113 38.5696C36.6128 38.6606 36.5872 38.7501 36.5376 38.8266C36.4881 38.9031 36.417 38.9631 36.3333 38.999C36.2496 39.0349 36.157 39.0451 36.0675 39.0283C35.978 39.0114 35.8955 38.9683 35.8305 38.9045C35.7656 38.8406 35.7211 38.7588 35.7028 38.6696C35.6844 38.5804 35.693 38.4877 35.7276 38.4034C35.7621 38.319 35.8209 38.2469 35.8965 38.1961C35.9721 38.1454 36.0612 38.1182 36.1523 38.1182C36.2122 38.1172 36.2717 38.1281 36.3273 38.1504C36.383 38.1726 36.4336 38.2057 36.4764 38.2477C36.5191 38.2897 36.553 38.3398 36.5762 38.3951C36.5993 38.4503 36.6113 38.5096 36.6113 38.5696Z" fill="#068FFF"/>
<path d="M35.1883 34.6453C35.1883 34.7209 35.1659 34.7948 35.1238 34.8577C35.0818 34.9206 35.0221 34.9697 34.9522 34.9986C34.8823 35.0276 34.8054 35.0351 34.7312 35.0204C34.657 35.0056 34.5889 34.9692 34.5354 34.9157C34.4819 34.8622 34.4454 34.7941 34.4307 34.7199C34.4159 34.6457 34.4235 34.5688 34.4525 34.4989C34.4814 34.429 34.5304 34.3693 34.5933 34.3272C34.6562 34.2852 34.7302 34.2628 34.8058 34.2628C34.8563 34.2617 34.9065 34.2709 34.9534 34.2898C35.0003 34.3086 35.0429 34.3367 35.0786 34.3725C35.1143 34.4082 35.1425 34.4508 35.1613 34.4976C35.1802 34.5445 35.1893 34.5947 35.1883 34.6453Z" fill="#068FFF"/>
<path d="M39.0133 35.5403C39.0144 35.5848 39.0064 35.629 38.9898 35.6703C38.9733 35.7116 38.9485 35.7491 38.9171 35.7806C38.8856 35.8121 38.8481 35.8368 38.8068 35.8534C38.7655 35.8699 38.7212 35.8779 38.6767 35.8769C38.6288 35.8841 38.5799 35.881 38.5333 35.8676C38.4867 35.8543 38.4435 35.831 38.4067 35.7994C38.37 35.7678 38.3405 35.7286 38.3202 35.6845C38.3 35.6405 38.2896 35.5926 38.2896 35.5441C38.2896 35.4956 38.3 35.4477 38.3202 35.4037C38.3405 35.3596 38.37 35.3204 38.4067 35.2888C38.4435 35.2572 38.4867 35.234 38.5333 35.2206C38.5799 35.2072 38.6288 35.2041 38.6767 35.2113C38.7206 35.2103 38.7642 35.2181 38.805 35.2342C38.8458 35.2502 38.8829 35.2743 38.9143 35.3049C38.9456 35.3356 38.9706 35.3722 38.9876 35.4126C39.0046 35.453 39.0133 35.4964 39.0133 35.5403Z" fill="#068FFF"/>
<path d="M38.9368 34.5762C38.9368 34.6261 38.922 34.6749 38.8942 34.7164C38.8665 34.7579 38.8271 34.7903 38.7809 34.8094C38.7348 34.8285 38.684 34.8335 38.6351 34.8238C38.5861 34.814 38.5411 34.79 38.5058 34.7547C38.4705 34.7194 38.4465 34.6744 38.4367 34.6254C38.427 34.5764 38.432 34.5257 38.4511 34.4796C38.4702 34.4335 38.5026 34.394 38.5441 34.3663C38.5856 34.3385 38.6344 34.3237 38.6843 34.3237C38.7513 34.3237 38.8155 34.3503 38.8628 34.3977C38.9102 34.445 38.9368 34.5092 38.9368 34.5762Z" fill="#068FFF"/>
<path d="M42.1724 34.8898C42.4302 34.8898 42.6391 34.6809 42.6391 34.4232C42.6391 34.1655 42.4302 33.9565 42.1724 33.9565C41.9147 33.9565 41.7058 34.1655 41.7058 34.4232C41.7058 34.6809 41.9147 34.8898 42.1724 34.8898Z" fill="#068FFF"/>
<path d="M27.7071 36.9709C27.9521 36.9709 28.1508 36.7722 28.1508 36.5272C28.1508 36.2821 27.9521 36.0835 27.7071 36.0835C27.4621 36.0835 27.2634 36.2821 27.2634 36.5272C27.2634 36.7722 27.4621 36.9709 27.7071 36.9709Z" fill="#068FFF"/>
<path d="M30.8817 35.609C31.1267 35.609 31.3253 35.4104 31.3253 35.1654C31.3253 34.9203 31.1267 34.7217 30.8817 34.7217C30.6366 34.7217 30.438 34.9203 30.438 35.1654C30.438 35.4104 30.6366 35.609 30.8817 35.609Z" fill="#068FFF"/>
<path d="M33.4824 36.6343C33.7232 36.6343 33.9184 36.439 33.9184 36.1982C33.9184 35.9574 33.7232 35.7622 33.4824 35.7622C33.2416 35.7622 33.0464 35.9574 33.0464 36.1982C33.0464 36.439 33.2416 36.6343 33.4824 36.6343Z" fill="#068FFF"/>
<path d="M33.1688 38.5694C33.1703 38.6578 33.1454 38.7446 33.0972 38.8187C33.049 38.8928 32.9798 38.9509 32.8985 38.9854C32.8171 39.0199 32.7273 39.0294 32.6405 39.0125C32.5537 38.9956 32.474 38.9532 32.4114 38.8907C32.3489 38.8282 32.3065 38.7485 32.2897 38.6617C32.2728 38.5749 32.2822 38.4851 32.3167 38.4037C32.3513 38.3223 32.4093 38.2531 32.4834 38.2049C32.5576 38.1568 32.6444 38.1319 32.7328 38.1334C32.8484 38.1334 32.9593 38.1793 33.0411 38.2611C33.1228 38.3428 33.1688 38.4538 33.1688 38.5694Z" fill="#068FFF"/>
<path d="M36.4658 36.8638C36.4658 36.9916 36.415 37.1142 36.3247 37.2045C36.2343 37.2949 36.1117 37.3457 35.9839 37.3457C35.8561 37.3457 35.7335 37.2949 35.6431 37.2045C35.5527 37.1142 35.502 36.9916 35.502 36.8638C35.502 36.736 35.5527 36.6134 35.6431 36.523C35.7335 36.4326 35.8561 36.3818 35.9839 36.3818C36.1117 36.3818 36.2343 36.4326 36.3247 36.523C36.415 36.6134 36.4658 36.736 36.4658 36.8638Z" fill="#068FFF"/>
<path d="M37.2308 35.0124C37.2308 35.0733 37.2187 35.1336 37.1951 35.1898C37.1716 35.246 37.1371 35.2969 37.0937 35.3397C37.0502 35.3824 36.9987 35.416 36.9422 35.4386C36.8856 35.4612 36.8251 35.4724 36.7642 35.4713C36.6716 35.4713 36.581 35.4438 36.5042 35.3921C36.4273 35.3405 36.3675 35.2672 36.3324 35.1815C36.2973 35.0958 36.2885 35.0015 36.3072 34.9108C36.3258 34.8201 36.371 34.737 36.437 34.672C36.503 34.6071 36.5869 34.5633 36.6779 34.5461C36.7689 34.529 36.863 34.5394 36.9481 34.5759C37.0332 34.6123 37.1056 34.6733 37.1559 34.7511C37.2062 34.8288 37.2323 34.9198 37.2308 35.0124Z" fill="#068FFF"/>
<path d="M42.3408 36.2744C42.5056 36.2744 42.6392 36.1408 42.6392 35.9761C42.6392 35.8113 42.5056 35.6777 42.3408 35.6777C42.176 35.6777 42.0425 35.8113 42.0425 35.9761C42.0425 36.1408 42.176 36.2744 42.3408 36.2744Z" fill="#068FFF"/>
<path d="M37.1389 37.353C37.329 37.353 37.4831 37.1989 37.4831 37.0088C37.4831 36.8187 37.329 36.6646 37.1389 36.6646C36.9488 36.6646 36.7947 36.8187 36.7947 37.0088C36.7947 37.1989 36.9488 37.353 37.1389 37.353Z" fill="#068FFF"/>
<path d="M32.1208 37.3534C32.1219 37.4153 32.1105 37.4768 32.0875 37.5343C32.0645 37.5918 32.0303 37.6442 31.9869 37.6883C31.9435 37.7325 31.8917 37.7675 31.8346 37.7914C31.7775 37.8154 31.7161 37.8277 31.6542 37.8277C31.5284 37.8277 31.4078 37.7777 31.3188 37.6888C31.2299 37.5998 31.1799 37.4792 31.1799 37.3534C31.1799 37.2915 31.1922 37.2302 31.2162 37.1731C31.2401 37.1159 31.2752 37.0641 31.3193 37.0207C31.3634 36.9773 31.4158 36.9431 31.4733 36.9201C31.5308 36.8971 31.5923 36.8858 31.6542 36.8868C31.778 36.8868 31.8967 36.936 31.9842 37.0235C32.0717 37.111 32.1208 37.2297 32.1208 37.3534Z" fill="#068FFF"/>
<path d="M31.5854 38.432C31.5854 38.5009 31.558 38.5671 31.5092 38.6159C31.4604 38.6646 31.3943 38.6921 31.3253 38.6921C31.2563 38.6921 31.1901 38.6646 31.1414 38.6159C31.0926 38.5671 31.0652 38.5009 31.0652 38.432C31.0652 38.363 31.0926 38.2968 31.1414 38.248C31.1901 38.1993 31.2563 38.1719 31.3253 38.1719C31.3943 38.1719 31.4604 38.1993 31.5092 38.248C31.558 38.2968 31.5854 38.363 31.5854 38.432Z" fill="#068FFF"/>
<path d="M38.9138 37.353C38.9138 37.4443 38.8775 37.5319 38.813 37.5964C38.7484 37.661 38.6609 37.6973 38.5696 37.6973C38.5244 37.6973 38.4796 37.6884 38.4378 37.6711C38.3961 37.6538 38.3581 37.6284 38.3262 37.5964C38.2942 37.5645 38.2688 37.5265 38.2515 37.4847C38.2342 37.443 38.2253 37.3982 38.2253 37.353C38.2253 37.3078 38.2342 37.2631 38.2515 37.2213C38.2688 37.1795 38.2942 37.1416 38.3262 37.1096C38.3581 37.0777 38.3961 37.0523 38.4378 37.035C38.4796 37.0177 38.5244 37.0088 38.5696 37.0088C38.6609 37.0088 38.7484 37.0451 38.813 37.1096C38.8775 37.1742 38.9138 37.2617 38.9138 37.353Z" fill="#068FFF"/>
<path d="M41.2239 39.021C41.2239 39.1163 41.1956 39.2095 41.1426 39.2887C41.0897 39.368 41.0144 39.4298 40.9264 39.4662C40.8383 39.5027 40.7414 39.5123 40.6479 39.4937C40.5544 39.4751 40.4686 39.4292 40.4012 39.3618C40.3338 39.2944 40.2879 39.2085 40.2693 39.115C40.2507 39.0215 40.2602 38.9246 40.2967 38.8366C40.3332 38.7485 40.3949 38.6732 40.4742 38.6203C40.5534 38.5673 40.6466 38.5391 40.7419 38.5391C40.8697 38.5391 40.9923 38.5898 41.0827 38.6802C41.1731 38.7706 41.2239 38.8932 41.2239 39.021Z" fill="#068FFF"/>
<path d="M39.6941 38.3324C39.6956 38.4042 39.6756 38.4747 39.6367 38.535C39.5978 38.5953 39.5417 38.6426 39.4757 38.6707C39.4097 38.6989 39.3368 38.7066 39.2664 38.693C39.1959 38.6794 39.1311 38.645 39.0804 38.5942C39.0297 38.5435 38.9953 38.4787 38.9816 38.4083C38.968 38.3378 38.9758 38.2649 39.0039 38.1989C39.0321 38.1329 39.0794 38.0769 39.1396 38.038C39.1999 37.999 39.2705 37.979 39.3422 37.9805C39.4349 37.9825 39.5233 38.0202 39.5889 38.0858C39.6544 38.1514 39.6921 38.2397 39.6941 38.3324Z" fill="#068FFF"/>
<path d="M28.5637 34.2553C28.5652 34.3361 28.5426 34.4155 28.4986 34.4833C28.4546 34.5512 28.3914 34.6043 28.317 34.636C28.2426 34.6676 28.1605 34.6763 28.0811 34.6609C28.0018 34.6455 27.9288 34.6067 27.8717 34.5495C27.8145 34.4924 27.7758 34.4194 27.7604 34.3401C27.745 34.2607 27.7536 34.1786 27.7853 34.1042C27.8169 34.0298 27.87 33.9666 27.9379 33.9226C28.0057 33.8787 28.0851 33.856 28.1659 33.8575C28.2714 33.8575 28.3726 33.8994 28.4472 33.974C28.5218 34.0486 28.5637 34.1498 28.5637 34.2553Z" fill="#068FFF"/>
<path d="M40.4436 37.3301C40.4436 37.38 40.4288 37.4288 40.4011 37.4703C40.3733 37.5118 40.3339 37.5442 40.2878 37.5633C40.2416 37.5824 40.1909 37.5874 40.1419 37.5777C40.0929 37.5679 40.048 37.5439 40.0127 37.5086C39.9774 37.4733 39.9533 37.4283 39.9436 37.3793C39.9338 37.3304 39.9388 37.2796 39.9579 37.2335C39.977 37.1873 40.0094 37.1479 40.0509 37.1202C40.0924 37.0924 40.1412 37.0776 40.1912 37.0776C40.2581 37.0776 40.3223 37.1042 40.3697 37.1516C40.417 37.1989 40.4436 37.2631 40.4436 37.3301Z" fill="#068FFF"/>
<path d="M41.3233 38.3322C41.4796 38.3322 41.6064 38.2055 41.6064 38.0492C41.6064 37.8928 41.4796 37.7661 41.3233 37.7661C41.167 37.7661 41.0403 37.8928 41.0403 38.0492C41.0403 38.2055 41.167 38.3322 41.3233 38.3322Z" fill="#068FFF"/>
<path d="M29.1069 33.6128C29.1069 33.6672 29.0908 33.7205 29.0605 33.7658C29.0303 33.8111 28.9872 33.8464 28.9369 33.8672C28.8866 33.8881 28.8312 33.8935 28.7778 33.8829C28.7244 33.8723 28.6753 33.846 28.6368 33.8075C28.5983 33.769 28.5721 33.7199 28.5614 33.6665C28.5508 33.6131 28.5563 33.5577 28.5771 33.5074C28.598 33.4571 28.6333 33.4141 28.6785 33.3838C28.7238 33.3536 28.7771 33.3374 28.8315 33.3374C28.9046 33.3374 28.9746 33.3664 29.0263 33.4181C29.0779 33.4697 29.1069 33.5397 29.1069 33.6128Z" fill="#068FFF"/>
<path d="M28.6937 33.9798C28.6937 34.2219 28.622 34.4585 28.4875 34.6598C28.353 34.8611 28.1618 35.0179 27.9382 35.1106C27.7145 35.2032 27.4684 35.2275 27.231 35.1802C26.9936 35.133 26.7755 35.0164 26.6043 34.8452C26.4332 34.6741 26.3166 34.456 26.2694 34.2186C26.2221 33.9812 26.2464 33.7351 26.339 33.5114C26.4317 33.2878 26.5885 33.0966 26.7898 32.9621C26.9911 32.8276 27.2277 32.7559 27.4698 32.7559C27.7944 32.7559 28.1057 32.8848 28.3353 33.1143C28.5648 33.3439 28.6937 33.6552 28.6937 33.9798Z" fill="white"/>
<path d="M23.278 39.4646C24.7947 39.4646 26.0242 38.2351 26.0242 36.7184C26.0242 35.2017 24.7947 33.9722 23.278 33.9722C21.7613 33.9722 20.5317 35.2017 20.5317 36.7184C20.5317 38.2351 21.7613 39.4646 23.278 39.4646Z" fill="white"/>
<path d="M21.7557 38.2024C21.7096 38.2007 21.6644 38.1888 21.6234 38.1677C21.5825 38.1465 21.5466 38.1166 21.5185 38.08C21.2221 37.6971 21.0631 37.2255 21.0672 36.7413C21.0682 36.2746 21.2168 35.8202 21.4918 35.4432C21.7668 35.0661 22.1541 34.7858 22.5982 34.6423C23.0423 34.4988 23.5204 34.4995 23.964 34.6443C24.4077 34.7891 24.7941 35.0706 25.068 35.4485C25.0915 35.4805 25.1084 35.5169 25.1177 35.5555C25.1269 35.5941 25.1284 35.6342 25.122 35.6733C25.1156 35.7125 25.1014 35.7501 25.0803 35.7837C25.0592 35.8173 25.0316 35.8464 24.9991 35.8692C24.9332 35.9129 24.8533 35.9301 24.7753 35.9173C24.6973 35.9045 24.6269 35.8628 24.5784 35.8004C24.4309 35.5927 24.236 35.4233 24.0098 35.3062C23.7836 35.1891 23.5327 35.1277 23.278 35.1272C22.8505 35.1292 22.4411 35.2999 22.1389 35.6022C21.8366 35.9045 21.6659 36.3138 21.6639 36.7413C21.6632 37.0962 21.7817 37.441 22.0005 37.7204C22.0244 37.752 22.0418 37.788 22.0516 37.8263C22.0615 37.8646 22.0637 37.9045 22.058 37.9436C22.0523 37.9828 22.0388 38.0204 22.0185 38.0543C21.9981 38.0882 21.9712 38.1178 21.9393 38.1412C21.8861 38.1804 21.8218 38.2018 21.7557 38.2024Z" fill="#068FFF"/>
<path d="M26.0241 38.7302C27.376 38.7302 28.4719 37.6343 28.4719 36.2824C28.4719 34.9304 27.376 33.8345 26.0241 33.8345C24.6721 33.8345 23.5762 34.9304 23.5762 36.2824C23.5762 37.6343 24.6721 38.7302 26.0241 38.7302Z" fill="#068FFF"/>
<path d="M24.6701 37.621C24.6236 37.621 24.5779 37.6099 24.5366 37.5886C24.4954 37.5673 24.4598 37.5364 24.4329 37.4986C24.1619 37.1514 24.0163 36.7227 24.0198 36.2823C24.0277 35.8622 24.1673 35.4552 24.4191 35.1188C24.6708 34.7824 25.0219 34.5337 25.4227 34.4077C25.8235 34.2817 26.2538 34.2848 26.6527 34.4167C27.0516 34.5485 27.399 34.8024 27.6458 35.1425C27.6689 35.1746 27.6854 35.211 27.6945 35.2495C27.7035 35.2881 27.7049 35.328 27.6985 35.3671C27.6921 35.4062 27.6781 35.4436 27.6572 35.4772C27.6364 35.5109 27.6091 35.5401 27.5769 35.5632C27.5448 35.5863 27.5084 35.6028 27.4699 35.6119C27.4313 35.6209 27.3914 35.6223 27.3523 35.6159C27.3132 35.6095 27.2758 35.5955 27.2422 35.5746C27.2085 35.5538 27.1793 35.5265 27.1562 35.4944C26.9837 35.2524 26.7386 35.0716 26.4565 34.9782C26.1744 34.8847 25.8698 34.8835 25.587 34.9747C25.3041 35.0658 25.0576 35.2447 24.8831 35.4852C24.7087 35.7258 24.6153 36.0157 24.6165 36.3129C24.6147 36.6206 24.7171 36.9199 24.9072 37.162C24.9544 37.2255 24.9751 37.3047 24.9651 37.3831C24.9552 37.4616 24.9152 37.5331 24.8537 37.5827C24.7984 37.6154 24.7338 37.6288 24.6701 37.621Z" fill="white"/>
<path d="M25.7565 33.9645C25.7549 34.2062 25.6819 34.4421 25.5465 34.6424C25.4111 34.8426 25.2194 34.9983 24.9956 35.0898C24.7718 35.1813 24.526 35.2044 24.2891 35.1563C24.0522 35.1083 23.8348 34.9911 23.6644 34.8196C23.494 34.6481 23.3782 34.43 23.3316 34.1928C23.2849 33.9556 23.3096 33.7099 23.4025 33.4867C23.4953 33.2635 23.6522 33.0728 23.8533 32.9386C24.0544 32.8045 24.2908 32.7329 24.5325 32.7329C24.6939 32.7329 24.8537 32.7648 25.0027 32.8268C25.1517 32.8888 25.2869 32.9796 25.4007 33.0941C25.5144 33.2086 25.6044 33.3444 25.6655 33.4938C25.7266 33.6431 25.7575 33.8031 25.7565 33.9645Z" fill="white"/>
<path d="M26.0012 30.3387C26.0028 30.5826 25.9318 30.8215 25.7974 31.025C25.663 31.2286 25.4712 31.3876 25.2463 31.482C25.0214 31.5764 24.7735 31.6019 24.5341 31.5552C24.2947 31.5086 24.0745 31.3919 23.9015 31.2199C23.7285 31.048 23.6105 30.8286 23.5623 30.5895C23.5142 30.3504 23.5381 30.1023 23.6311 29.8768C23.7241 29.6513 23.8819 29.4585 24.0846 29.3229C24.2873 29.1872 24.5257 29.1148 24.7697 29.1148C24.931 29.1138 25.091 29.1447 25.2404 29.2057C25.3898 29.2668 25.5256 29.3568 25.6401 29.4705C25.7545 29.5843 25.8454 29.7196 25.9074 29.8686C25.9693 30.0175 26.0013 30.1773 26.0012 30.3387Z" fill="white"/>
<path d="M24.0964 31.0803C24.0616 31.0801 24.0272 31.0726 23.9956 31.0581C23.9639 31.0435 23.9357 31.0224 23.9128 30.9961C23.8285 30.8821 23.7674 30.7526 23.733 30.615C23.6987 30.4774 23.6918 30.3343 23.7128 30.194C23.7337 30.0537 23.7821 29.9189 23.8552 29.7973C23.9282 29.6757 24.0245 29.5697 24.1385 29.4854C24.2525 29.401 24.382 29.3399 24.5197 29.3055C24.6573 29.2712 24.8004 29.2643 24.9406 29.2853C25.0809 29.3062 25.2157 29.3546 25.3373 29.4277C25.4589 29.5007 25.5649 29.597 25.6493 29.711C25.6664 29.7351 25.6786 29.7624 25.6851 29.7912C25.6917 29.82 25.6925 29.8498 25.6875 29.8789C25.6825 29.9081 25.6719 29.9359 25.6561 29.9609C25.6404 29.9859 25.6199 30.0076 25.5958 30.0246C25.5717 30.0417 25.5444 30.0539 25.5156 30.0604C25.4868 30.067 25.457 30.0678 25.4279 30.0628C25.3987 30.0579 25.3709 30.0472 25.3459 30.0315C25.3209 30.0157 25.2992 29.9952 25.2821 29.9711C25.2051 29.8619 25.0951 29.7801 24.9683 29.7377C24.8415 29.6954 24.7045 29.6947 24.5772 29.7357C24.45 29.7767 24.3392 29.8572 24.2609 29.9656C24.1827 30.074 24.1411 30.2046 24.1423 30.3383C24.1434 30.4764 24.189 30.6106 24.2724 30.7208C24.2907 30.7438 24.3042 30.7702 24.3122 30.7985C24.3201 30.8268 24.3224 30.8564 24.3189 30.8856C24.3153 30.9148 24.306 30.943 24.2914 30.9685C24.2769 30.9941 24.2574 31.0165 24.2341 31.0344C24.1944 31.0642 24.1461 31.0803 24.0964 31.0803Z" fill="#068FFF"/>
<path d="M32.4422 31.0807C32.4422 31.3833 32.3525 31.6791 32.1843 31.9307C32.0162 32.1823 31.7773 32.3784 31.4977 32.4942C31.2182 32.61 30.9106 32.6403 30.6138 32.5812C30.317 32.5222 30.0444 32.3765 29.8304 32.1625C29.6165 31.9486 29.4708 31.676 29.4117 31.3792C29.3527 31.0824 29.383 30.7748 29.4988 30.4952C29.6146 30.2157 29.8107 29.9767 30.0623 29.8086C30.3139 29.6405 30.6097 29.5508 30.9123 29.5508C31.318 29.5508 31.7072 29.712 31.9941 29.9989C32.281 30.2858 32.4422 30.6749 32.4422 31.0807Z" fill="#068FFF"/>
<path d="M32.2968 34.722C33.4586 34.722 34.4004 33.7801 34.4004 32.6183C34.4004 31.4565 33.4586 30.5146 32.2968 30.5146C31.135 30.5146 30.1931 31.4565 30.1931 32.6183C30.1931 33.7801 31.135 34.722 32.2968 34.722Z" fill="white"/>
<path d="M31.1111 33.8115C31.065 33.8098 31.0199 33.7979 30.9789 33.7768C30.9379 33.7556 30.9021 33.7257 30.874 33.6891C30.6381 33.3822 30.5116 33.0052 30.5145 32.6181C30.5144 32.1508 30.6996 31.7025 31.0293 31.3713C31.359 31.0401 31.8065 30.8531 32.2739 30.8511C32.557 30.8557 32.835 30.9275 33.085 31.0605C33.335 31.1935 33.5499 31.3839 33.712 31.616C33.7557 31.6819 33.7728 31.7619 33.7601 31.8399C33.7473 31.9179 33.7055 31.9882 33.6432 32.0368C33.6112 32.0603 33.5748 32.0772 33.5362 32.0864C33.4976 32.0957 33.4575 32.0972 33.4183 32.0908C33.3791 32.0844 33.3416 32.0702 33.308 32.0491C33.2743 32.028 33.2453 32.0004 33.2224 31.9679C33.1128 31.8192 32.9699 31.6982 32.8052 31.6146C32.6405 31.5309 32.4586 31.4869 32.2739 31.486C31.9707 31.4859 31.6795 31.6042 31.4623 31.8157C31.2451 32.0271 31.1191 32.3151 31.1111 32.6181C31.1091 32.8739 31.1956 33.1226 31.3559 33.3219C31.3798 33.3534 31.3972 33.3894 31.4071 33.4277C31.4169 33.466 31.4191 33.5059 31.4134 33.5451C31.4077 33.5842 31.3943 33.6219 31.3739 33.6558C31.3535 33.6897 31.3266 33.7192 31.2947 33.7426C31.244 33.7873 31.1787 33.8118 31.1111 33.8115Z" fill="#068FFF"/>
<path d="M34.0027 35.0353C34.0027 35.3379 33.913 35.6337 33.7449 35.8853C33.5768 36.1369 33.3378 36.333 33.0583 36.4488C32.7787 36.5646 32.4711 36.5949 32.1743 36.5358C31.8775 36.4768 31.6049 36.3311 31.391 36.1171C31.177 35.9032 31.0313 35.6306 30.9723 35.3338C30.9132 35.037 30.9435 34.7294 31.0593 34.4498C31.1751 34.1703 31.3712 33.9313 31.6228 33.7632C31.8744 33.5951 32.1702 33.5054 32.4728 33.5054C32.8786 33.5054 33.2677 33.6666 33.5546 33.9535C33.8415 34.2404 34.0027 34.6295 34.0027 35.0353Z" fill="#068FFF"/>
<path d="M61.1589 14.3355L57.7931 23.102L38.7607 15.7125L42.1954 6.79297C49.1337 7.33248 55.7455 9.96225 61.1589 14.3355Z" fill="white"/>
</g>
<defs>
<clipPath id="clip0_382_1435">
<rect width="80" height="80" fill="white"/>
</clipPath>
</defs>
</svg>
