<svg width="80" height="80" viewBox="0 0 80 80" fill="none" xmlns="http://www.w3.org/2000/svg">
<g clip-path="url(#clip0_382_1384)">
<path d="M40.2068 80.0076H39.5149C35.0269 80.0086 30.5826 79.2178 26.4359 77.6803C22.2893 76.1428 18.5216 73.8888 15.3481 71.0471C12.1745 68.2053 9.65735 64.8316 7.94036 61.1185C6.22337 57.4054 5.3402 53.4257 5.34131 49.4069V4.54857C5.34131 3.34623 5.8747 2.19313 6.82415 1.34295C7.7736 0.492766 9.06134 0.0151367 10.4041 0.0151367H69.3008C70.6435 0.0151367 71.9313 0.492766 72.8807 1.34295C73.8302 2.19313 74.3636 3.34623 74.3636 4.54857V49.4069C74.3647 53.4244 73.4821 57.4029 71.7661 61.115C70.0502 64.8271 67.5345 68.2002 64.3628 71.0417C61.191 73.8833 57.4253 76.1376 53.2806 77.6759C49.1359 79.2143 44.6935 80.0066 40.2068 80.0076Z" fill="#068FFF"/>
<path d="M39.5148 78.1262C31.0143 78.1162 22.8651 75.088 16.8544 69.7056C10.8436 64.3233 7.46185 57.0262 7.45068 49.4144V4.54852C7.45291 3.84175 7.76743 3.16451 8.32554 2.66475C8.88366 2.16499 9.63999 1.88334 10.4293 1.88135H69.3007C70.09 1.88334 70.8463 2.16499 71.4044 2.66475C71.9625 3.16451 72.2771 3.84175 72.2793 4.54852V49.4069C72.2681 57.0186 68.8864 64.3158 62.8756 69.6981C56.8648 75.0804 48.7157 78.1086 40.2152 78.1186L39.5148 78.1262Z" fill="white"/>
<path d="M39.5147 76.6151C31.4618 76.6051 23.7419 73.7361 18.0476 68.6372C12.3533 63.5382 9.14934 56.6255 9.13818 49.4145V4.5486C9.1404 4.24262 9.27712 3.94973 9.51875 3.73336C9.76038 3.51699 10.0875 3.39456 10.4292 3.39258H69.3006C69.4702 3.39258 69.638 3.42248 69.7947 3.48058C69.9513 3.53867 70.0936 3.62382 70.2135 3.73117C70.3334 3.83852 70.4285 3.96596 70.4934 4.10621C70.5582 4.24647 70.5916 4.39679 70.5916 4.5486V49.4069C70.5805 56.6179 67.3765 63.5307 61.6822 68.6296C55.9879 73.7286 48.268 76.5975 40.2151 76.6075L39.5147 76.6151Z" fill="#068FFF"/>
<path d="M49.8936 55.8291H47.1597V65.2586H49.8936C50.3076 65.2586 50.7046 65.1114 50.9974 64.8492C51.2901 64.5871 51.4546 64.2316 51.4546 63.8608V57.2269C51.4546 56.8562 51.2901 56.5007 50.9974 56.2385C50.7046 55.9764 50.3076 55.8291 49.8936 55.8291Z" fill="white"/>
<path d="M29.8281 55.8291H32.562V65.2586H29.8281C29.4141 65.2586 29.0171 65.1114 28.7243 64.8492C28.4316 64.5871 28.2671 64.2316 28.2671 63.8608V57.2269C28.2671 56.8562 28.4316 56.5007 28.7243 56.2385C29.0171 55.9764 29.4141 55.8291 29.8281 55.8291Z" fill="white"/>
<path d="M50.0538 52.8071V62.0855C50.0538 62.9272 49.6804 63.7343 49.0158 64.3295C48.3511 64.9246 47.4497 65.2589 46.5098 65.2589H33.2117C32.2717 65.2589 31.3703 64.9246 30.7057 64.3295C30.0411 63.7343 29.6677 62.9272 29.6677 62.0855V52.8071C29.6677 50.4024 30.7345 48.0962 32.6334 46.3959C34.5323 44.6955 37.1078 43.7402 39.7932 43.7402H39.9957C42.6695 43.7562 45.2276 44.7185 47.112 46.4171C48.9963 48.1158 50.0538 50.4129 50.0538 52.8071Z" fill="white"/>
<path d="M39.8607 48.3115C40.9512 48.3115 41.8352 47.5199 41.8352 46.5434C41.8352 45.567 40.9512 44.7754 39.8607 44.7754C38.7702 44.7754 37.8862 45.567 37.8862 46.5434C37.8862 47.5199 38.7702 48.3115 39.8607 48.3115Z" fill="#068FFF"/>
<path d="M49.5559 58.9421V61.7301C49.5559 62.5317 49.2003 63.3004 48.5674 63.8672C47.9344 64.434 47.0759 64.7524 46.1807 64.7524H33.5239C32.6287 64.7524 31.7702 64.434 31.1372 63.8672C30.5043 63.3004 30.1487 62.5317 30.1487 61.7301V58.9421C31.2135 57.5114 32.6564 56.3383 34.3491 55.5269C36.0419 54.7155 37.9323 54.291 39.8523 54.291C41.7723 54.291 43.6627 54.7155 45.3555 55.5269C47.0482 56.3383 48.4911 57.5114 49.5559 58.9421Z" fill="#068FFF"/>
<path d="M42.4258 54.318C42.4258 54.7663 42.2773 55.2045 41.9992 55.5773C41.721 55.9501 41.3257 56.2406 40.8631 56.4122C40.4006 56.5837 39.8916 56.6286 39.4006 56.5411C38.9095 56.4537 38.4585 56.2378 38.1045 55.9208C37.7504 55.6038 37.5094 55.1999 37.4117 54.7602C37.314 54.3205 37.3641 53.8647 37.5557 53.4506C37.7473 53.0364 38.0718 52.6824 38.488 52.4333C38.9043 52.1842 39.3938 52.0513 39.8944 52.0513C40.5658 52.0513 41.2096 52.2901 41.6844 52.7152C42.1591 53.1403 42.4258 53.7168 42.4258 54.318Z" fill="white"/>
<path d="M42.0716 54.318C42.0716 54.7095 41.942 55.0922 41.699 55.4178C41.4561 55.7433 41.1109 55.9971 40.7069 56.1469C40.3029 56.2967 39.8584 56.3359 39.4296 56.2595C39.0008 56.1832 38.6068 55.9946 38.2977 55.7178C37.9885 55.4409 37.7779 55.0882 37.6926 54.7042C37.6073 54.3202 37.6511 53.9221 37.8184 53.5604C37.9858 53.1987 38.2691 52.8895 38.6327 52.672C38.9962 52.4545 39.4237 52.3384 39.8609 52.3384C40.4472 52.3384 41.0095 52.5469 41.4241 52.9182C41.8387 53.2894 42.0716 53.793 42.0716 54.318Z" fill="#068FFF"/>
<path d="M38.5952 55.2474C38.5327 55.2462 38.4716 55.2301 38.4183 55.2009C38.3649 55.1717 38.3212 55.1304 38.2914 55.0812C38.1498 54.8494 38.0744 54.5898 38.072 54.3256C38.0742 54.0157 38.1748 53.7127 38.3622 53.4521C38.5496 53.1915 38.816 52.9841 39.1302 52.8541C39.4444 52.7241 39.7935 52.6769 40.1366 52.7181C40.4797 52.7592 40.8026 52.887 41.0675 53.0865C41.0996 53.1152 41.1251 53.1494 41.1425 53.187C41.1599 53.2246 41.1689 53.2649 41.1689 53.3056C41.1689 53.3463 41.1599 53.3866 41.1425 53.4242C41.1251 53.4618 41.0996 53.4959 41.0675 53.5247C41.0361 53.5533 40.9987 53.5759 40.9574 53.5914C40.9161 53.6069 40.8718 53.6149 40.827 53.6149C40.7822 53.6149 40.7379 53.6069 40.6967 53.5914C40.6554 53.5759 40.6179 53.5533 40.5865 53.5247C40.3806 53.3702 40.1211 53.2847 39.8524 53.2829C39.5555 53.2928 39.2748 53.4069 39.0711 53.6006C38.8674 53.7943 38.7571 54.052 38.7639 54.318C38.7625 54.4869 38.809 54.6533 38.8989 54.8016C38.9264 54.8486 38.9399 54.9012 38.9382 54.9542C38.9365 55.0073 38.9195 55.0591 38.889 55.1046C38.8585 55.1501 38.8155 55.1878 38.7641 55.2141C38.7126 55.2405 38.6544 55.2545 38.5952 55.255V55.2474Z" fill="white"/>
<path d="M42.9153 59.7886H36.7978C36.369 59.7886 36.0215 60.0998 36.0215 60.4837V60.4988C36.0215 60.8827 36.369 61.1939 36.7978 61.1939H42.9153C43.344 61.1939 43.6916 60.8827 43.6916 60.4988V60.4837C43.6916 60.0998 43.344 59.7886 42.9153 59.7886Z" fill="white"/>
<path d="M65.1493 3.12793H48.8726V28.5378H65.1493V3.12793Z" fill="white"/>
<path d="M39.6836 74.9378C32.2257 74.8447 25.0885 72.2072 19.7279 67.5634C17.7541 65.894 16.1764 63.8854 15.089 61.6577C14.0017 59.43 13.4271 57.0289 13.3994 54.5978C13.3994 43.914 21.1201 38.3228 28.7396 38.3228C36.6375 38.3228 40.9999 43.1886 40.9999 46.5434C40.9999 46.8219 40.8763 47.0891 40.6563 47.286C40.4364 47.483 40.1381 47.5936 39.827 47.5936C39.5159 47.5936 39.2176 47.483 38.9977 47.286C38.7777 47.0891 38.6541 46.8219 38.6541 46.5434C38.6541 44.3522 35.338 40.4308 28.7396 40.4308C22.2845 40.4308 15.7536 45.2967 15.7536 54.5978C15.7809 56.7515 16.2934 58.8782 17.2605 60.8503C18.2276 62.8225 19.6293 64.5995 21.3817 66.0749C26.3271 70.3735 32.9269 72.8077 39.8186 72.8751C45.6576 72.8751 50.8385 71.2808 53.6905 68.6892C54.3367 68.1531 54.8563 67.5065 55.2186 66.7876C55.581 66.0686 55.7787 65.2919 55.8 64.5033C55.7989 64.3654 55.8281 64.2286 55.886 64.1008C55.944 63.973 56.0294 63.8567 56.1376 63.7585C56.2457 63.6602 56.3744 63.5821 56.5162 63.5284C56.6581 63.4747 56.8104 63.4465 56.9644 63.4455C57.1181 63.4445 57.2704 63.4708 57.4126 63.5227C57.5549 63.5747 57.6843 63.6513 57.7933 63.7482C57.9023 63.8452 57.9888 63.9604 58.0479 64.0874C58.1069 64.2144 58.1373 64.3507 58.1373 64.4882C58.1209 65.5539 57.8661 66.6058 57.3878 67.5817C56.9095 68.5577 56.2175 69.4378 55.3528 70.1701C52.0704 73.1395 46.2651 74.9378 39.827 74.9756L39.6836 74.9378Z" fill="white"/>
<path d="M61.7319 33.6001H52.2899C51.4136 33.5948 50.561 33.3454 49.8503 32.8864C49.1396 32.4274 48.6062 31.7816 48.324 31.0387L47.6321 29.1725C47.5733 29.0135 47.5576 28.8443 47.5861 28.6787C47.6146 28.5132 47.6866 28.3561 47.7962 28.2204C47.9058 28.0846 48.0498 27.9741 48.2163 27.8979C48.3829 27.8218 48.5673 27.7821 48.7544 27.7822H65.2674C65.4544 27.7821 65.6388 27.8218 65.8054 27.8979C65.972 27.9741 66.116 28.0846 66.2256 28.2204C66.3352 28.3561 66.4072 28.5132 66.4357 28.6787C66.4642 28.8443 66.4484 29.0135 66.3896 29.1725L65.6977 31.0387C65.4156 31.7816 64.8822 32.4274 64.1715 32.8864C63.4608 33.3454 62.6081 33.5948 61.7319 33.6001Z" fill="#068FFF"/>
<path d="M61.7319 34.356H52.2899C51.4136 34.3507 50.561 34.1012 49.8503 33.6422C49.1396 33.1832 48.6062 32.5375 48.324 31.7946L47.6321 29.9283C47.5733 29.7693 47.5576 29.6001 47.5861 29.4346C47.6146 29.2691 47.6866 29.112 47.7962 28.9762C47.9058 28.8405 48.0498 28.73 48.2163 28.6538C48.3829 28.5776 48.5673 28.538 48.7544 28.5381H65.2674C65.4544 28.538 65.6388 28.5776 65.8054 28.6538C65.972 28.73 66.116 28.8405 66.2256 28.9762C66.3352 29.112 66.4072 29.2691 66.4357 29.4346C66.4642 29.6001 66.4484 29.7693 66.3896 29.9283L65.6977 31.7946C65.4156 32.5375 64.8822 33.1832 64.1715 33.6422C63.4608 34.1012 62.6081 34.3507 61.7319 34.356Z" fill="white"/>
<path d="M59.2173 32.4517H54.8127C54.4434 32.4517 54.0893 32.583 53.8282 32.8168C53.5671 33.0506 53.4204 33.3677 53.4204 33.6984V34.4539C53.4204 34.6002 53.4853 34.7405 53.6008 34.8439C53.7163 34.9474 53.873 35.0055 54.0364 35.0055H59.9851C60.1485 35.0055 60.3052 34.9474 60.4207 34.8439C60.5362 34.7405 60.6011 34.6002 60.6011 34.4539V33.6984C60.6022 33.535 60.5672 33.3731 60.4982 33.2218C60.4291 33.0706 60.3274 32.9331 60.1988 32.8173C60.0702 32.7014 59.9172 32.6095 59.7488 32.5467C59.5803 32.484 59.3997 32.4517 59.2173 32.4517Z" fill="#068FFF"/>
<path d="M58.4579 60.4457V34.6731C58.4579 34.3325 58.3068 34.0058 58.0377 33.7649C57.7687 33.524 57.4039 33.3887 57.0234 33.3887C56.8355 33.3887 56.6493 33.4219 56.4758 33.4866C56.3022 33.5512 56.1446 33.646 56.0121 33.7653C55.8796 33.8847 55.7747 34.0264 55.7036 34.1822C55.6324 34.338 55.5963 34.5048 55.5974 34.6731V60.4306L58.4579 60.4457Z" fill="white"/>
<path d="M58.9051 55.9502H55.1165V64.2615C55.1165 64.538 55.2391 64.8032 55.4575 64.9988C55.6759 65.1943 55.9721 65.3042 56.2809 65.3042H57.7407C58.0495 65.3042 58.3457 65.1943 58.564 64.9988C58.7824 64.8032 58.9051 64.538 58.9051 64.2615V55.9502Z" fill="white"/>
<path d="M57.7407 65.6516H56.2809C55.8602 65.6516 55.4567 65.5019 55.1592 65.2356C54.8617 64.9692 54.6946 64.6079 54.6946 64.2311V55.5723H59.327V64.2387C59.3248 64.6141 59.1567 64.9735 58.8594 65.2382C58.5622 65.503 58.1599 65.6516 57.7407 65.6516ZM55.5384 56.3203V64.2311C55.5384 64.4075 55.6166 64.5766 55.7559 64.7013C55.8951 64.826 56.084 64.896 56.2809 64.896H57.7407C57.8385 64.897 57.9356 64.8805 58.0262 64.8475C58.1168 64.8144 58.1991 64.7655 58.2682 64.7035C58.3374 64.6416 58.3921 64.5679 58.429 64.4868C58.4659 64.4056 58.4843 64.3187 58.4832 64.2311V56.3278L55.5384 56.3203Z" fill="#068FFF"/>
<path d="M57.0235 60.6118H57.0066C56.5173 60.6118 56.1206 60.967 56.1206 61.4052V62.5461C56.1206 62.9842 56.5173 63.3394 57.0066 63.3394H57.0235C57.5128 63.3394 57.9094 62.9842 57.9094 62.5461V61.4052C57.9094 60.967 57.5128 60.6118 57.0235 60.6118Z" fill="#068FFF"/>
<path d="M8.12572 14.137C8.12572 17.4388 6.68283 20.106 4.90243 20.106C3.12202 20.106 1.71289 17.4388 1.71289 14.137C1.71289 10.8351 3.15577 8.16797 4.92774 8.16797C6.6997 8.16797 8.12572 10.8427 8.12572 14.137Z" fill="#068FFF"/>
<path d="M75.0976 8.16016H4.91089V20.1058H75.0976V8.16016Z" fill="#068FFF"/>
<path d="M75.0976 20.106C76.8777 20.106 78.3208 17.4336 78.3208 14.137C78.3208 10.8404 76.8777 8.16797 75.0976 8.16797C73.3174 8.16797 71.8743 10.8404 71.8743 14.137C71.8743 17.4336 73.3174 20.106 75.0976 20.106Z" fill="#068FFF"/>
<path d="M75.1229 8.16788C76.8948 8.16788 78.3377 10.8426 78.3377 14.1369C78.3377 17.4312 76.8948 20.1059 75.1229 20.1059H4.90243C3.13047 20.1059 1.68759 17.4388 1.68759 14.1369C1.68759 10.8351 3.13047 8.16788 4.90243 8.16788H75.1229ZM75.1229 6.65674H4.90243C2.05885 6.65674 0 9.79992 0 14.1369C0 18.4739 2.05885 21.6171 4.90243 21.6171H75.1229C77.9665 21.6171 80.0253 18.4739 80.0253 14.1369C80.0253 9.79992 77.9665 6.65674 75.1229 6.65674Z" fill="white"/>
<path d="M6.55636 12.1872C6.53063 11.7028 6.59333 11.2179 6.74199 10.7516C6.82165 10.5048 6.9534 10.274 7.13013 10.0716C7.30554 9.91006 7.51752 9.78401 7.75184 9.70191C7.98615 9.61981 8.23738 9.58355 8.48864 9.59558C8.84274 9.56772 9.19661 9.65133 9.48926 9.83201C9.78192 10.0127 9.99501 10.2791 10.0918 10.5854C10.2531 11.0755 10.3244 11.5859 10.3028 12.0965V13.0485H9.18899V12.0739C9.20769 11.6988 9.17368 11.3231 9.08774 10.9556C9.05532 10.8067 8.96937 10.6714 8.84303 10.5703C8.72962 10.5074 8.59579 10.4808 8.46333 10.4947C8.32616 10.4874 8.1902 10.5213 8.07706 10.5911C7.96391 10.661 7.88008 10.7627 7.83891 10.8801C7.69862 11.2701 7.63859 11.6797 7.66173 12.089V15.7837C7.63432 16.2443 7.68843 16.7059 7.82205 17.1513C7.85826 17.2669 7.93728 17.368 8.04615 17.438C8.15503 17.508 8.28726 17.5428 8.42113 17.5366C8.55426 17.5439 8.68604 17.5094 8.79383 17.4391C8.90163 17.3687 8.97869 17.267 9.01179 17.1513C9.13696 16.702 9.18814 16.2387 9.16368 15.7762V14.8393H10.2859V15.7837C10.3371 16.4692 10.1949 17.1551 9.87246 17.7784C9.72372 17.9939 9.51041 18.1676 9.2568 18.2798C9.0032 18.392 8.7195 18.4382 8.43801 18.4131C8.14926 18.4364 7.85895 18.3873 7.59963 18.2712C7.34031 18.1551 7.12222 17.9766 6.96981 17.7558C6.63243 17.1417 6.48113 16.4591 6.53105 15.7762L6.55636 12.1872Z" fill="white"/>
<path d="M12.6822 9.73926H14.0407L15.627 18.3528H14.5638L14.2938 16.7056H12.5472L12.294 18.3528H11.2224L12.6822 9.73926ZM12.6822 15.8821H14.1588L13.3994 11.3486L12.6822 15.8821Z" fill="white"/>
<path d="M16.7576 9.73908H18.7743C19.215 9.70123 19.6553 9.81465 20.0062 10.0564C20.2988 10.3555 20.4606 10.7393 20.4619 11.1369C20.4619 11.3485 20.4619 11.6733 20.4619 12.1116C20.4722 12.4917 20.4065 12.8704 20.2678 13.2298C20.2139 13.3685 20.1237 13.4937 20.0049 13.5949C19.886 13.6961 19.7418 13.7704 19.5843 13.8116C19.6982 13.8282 19.8066 13.8674 19.9014 13.9262C19.9963 13.985 20.0754 14.062 20.1328 14.1516C20.2832 14.4363 20.3719 14.744 20.3944 15.0583C20.445 15.4714 20.4703 16.0909 20.4703 16.917C20.4417 17.3969 20.47 17.8781 20.5547 18.3526H19.4325C19.3305 17.3883 19.2995 16.4191 19.3396 15.4512C19.3396 14.8316 19.2721 14.4765 19.1371 14.3783C18.9615 14.2642 18.7458 14.2105 18.5296 14.2272H17.8546V18.3904H16.7239L16.7576 9.73908ZM19.3734 11.8471C19.3734 11.1822 19.3059 10.8044 19.1793 10.6987C19.0195 10.5646 18.8077 10.4914 18.5887 10.4947H17.8799V13.4036H18.5887C18.7588 13.4165 18.9286 13.3764 19.0696 13.2903C19.1924 13.1715 19.2693 13.0205 19.289 12.8596C19.3378 12.529 19.3575 12.1956 19.3481 11.8622L19.3734 11.8471Z" fill="white"/>
<path d="M21.9639 9.73938H23.9046C24.2545 9.70193 24.6079 9.77713 24.9016 9.95153C25.1953 10.1259 25.4102 10.3882 25.5078 10.6914C25.6544 11.1429 25.7255 11.6115 25.7187 12.0817C25.7249 12.4826 25.708 12.8836 25.6681 13.283C25.6455 13.7492 25.4628 14.1978 25.145 14.5675C24.9817 14.7092 24.7867 14.8181 24.5729 14.8872C24.359 14.9562 24.1312 14.9838 23.9046 14.9679H23.0608V18.3529H21.9639V9.73938ZM24.5796 12.1723C24.6023 11.7472 24.551 11.3215 24.4277 10.9105C24.3852 10.7966 24.3016 10.6984 24.1902 10.6314C24.0788 10.5645 23.9457 10.5324 23.8118 10.5403H23.0945V14.1293H23.7865C23.9251 14.1392 24.0634 14.1075 24.1796 14.039C24.2958 13.9706 24.3831 13.8694 24.4277 13.7515C24.5555 13.2897 24.6066 12.8136 24.5796 12.3385V12.1723Z" fill="white"/>
<path d="M26.8325 9.73926H29.7014V10.5779H27.9632V13.5171H29.6086V14.3634H27.9632V17.499H29.7267V18.3452H26.8325V9.73926Z" fill="white"/>
<path d="M30.4019 9.73926H33.5745V10.5779H32.5957V18.315H31.465V10.5402H30.4019V9.73926Z" fill="white"/>
<path d="M37.1521 12.1872C37.1264 11.7028 37.1891 11.2179 37.3378 10.7516C37.4174 10.5048 37.5492 10.274 37.7259 10.0716C37.9013 9.91006 38.1133 9.78401 38.3476 9.70191C38.582 9.61981 38.8332 9.58355 39.0844 9.59558C39.4385 9.56772 39.7924 9.65133 40.0851 9.83201C40.3777 10.0127 40.5908 10.2791 40.6876 10.5854C40.8489 11.0755 40.9202 11.5859 40.8986 12.0965V13.0485H39.7848V12.0739C39.8035 11.6988 39.7695 11.3231 39.6835 10.9556C39.6511 10.8067 39.5652 10.6714 39.4388 10.5703C39.3355 10.5043 39.2113 10.4699 39.0844 10.472C38.9473 10.4647 38.8113 10.4987 38.6982 10.5685C38.585 10.6383 38.5012 10.74 38.46 10.8574C38.3197 11.2474 38.2597 11.6571 38.2828 12.0663V15.7837C38.2554 16.2443 38.3095 16.7059 38.4431 17.1513C38.4794 17.2669 38.5584 17.368 38.6673 17.438C38.7761 17.508 38.9084 17.5428 39.0422 17.5366C39.1754 17.5439 39.3071 17.5094 39.4149 17.4391C39.5227 17.3687 39.5998 17.267 39.6329 17.1513C39.7581 16.702 39.8092 16.2387 39.7848 15.7762V14.8393H40.907V15.7837C40.9582 16.4692 40.816 17.1551 40.4936 17.7784C40.3435 17.9945 40.1287 18.1685 39.8736 18.2807C39.6185 18.3929 39.3334 18.4388 39.0507 18.4131C38.7633 18.435 38.4748 18.3852 38.2171 18.2691C37.9594 18.1531 37.7427 17.9754 37.5909 17.7558C37.255 17.144 37.1037 16.4641 37.1521 15.7837V12.1872Z" fill="white"/>
<path d="M42.291 9.73926H43.4217V17.4763H45.1937V18.315H42.291V9.73926Z" fill="white"/>
<path d="M46.1807 9.73926H49.0496V10.5779H47.2776V13.5171H48.9652V14.3634H47.2776V17.499H49.0411V18.3452H46.1807V9.73926Z" fill="white"/>
<path d="M51.4207 9.73926H52.7876L54.374 18.3528H53.3108L53.0324 16.7056H51.2941L51.041 18.3528H49.9609L51.4207 9.73926ZM51.4207 15.8821H52.8889L52.1295 11.3486L51.4207 15.8821Z" fill="white"/>
<path d="M58.4918 9.73926H59.4875V18.3528H58.6437L56.4836 12.4367L56.5595 14.5749V18.3528H55.5132V9.73926H56.357L58.5846 15.6025L58.4749 13.1091L58.4918 9.73926Z" fill="white"/>
<path d="M61.1497 9.73926H62.2803V18.3528H61.1497V9.73926Z" fill="white"/>
<path d="M66.9044 9.73926H67.9086V18.3528H67.0648L64.9047 12.4367L64.9975 14.5749V18.3528H63.9512V9.73926H64.795L67.0226 15.6025L66.9044 13.1091V9.73926Z" fill="white"/>
<path d="M69.3767 12.142C69.3767 10.8727 69.7058 10.0869 70.3808 9.7771C70.6448 9.66431 70.9323 9.60253 71.2246 9.59576C71.6823 9.5591 72.1382 9.68077 72.4988 9.93577C72.7708 10.173 72.9486 10.4835 73.005 10.8198C73.089 11.2615 73.1285 11.7091 73.1232 12.1572V12.8221H72.0262V11.7038C72.0478 11.383 71.9961 11.0617 71.8743 10.7593C71.8202 10.6634 71.7346 10.5845 71.6291 10.5332C71.5235 10.4819 71.4031 10.4607 71.2837 10.4722C71.1516 10.4675 71.0211 10.4999 70.9107 10.565C70.8002 10.63 70.7152 10.7244 70.6677 10.8349C70.5217 11.242 70.4617 11.6699 70.4905 12.0967V15.7159C70.4657 16.1984 70.5168 16.6817 70.6424 17.1515C70.6805 17.2717 70.7629 17.3768 70.8764 17.4495C70.9898 17.5223 71.1275 17.5584 71.2668 17.5519C71.4105 17.5583 71.5524 17.5206 71.669 17.445C71.7856 17.3695 71.8699 17.2606 71.9081 17.1364C72.0534 16.667 72.1132 16.1797 72.0853 15.6932V14.575H71.3006V13.8194H73.1232V18.3528H72.5241L72.3722 17.6879C72.29 17.9187 72.1243 18.1183 71.9011 18.2552C71.678 18.392 71.4102 18.4583 71.1402 18.4435C70.872 18.4577 70.6046 18.4061 70.3667 18.2943C70.1287 18.1824 69.9294 18.0146 69.7902 17.8088C69.4544 17.181 69.3062 16.4859 69.3599 15.7915L69.3767 12.142Z" fill="white"/>
<path d="M12.5051 24.6617C12.5115 24.5711 12.5115 24.4802 12.5051 24.3897C12.5051 24.3065 12.6148 24.2537 12.7498 24.2537C13.0535 24.2537 13.2729 24.4199 13.2729 24.6163V27.7368C13.2729 28.5378 13.5682 28.8551 14.1167 28.8551C14.2404 28.8552 14.3628 28.8329 14.4766 28.7896C14.5905 28.7464 14.6934 28.683 14.7793 28.6033C14.8652 28.5236 14.9322 28.4292 14.9764 28.3258C15.0205 28.2223 15.041 28.112 15.0364 28.0013C15.0364 27.2457 14.3867 27.0191 13.7961 27.0191C13.6273 27.0191 13.467 26.3919 13.7961 26.3919C14.0095 26.3909 14.2202 26.3498 14.4148 26.2713C14.6093 26.1929 14.7834 26.0788 14.9257 25.9364C15.068 25.794 15.1754 25.6265 15.241 25.4447C15.3066 25.2629 15.3289 25.0708 15.3065 24.8808C15.3106 24.6969 15.2704 24.5143 15.1885 24.3457C15.1066 24.177 14.985 24.0261 14.8319 23.9034C14.6789 23.7807 14.4981 23.6891 14.3018 23.6348C14.1055 23.5805 13.8985 23.5648 13.6948 23.5888C13.409 23.5666 13.1212 23.6009 12.8518 23.6894C12.5825 23.7778 12.3381 23.9182 12.1361 24.1006C11.934 24.2829 11.7792 24.5029 11.6826 24.7447C11.5859 24.9866 11.5499 25.2446 11.5769 25.5004C11.5545 25.6848 11.5751 25.8714 11.6376 26.0483C11.7001 26.2252 11.8029 26.3886 11.9397 26.5279C12.041 26.5279 12.0747 26.5279 12.0747 26.6488C12.0747 26.7697 11.8216 27.3515 11.5516 27.1626C11.3189 26.9517 11.1379 26.6996 11.0202 26.4225C10.9025 26.1454 10.8507 25.8493 10.8681 25.5532C10.8416 25.2126 10.8958 24.8708 11.027 24.5502C11.1582 24.2296 11.3636 23.9374 11.6296 23.6927C11.8956 23.4481 12.2164 23.2565 12.5708 23.1305C12.9252 23.0045 13.3054 22.947 13.6864 22.9616C13.9848 22.9277 14.2879 22.952 14.5748 23.033C14.8617 23.1139 15.1257 23.2494 15.3485 23.4303C15.5714 23.6112 15.7479 23.8332 15.8659 24.081C15.9839 24.3287 16.0406 24.5964 16.0321 24.8657C16.0471 25.2388 15.9412 25.6079 15.7271 25.9284C15.5129 26.2488 15.1998 26.5069 14.8255 26.6715C15.1279 26.7534 15.3899 26.9255 15.5679 27.1591C15.746 27.3928 15.8294 27.674 15.8043 27.956C15.809 28.1489 15.7697 28.3407 15.6889 28.5196C15.6081 28.6985 15.4874 28.8608 15.3342 28.9965C15.181 29.1323 14.9986 29.2387 14.7979 29.3092C14.5973 29.3797 14.3827 29.4129 14.1673 29.4067C12.9354 29.4067 12.5726 28.7115 12.5726 27.6764L12.5051 24.6617Z" fill="white"/>
<path d="M17.1712 28.2205C17.2284 28.3783 17.342 28.5149 17.4945 28.6091C17.647 28.7033 17.8299 28.75 18.015 28.7419C18.7406 28.7419 19.0444 28.1978 19.1541 27.6841C19.2385 27.3063 19.7616 27.4725 19.7279 27.7672C19.7017 28.1814 19.4972 28.5703 19.1572 28.8522C18.8173 29.134 18.3685 29.2868 17.9053 29.2783C17.6687 29.2794 17.4345 29.2359 17.218 29.1507C17.0014 29.0655 16.8072 28.9404 16.6481 28.7837C16.489 28.6269 16.3684 28.442 16.2943 28.2408C16.2201 28.0397 16.194 27.8268 16.2177 27.6161C16.2177 26.5507 16.9265 25.7573 17.6521 25.7573C17.772 25.7566 17.8907 25.7787 18.0003 25.8222C18.1099 25.8657 18.2078 25.9296 18.2877 26.0097C18.3675 26.0897 18.4274 26.1841 18.4633 26.2865C18.4992 26.3889 18.5103 26.497 18.4959 26.6036C18.4912 26.9632 18.361 27.3125 18.1234 27.6024C17.8858 27.8924 17.5528 28.1085 17.1712 28.2205ZM17.0615 27.7596C17.2968 27.6559 17.4942 27.4941 17.6302 27.2933C17.7663 27.0925 17.8354 26.8611 17.8293 26.6263C17.8293 26.4374 17.7534 26.3316 17.6353 26.3316C17.1712 26.3316 17.0362 27.2534 17.053 27.6085C17.053 27.6614 17.0615 27.7067 17.0615 27.7596Z" fill="white"/>
<path d="M19.1794 27.7448C19.2722 27.3746 19.4663 26.8911 19.6351 26.4528C19.5459 26.3342 19.4962 26.1953 19.4916 26.0524C19.4916 25.7728 20.0317 25.395 20.2848 25.395C20.5379 25.395 20.6223 25.5461 20.6223 25.7728C20.5863 25.9727 20.509 26.1649 20.3945 26.3395C20.8417 27.0346 21.407 27.3368 21.407 28.1377C21.406 28.2396 21.3919 28.341 21.3648 28.44C21.5419 28.4108 21.7068 28.3392 21.842 28.2327C21.9772 28.1263 22.0777 27.989 22.1327 27.8355C22.2002 27.6768 22.2593 27.6088 22.3436 27.6088C22.428 27.6088 22.6812 27.828 22.6812 27.9413C22.6276 28.1965 22.4752 28.4266 22.2508 28.5911C21.8924 28.8448 21.4505 28.9856 20.9936 28.9915C20.7414 29.1888 20.4171 29.2964 20.0823 29.2938C19.7015 29.2837 19.3357 29.1585 19.0444 28.9387C18.5888 28.5458 18.8419 28.1 19.0444 28.1C19.2469 28.1 20.0907 28.5911 20.5548 28.5911C20.6862 28.4452 20.7603 28.2647 20.7658 28.0773C20.7491 27.8489 20.6807 27.6259 20.5646 27.4219C20.4486 27.218 20.2873 27.0374 20.0907 26.8911C19.9444 27.2241 19.8204 27.5648 19.7195 27.9111C19.6182 28.2662 19.1035 28.0244 19.1794 27.7448Z" fill="white"/>
<path d="M22.175 25.1378V23.7249C22.175 23.4756 22.0821 23.4605 22.0821 23.4C22.0821 23.3396 22.2509 23.3093 22.3859 23.3093C22.4465 23.3031 22.5078 23.3077 22.5663 23.3231C22.6248 23.3384 22.6792 23.3641 22.7264 23.3986C22.7736 23.4332 22.8126 23.4758 22.8411 23.5241C22.8696 23.5723 22.8869 23.6252 22.8922 23.6796V25.1454C23.4575 25.1454 24.1157 25.1454 24.757 25.1454C25.0185 24.896 24.9342 25.6969 24.6895 25.7045C23.9385 25.7045 23.39 25.7045 22.8922 25.7045V28.3641C22.8922 28.6286 23.0103 28.7495 23.2044 28.7495C23.5841 28.7495 23.7529 28.213 23.8372 27.8428C23.8372 27.669 23.9638 27.5934 24.0651 27.5934C24.1531 27.6102 24.2324 27.6527 24.2905 27.7142C24.3485 27.7758 24.382 27.8529 24.3857 27.9334C24.3881 27.9535 24.3881 27.9738 24.3857 27.9939C24.2254 28.5455 23.8541 29.301 23.0441 29.301C22.5378 29.301 22.2003 29.0366 22.2003 28.3717V25.6969C21.7868 25.6969 21.559 25.6969 21.559 25.6969C21.2552 25.6969 21.0865 25.1378 21.3565 25.1378H22.175Z" fill="white"/>
<path d="M25.7778 28.0241C25.7513 27.7431 25.7886 27.4602 25.8873 27.1924C25.986 26.9246 26.1441 26.6775 26.3522 26.4657C26.5602 26.254 26.8139 26.0822 27.098 25.9604C27.3821 25.8387 27.6908 25.7697 28.0054 25.7574C28.0598 25.7521 28.1148 25.7571 28.1669 25.7722C28.219 25.7873 28.2669 25.812 28.3076 25.8448C28.3482 25.8777 28.3806 25.9178 28.4027 25.9626C28.4248 26.0075 28.4361 26.056 28.4357 26.105C28.4357 26.2486 28.4357 26.3014 28.3176 26.3014H28.0476C27.3304 26.3014 26.495 26.8455 26.495 28.0544C26.495 28.485 26.706 28.7419 27.035 28.7419C27.3641 28.7419 27.5919 28.2962 27.6594 27.9864V27.0117C27.6659 26.9211 27.6659 26.8303 27.6594 26.7397C27.6594 26.6566 27.7691 26.6037 27.8957 26.6037C28.2079 26.6037 28.4104 26.7699 28.4104 26.9663V29.286C28.8333 28.8852 29.1454 28.4013 29.3217 27.873C29.3723 27.6993 29.4483 27.6237 29.5411 27.6237C29.6307 27.6389 29.7119 27.6808 29.7716 27.7425C29.8314 27.8042 29.8661 27.8821 29.8702 27.9637C29.8733 27.9913 29.8733 28.0192 29.8702 28.0468C29.6625 28.7333 29.227 29.3472 28.6214 29.8073C29.1506 30.2113 29.4859 30.7822 29.558 31.4016C29.558 32.0665 29.1276 32.5198 28.6298 32.5198C27.997 32.5198 27.6932 32.0967 27.6932 31.4091V28.9837C27.5968 29.0809 27.4786 29.1588 27.3463 29.2121C27.2139 29.2655 27.0705 29.2933 26.9253 29.2935C26.1828 29.2935 25.7778 28.7419 25.7778 28.0241ZM28.3767 30.2455V31.4847C28.3767 31.8776 28.5201 31.9607 28.6129 31.9607C28.7057 31.9607 28.8576 31.8247 28.8576 31.4922C28.8683 31.0386 28.6977 30.5965 28.3767 30.2455Z" fill="white"/>
<path d="M31.1612 28.6967C31.0832 28.8654 30.9543 29.0114 30.7889 29.1182C30.6234 29.2249 30.428 29.2883 30.2245 29.3011C29.6001 29.3011 29.2373 28.8251 29.2373 28.0922C29.2622 27.4525 29.3756 26.818 29.5748 26.2033C29.6339 26.0597 29.5748 25.8935 30.0642 25.8935C30.5536 25.8935 30.2583 26.2335 30.2161 26.3544C30.0373 26.9069 29.9464 27.4792 29.9461 28.0544C29.9461 28.5078 30.1064 28.7496 30.3764 28.7496C30.6464 28.7496 31.0346 28.2056 31.1443 27.6162V26.2637C31.1443 26.0219 31.0515 26.0068 31.0515 25.9464C31.0515 25.8859 31.2202 25.8557 31.3552 25.8557C31.4158 25.8495 31.4771 25.8541 31.5356 25.8695C31.5941 25.8848 31.6486 25.9105 31.6958 25.945C31.743 25.9795 31.782 26.0222 31.8104 26.0704C31.8389 26.1187 31.8563 26.1716 31.8615 26.226V28.3567C31.8615 28.4322 31.8615 28.742 32.1062 28.742C32.3509 28.742 32.6462 28.2056 32.7306 27.8353C32.7306 27.6615 32.8656 27.586 32.9584 27.586C33.0474 27.6024 33.1278 27.6446 33.1873 27.7061C33.2467 27.7675 33.282 27.8448 33.2875 27.926C33.2921 27.9459 33.2921 27.9665 33.2875 27.9864C33.1188 28.538 32.7559 29.2936 31.9459 29.2936C31.7553 29.3005 31.5687 29.243 31.4233 29.1324C31.2779 29.0218 31.1843 28.8662 31.1612 28.6967Z" fill="white"/>
<path d="M36.0467 27.8729C36.0889 27.6991 36.1817 27.6235 36.2745 27.6235C36.3641 27.6387 36.4454 27.6806 36.5051 27.7423C36.5648 27.804 36.5995 27.8819 36.6036 27.9635C36.6061 27.9836 36.6061 28.0039 36.6036 28.024C36.4433 28.5755 36.0636 29.3311 35.262 29.3311C35.1187 29.3343 34.977 29.3047 34.85 29.2452C34.723 29.1857 34.6151 29.0983 34.5363 28.9911C34.4387 29.0969 34.3163 29.1822 34.1777 29.2409C34.0392 29.2997 33.888 29.3305 33.7347 29.3311C33.0006 29.3311 32.6125 28.7795 32.6125 28.0617C32.586 27.7801 32.6235 27.4966 32.7228 27.2283C32.822 26.96 32.9809 26.7125 33.1898 26.5007C33.3988 26.2889 33.6535 26.1172 33.9385 25.9959C34.2236 25.8746 34.5332 25.8063 34.8485 25.795C34.9029 25.7897 34.958 25.7947 35.0101 25.8098C35.0621 25.8249 35.1101 25.8496 35.1507 25.8824C35.1913 25.9153 35.2238 25.9554 35.2458 26.0002C35.2679 26.0451 35.2792 26.0936 35.2789 26.1426C35.2789 26.2862 35.2789 26.339 35.1607 26.339H34.8823C34.1735 26.339 33.3381 26.8831 33.3381 28.092C33.3381 28.5226 33.5407 28.7795 33.8697 28.7795C34.1988 28.7795 34.2916 28.5755 34.3929 28.3413V27.0115C34.3993 26.9209 34.3993 26.8301 34.3929 26.7395C34.3929 26.6564 34.5026 26.6035 34.6376 26.6035C34.9498 26.6035 35.1439 26.7697 35.1439 26.9662V28.3564C35.1439 28.5378 35.2367 28.7418 35.4645 28.7418C35.7936 28.7418 35.9623 28.2053 36.0467 27.8729Z" fill="white"/>
<path d="M38.6711 27.9941C38.5023 28.4474 38.0467 29.2937 37.1944 29.2937C37.0365 29.2982 36.8793 29.2719 36.7338 29.2165C36.5884 29.1612 36.4581 29.0781 36.3521 28.9732C36.2461 28.8682 36.1669 28.7438 36.12 28.6086C36.0732 28.4735 36.0597 28.3308 36.0806 28.1905V24.3673C36.0806 23.7402 36.4688 23.2944 36.9244 23.2944C37.7682 23.2944 37.7682 24.1785 37.7682 24.6469C37.6828 25.7038 37.3523 26.7331 36.7978 27.6692V28.1528C36.7978 28.4928 36.9497 28.7346 37.2957 28.7346C37.6416 28.7346 38.0467 28.2057 38.1395 27.8354C38.2407 27.3443 38.747 27.7221 38.6711 27.9941ZM36.7978 26.5736C37.0346 25.9548 37.1683 25.3082 37.1944 24.6545C37.1944 24.1029 37.0847 23.846 36.9413 23.846C36.7978 23.846 36.7978 24.05 36.7978 24.186V26.5736Z" fill="white"/>
<path d="M38.0804 24.5106C38.0706 24.4384 38.078 24.3651 38.1021 24.2957C38.1262 24.2263 38.1665 24.1622 38.2204 24.1078C38.2742 24.0533 38.3403 24.0097 38.4144 23.9799C38.4884 23.95 38.5687 23.9346 38.6499 23.9346C38.7312 23.9346 38.8114 23.95 38.8855 23.9799C38.9595 24.0097 39.0257 24.0533 39.0795 24.1078C39.1334 24.1622 39.1737 24.2263 39.1978 24.2957C39.2219 24.3651 39.2293 24.4384 39.2195 24.5106C39.2293 24.5827 39.2219 24.656 39.1978 24.7254C39.1737 24.7948 39.1334 24.8589 39.0795 24.9133C39.0257 24.9678 38.9595 25.0114 38.8855 25.0412C38.8114 25.0711 38.7312 25.0865 38.6499 25.0865C38.5687 25.0865 38.4884 25.0711 38.4144 25.0412C38.3403 25.0114 38.2742 24.9678 38.2204 24.9133C38.1665 24.8589 38.1262 24.7948 38.1021 24.7254C38.078 24.656 38.0706 24.5827 38.0804 24.5106ZM38.8567 28.3564C38.8567 28.432 38.8567 28.7418 39.1014 28.7418C39.4811 28.7418 39.6498 28.2053 39.7342 27.8351C39.8439 27.3213 40.3502 27.7142 40.2742 27.9862C40.1055 28.5378 39.7427 29.2933 38.9326 29.2933C38.7192 29.2799 38.5195 29.1944 38.3738 29.0542C38.2281 28.9139 38.1474 28.7293 38.1479 28.5378V26.271C38.1429 26.1819 38.1288 26.0934 38.1057 26.0066C38.1057 25.9159 38.2238 25.863 38.3504 25.863C38.6626 25.863 38.8567 26.0293 38.8567 26.2333V28.3564Z" fill="white"/>
<path d="M39.7679 25.1381V23.7251C39.7679 23.4758 39.675 23.4607 39.675 23.4002C39.675 23.3398 39.8438 23.3096 39.9704 23.3096C40.2826 23.3096 40.4766 23.4758 40.4766 23.6798V25.1456C41.0504 25.1456 41.7086 25.1456 42.3414 25.1456C42.6114 24.8963 42.5186 25.6972 42.2824 25.7047C41.5314 25.7047 40.9745 25.7047 40.4766 25.7047V28.3644C40.4766 28.6288 40.6032 28.7497 40.7973 28.7497C41.177 28.7497 41.3457 28.2132 41.4301 27.843C41.4301 27.6692 41.5567 27.5937 41.6495 27.5937C41.7391 27.6089 41.8203 27.6507 41.88 27.7125C41.9398 27.7742 41.9745 27.8521 41.9786 27.9337C41.981 27.9538 41.981 27.974 41.9786 27.9941C41.8183 28.5457 41.447 29.3013 40.637 29.3013C40.1307 29.3013 39.7932 29.0368 39.7932 28.3719V25.6972C39.3797 25.6972 39.1434 25.6972 39.1434 25.6972C38.8481 25.6972 38.6794 25.1381 38.9494 25.1381H39.7679Z" fill="white"/>
<path d="M45.0163 27.586C45.1059 27.6012 45.1871 27.6431 45.2469 27.7048C45.3066 27.7665 45.3413 27.8444 45.3454 27.926C45.3486 27.9536 45.3486 27.9815 45.3454 28.0091C45.1186 28.7438 44.6406 29.3964 43.9784 29.8754V31.3261C43.9784 32.2101 43.4806 32.5199 42.9996 32.5199C42.869 32.5104 42.7419 32.4777 42.6255 32.4238C42.5091 32.3699 42.4059 32.2957 42.3219 32.2057C42.2379 32.1157 42.1747 32.0116 42.136 31.8995C42.0974 31.7874 42.084 31.6695 42.0968 31.5527C42.1232 31.1981 42.2423 30.854 42.4446 30.5482C42.6468 30.2423 42.9266 29.9834 43.2612 29.7923V28.7269C43.1798 28.8878 43.0513 29.0261 42.8895 29.1272C42.7276 29.2283 42.5383 29.2883 42.3415 29.3011C41.7171 29.3011 41.3542 28.8251 41.3542 28.0922C41.3784 27.453 41.4889 26.8187 41.6833 26.2033C41.7508 26.0597 41.6833 25.8935 42.1812 25.8935C42.679 25.8935 42.3752 26.2335 42.3331 26.3544C42.1543 26.9069 42.0634 27.4792 42.063 28.0544C42.063 28.5078 42.2234 28.7496 42.4934 28.7496C42.7634 28.7496 43.1515 28.2056 43.2612 27.6162V26.2637C43.2685 26.1757 43.2685 26.0873 43.2612 25.9993C43.2612 25.9086 43.3709 25.8557 43.5059 25.8557C43.5665 25.8495 43.6278 25.8541 43.6863 25.8695C43.7448 25.8848 43.7992 25.9105 43.8464 25.945C43.8937 25.9795 43.9326 26.0222 43.9611 26.0704C43.9896 26.1187 44.007 26.1716 44.0122 26.226V29.1651C44.4063 28.7874 44.6954 28.3318 44.856 27.8353C44.8476 27.6615 44.9235 27.586 45.0163 27.586ZM43.2528 31.3261V30.4269C43.0892 30.5704 42.96 30.7422 42.873 30.9319C42.7859 31.1215 42.7429 31.3251 42.7465 31.5301C42.7465 31.787 42.8393 31.991 42.9912 31.991C43.295 31.991 43.2528 31.4847 43.2528 31.3261Z" fill="white"/>
</g>
<defs>
<clipPath id="clip0_382_1384">
<rect width="80" height="80" fill="white"/>
</clipPath>
</defs>
</svg>
