<svg width="30" height="30" viewBox="0 0 30 30" fill="none" xmlns="http://www.w3.org/2000/svg">
<g clip-path="url(#clip0_495_2104)">
<path opacity="0.919" fill-rule="evenodd" clip-rule="evenodd" d="M18.5449 -0.0292969C19.0332 -0.0292969 19.5215 -0.0292969 20.0098 -0.0292969C23.709 0.359688 26.4922 2.15656 28.3594 5.36133C29.84 8.30947 29.9767 11.3173 28.7695 14.3848C27.367 17.4966 25.0136 19.4692 21.709 20.3027C21.6782 20.0428 21.6196 19.7889 21.5332 19.541C25.9955 18.1003 28.3978 15.0339 28.7402 10.3418C28.5423 6.32051 26.6477 3.42012 23.0566 1.64062C19.5032 0.250931 16.222 0.719684 13.2129 3.04688C11.0157 4.97116 9.88289 7.40279 9.81445 10.3418C9.52148 10.3418 9.22852 10.3418 8.93555 10.3418C9.1135 5.91885 11.1838 2.74503 15.1465 0.820312C16.2429 0.361135 17.3758 0.077932 18.5449 -0.0292969Z" fill="#068FFF"/>
<path opacity="0.928" fill-rule="evenodd" clip-rule="evenodd" d="M6.5332 29.9709C4.56054 29.9709 2.58789 29.9709 0.615235 29.9709C0.474524 29.8979 0.386633 29.7807 0.351563 29.6193C0.3125 25.967 0.3125 22.3146 0.351563 18.6623C0.37462 18.4635 0.482042 18.3365 0.673828 18.2814C2.58789 18.2424 4.50195 18.2424 6.41602 18.2814C6.55359 18.3017 6.661 18.3701 6.73828 18.4865C6.75779 18.76 6.77736 19.0334 6.79688 19.3068C7.14047 19.2331 7.41393 19.0573 7.61719 18.7795C8.40609 16.0026 9.20689 13.2292 10.0195 10.4592C10.086 10.2624 10.2227 10.1843 10.4297 10.2248C10.7143 10.2774 10.9975 10.336 11.2793 10.4006C11.3391 7.26225 12.7062 4.88922 15.3809 3.28145C18.0578 1.95809 20.7141 1.99715 23.3496 3.39863C25.866 5.00159 27.1746 7.30625 27.2754 10.3127C27.1113 13.7678 25.4707 16.2287 22.3535 17.6955C21.8151 17.8913 21.2682 18.0573 20.7129 18.1936C21.1184 19.0928 21.0012 19.9131 20.3613 20.6545C20.9644 21.3223 21.1109 22.0841 20.8008 22.9396C20.6152 23.3596 20.3125 23.6623 19.8926 23.8479C20.4681 24.8714 20.3314 25.7894 19.4824 26.6018C20.1742 27.6409 20.0766 28.5979 19.1895 29.4729C18.9536 29.6202 18.6997 29.7178 18.4277 29.7658C15.1465 29.8049 11.8652 29.8049 8.58398 29.7658C8.10527 29.214 7.49982 28.9112 6.76758 28.8576C6.7773 29.1512 6.76752 29.4442 6.73828 29.7365C6.65766 29.8071 6.58934 29.8852 6.5332 29.9709ZM18.4863 3.19355C21.5449 3.03805 23.8789 4.24899 25.4883 6.82637C26.8644 9.5965 26.6496 12.2332 24.8438 14.7365C22.7853 17.0696 20.2365 17.8606 17.1973 17.1096C15.9093 16.6901 14.8156 15.9772 13.916 14.9709C14.1946 13.2471 13.6283 11.8798 12.2168 10.8693C12.0821 7.80781 13.3321 5.51292 15.9668 3.98457C16.7747 3.59471 17.6145 3.33103 18.4863 3.19355ZM10.6934 11.1623C12.2084 11.6129 13.0287 12.6286 13.1543 14.2092C12.9263 15.3164 12.6431 16.4101 12.3047 17.4904C12.2328 17.7301 12.2816 17.9352 12.4512 18.1057C14.7704 18.1831 17.0947 18.2221 19.4238 18.2229C20.0699 18.5792 20.2359 19.0968 19.9219 19.7756C19.7892 19.9474 19.6232 20.0744 19.4238 20.1564C18.4475 20.1857 17.4709 20.1955 16.4941 20.1857C16.4941 20.4787 16.4941 20.7717 16.4941 21.0646C17.4935 21.0387 18.4896 21.068 19.4824 21.1525C19.87 21.3413 20.0654 21.6538 20.0684 22.09C20.0807 22.6247 19.8268 22.9568 19.3066 23.0861C18.3693 23.1154 17.4318 23.1252 16.4941 23.1154C16.4941 23.4084 16.4941 23.7014 16.4941 23.9943C17.2797 23.9683 18.0609 23.9976 18.8379 24.0822C19.3713 24.4722 19.4982 24.9702 19.2188 25.5764C19.0346 25.8656 18.771 26.0121 18.4277 26.0158C17.7835 26.0451 17.139 26.0549 16.4941 26.0451C16.4941 26.3186 16.4941 26.592 16.4941 26.8654C17.1415 26.8449 17.7861 26.8742 18.4277 26.9533C18.9896 27.2558 19.1752 27.7148 18.9844 28.3303C18.8668 28.643 18.6421 28.8286 18.3105 28.8869C15.1856 28.926 12.0605 28.926 8.93555 28.8869C8.33397 28.3053 7.61127 28.0025 6.76758 27.9787C6.76758 25.3811 6.76758 22.7834 6.76758 20.1857C7.43086 20.1131 7.96799 19.8201 8.37891 19.3068C9.17807 16.5983 9.94951 13.8835 10.6934 11.1623ZM13.623 16.0256C13.9039 16.2378 14.1773 16.4623 14.4434 16.6994C14.7362 16.9241 15.0486 17.1194 15.3809 17.2854C14.6777 17.3244 13.9746 17.3244 13.2715 17.2854C13.4113 16.8724 13.5285 16.4526 13.623 16.0256ZM1.20117 19.1311C2.76367 19.1311 4.32617 19.1311 5.88867 19.1311C5.88867 22.4514 5.88867 25.7717 5.88867 29.092C4.32617 29.092 2.76367 29.092 1.20117 29.092C1.20117 25.7717 1.20117 22.4514 1.20117 19.1311Z" fill="#068FFF"/>
<path opacity="0.922" fill-rule="evenodd" clip-rule="evenodd" d="M18.8378 4.77539C19.1308 4.77539 19.4237 4.77539 19.7167 4.77539C19.7167 5.32226 19.7167 5.86916 19.7167 6.41602C20.7788 6.37523 21.4526 6.8635 21.7382 7.88086C21.7674 8.15361 21.7772 8.42701 21.7675 8.70117C21.4745 8.70117 21.1816 8.70117 20.8886 8.70117C21.0337 8.00871 20.7798 7.54975 20.1269 7.32422C19.5756 7.27049 19.0287 7.29 18.4862 7.38281C17.682 7.80281 17.4574 8.43756 17.8124 9.28711C18.0508 9.56748 18.3536 9.73354 18.7206 9.78516C19.1677 9.84609 19.617 9.88512 20.0683 9.90234C21.3218 10.2892 21.8784 11.1388 21.7382 12.4512C21.4745 13.5059 20.8006 14.0722 19.7167 14.1504C19.7167 14.6972 19.7167 15.2442 19.7167 15.791C19.4237 15.791 19.1308 15.791 18.8378 15.791C18.8378 15.2442 18.8378 14.6972 18.8378 14.1504C17.815 14.2204 17.1412 13.7711 16.8163 12.8027C16.7871 12.5104 16.7773 12.2174 16.787 11.9238C17.08 11.9238 17.373 11.9238 17.6659 11.9238C17.5958 12.3545 17.6935 12.7354 17.9589 13.0664C18.0629 13.1507 18.1801 13.2093 18.3105 13.2422C18.9202 13.2964 19.5257 13.2769 20.1269 13.1836C20.8479 12.7716 21.053 12.1758 20.7421 11.3965C20.5605 11.0859 20.2968 10.8809 19.9511 10.7812C19.2725 10.7732 18.6085 10.6755 17.9589 10.4883C16.9776 10.0001 16.5968 9.20912 16.8163 8.11523C17.1058 7.09342 17.7797 6.52699 18.8378 6.41602C18.8378 5.86916 18.8378 5.32226 18.8378 4.77539Z" fill="#068FFF"/>
</g>
<defs>
<clipPath id="clip0_495_2104">
<rect width="30" height="30" fill="white"/>
</clipPath>
</defs>
</svg>
