<svg width="35" height="36" viewBox="0 0 35 36" fill="none" xmlns="http://www.w3.org/2000/svg">
<g clip-path="url(#clip0_173_281)">
<path opacity="0.942" fill-rule="evenodd" clip-rule="evenodd" d="M17.1924 0.378418C17.3974 0.378418 17.6025 0.378418 17.8076 0.378418C17.9435 0.512735 18.046 0.67224 18.1152 0.856934C18.7313 2.79742 19.358 4.73427 19.9951 6.66748C22.1594 6.72444 24.3242 6.75862 26.4892 6.77002C27.0073 7.12321 27.0301 7.51056 26.5576 7.93213C24.8942 9.13983 23.2307 10.3475 21.5674 11.5552C21.6545 11.8246 21.7571 12.0866 21.875 12.3413C22.6155 11.8286 23.3561 11.3159 24.0967 10.8032C24.5402 10.6554 24.825 10.8036 24.9511 11.2476C24.9853 17.9467 24.9967 24.6459 24.9853 31.3452C26.1932 31.3338 27.4009 31.3452 28.6084 31.3794C28.7337 31.4592 28.8362 31.5617 28.916 31.687C28.9616 32.8035 28.9616 33.9201 28.916 35.0366C28.8478 35.1612 28.7681 35.2752 28.6767 35.3784C21.2256 35.3784 13.7744 35.3784 6.32322 35.3784C6.25775 35.2785 6.17799 35.1874 6.08396 35.105C6.01755 33.9138 6.04034 32.7289 6.15232 31.5503C6.21401 31.4682 6.29377 31.4112 6.39158 31.3794C7.59908 31.3452 8.80671 31.3338 10.0146 31.3452C9.98133 27.8093 10.0155 24.2773 10.1172 20.7495C12.7765 18.7989 15.4539 16.8735 18.1494 14.9731C17.9671 14.8364 17.7848 14.6997 17.6025 14.563C17.5342 14.5174 17.4658 14.5174 17.3974 14.563C15.7675 15.7312 14.1496 16.9161 12.5439 18.1177C11.8149 18.4775 11.4617 18.261 11.4843 17.4683C12.1206 15.4911 12.7701 13.52 13.4326 11.5552C11.6281 10.2976 9.86218 8.98746 8.13474 7.62451C8.00294 7.21577 8.12825 6.93094 8.51072 6.77002C10.6753 6.73584 12.8401 6.72445 15.0049 6.73584C15.6331 4.70279 16.2826 2.67479 16.9531 0.651855C17.0472 0.569478 17.1269 0.478332 17.1924 0.378418ZM17.4658 2.97607C17.9876 4.49129 18.5003 6.01798 19.0039 7.55615C19.0575 7.67824 19.1372 7.78078 19.2431 7.86377C20.9478 7.95298 22.6568 7.99857 24.3701 8.00049C23.2536 8.79804 22.137 9.59552 21.0205 10.3931C20.7573 10.5882 20.518 10.8047 20.3027 11.0425C20.2571 11.2248 20.2571 11.407 20.3027 11.5894C20.7981 13.0858 21.2653 14.5669 21.7041 16.0327C20.3945 15.0703 19.0729 14.1247 17.7392 13.1958C17.4635 13.1247 17.2129 13.1702 16.9873 13.3325C15.7568 14.2759 14.5035 15.1646 13.2275 15.9985C13.7306 14.5121 14.2205 13.0196 14.6972 11.521C14.7723 11.2472 14.7154 11.008 14.5263 10.8032C13.2275 9.86895 11.9287 8.93476 10.6299 8.00049C12.3431 7.99857 14.0521 7.95298 15.7568 7.86377C15.8627 7.78078 15.9424 7.67824 15.9961 7.55615C16.4933 6.03035 16.9832 4.50366 17.4658 2.97607ZM23.6865 12.5464C23.7548 18.8011 23.7776 25.0674 23.7549 31.3452C19.5849 31.3452 15.415 31.3452 11.2451 31.3452C11.2337 28.0183 11.2451 24.6915 11.2793 21.3647C13.9225 19.4963 16.5657 17.6277 19.209 15.7593C20.3597 16.591 21.5104 17.4227 22.6611 18.2544C23.2431 18.3554 23.528 18.1161 23.5156 17.5366C23.1008 16.2353 22.6793 14.9365 22.2509 13.6401C22.7308 13.2739 23.2093 12.9093 23.6865 12.5464ZM7.21189 32.5757C14.0706 32.5757 20.9294 32.5757 27.7881 32.5757C27.7881 33.1226 27.7881 33.6694 27.7881 34.2163C20.9294 34.2163 14.0706 34.2163 7.21189 34.2163C7.21189 33.6694 7.21189 33.1226 7.21189 32.5757Z" fill="#068FFF"/>
</g>
<defs>
<clipPath id="clip0_173_281">
<rect width="35" height="35" fill="white" transform="translate(0 0.412598)"/>
</clipPath>
</defs>
</svg>
