<svg width="90" height="90" viewBox="0 0 90 90" fill="none" xmlns="http://www.w3.org/2000/svg">
<g clip-path="url(#clip0_429_3679)">
<path opacity="0.928" fill-rule="evenodd" clip-rule="evenodd" d="M89.9121 78.1348C89.9121 80.4785 89.9121 82.8223 89.9121 85.166C89.7699 85.3364 89.5941 85.4828 89.3848 85.6055C59.7363 85.7227 30.088 85.7227 0.439453 85.6055C0.230173 85.4828 0.0543913 85.3364 -0.0878906 85.166C-0.0878906 82.8223 -0.0878906 80.4785 -0.0878906 78.1348C0.110138 78.0254 0.285919 77.879 0.439453 77.6953C1.60987 77.6074 2.78174 77.5782 3.95508 77.6074C3.92578 65.8886 3.95508 54.1698 4.04297 42.4512C5.14883 32.3253 10.393 25.3232 19.7754 21.4453C22.1662 20.5981 24.6271 20.0999 27.1582 19.9512C27.1288 14.8532 27.1582 9.75553 27.2461 4.65821C27.334 4.45312 27.4804 4.30665 27.6855 4.21875C37.4708 4.10156 47.2558 4.10156 57.041 4.21875C57.1874 4.36523 57.334 4.51173 57.4805 4.65821C57.5684 9.22815 57.5977 13.7985 57.5684 18.3691C66.0187 20.9807 74.4562 23.6468 82.8809 26.3672C83.8552 26.6131 84.7635 26.994 85.6055 27.5098C85.8674 44.2013 85.9553 60.9005 85.8691 77.6074C87.0425 77.5782 88.2144 77.6074 89.3848 77.6953C89.5382 77.879 89.714 78.0254 89.9121 78.1348ZM29.4434 6.41602C38.0566 6.41602 46.6699 6.41602 55.2832 6.41602C55.2832 30.1465 55.2832 53.877 55.2832 77.6074C54.1113 77.6074 52.9395 77.6074 51.7676 77.6074C51.7969 72.6267 51.7676 67.6461 51.6797 62.666C51.5333 62.5196 51.3867 62.373 51.2402 62.2266C45.3222 62.1093 39.4044 62.1093 33.4863 62.2266C33.3253 62.2923 33.1787 62.3802 33.0469 62.4902C32.7862 67.5137 32.6983 72.5528 32.7832 77.6074C31.67 77.6074 30.5566 77.6074 29.4434 77.6074C29.4434 53.877 29.4434 30.1465 29.4434 6.41602ZM57.5684 20.8301C66.2296 23.5608 74.9014 26.2563 83.584 28.916C83.584 45.1464 83.584 61.377 83.584 77.6074C74.9122 77.6074 66.2402 77.6074 57.5684 77.6074C57.5684 58.6816 57.5684 39.7559 57.5684 20.8301ZM35.2441 21.1816C36.3574 21.1816 37.4708 21.1816 38.584 21.1816C38.584 31.9628 38.584 42.7442 38.584 53.5254C37.4708 53.5254 36.3574 53.5254 35.2441 53.5254C35.2441 42.7442 35.2441 31.9628 35.2441 21.1816ZM46.1426 21.1816C47.2558 21.1816 48.3692 21.1816 49.4824 21.1816C49.4824 31.9628 49.4824 42.7442 49.4824 53.5254C48.3692 53.5254 47.2558 53.5254 46.1426 53.5254C46.1426 42.7442 46.1426 31.9628 46.1426 21.1816ZM26.1035 22.2363C26.3965 22.2363 26.6894 22.2363 26.9824 22.2363C26.9824 40.6934 26.9824 59.1504 26.9824 77.6074C20.0684 77.6074 13.1543 77.6074 6.24023 77.6074C6.24023 74.2676 6.24023 70.9277 6.24023 67.5879C9.9321 67.6173 13.6235 67.5879 17.3145 67.5C17.6954 67.3536 17.959 67.0899 18.1055 66.709C18.2227 64.1895 18.2227 61.6699 18.1055 59.1504C17.9675 58.8365 17.7625 58.5728 17.4902 58.3594C13.7407 58.2715 9.99069 58.2421 6.24023 58.2715C6.24023 57.041 6.24023 55.8106 6.24023 54.5801C11.3382 54.6094 16.4359 54.5801 21.5332 54.4922C21.9459 54.4729 22.2096 54.2677 22.3242 53.877C22.4415 51.1817 22.4415 48.4863 22.3242 45.791C22.1655 45.5799 21.9605 45.4333 21.709 45.3516C16.5531 45.2637 11.3968 45.2343 6.24023 45.2637C6.22883 44.029 6.28741 42.7985 6.41602 41.5723C12.5792 41.6566 18.7316 41.5688 24.873 41.3086C25.0842 41.1499 25.2308 40.9449 25.3125 40.6934C25.4297 38.1739 25.4297 35.6542 25.3125 33.1348C25.2308 32.8832 25.0842 32.6783 24.873 32.5195C19.9067 32.3172 14.9262 32.1708 9.93164 32.0801C13.854 26.4025 19.2445 23.1212 26.1035 22.2363ZM62.4902 31.7285C63.955 31.7285 65.42 31.7285 66.8848 31.7285C66.8848 33.252 66.8848 34.7753 66.8848 36.2988C65.42 36.2988 63.955 36.2988 62.4902 36.2988C62.4902 34.7753 62.4902 33.252 62.4902 31.7285ZM74.0918 31.7285C75.5566 31.7285 77.0215 31.7285 78.4863 31.7285C78.4863 33.252 78.4863 34.7753 78.4863 36.2988C77.0215 36.2988 75.5566 36.2988 74.0918 36.2988C74.0918 34.7753 74.0918 33.252 74.0918 31.7285ZM8.52539 34.541C13.3887 34.541 18.2519 34.541 23.1152 34.541C23.1152 36.1231 23.1152 37.7051 23.1152 39.2871C17.6657 39.3165 12.2165 39.2871 6.76758 39.1992C7.2327 37.5986 7.81863 36.0459 8.52539 34.541ZM62.4902 43.8574C63.955 43.8574 65.42 43.8574 66.8848 43.8574C66.8848 45.4395 66.8848 47.0215 66.8848 48.6035C65.42 48.6035 63.955 48.6035 62.4902 48.6035C62.4902 47.0215 62.4902 45.4395 62.4902 43.8574ZM74.0918 43.8574C75.5566 43.8574 77.0215 43.8574 78.4863 43.8574C78.4863 45.4395 78.4863 47.0215 78.4863 48.6035C77.0215 48.6035 75.5566 48.6035 74.0918 48.6035C74.0918 47.0215 74.0918 45.4395 74.0918 43.8574ZM6.24023 47.5488C10.8691 47.5488 15.4981 47.5488 20.127 47.5488C20.127 49.1309 20.127 50.7129 20.127 52.2949C15.4981 52.2949 10.8691 52.2949 6.24023 52.2949C6.24023 50.7129 6.24023 49.1309 6.24023 47.5488ZM62.4902 55.9863C63.955 55.9863 65.42 55.9863 66.8848 55.9863C66.8848 57.5684 66.8848 59.1504 66.8848 60.7324C65.42 60.7324 63.955 60.7324 62.4902 60.7324C62.4902 59.1504 62.4902 57.5684 62.4902 55.9863ZM74.0918 55.9863C75.5566 55.9863 77.0215 55.9863 78.4863 55.9863C78.4863 57.5684 78.4863 59.1504 78.4863 60.7324C77.0215 60.7324 75.5566 60.7324 74.0918 60.7324C74.0918 59.1504 74.0918 57.5684 74.0918 55.9863ZM6.24023 60.5566C9.46288 60.5566 12.6856 60.5566 15.9082 60.5566C15.9082 62.1387 15.9082 63.7207 15.9082 65.3027C12.6856 65.3027 9.46288 65.3027 6.24023 65.3027C6.24023 63.7207 6.24023 62.1387 6.24023 60.5566ZM35.0684 64.4238C37.1192 64.4238 39.1699 64.4238 41.2207 64.4238C41.2207 68.8184 41.2207 73.2129 41.2207 77.6074C39.1699 77.6074 37.1192 77.6074 35.0684 77.6074C35.0684 73.2129 35.0684 68.8184 35.0684 64.4238ZM43.5059 64.4238C45.498 64.4238 47.4903 64.4238 49.4824 64.4238C49.4824 68.8184 49.4824 73.2129 49.4824 77.6074C47.4903 77.6074 45.498 77.6074 43.5059 77.6074C43.5059 73.2129 43.5059 68.8184 43.5059 64.4238ZM62.4902 68.1152C63.955 68.1152 65.42 68.1152 66.8848 68.1152C66.8848 69.6973 66.8848 71.2793 66.8848 72.8613C65.42 72.8613 63.955 72.8613 62.4902 72.8613C62.4902 71.2793 62.4902 69.6973 62.4902 68.1152ZM74.0918 68.1152C75.5566 68.1152 77.0215 68.1152 78.4863 68.1152C78.4863 69.6973 78.4863 71.2793 78.4863 72.8613C77.0215 72.8613 75.5566 72.8613 74.0918 72.8613C74.0918 71.2793 74.0918 69.6973 74.0918 68.1152ZM2.02148 79.8926C30.6153 79.8926 59.2089 79.8926 87.8027 79.8926C87.8027 81.0645 87.8027 82.2363 87.8027 83.4082C59.2089 83.4082 30.6153 83.4082 2.02148 83.4082C2.02148 82.2363 2.02148 81.0645 2.02148 79.8926Z" fill="#068FFF"/>
<path opacity="0.923" fill-rule="evenodd" clip-rule="evenodd" d="M33.4864 18.8965C35.7137 18.8672 37.9403 18.8965 40.1661 18.9844C40.5568 19.099 40.762 19.3627 40.7813 19.7754C40.8985 31.4942 40.8985 43.2129 40.7813 54.9317C40.6169 55.389 40.2947 55.6527 39.8145 55.7227C37.8809 55.8399 35.9473 55.8399 34.0137 55.7227C33.6312 55.694 33.309 55.5476 33.0469 55.2832C32.9297 43.3301 32.9297 31.377 33.0469 19.4239C33.1696 19.2145 33.316 19.0387 33.4864 18.8965ZM35.2442 21.1817C35.2442 31.9629 35.2442 42.7442 35.2442 53.5254C36.3574 53.5254 37.4708 53.5254 38.584 53.5254C38.584 42.7442 38.584 31.9629 38.584 21.1817C37.4708 21.1817 36.3574 21.1817 35.2442 21.1817Z" fill="#068FFF"/>
<path opacity="0.924" fill-rule="evenodd" clip-rule="evenodd" d="M44.3848 18.8965C46.6707 18.8672 48.9558 18.8965 51.2403 18.9844C51.3867 19.1308 51.5333 19.2774 51.6797 19.4239C51.797 31.3184 51.797 43.2129 51.6797 55.1074C51.4479 55.4567 51.1257 55.6619 50.7129 55.7227C48.7793 55.8399 46.8457 55.8399 44.9122 55.7227C44.4848 55.6708 44.1626 55.4657 43.9454 55.1074C43.8281 43.2129 43.8281 31.3184 43.9454 19.4239C44.129 19.2704 44.2755 19.0946 44.3848 18.8965ZM46.1426 21.1817C46.1426 31.9629 46.1426 42.7442 46.1426 53.5254C47.2558 53.5254 48.3692 53.5254 49.4825 53.5254C49.4825 42.7442 49.4825 31.9629 49.4825 21.1817C48.3692 21.1817 47.2558 21.1817 46.1426 21.1817Z" fill="#068FFF"/>
<path opacity="0.927" fill-rule="evenodd" clip-rule="evenodd" d="M60.7323 29.4434C63.3698 29.414 66.0065 29.4434 68.6425 29.5313C68.7889 29.6777 68.9355 29.8243 69.082 29.9707C69.1992 32.666 69.1992 35.3614 69.082 38.0567C69.0278 38.1987 68.9399 38.3159 68.8183 38.4082C66.1308 38.6104 63.4355 38.6397 60.7323 38.4961C60.6445 38.4082 60.5566 38.3203 60.4687 38.2324C60.1815 35.5534 60.1227 32.8581 60.2929 30.1465C60.4093 29.8856 60.5559 29.6513 60.7323 29.4434ZM62.4902 31.7285C62.4902 33.252 62.4902 34.7754 62.4902 36.2989C63.9549 36.2989 65.4199 36.2989 66.8847 36.2989C66.8847 34.7754 66.8847 33.252 66.8847 31.7285C65.4199 31.7285 63.9549 31.7285 62.4902 31.7285Z" fill="#068FFF"/>
<path opacity="0.927" fill-rule="evenodd" clip-rule="evenodd" d="M72.3339 29.4434C74.9713 29.414 77.6081 29.4434 80.2441 29.5313C80.3905 29.6777 80.5371 29.8243 80.6835 29.9707C80.8008 32.666 80.8008 35.3614 80.6835 38.0567C80.6294 38.1987 80.5415 38.3159 80.4198 38.4082C77.7323 38.6104 75.0371 38.6397 72.3339 38.4961C72.246 38.4082 72.1581 38.3203 72.0702 38.2324C71.783 35.5534 71.7243 32.8581 71.8945 30.1465C72.0108 29.8856 72.1574 29.6513 72.3339 29.4434ZM74.0917 31.7285C74.0917 33.252 74.0917 34.7754 74.0917 36.2989C75.5565 36.2989 77.0215 36.2989 78.4863 36.2989C78.4863 34.7754 78.4863 33.252 78.4863 31.7285C77.0215 31.7285 75.5565 31.7285 74.0917 31.7285Z" fill="#068FFF"/>
<path opacity="0.92" fill-rule="evenodd" clip-rule="evenodd" d="M60.9081 41.5723C63.4283 41.5429 65.948 41.5723 68.4667 41.6602C68.7183 41.7419 68.9232 41.8885 69.082 42.0996C69.1992 44.8536 69.1992 47.6074 69.082 50.3614C68.9941 50.4492 68.9062 50.5371 68.8183 50.625C66.2522 50.9091 63.674 50.9676 61.0839 50.8008C60.8324 50.7191 60.6274 50.5725 60.4687 50.3614C60.1815 47.6823 60.1227 44.987 60.2929 42.2754C60.4142 41.9502 60.6191 41.7157 60.9081 41.5723ZM62.4902 43.8574C62.4902 45.4395 62.4902 47.0215 62.4902 48.6035C63.9549 48.6035 65.4199 48.6035 66.8847 48.6035C66.8847 47.0215 66.8847 45.4395 66.8847 43.8574C65.4199 43.8574 63.9549 43.8574 62.4902 43.8574Z" fill="#068FFF"/>
<path opacity="0.92" fill-rule="evenodd" clip-rule="evenodd" d="M72.5097 41.5723C75.0299 41.5429 77.5495 41.5723 80.0683 41.6602C80.3198 41.7419 80.5248 41.8885 80.6835 42.0996C80.8008 44.7949 80.8008 47.4903 80.6835 50.1856C80.6178 50.3466 80.5299 50.4932 80.4198 50.625C77.8538 50.9091 75.2756 50.9676 72.6855 50.8008C72.4339 50.7191 72.229 50.5725 72.0702 50.3614C71.783 47.6823 71.7243 44.987 71.8945 42.2754C72.0157 41.9502 72.2207 41.7157 72.5097 41.5723ZM74.0917 43.8574C74.0917 45.4395 74.0917 47.0215 74.0917 48.6035C75.5565 48.6035 77.0215 48.6035 78.4863 48.6035C78.4863 47.0215 78.4863 45.4395 78.4863 43.8574C77.0215 43.8574 75.5565 43.8574 74.0917 43.8574Z" fill="#068FFF"/>
<path opacity="0.918" fill-rule="evenodd" clip-rule="evenodd" d="M61.0839 53.7012C63.5456 53.6718 66.0065 53.7012 68.4668 53.7891C68.7183 53.8708 68.9233 54.0174 69.082 54.2285C69.1992 56.9825 69.1992 59.7363 69.082 62.4903C68.9941 62.5781 68.9062 62.666 68.8183 62.7539C67.4588 62.9536 66.0818 63.0415 64.6875 63.0176C63.4276 62.9882 62.168 62.9591 60.9082 62.9297C60.7471 62.864 60.6005 62.7761 60.4687 62.666C60.1841 59.9827 60.1256 57.2873 60.2929 54.5801C60.4731 54.1957 60.7368 53.9026 61.0839 53.7012ZM62.4902 55.9864C62.4902 57.5684 62.4902 59.1504 62.4902 60.7324C63.955 60.7324 65.4199 60.7324 66.8847 60.7324C66.8847 59.1504 66.8847 57.5684 66.8847 55.9864C65.4199 55.9864 63.955 55.9864 62.4902 55.9864Z" fill="#068FFF"/>
<path opacity="0.918" fill-rule="evenodd" clip-rule="evenodd" d="M72.6855 53.7012C75.1471 53.6718 77.6081 53.7012 80.0683 53.7891C80.3198 53.8708 80.5248 54.0174 80.6835 54.2285C80.8008 56.9825 80.8008 59.7363 80.6835 62.4903C80.5956 62.5781 80.5077 62.666 80.4198 62.7539C79.0604 62.9536 77.6833 63.0415 76.289 63.0176C75.0292 62.9882 73.7695 62.9591 72.5097 62.9297C72.3487 62.864 72.2021 62.7761 72.0702 62.666C71.783 59.987 71.7243 57.2917 71.8945 54.5801C72.0746 54.1957 72.3383 53.9026 72.6855 53.7012ZM74.0917 55.9864C74.0917 57.5684 74.0917 59.1504 74.0917 60.7324C75.5565 60.7324 77.0215 60.7324 78.4863 60.7324C78.4863 59.1504 78.4863 57.5684 78.4863 55.9864C77.0215 55.9864 75.5565 55.9864 74.0917 55.9864Z" fill="#068FFF"/>
<path opacity="0.922" fill-rule="evenodd" clip-rule="evenodd" d="M61.0839 65.8301C63.5456 65.8007 66.0065 65.8301 68.4667 65.918C68.7183 65.9997 68.9232 66.1463 69.082 66.3574C69.1992 69.1114 69.1992 71.8652 69.082 74.6192C68.9355 74.7656 68.7889 74.9122 68.6425 75.0586C66.0643 75.1759 63.4863 75.1759 60.9081 75.0586C60.7471 74.9929 60.6005 74.905 60.4687 74.7949C60.1815 72.1159 60.1227 69.4206 60.2929 66.709C60.4731 66.3246 60.7367 66.0315 61.0839 65.8301ZM62.4902 68.1153C62.4902 69.6973 62.4902 71.2793 62.4902 72.8614C63.9549 72.8614 65.4199 72.8614 66.8847 72.8614C66.8847 71.2793 66.8847 69.6973 66.8847 68.1153C65.4199 68.1153 63.9549 68.1153 62.4902 68.1153Z" fill="#068FFF"/>
<path opacity="0.922" fill-rule="evenodd" clip-rule="evenodd" d="M72.6855 65.8301C75.1471 65.8007 77.6081 65.8301 80.0683 65.918C80.3198 65.9997 80.5248 66.1463 80.6835 66.3574C80.8008 69.1114 80.8008 71.8652 80.6835 74.6192C80.5371 74.7656 80.3905 74.9122 80.2441 75.0586C77.6659 75.1759 75.0879 75.1759 72.5097 75.0586C72.3487 74.9929 72.2021 74.905 72.0702 74.7949C71.783 72.1159 71.7243 69.4206 71.8945 66.709C72.0746 66.3246 72.3383 66.0315 72.6855 65.8301ZM74.0917 68.1153C74.0917 69.6973 74.0917 71.2793 74.0917 72.8614C75.5565 72.8614 77.0215 72.8614 78.4863 72.8614C78.4863 71.2793 78.4863 69.6973 78.4863 68.1153C77.0215 68.1153 75.5565 68.1153 74.0917 68.1153Z" fill="#068FFF"/>
</g>
<defs>
<clipPath id="clip0_429_3679">
<rect width="90" height="90" fill="white"/>
</clipPath>
</defs>
</svg>
