<svg width="22" height="22" viewBox="0 0 22 22" fill="none" xmlns="http://www.w3.org/2000/svg">
<path d="M20.7491 17.6583L13.952 10.8612L20.7607 4.05259C21.1709 3.64242 21.4013 3.08609 21.4013 2.50601C21.4013 1.92593 21.1709 1.36963 20.7607 0.95945C20.3505 0.549272 19.7942 0.318807 19.2141 0.318807C18.634 0.318807 18.0777 0.549243 17.6675 0.959422L10.8589 7.76807L4.05258 0.961774C3.85265 0.745723 3.61113 0.572228 3.34257 0.451726C3.074 0.331224 2.78391 0.2662 2.4896 0.260497C2.1953 0.254794 1.90284 0.308525 1.62981 0.418531C1.35678 0.528538 1.10875 0.692515 0.900612 0.900658C0.692467 1.1088 0.528491 1.35683 0.418485 1.62986C0.308478 1.90289 0.254747 2.19535 0.26045 2.48965C0.266153 2.78396 0.331177 3.07405 0.451679 3.34261C0.57218 3.61118 0.745677 3.8527 0.961728 4.05262L7.76802 10.8589L0.959374 17.6676C0.549197 18.0777 0.31876 18.6341 0.31876 19.2142C0.31876 19.7942 0.549225 20.3506 0.959403 20.7608C1.36958 21.1709 1.92588 21.4014 2.50596 21.4014C3.08604 21.4014 3.64237 21.1709 4.05255 20.7607L10.8612 13.9521L17.6675 20.7584C17.8675 20.9745 18.1089 21.1479 18.3775 21.2684C18.6461 21.3889 18.9362 21.454 19.2305 21.4597C19.5248 21.4654 19.8172 21.4116 20.0903 21.3016C20.3633 21.1916 20.6113 21.0276 20.8195 20.8195C21.0276 20.6114 21.1916 20.3633 21.3016 20.0903C21.4116 19.8173 21.4654 19.5249 21.4597 19.2306C21.454 18.9363 21.3889 18.6461 21.2684 18.3775C21.1479 18.109 20.9744 17.8675 20.7584 17.6676L20.7491 17.6583Z" fill="#54B435"/>
</svg>
