<svg width="33" height="33" viewBox="0 0 33 33" fill="none" xmlns="http://www.w3.org/2000/svg">
<g clip-path="url(#clip0_345_4816)">
<path d="M21.9245 19.633C22.2263 19.6341 22.5249 19.6954 22.8028 19.8134C23.0806 19.9314 23.3321 20.1037 23.5425 20.3201L28.5203 25.2945C28.8399 25.6149 29.0574 26.0228 29.1455 26.4667C29.2335 26.9107 29.1881 27.3707 29.0151 27.7888C28.842 28.207 28.549 28.5645 28.173 28.8164C27.797 29.0682 27.3548 29.2031 26.9023 29.2039C26.6016 29.2053 26.3037 29.1468 26.0259 29.0318C25.7481 28.9168 25.4959 28.7476 25.2842 28.534L20.3064 23.5562C19.9868 23.2358 19.7693 22.8279 19.6812 22.384C19.5932 21.9401 19.6386 21.48 19.8116 21.0619C19.9847 20.6437 20.2777 20.2862 20.6537 20.0344C21.0297 19.7825 21.4719 19.6477 21.9245 19.6468V19.633Z" fill="#54B435" fill-opacity="0.4"/>
<path d="M11.0721 13.3635C10.7703 13.3621 10.4718 13.3006 10.194 13.1826C9.91624 13.0647 9.66471 12.8926 9.45409 12.6765L4.4797 7.70893C4.05133 7.2794 3.81079 6.69751 3.81079 6.09087C3.81079 5.48424 4.05133 4.90237 4.4797 4.47284C4.69223 4.2598 4.94469 4.09077 5.22263 3.97544C5.50058 3.86012 5.79854 3.80076 6.09946 3.80076C6.40038 3.80076 6.69834 3.86012 6.97629 3.97544C7.25423 4.09077 7.50673 4.2598 7.71926 4.47284L12.6971 9.45066C13.0169 9.7713 13.2344 10.1795 13.3224 10.6237C13.4103 11.068 13.3647 11.5283 13.1912 11.9466C13.0177 12.3649 12.7241 12.7224 12.3476 12.974C11.9711 13.2255 11.5284 13.3599 11.0756 13.3601L11.0721 13.3635Z" fill="#54B435" fill-opacity="0.4"/>
<path d="M23.9102 16.8023C23.3537 16.8042 22.8155 16.6031 22.3965 16.2368C21.9775 15.8705 21.7064 15.364 21.634 14.8122C21.5615 14.2604 21.6927 13.7011 22.0029 13.2391C22.3131 12.777 22.7811 12.4439 23.3193 12.302L30.1213 10.4778C30.7075 10.3244 31.3305 10.4088 31.8549 10.7124C32.3792 11.0161 32.7624 11.5146 32.9211 12.0993C33.0766 12.6856 32.9937 13.3095 32.6905 13.8348C32.3873 14.3601 31.8884 14.744 31.303 14.9026L24.5011 16.7233C24.3084 16.7753 24.1098 16.8019 23.9102 16.8023Z" fill="#54B435" fill-opacity="0.4"/>
<path d="M1.69702 18.094L8.49899 16.2733C9.08529 16.1166 9.70986 16.1992 10.2352 16.503C10.7606 16.8067 11.1438 17.3067 11.3005 17.893C11.4572 18.4794 11.3746 19.1039 11.0709 19.6293C10.7671 20.1547 10.2671 20.5379 9.68078 20.6946L2.87876 22.5187C2.30023 22.6513 1.69285 22.5542 1.18448 22.2479C0.676115 21.9415 0.306441 21.4499 0.153291 20.8765C0.000140481 20.3031 0.0754453 19.6926 0.363388 19.1736C0.65133 18.6546 1.12944 18.2676 1.69702 18.094Z" fill="#54B435" fill-opacity="0.4"/>
<path d="M16.2733 8.49562L18.094 1.69706C18.1645 1.3986 18.2941 1.11732 18.4753 0.869885C18.6565 0.622453 18.8855 0.413906 19.1487 0.2566C19.412 0.0992947 19.7041 -0.00355691 20.0079 -0.0458803C20.3116 -0.0882037 20.6207 -0.0691377 20.9169 0.0102084C21.2132 0.0895544 21.4905 0.227561 21.7324 0.416039C21.9743 0.604517 22.1759 0.839641 22.3253 1.10747C22.4746 1.3753 22.5687 1.67038 22.602 1.97524C22.6352 2.2801 22.6069 2.58854 22.5188 2.88226L20.698 9.68082C20.5667 10.1674 20.279 10.5972 19.8791 10.9039C19.4793 11.2106 18.9896 11.3772 18.4857 11.3779C18.2861 11.3777 18.0874 11.3511 17.8948 11.2989C17.3082 11.1418 16.808 10.7584 16.504 10.2328C16.2 9.70717 16.117 9.08236 16.2733 8.49562Z" fill="#54B435" fill-opacity="0.4"/>
<path d="M12.3021 23.3157C12.3799 23.0254 12.5141 22.7533 12.6971 22.5149C12.8801 22.2765 13.1083 22.0764 13.3686 21.9261C13.6289 21.7759 13.9163 21.6784 14.2143 21.6392C14.5123 21.6 14.8151 21.6199 15.1054 21.6977C15.3957 21.7755 15.6678 21.9097 15.9062 22.0927C16.1446 22.2757 16.3447 22.5039 16.4949 22.7642C16.6452 23.0245 16.7427 23.3119 16.7819 23.6099C16.8211 23.9078 16.8012 24.2106 16.7234 24.5009L14.9026 31.3029C14.7714 31.7886 14.484 32.2175 14.0848 32.5236C13.6856 32.8297 13.1968 32.9959 12.6937 32.9966C12.4932 32.9968 12.2935 32.9714 12.0994 32.921C11.5133 32.7624 11.0138 32.378 10.7105 31.8519C10.4072 31.3259 10.3248 30.701 10.4814 30.1143L12.3021 23.3157Z" fill="#54B435" fill-opacity="0.4"/>
</g>
<defs>
<clipPath id="clip0_345_4816">
<rect width="33" height="33" fill="white"/>
</clipPath>
</defs>
</svg>
