<svg width="42" height="42" viewBox="0 0 42 42" fill="none" xmlns="http://www.w3.org/2000/svg">
<g clip-path="url(#clip0_770_1847)">
<path opacity="0.922" fill-rule="evenodd" clip-rule="evenodd" d="M37.0371 0.287131C37.3399 0.243755 37.5997 0.325786 37.8164 0.533225C37.9275 0.850095 37.9685 1.17822 37.9394 1.5176C38.2743 1.50477 38.6024 1.54579 38.9238 1.64065C39.3613 2.02346 39.3613 2.40627 38.9238 2.78908C38.5968 2.83 38.2687 2.84368 37.9394 2.8301C37.953 3.13211 37.9394 3.4329 37.8984 3.73244C37.5792 4.20487 37.1963 4.25956 36.75 3.89651C36.6378 3.55201 36.5968 3.19654 36.6269 2.8301C36.2977 2.84368 35.9695 2.83 35.6426 2.78908C35.2051 2.40627 35.2051 2.02346 35.6426 1.64065C35.964 1.54579 36.2921 1.50477 36.6269 1.5176C36.6134 1.2428 36.6271 0.969369 36.6679 0.697288C36.752 0.517889 36.8751 0.38117 37.0371 0.287131Z" fill="#068FFF"/>
<path opacity="0.935" fill-rule="evenodd" clip-rule="evenodd" d="M28.834 3.4863C30.5633 3.38394 31.329 4.20425 31.1309 5.94724C32.5813 5.73271 33.429 6.33428 33.6738 7.75192C33.4106 9.15679 32.563 9.73101 31.1309 9.47458C31.3176 10.377 31.0716 11.129 30.3926 11.7304C29.1181 12.3266 28.2021 11.9848 27.6445 10.705C27.6036 10.2958 27.5899 9.88564 27.6035 9.47458C26.1714 9.73101 25.3238 9.15679 25.0605 7.75192C25.3065 6.33299 26.1541 5.73142 27.6035 5.94724C27.4079 4.80722 27.818 3.98691 28.834 3.4863ZM29.1621 4.7988C29.4207 4.75439 29.6258 4.83642 29.7773 5.04489C29.8047 5.64645 29.8321 6.24802 29.8594 6.84958C29.8975 6.96695 29.9659 7.06266 30.0645 7.13669C30.7123 7.24087 31.3685 7.29556 32.0332 7.30075C32.4823 7.68879 32.4276 7.98958 31.8691 8.2031C31.2949 8.23041 30.7207 8.25781 30.1465 8.28513C30.0194 8.38471 29.9238 8.50776 29.8594 8.65427C29.8321 9.2558 29.8047 9.85742 29.7773 10.459C29.5039 10.7871 29.2304 10.7871 28.957 10.459C28.9297 9.85742 28.9023 9.2558 28.875 8.65427C28.8106 8.50776 28.715 8.38471 28.5879 8.28513C27.9253 8.27709 27.2691 8.22237 26.6191 8.12107C26.2989 7.82595 26.3263 7.55252 26.7012 7.30075C27.3027 7.27341 27.9043 7.24606 28.5059 7.21872C28.6232 7.18056 28.7189 7.1122 28.793 7.01364C28.8971 6.36587 28.9519 5.70962 28.957 5.04489C29.0428 4.97325 29.1111 4.89122 29.1621 4.7988Z" fill="#068FFF"/>
<path opacity="0.939" fill-rule="evenodd" clip-rule="evenodd" d="M41.959 19.2363C41.959 20.1387 41.959 21.041 41.959 21.9434C41.7022 22.5 41.2648 22.8008 40.6465 22.8457C40.6602 28.8067 40.6465 34.7676 40.6055 40.7285C40.5226 41.0848 40.3175 41.3446 39.9902 41.5078C39.5319 41.5976 39.0671 41.6386 38.5957 41.6309C38.1244 41.6386 37.6595 41.5976 37.2012 41.5078C36.8667 41.2818 36.6617 40.9674 36.5859 40.5645C36.5449 34.6583 36.5312 28.752 36.5449 22.8457C35.0954 22.8594 33.6463 22.8457 32.1973 22.8047C31.7242 22.5029 31.6695 22.1338 32.0332 21.6973C32.1152 21.6563 32.1973 21.6152 32.2793 21.5742C35.0684 21.5469 37.8574 21.5195 40.6465 21.4922C40.7548 20.9067 40.7548 20.3189 40.6465 19.7285C37.0375 19.6465 33.4281 19.6192 29.8184 19.6465C30.1562 22.0525 30.498 24.4587 30.8438 26.8652C30.9415 28.3537 30.2989 29.3791 28.916 29.9414C28.6219 30.0323 28.321 30.0733 28.0137 30.0645C28.6916 33.7763 29.3068 37.4951 29.8594 41.2207C29.6768 41.5784 29.3897 41.7015 28.998 41.5898C28.8203 41.5215 28.6972 41.3985 28.6289 41.2207C28.4051 39.96 28.1727 38.7023 27.9316 37.4473C26.6864 36.811 25.4286 36.1958 24.1582 35.6016C23.8674 35.5547 23.594 35.6094 23.3379 35.7656C22.2108 36.355 21.0623 36.8882 19.8926 37.3652C19.6856 38.7166 19.4258 40.0564 19.1133 41.3848C18.7578 41.7129 18.4023 41.7129 18.0469 41.3848C17.9712 41.2589 17.9301 41.1222 17.9238 40.9746C18.5618 37.3385 19.1906 33.7018 19.8105 30.0645C18.3535 30.2046 17.3008 29.6303 16.6523 28.3418C16.5187 27.9988 16.4504 27.6433 16.4473 27.2754C16.6387 25.7983 16.8302 24.3217 17.0215 22.8457C15.709 22.8457 14.3965 22.8457 13.084 22.8457C13.0977 28.8067 13.084 34.7676 13.043 40.7285C12.9199 41.1797 12.6328 41.4668 12.1816 41.5898C8.90039 41.6446 5.61914 41.6446 2.33789 41.5898C1.85309 41.4603 1.56598 41.1459 1.47656 40.6465C1.43555 34.7129 1.42187 28.7794 1.43555 22.8457C0.732437 22.8775 0.24025 22.5767 -0.0410156 21.9434C-0.0410156 21.041 -0.0410156 20.1387 -0.0410156 19.2363C0.196103 18.7135 0.606259 18.4264 1.18945 18.375C3.91602 18.3611 6.63673 18.32 9.35156 18.252C9.54401 17.5096 9.74909 16.7713 9.9668 16.0371C8.51837 15.9688 7.06913 15.9278 5.61914 15.9141C5.02947 15.8584 4.66033 15.544 4.51172 14.9707C4.43145 12.2587 4.45879 9.55164 4.59375 6.84961C4.72722 6.47537 4.98699 6.24295 5.37305 6.15235C6.13867 6.09766 6.9043 6.09766 7.66992 6.15235C8.04468 6.36082 8.16773 6.67527 8.03906 7.09571C7.94336 7.19141 7.84766 7.28711 7.75195 7.38281C7.09627 7.42381 6.44002 7.43748 5.7832 7.42383C5.7832 8.95511 5.7832 10.4863 5.7832 12.0176C10.0215 12.0176 14.2597 12.0176 18.498 12.0176C18.498 10.4863 18.498 8.95511 18.498 7.42383C15.6815 7.4375 12.8651 7.42383 10.0488 7.38281C9.48929 6.94034 9.51669 6.53018 10.1309 6.15235C13.0293 6.09766 15.9278 6.09766 18.8262 6.15235C19.2512 6.22051 19.5383 6.45293 19.6875 6.84961C19.7802 8.2407 19.8212 9.63523 19.8105 11.0332C19.7968 12.291 19.7832 13.5489 19.7695 14.8066C19.6738 15.4492 19.3047 15.8183 18.6621 15.9141C17.2131 15.9551 15.7639 15.9688 14.3145 15.9551C14.4919 16.747 14.7107 17.5263 14.9707 18.293C16.0371 18.3477 17.1035 18.3477 18.1699 18.293C18.8262 17.3903 19.7011 16.8161 20.7949 16.5703C22.709 16.5156 24.6231 16.5156 26.5371 16.5703C27.6309 16.8161 28.5059 17.3903 29.1621 18.293C33.0176 18.3203 36.873 18.3477 40.7285 18.375C41.2865 18.4616 41.6966 18.7487 41.959 19.2363ZM5.7832 13.3301C10.0215 13.3301 14.2597 13.3301 18.498 13.3301C18.498 13.7676 18.498 14.2051 18.498 14.6426C14.2597 14.6426 10.0215 14.6426 5.7832 14.6426C5.7832 14.2051 5.7832 13.7676 5.7832 13.3301ZM11.3613 15.9551C11.8837 15.928 12.4033 15.9554 12.9199 16.0371C13.1387 16.7754 13.3574 17.5137 13.5762 18.252C12.6191 18.3613 11.6621 18.3613 10.7051 18.252C10.9243 17.484 11.1431 16.7183 11.3613 15.9551ZM21.6152 17.7598C23.1769 17.7265 24.7355 17.7675 26.291 17.8828C27.5162 18.2057 28.2681 18.985 28.5469 20.2207C28.8887 22.5586 29.2304 24.8965 29.5723 27.2344C29.4956 27.967 29.1128 28.4592 28.4238 28.7109C25.2519 28.7657 22.0801 28.7657 18.9082 28.7109C18.2179 28.4581 17.8352 27.9659 17.7598 27.2344C18.0984 24.7547 18.4675 22.2802 18.8672 19.8105C19.3999 18.5957 20.3159 17.9122 21.6152 17.7598ZM1.27148 19.6465C6.68555 19.6465 12.0996 19.6465 17.5137 19.6465C17.4087 20.2722 17.3266 20.9011 17.2676 21.5332C11.9355 21.5469 6.60344 21.5332 1.27148 21.4922C1.16596 20.8794 1.16596 20.2642 1.27148 19.6465ZM2.74805 22.8457C5.75586 22.8457 8.76364 22.8457 11.7715 22.8457C11.7715 24.459 11.7715 26.0722 11.7715 27.6855C10.4863 27.6855 9.2012 27.6855 7.91602 27.6855C7.92962 27.3017 7.91595 26.919 7.875 26.5371C7.42668 25.9723 7.01653 25.9996 6.64453 26.6191C6.6036 26.9736 6.58992 27.329 6.60352 27.6855C5.31836 27.6855 4.03321 27.6855 2.74805 27.6855C2.74805 26.0722 2.74805 24.459 2.74805 22.8457ZM37.8574 22.8457C38.3496 22.8457 38.8418 22.8457 39.334 22.8457C39.334 28.6699 39.334 34.4941 39.334 40.3184C38.8418 40.3184 38.3496 40.3184 37.8574 40.3184C37.8574 34.4941 37.8574 28.6699 37.8574 22.8457ZM2.74805 28.998C5.75586 28.998 8.76364 28.998 11.7715 28.998C11.7715 30.748 11.7715 32.4981 11.7715 34.248C10.4863 34.248 9.2012 34.248 7.91602 34.248C7.92962 33.8642 7.91595 33.4815 7.875 33.0996C7.42882 32.5428 7.01866 32.5701 6.64453 33.1816C6.6036 33.5361 6.58992 33.8915 6.60352 34.248C5.31836 34.248 4.03321 34.248 2.74805 34.248C2.74805 32.4981 2.74805 30.748 2.74805 28.998ZM21.123 30.0645C22.9824 30.0645 24.8418 30.0645 26.7012 30.0645C26.8342 30.8894 26.9573 31.7098 27.0703 32.5254C26.0333 33.0508 24.9805 33.543 23.9121 34.002C22.8356 33.5199 21.7692 33.0141 20.7129 32.4844C20.8891 31.6868 21.0258 30.8802 21.123 30.0645ZM20.4668 33.9199C21.1126 34.1606 21.7415 34.4477 22.3535 34.7813C21.6157 35.137 20.8774 35.4651 20.1387 35.7656C20.2787 35.1583 20.388 34.543 20.4668 33.9199ZM27.1934 33.9199C27.3201 33.9798 27.3884 34.0892 27.3984 34.248C27.5084 34.7703 27.5904 35.2898 27.6445 35.8066C26.9261 35.4543 26.2015 35.1125 25.4707 34.7813C26.0525 34.4904 26.6267 34.2033 27.1934 33.9199ZM2.74805 35.5605C5.75586 35.5605 8.76364 35.5605 11.7715 35.5605C11.7715 37.1465 11.7715 38.7325 11.7715 40.3184C10.4863 40.3184 9.2012 40.3184 7.91602 40.3184C7.92962 39.9345 7.91595 39.5518 7.875 39.1699C7.62782 38.7569 7.28602 38.6612 6.84961 38.8828C6.75106 38.9569 6.68269 39.0525 6.64453 39.1699C6.60358 39.5518 6.58991 39.9345 6.60352 40.3184C5.31836 40.3184 4.03321 40.3184 2.74805 40.3184C2.74805 38.7325 2.74805 37.1465 2.74805 35.5605Z" fill="#068FFF"/>
</g>
<defs>
<clipPath id="clip0_770_1847">
<rect width="42" height="42" fill="white"/>
</clipPath>
</defs>
</svg>
