<svg width="35" height="36" viewBox="0 0 35 36" fill="none" xmlns="http://www.w3.org/2000/svg">
<g clip-path="url(#clip0_173_247)">
<path opacity="0.933" fill-rule="evenodd" clip-rule="evenodd" d="M16.0303 0.925267C19.5093 0.655647 22.6995 1.47596 25.6006 3.3862C25.6234 3.35202 25.6462 3.31784 25.669 3.28367C25.5041 2.95893 25.4699 2.62852 25.5665 2.29245C25.9083 1.92787 26.25 1.92787 26.5918 2.29245C26.8645 3.22366 27.1266 4.15791 27.378 5.09519C27.3303 5.33668 27.1935 5.50758 26.9678 5.60788C25.9664 5.69309 24.9637 5.71587 23.96 5.67624C23.6318 5.46343 23.552 5.1786 23.7208 4.82175C23.8109 4.68589 23.9362 4.60614 24.0967 4.58249C24.4385 4.55971 24.7803 4.53692 25.1221 4.51413C21.7832 2.21488 18.1374 1.53129 14.1846 2.46335C11.6988 3.14181 9.56824 4.40645 7.79302 6.2573C7.79719 7.02385 7.83137 7.78718 7.89556 8.54734C7.72979 9.14938 7.37657 9.29744 6.83599 8.99167C6.69835 8.57201 6.62999 8.13903 6.63091 7.69284C4.98833 10.0233 4.16802 12.6209 4.16997 15.4858C4.00905 15.8683 3.72422 15.9936 3.31548 15.8618C3.23572 15.782 3.15598 15.7023 3.07622 15.6225C2.97585 12.5176 3.80756 9.69208 5.57134 7.14597C5.55994 7.12319 5.54855 7.10039 5.53716 7.07761C5.15049 7.28412 4.75172 7.3183 4.34087 7.18015C4.05535 6.84151 4.07814 6.5225 4.40923 6.22312C5.25545 5.98308 6.09855 5.73243 6.93853 5.47117C9.41457 2.86595 12.4451 1.35065 16.0303 0.925267Z" fill="#068FFF"/>
<path opacity="0.938" fill-rule="evenodd" clip-rule="evenodd" d="M17.3975 6.39404C18.3937 6.43036 19.157 6.8633 19.6875 7.69287C20.1961 8.79038 20.0708 9.80436 19.3115 10.7349C19.8263 10.9579 20.282 11.2655 20.6787 11.6577C21.064 11.1471 21.5425 10.7484 22.1143 10.4614C21.4643 9.60188 21.4074 8.70186 21.9434 7.76123C22.7427 6.76789 23.7339 6.52864 24.917 7.04346C25.9313 7.71488 26.2617 8.63773 25.9082 9.81201C25.8087 10.0453 25.6834 10.2617 25.5322 10.4614C26.9352 11.1998 27.6074 12.3505 27.5488 13.9136C27.4423 14.0686 27.2943 14.1483 27.1045 14.1528C25.3729 14.187 23.6411 14.1984 21.9092 14.187C21.9445 14.505 21.8305 14.7443 21.5674 14.9048C18.833 14.9504 16.0986 14.9504 13.3643 14.9048C13.1011 14.7443 12.9872 14.505 13.0225 14.187C11.2905 14.1984 9.55876 14.187 7.82715 14.1528C7.47708 14.0989 7.29477 13.8938 7.28027 13.5376C7.44939 12.1386 8.15582 11.1132 9.39941 10.4614C8.76005 9.59853 8.70304 8.69844 9.22852 7.76123C10.0278 6.76789 11.0191 6.52864 12.2021 7.04346C13.2919 7.78372 13.5995 8.77493 13.125 10.0171C13.0309 10.1712 12.9283 10.3192 12.8174 10.4614C13.3891 10.7484 13.8677 11.1471 14.2529 11.6577C14.6496 11.2655 15.1053 10.9579 15.6201 10.7349C14.7209 9.57104 14.7095 8.39759 15.5859 7.21436C16.0987 6.72414 16.7025 6.45071 17.3975 6.39404ZM17.3291 7.55615C18.6534 7.7667 19.0749 8.49589 18.5938 9.74365C17.8418 10.564 17.0898 10.564 16.3379 9.74365C15.8727 8.64635 16.2031 7.91723 17.3291 7.55615ZM10.7666 7.96631C11.798 7.91497 12.2423 8.39349 12.0996 9.40186C11.6527 10.1354 11.0717 10.2608 10.3564 9.77783C9.86139 9.03483 9.99811 8.43102 10.7666 7.96631ZM23.4814 7.96631C24.299 7.86104 24.7775 8.21425 24.917 9.02588C24.6505 10.0023 24.058 10.2757 23.1396 9.84619C22.5435 9.09328 22.6574 8.46663 23.4814 7.96631ZM10.6982 11.2476C11.9598 11.1603 12.8941 11.6616 13.501 12.7515C13.4668 12.8198 13.4326 12.8882 13.3984 12.9565C11.797 13.0358 10.1905 13.0473 8.5791 12.9907C9.01059 12.0688 9.71694 11.4878 10.6982 11.2476ZM23.4131 11.2476C24.7965 11.164 25.7763 11.745 26.3525 12.9907C24.7575 13.0363 23.1624 13.0363 21.5674 12.9907C21.5132 12.9166 21.4676 12.8368 21.4307 12.7515C21.8573 11.937 22.5181 11.4357 23.4131 11.2476ZM16.9189 11.521C18.6748 11.407 19.9052 12.1476 20.6104 13.7427C18.514 13.7883 16.4177 13.7883 14.3213 13.7427C14.8218 12.5696 15.6877 11.8291 16.9189 11.521Z" fill="#068FFF"/>
<path opacity="0.926" fill-rule="evenodd" clip-rule="evenodd" d="M29.3604 7.76123C29.6992 7.76937 29.9384 7.92885 30.0781 8.23975C31.3587 10.5364 31.9511 12.9974 31.8555 15.6226C31.6535 15.8808 31.3915 15.9605 31.0694 15.8618C30.9111 15.786 30.8086 15.6606 30.7617 15.4858C30.755 13.0209 30.1398 10.7196 28.916 8.58154C28.8339 8.17583 28.982 7.90239 29.3604 7.76123Z" fill="#068FFF"/>
<path opacity="0.934" fill-rule="evenodd" clip-rule="evenodd" d="M7.48536 14.5288C7.83393 14.5066 8.17572 14.5407 8.51075 14.6313C9.07239 14.9007 9.64203 15.1514 10.2197 15.3833C10.6828 15.6761 10.9335 16.0976 10.9717 16.6479C10.8769 17.0422 10.7629 17.4295 10.6299 17.81C11.0457 17.9608 11.4559 18.1317 11.8604 18.3227C12.028 18.3732 12.1989 18.4074 12.3731 18.4253C13.3105 18.2166 14.2561 18.057 15.21 17.9467C15.9438 17.985 16.6388 18.1672 17.2949 18.4936C18.4168 17.8149 19.6131 17.644 20.8838 17.9809C21.5065 18.1898 22.1217 18.4177 22.7295 18.6645C23.0208 18.7577 23.3171 18.7805 23.6182 18.7329C23.9864 18.58 24.3282 18.3863 24.6436 18.1518C24.1822 17.3137 24.2961 16.5731 24.9854 15.9301C25.6864 15.6433 26.3927 15.3699 27.1045 15.1098C27.9061 14.9808 28.4644 15.2884 28.7793 16.0327C29.8958 18.9038 31.0124 21.7749 32.1289 24.646C32.357 25.3512 32.1861 25.9323 31.6162 26.3891C30.9435 26.6893 30.2599 26.9627 29.5654 27.2094C28.9601 27.3636 28.4474 27.2155 28.0274 26.7651C27.9353 26.5347 27.81 26.3297 27.6514 26.1499C27.2897 26.3007 26.9251 26.4375 26.5576 26.56C26.6236 27.552 26.202 28.2356 25.293 28.6108C25.4249 30.0453 24.7755 30.8315 23.3447 30.9692C23.1894 32.2304 22.4829 32.8343 21.2256 32.7807C20.9552 34.1565 20.1349 34.7376 18.7647 34.5239C18.5006 34.4432 18.2613 34.3179 18.0469 34.1479C17.4131 34.8258 16.6498 35.0195 15.7568 34.729C15.2917 34.5259 14.9499 34.1955 14.7315 33.7378C13.74 34.0073 12.9653 33.7111 12.4072 32.8491C11.1364 33.2789 10.2592 32.8688 9.7754 31.6186C9.74136 31.3919 9.72994 31.164 9.74122 30.935C8.90573 30.8857 8.32468 30.4755 7.99806 29.7046C7.89969 29.3449 7.87693 28.9802 7.9297 28.6108C8.0872 28.1593 8.28093 27.7263 8.51075 27.312C8.41792 26.9503 8.33815 26.5857 8.2715 26.2182C8.24784 26.0577 8.16807 25.9324 8.03224 25.8423C7.74233 25.7258 7.45754 25.6004 7.17775 25.4663C6.91395 26.2767 6.35566 26.6527 5.50294 26.5942C4.78939 26.3172 4.08301 26.021 3.3838 25.7055C2.70716 25.1982 2.53626 24.5488 2.87111 23.7573C4.17512 20.8077 5.49673 17.8682 6.83595 14.9389C7.03029 14.7569 7.24672 14.6202 7.48536 14.5288ZM7.7588 15.6909C7.92471 15.6925 8.08419 15.7266 8.23732 15.7934C8.64747 15.9757 9.05763 16.158 9.46779 16.3403C9.62187 16.383 9.73582 16.4741 9.80958 16.6137C8.60051 19.3852 7.38139 22.1538 6.15236 24.9194C6.07676 25.1399 5.95144 25.3222 5.77638 25.4663C5.17589 25.223 4.58344 24.961 3.99904 24.6801C3.9256 24.6296 3.88003 24.5613 3.86232 24.4751C5.15275 21.5412 6.45158 18.6131 7.7588 15.6909ZM27.3096 16.2378C27.48 16.2261 27.6053 16.2944 27.6856 16.4428C28.8135 19.3709 29.9414 22.299 31.0693 25.227C31.0516 25.3132 31.006 25.3816 30.9326 25.4321C30.4085 25.6372 29.8845 25.8423 29.3604 26.0473C29.1878 26.1086 29.0396 26.0744 28.916 25.9448C27.7813 23.0077 26.6533 20.0682 25.5322 17.1264C25.5396 17.062 25.5624 17.0051 25.6006 16.9555C26.1799 16.7212 26.7496 16.4819 27.3096 16.2378ZM10.083 18.8354C10.5228 19.0088 10.9558 19.2025 11.3818 19.4165C11.6955 19.5042 12.0145 19.5613 12.3389 19.5874C13.2955 19.428 14.2525 19.2685 15.21 19.1089C15.5496 19.1234 15.8685 19.2031 16.167 19.3481C15.6429 19.8266 15.1188 20.3051 14.5947 20.7837C13.8374 21.3275 13.074 21.8631 12.3047 22.3901C12.168 22.6863 12.168 22.9826 12.3047 23.2788C13.4136 24.6662 14.815 25.0877 16.5088 24.5434C17.4518 24.1631 18.4088 23.8213 19.3799 23.518C19.8957 23.4185 20.3742 23.5096 20.8154 23.7915C22.1943 24.6063 23.5843 25.4038 24.9854 26.1841C25.4979 26.5695 25.5207 26.9797 25.0537 27.4145C24.6892 27.5676 24.3474 27.522 24.0283 27.2778C23.1169 26.7537 22.2054 26.2297 21.294 25.7055C20.6712 25.5541 20.3863 25.7933 20.4395 26.4233C20.4931 26.5454 20.5728 26.6479 20.6787 26.7309C21.7269 27.3234 22.7751 27.9158 23.8233 28.5083C24.306 28.9748 24.2605 29.385 23.6865 29.7387C23.5042 29.7843 23.322 29.7843 23.1397 29.7387C21.7725 28.964 20.4053 28.1892 19.0381 27.4145C18.5325 27.2682 18.2362 27.4505 18.1494 27.9614C18.177 28.1588 18.2681 28.3183 18.4229 28.4399C19.6472 29.0917 20.8435 29.7867 22.0117 30.5249C22.2558 31.1304 22.0622 31.5178 21.4307 31.687C20.6592 31.3241 19.9073 30.9253 19.1748 30.4907C18.8018 30.1637 18.3917 29.8902 17.9443 29.6704C17.5905 29.5593 17.2372 29.5479 16.8848 29.6362C16.4294 28.644 15.6661 28.2339 14.5947 28.4057C14.1896 27.4915 13.4946 27.0813 12.5098 27.1753C12.2022 25.9901 11.4389 25.4774 10.2197 25.6372C9.92614 25.6986 9.66411 25.8239 9.43361 26.0132C9.33736 25.604 9.14363 25.2508 8.85255 24.9536C8.45244 24.7651 8.06505 24.56 7.69044 24.3384C8.50829 22.5108 9.30584 20.6765 10.083 18.8354ZM19.2432 18.9721C19.635 18.9573 20.0224 18.9915 20.4053 19.0747C21.1183 19.3058 21.8247 19.5565 22.5244 19.8266C23.0492 19.9602 23.5732 19.9602 24.0967 19.8266C24.4325 19.6645 24.7629 19.4936 25.0879 19.3139C25.8288 21.2177 26.5693 23.1204 27.3096 25.0219C26.8916 25.174 26.4814 25.3449 26.0791 25.5346C25.8982 25.353 25.6931 25.2049 25.4639 25.0903C24.0172 24.2873 22.5816 23.467 21.1572 22.6294C20.4317 22.3051 19.6798 22.2368 18.9014 22.4243C18.0249 22.7164 17.1591 23.0354 16.3037 23.3813C15.287 23.7931 14.3756 23.6336 13.5693 22.9028C14.85 22.1243 16.0121 21.19 17.0557 20.1001C17.7051 19.5589 18.4342 19.183 19.2432 18.9721ZM10.4248 26.7651C11.0617 26.73 11.3693 27.0262 11.3477 27.6538C11.0023 28.4027 10.5807 29.0976 10.083 29.7387C9.37618 29.8293 9.04573 29.5217 9.09181 28.8159C9.38801 28.2463 9.68428 27.6765 9.98048 27.1069C10.1039 26.9479 10.252 26.834 10.4248 26.7651ZM12.6123 28.269C13.1672 28.3111 13.452 28.6074 13.4668 29.1577C13.0741 29.9659 12.6639 30.7634 12.2363 31.5503C11.8262 32.006 11.416 32.006 11.0059 31.5503C10.9045 31.3314 10.8817 31.1035 10.9375 30.8667C11.3818 30.0691 11.8262 29.2716 12.2705 28.4741C12.383 28.3923 12.4969 28.324 12.6123 28.269ZM14.8682 29.4995C15.5041 29.5087 15.789 29.8277 15.7227 30.4565C15.3862 31.061 15.0672 31.6763 14.7656 32.3022C14.4094 32.7764 14.0107 32.822 13.5693 32.4389C13.4684 32.3077 13.4001 32.1596 13.3643 31.9946C13.7135 31.2391 14.0895 30.4986 14.4922 29.7729C14.5947 29.6383 14.72 29.5472 14.8682 29.4995ZM17.124 30.73C17.7948 30.7512 18.0796 31.093 17.9785 31.7553C17.7225 32.2902 17.4491 32.8143 17.1582 33.3276C16.7253 33.7834 16.2923 33.7834 15.8594 33.3276C15.7808 33.1735 15.7579 33.014 15.791 32.8491C16.1275 32.2446 16.4465 31.6294 16.7481 31.0034C16.8506 30.8688 16.9759 30.7777 17.124 30.73ZM19.1748 31.8237C19.3951 31.9511 19.6116 32.0878 19.8242 32.2339C20.1623 32.8565 19.9914 33.2666 19.3115 33.4643C19.0509 33.3912 18.8231 33.2658 18.6279 33.0884C18.8762 32.6945 19.0585 32.273 19.1748 31.8237Z" fill="#068FFF"/>
<path opacity="0.871" fill-rule="evenodd" clip-rule="evenodd" d="M8.10056 16.5112C8.6086 16.3998 8.9048 16.5935 8.98923 17.0923C8.76098 17.7286 8.385 17.8311 7.8613 17.3999C7.69915 17.0326 7.77892 16.7364 8.10056 16.5112Z" fill="#068FFF"/>
<path opacity="0.879" fill-rule="evenodd" clip-rule="evenodd" d="M26.626 17.0581C27.4576 17.0138 27.6854 17.3556 27.3096 18.0835C26.588 18.3536 26.2803 18.1029 26.3867 17.3316C26.4808 17.2492 26.5605 17.1581 26.626 17.0581Z" fill="#068FFF"/>
</g>
<defs>
<clipPath id="clip0_173_247">
<rect width="35" height="35" fill="white" transform="translate(0 0.412598)"/>
</clipPath>
</defs>
</svg>
