<svg width="90" height="90" viewBox="0 0 90 90" fill="none" xmlns="http://www.w3.org/2000/svg">
<g clip-path="url(#clip0_429_3661)">
<path opacity="0.937" fill-rule="evenodd" clip-rule="evenodd" d="M57.9199 -0.0878906C59.1504 -0.0878906 60.3809 -0.0878906 61.6113 -0.0878906C66.1001 1.14976 68.7074 4.07944 69.4336 8.70117C69.5215 14.9118 69.5508 21.1228 69.5215 27.334C70.103 27.2415 70.4837 27.4758 70.6641 28.0371C70.6934 30.5587 70.7813 33.0782 70.9277 35.5957C72.8218 36.5806 74.0229 38.1041 74.5312 40.166C74.7023 43.3461 74.6436 46.5101 74.3555 49.6582C73.5354 50.1778 72.7738 50.1191 72.0703 49.4824C71.8434 46.5057 71.7261 43.5175 71.7188 40.5176C70.8843 38.5325 69.3902 37.6536 67.2363 37.8809C65.6961 37.9252 64.1726 38.1009 62.666 38.4082C62.6954 44.5022 62.666 50.596 62.5781 56.6895C62.1163 58.6749 60.9152 59.9933 58.9746 60.6445C53.9358 60.7324 48.8969 60.7618 43.8574 60.7324C43.0196 65.3613 42.1699 69.9903 41.3086 74.6191C40.9194 80.2603 43.2925 84.2154 48.4277 86.4844C49.6758 86.9428 50.9648 87.1773 52.2949 87.1875C56.4551 87.3047 60.6152 87.3047 64.7754 87.1875C59.6071 83.0491 57.8784 77.7463 59.5898 71.2793C61.698 65.5683 65.7703 62.287 71.8066 61.4355C71.7773 58.8568 71.8066 56.2787 71.8945 53.7012C72.3148 52.6521 73.0473 52.3297 74.0918 52.7344C74.3029 52.8931 74.4495 53.0981 74.5312 53.3496C74.6191 56.0443 74.6485 58.7396 74.6191 61.4355C80.347 62.1439 84.3606 65.1322 86.6602 70.4004C88.9785 77.978 86.8398 83.9252 80.2441 88.2422C78.7224 89.0323 77.1404 89.5888 75.498 89.9121C67.002 89.9121 58.5058 89.9121 50.0098 89.9121C41.9841 87.8143 38.1463 82.5996 38.4961 74.2676C39.6454 67.9939 40.8173 61.7244 42.0117 55.459C44.6386 46.0645 50.5273 39.6779 59.6777 36.2988C59.8242 33.5468 59.9121 30.7928 59.9414 28.0371C60.2372 27.5507 60.6767 27.2577 61.2598 27.1582C61.4649 21.2411 61.4941 15.3231 61.3477 9.4043C60.9486 8.04786 60.0991 7.66702 58.7988 8.26172C58.3671 8.68491 58.0449 9.18297 57.832 9.75586C48.0988 31.5951 38.343 53.4213 28.5645 75.2344C29.7487 75.5395 30.5397 76.272 30.9375 77.4316C31.0254 78.6607 31.0546 79.8912 31.0254 81.123C36.4017 80.2461 39.7121 82.414 40.957 87.627C41.1606 88.4719 41.014 89.2336 40.5176 89.9121C36.6504 89.9121 32.7832 89.9121 28.916 89.9121C27.99 89.0619 27.99 88.2121 28.916 87.3633C31.9061 87.3339 34.8943 87.246 37.8809 87.0996C37.3887 85.5821 36.3927 84.5568 34.8926 84.0234C26.6894 83.9062 18.4864 83.9062 10.2832 84.0234C8.27961 84.3866 6.75617 85.4413 5.71289 87.1875C12.1582 87.246 18.6035 87.3047 25.0488 87.3633C25.5526 87.6081 25.7869 88.0182 25.752 88.5938C25.7643 89.1854 25.5299 89.6249 25.0488 89.9121C17.666 89.9121 10.2832 89.9121 2.90039 89.9121C2.48122 89.5426 2.24685 89.0738 2.19727 88.5059C3.22889 84.4436 5.807 82.0118 9.93164 81.2109C11.923 81.123 13.9152 81.0937 15.9082 81.123C15.879 79.9497 15.9083 78.7778 15.9961 77.6074C16.6044 75.8023 17.8641 75.0407 19.7754 75.3223C26.8534 59.1732 34.0312 43.0599 41.3086 26.9824C42.0703 26.2793 42.8321 26.2793 43.5938 26.9824C43.8437 27.4271 43.9022 27.896 43.7695 28.3887C36.7901 44.017 29.7882 59.6322 22.7637 75.2344C23.6867 75.3757 24.595 75.3463 25.4883 75.1465C35.6836 52.4122 45.8789 29.6777 56.0742 6.94336C57.9435 4.97746 60.0822 4.6552 62.4902 5.97656C63.4836 6.76181 64.0401 7.7872 64.1602 9.05273C64.248 15.0876 64.2774 21.1228 64.248 27.1582C65.0684 27.1582 65.8886 27.1582 66.709 27.1582C66.7912 20.7643 66.7034 14.3777 66.4453 7.99805C64.957 3.75228 61.9979 2.08236 57.5684 2.98828C55.2468 3.84513 53.6941 5.45644 52.9102 7.82227C50.5665 13.0957 48.2226 18.3691 45.8789 23.6426C45.2777 24.3902 44.5453 24.5368 43.6816 24.082C43.1265 23.4717 43.0386 22.7978 43.418 22.0605C46.1266 15.9991 48.8805 9.9639 51.6797 3.95508C53.2832 1.85026 55.3634 0.502592 57.9199 -0.0878906ZM62.666 29.9707C64.4238 29.9707 66.1816 29.9707 67.9395 29.9707C67.9395 31.67 67.9395 33.3691 67.9395 35.0684C66.2122 35.0037 64.5131 35.1795 62.8418 35.5957C62.6662 33.7243 62.6077 31.8493 62.666 29.9707ZM59.6777 39.2871C59.8823 44.9409 59.9117 50.6245 59.7656 56.3379C59.5121 57.0015 59.0727 57.4995 58.4473 57.832C53.7587 57.9785 49.0711 57.9493 44.3848 57.7441C46.3623 48.9728 51.46 42.8205 59.6777 39.2871ZM72.5098 64.0723C77.9092 64.1196 81.7472 66.5805 84.0234 71.4551C85.9447 78.3635 83.6889 83.3732 77.2559 86.4844C70.5591 88.2577 65.6666 86.0604 62.5781 79.8926C60.8454 74.5455 62.1053 70.0631 66.3574 66.4453C68.2332 65.1472 70.284 64.3562 72.5098 64.0723ZM72.334 72.5098C74.6506 72.2767 76.0569 73.302 76.5527 75.5859C75.9359 78.3547 74.2952 79.2921 71.6309 78.3984C69.6788 76.764 69.5616 75.0062 71.2793 73.125C71.6708 72.9596 72.0223 72.7545 72.334 72.5098ZM19.0723 77.959C22.0025 77.9296 24.9323 77.959 27.8613 78.0469C28.1997 79.02 28.317 80.0453 28.2129 81.123C25.0488 81.123 21.8848 81.123 18.7207 81.123C18.6235 80.017 18.7407 78.9623 19.0723 77.959Z" fill="#068FFF"/>
<path opacity="0.926" fill-rule="evenodd" clip-rule="evenodd" d="M71.9824 69.6972C77.2309 69.5388 79.604 72.0583 79.1016 77.2558C77.9108 80.4965 75.5963 81.9319 72.1582 81.5624C68.7101 80.6319 67.0987 78.3761 67.3242 74.7949C67.8205 72.1024 69.3731 70.4033 71.9824 69.6972ZM72.334 72.5097C72.0223 72.7544 71.6708 72.9595 71.2793 73.1249C69.5616 75.0062 69.6788 76.764 71.6309 78.3984C74.2952 79.2921 75.9359 78.3546 76.5527 75.5859C76.0569 73.302 74.6506 72.2766 72.334 72.5097Z" fill="#068FFF"/>
</g>
<defs>
<clipPath id="clip0_429_3661">
<rect width="90" height="90" fill="white"/>
</clipPath>
</defs>
</svg>
