<svg width="42" height="42" viewBox="0 0 42 42" fill="none" xmlns="http://www.w3.org/2000/svg">
<g clip-path="url(#clip0_770_1824)">
<path opacity="0.979" fill-rule="evenodd" clip-rule="evenodd" d="M7.91607 0.615229C11.7327 0.288189 14.6448 1.73741 16.6524 4.96288C16.8224 5.24763 16.9454 5.54842 17.0215 5.86523C18.1153 5.86523 19.2091 5.86523 20.3028 5.86523C20.2763 5.24841 20.5497 4.82458 21.1231 4.59374C21.8887 4.53905 22.6544 4.53905 23.42 4.59374C23.9934 4.82458 24.2668 5.24841 24.2403 5.86523C25.5528 5.86523 26.8653 5.86523 28.1778 5.86523C28.1513 5.24841 28.4247 4.82458 28.9981 4.59374C29.7637 4.53905 30.5294 4.53905 31.295 4.59374C31.8684 4.82458 32.1418 5.24841 32.1153 5.86523C33.6238 5.82857 35.1276 5.86958 36.627 5.98828C38.3953 6.55519 39.5027 7.74465 39.9493 9.55663C39.9903 12.7011 40.004 15.8456 39.9903 18.9902C40.6071 18.9637 41.0309 19.2371 41.2618 19.8105C41.3165 20.5761 41.3165 21.3418 41.2618 22.1074C41.0309 22.6808 40.6071 22.9542 39.9903 22.9277C39.9903 26.4278 39.9903 29.9277 39.9903 33.4277C40.6071 33.4012 41.0309 33.6746 41.2618 34.248C41.3165 35.0136 41.3165 35.7793 41.2618 36.5449C41.0309 37.1183 40.6071 37.3917 39.9903 37.3652C39.9903 38.6777 39.9903 39.9902 39.9903 41.3027C37.8028 41.3027 35.6153 41.3027 33.4278 41.3027C33.4278 39.9902 33.4278 38.6777 33.4278 37.3652C32.811 37.3917 32.3871 37.1183 32.1563 36.5449C32.1016 35.7793 32.1016 35.0136 32.1563 34.248C32.3871 33.6746 32.811 33.4012 33.4278 33.4277C33.4278 32.5527 33.4278 31.6778 33.4278 30.8027C32.5528 30.8027 31.6778 30.8027 30.8028 30.8027C30.8293 31.4195 30.5559 31.8434 29.9825 32.0742C29.2169 32.1289 28.4512 32.1289 27.6856 32.0742C27.1122 31.8434 26.8388 31.4195 26.8653 30.8027C22.9278 30.8027 18.9903 30.8027 15.0528 30.8027C15.0793 31.4195 14.8059 31.8434 14.2325 32.0742C13.4669 32.1289 12.7012 32.1289 11.9356 32.0742C11.3622 31.8434 11.0888 31.4195 11.1153 30.8027C10.6778 30.8027 10.2403 30.8027 9.80279 30.8027C9.80279 31.6778 9.80279 32.5527 9.80279 33.4277C10.4196 33.4012 10.8434 33.6746 11.0743 34.248C11.129 35.0136 11.129 35.7793 11.0743 36.5449C10.8434 37.1183 10.4196 37.3917 9.80279 37.3652C9.80279 38.6777 9.80279 39.9902 9.80279 41.3027C7.61529 41.3027 5.42779 41.3027 3.24029 41.3027C3.24029 39.9902 3.24029 38.6777 3.24029 37.3652C2.62347 37.3917 2.19964 37.1183 1.96881 36.5449C1.91412 35.7793 1.91412 35.0136 1.96881 34.248C2.19964 33.6746 2.62347 33.4012 3.24029 33.4277C3.22662 31.5955 3.24029 29.7635 3.28131 27.9316C3.73248 25.9492 4.94927 24.7324 6.9317 24.2812C8.32598 24.2402 9.72051 24.2265 11.1153 24.2402C11.0888 23.6234 11.3622 23.1996 11.9356 22.9687C12.7012 22.914 13.4669 22.914 14.2325 22.9687C14.8059 23.1996 15.0793 23.6234 15.0528 24.2402C16.1465 24.2402 17.2403 24.2402 18.334 24.2402C18.334 23.3652 18.334 22.4903 18.334 21.6152C17.2096 21.8384 16.3755 21.4556 15.8321 20.4668C15.4281 19.1562 15.8519 18.2401 17.1036 17.7187C17.5128 17.6778 17.923 17.6641 18.334 17.6777C18.4157 16.0101 19.2907 15.1351 20.959 15.0527C22.6274 15.1351 23.5023 16.0101 23.584 17.6777C24.7085 17.4545 25.5425 17.8374 26.086 18.8262C26.49 20.1368 26.0661 21.0528 24.8145 21.5742C24.4053 21.6151 23.9951 21.6288 23.584 21.6152C23.584 22.4903 23.584 23.3652 23.584 24.2402C24.6778 24.2402 25.7716 24.2402 26.8653 24.2402C26.8388 23.6234 27.1122 23.1996 27.6856 22.9687C28.4512 22.914 29.2169 22.914 29.9825 22.9687C30.5559 23.1996 30.8293 23.6234 30.8028 24.2402C31.6778 24.2402 32.5528 24.2402 33.4278 24.2402C33.4278 23.8028 33.4278 23.3652 33.4278 22.9277C32.811 22.9542 32.3871 22.6808 32.1563 22.1074C32.1016 21.3418 32.1016 20.5761 32.1563 19.8105C32.3871 19.2371 32.811 18.9637 33.4278 18.9902C33.4278 16.8027 33.4278 14.6153 33.4278 12.4277C32.9903 12.4277 32.5528 12.4277 32.1153 12.4277C32.1418 13.0445 31.8684 13.4684 31.295 13.6992C30.5294 13.7539 29.7637 13.7539 28.9981 13.6992C28.4247 13.4684 28.1513 13.0445 28.1778 12.4277C26.8653 12.4277 25.5528 12.4277 24.2403 12.4277C24.2668 13.0445 23.9934 13.4684 23.42 13.6992C22.6544 13.7539 21.8887 13.7539 21.1231 13.6992C20.5497 13.4684 20.2763 13.0445 20.3028 12.4277C19.2091 12.4277 18.1153 12.4277 17.0215 12.4277C15.7288 15.3731 13.4866 17.1094 10.295 17.6367C6.18237 17.9765 3.18823 16.3222 1.31256 12.6738C-0.169497 8.71762 0.637143 5.31335 3.73248 2.46093C4.98047 1.50302 6.375 0.887786 7.91607 0.615229ZM9.06451 1.92773C12.9782 2.20905 15.3708 4.25984 16.2422 8.08007C16.5407 11.6271 15.1051 14.1838 11.9356 15.75C8.26922 16.9979 5.30245 16.0546 3.03521 12.9199C1.66802 10.4043 1.66802 7.88867 3.03521 5.37304C4.47923 3.23595 6.489 2.08752 9.06451 1.92773ZM8.98248 4.63476C9.25384 4.5916 9.43152 4.70098 9.51568 4.96288C10.1559 6.63735 10.8121 8.30533 11.4844 9.96679C12.0362 11.5826 11.5577 12.772 10.0489 13.5352C8.52154 13.9265 7.41415 13.4206 6.72662 12.0176C6.63924 11.6384 6.57088 11.2556 6.52154 10.8691C7.26239 8.75527 8.0827 6.67714 8.98248 4.63476ZM21.6153 5.86523C22.0528 5.86523 22.4903 5.86523 22.9278 5.86523C22.9278 8.05273 22.9278 10.2402 22.9278 12.4277C22.4903 12.4277 22.0528 12.4277 21.6153 12.4277C21.6153 10.2402 21.6153 8.05273 21.6153 5.86523ZM29.4903 5.86523C29.9278 5.86523 30.3653 5.86523 30.8028 5.86523C30.8028 8.05273 30.8028 10.2402 30.8028 12.4277C30.3653 12.4277 29.9278 12.4277 29.4903 12.4277C29.4903 10.2402 29.4903 8.05273 29.4903 5.86523ZM17.5137 7.17773C18.4434 7.17773 19.3731 7.17773 20.3028 7.17773C20.3028 8.49023 20.3028 9.80273 20.3028 11.1152C19.3731 11.1152 18.4434 11.1152 17.5137 11.1152C17.7325 9.80273 17.7325 8.49023 17.5137 7.17773ZM24.2403 7.17773C25.5528 7.17773 26.8653 7.17773 28.1778 7.17773C28.1778 8.49023 28.1778 9.80273 28.1778 11.1152C26.8653 11.1152 25.5528 11.1152 24.2403 11.1152C24.2403 9.80273 24.2403 8.49023 24.2403 7.17773ZM32.1153 7.17773C33.2093 7.16406 34.3031 7.17774 35.3965 7.21874C37.3516 7.42382 38.4317 8.50393 38.6368 10.459C38.6778 13.3026 38.6915 16.1464 38.6778 18.9902C37.3653 18.9902 36.0528 18.9902 34.7403 18.9902C34.754 16.6385 34.7403 14.287 34.6993 11.9355C34.5489 11.5664 34.2891 11.3066 33.92 11.1562C33.319 11.1152 32.7175 11.1016 32.1153 11.1152C32.1153 9.80273 32.1153 8.49023 32.1153 7.17773ZM20.5489 16.4473C21.5255 16.305 22.0724 16.7152 22.1895 17.6777C21.3692 17.6777 20.5489 17.6777 19.7286 17.6777C19.7424 17.0904 20.0159 16.6802 20.5489 16.4473ZM17.6778 18.9902C19.8655 18.9765 22.0529 18.9902 24.2403 19.0312C24.802 19.1843 24.9523 19.5261 24.6915 20.0566C24.5563 20.1565 24.4059 20.2248 24.2403 20.2617C22.0528 20.3164 19.8653 20.3164 17.6778 20.2617C17.1161 20.1086 16.9658 19.7669 17.2266 19.2363C17.3805 19.1453 17.5309 19.0633 17.6778 18.9902ZM33.4278 20.3027C35.6153 20.3027 37.8028 20.3027 39.9903 20.3027C39.9903 20.7402 39.9903 21.1778 39.9903 21.6152C37.8028 21.6152 35.6153 21.6152 33.4278 21.6152C33.4278 21.1778 33.4278 20.7402 33.4278 20.3027ZM19.6465 21.6152C20.5216 21.6152 21.3965 21.6152 22.2715 21.6152C22.2715 22.4903 22.2715 23.3652 22.2715 24.2402C21.3965 24.2402 20.5216 24.2402 19.6465 24.2402C19.6465 23.3652 19.6465 22.4903 19.6465 21.6152ZM34.7403 22.9277C36.0528 22.9277 37.3653 22.9277 38.6778 22.9277C38.6778 26.4278 38.6778 29.9277 38.6778 33.4277C37.3653 33.4277 36.0528 33.4277 34.7403 33.4277C34.7403 29.9277 34.7403 26.4278 34.7403 22.9277ZM12.4278 24.2402C12.8653 24.2402 13.3028 24.2402 13.7403 24.2402C13.7403 26.4278 13.7403 28.6152 13.7403 30.8027C13.3028 30.8027 12.8653 30.8027 12.4278 30.8027C12.4278 28.6152 12.4278 26.4278 12.4278 24.2402ZM28.1778 24.2402C28.6153 24.2402 29.0528 24.2402 29.4903 24.2402C29.4903 26.4278 29.4903 28.6152 29.4903 30.8027C29.0528 30.8027 28.6153 30.8027 28.1778 30.8027C28.1778 28.6152 28.1778 26.4278 28.1778 24.2402ZM7.83404 25.5527C8.92776 25.5527 10.0216 25.5527 11.1153 25.5527C11.1153 26.8652 11.1153 28.1777 11.1153 29.4902C10.5131 29.4766 9.91156 29.4902 9.3106 29.5312C8.94146 29.6816 8.68167 29.9414 8.53131 30.3105C8.49029 31.3492 8.47659 32.3883 8.49029 33.4277C7.17779 33.4277 5.86529 33.4277 4.55279 33.4277C4.53912 31.8962 4.5528 30.365 4.59381 28.834C4.81345 26.878 5.89353 25.7843 7.83404 25.5527ZM15.0528 25.5527C18.9903 25.5527 22.9278 25.5527 26.8653 25.5527C26.8653 26.8652 26.8653 28.1777 26.8653 29.4902C22.9278 29.4902 18.9903 29.4902 15.0528 29.4902C15.0528 28.1777 15.0528 26.8652 15.0528 25.5527ZM30.8028 25.5527C31.6778 25.5527 32.5528 25.5527 33.4278 25.5527C33.4278 26.8652 33.4278 28.1777 33.4278 29.4902C32.5528 29.4902 31.6778 29.4902 30.8028 29.4902C30.8028 28.1777 30.8028 26.8652 30.8028 25.5527ZM3.24029 34.7402C5.42779 34.7402 7.61529 34.7402 9.80279 34.7402C9.80279 35.1777 9.80279 35.6153 9.80279 36.0527C7.61529 36.0527 5.42779 36.0527 3.24029 36.0527C3.24029 35.6153 3.24029 35.1777 3.24029 34.7402ZM33.4278 34.7402C35.6153 34.7402 37.8028 34.7402 39.9903 34.7402C39.9903 35.1777 39.9903 35.6153 39.9903 36.0527C37.8028 36.0527 35.6153 36.0527 33.4278 36.0527C33.4278 35.6153 33.4278 35.1777 33.4278 34.7402ZM4.55279 37.3652C5.86529 37.3652 7.17779 37.3652 8.49029 37.3652C8.49029 38.2403 8.49029 39.1152 8.49029 39.9902C7.17779 39.9902 5.86529 39.9902 4.55279 39.9902C4.55279 39.1152 4.55279 38.2403 4.55279 37.3652ZM34.7403 37.3652C36.0528 37.3652 37.3653 37.3652 38.6778 37.3652C38.6778 38.2403 38.6778 39.1152 38.6778 39.9902C37.3653 39.9902 36.0528 39.9902 34.7403 39.9902C34.7403 39.1152 34.7403 38.2403 34.7403 37.3652Z" fill="#068FFF"/>
<path opacity="0.932" fill-rule="evenodd" clip-rule="evenodd" d="M8.57235 3.24025C9.46197 3.05011 10.1592 3.32356 10.6641 4.06057C11.5032 6.12139 12.2962 8.19951 13.043 10.2949C13.3224 12.7327 12.2971 14.305 9.96688 15.0117C7.53223 15.2924 5.95996 14.267 5.25008 11.9356C5.11458 10.9989 5.22396 10.0965 5.5782 9.22853C6.28452 7.51509 6.96811 5.79243 7.62899 4.06057C7.87373 3.70014 8.18818 3.4267 8.57235 3.24025ZM8.9825 4.63478C8.08273 6.67717 7.26241 8.7553 6.52156 10.8692C6.57091 11.2556 6.63926 11.6384 6.72664 12.0176C7.41417 13.4207 8.52157 13.9265 10.0489 13.5352C11.5577 12.772 12.0362 11.5826 11.4845 9.96681C10.8121 8.30535 10.1559 6.63737 9.5157 4.96291C9.43154 4.701 9.25386 4.59162 8.9825 4.63478Z" fill="#068FFF"/>
<path fill-rule="evenodd" clip-rule="evenodd" d="M36.0527 11.1152C36.4902 11.1152 36.9278 11.1152 37.3652 11.1152C37.3652 11.5527 37.3652 11.9903 37.3652 12.4277C36.9278 12.4277 36.4902 12.4277 36.0527 12.4277C36.0527 11.9903 36.0527 11.5527 36.0527 11.1152Z" fill="#068FFF"/>
<path fill-rule="evenodd" clip-rule="evenodd" d="M36.0527 13.7402C36.4902 13.7402 36.9278 13.7402 37.3652 13.7402C37.3652 14.1777 37.3652 14.6153 37.3652 15.0527C36.9278 15.0527 36.4902 15.0527 36.0527 15.0527C36.0527 14.6153 36.0527 14.1777 36.0527 13.7402Z" fill="#068FFF"/>
<path fill-rule="evenodd" clip-rule="evenodd" d="M36.0527 16.3652C36.4902 16.3652 36.9278 16.3652 37.3652 16.3652C37.3652 16.8027 37.3652 17.2403 37.3652 17.6777C36.9278 17.6777 36.4902 17.6777 36.0527 17.6777C36.0527 17.2403 36.0527 16.8027 36.0527 16.3652Z" fill="#068FFF"/>
<path fill-rule="evenodd" clip-rule="evenodd" d="M36.0527 25.5527C36.4902 25.5527 36.9278 25.5527 37.3652 25.5527C37.3652 25.9902 37.3652 26.4278 37.3652 26.8652C36.9278 26.8652 36.4902 26.8652 36.0527 26.8652C36.0527 26.4278 36.0527 25.9902 36.0527 25.5527Z" fill="#068FFF"/>
<path fill-rule="evenodd" clip-rule="evenodd" d="M16.3652 26.8652C16.8027 26.8652 17.2403 26.8652 17.6777 26.8652C17.6777 27.3027 17.6777 27.7403 17.6777 28.1777C17.2403 28.1777 16.8027 28.1777 16.3652 28.1777C16.3652 27.7403 16.3652 27.3027 16.3652 26.8652Z" fill="#068FFF"/>
<path fill-rule="evenodd" clip-rule="evenodd" d="M18.9902 26.8652C19.4277 26.8652 19.8653 26.8652 20.3027 26.8652C20.3027 27.3027 20.3027 27.7403 20.3027 28.1777C19.8653 28.1777 19.4277 28.1777 18.9902 28.1777C18.9902 27.7403 18.9902 27.3027 18.9902 26.8652Z" fill="#068FFF"/>
<path fill-rule="evenodd" clip-rule="evenodd" d="M21.6152 26.8652C22.0527 26.8652 22.4903 26.8652 22.9277 26.8652C22.9277 27.3027 22.9277 27.7403 22.9277 28.1777C22.4903 28.1777 22.0527 28.1777 21.6152 28.1777C21.6152 27.7403 21.6152 27.3027 21.6152 26.8652Z" fill="#068FFF"/>
<path fill-rule="evenodd" clip-rule="evenodd" d="M36.0527 28.1777C36.4902 28.1777 36.9278 28.1777 37.3652 28.1777C37.3652 28.6152 37.3652 29.0528 37.3652 29.4902C36.9278 29.4902 36.4902 29.4902 36.0527 29.4902C36.0527 29.0528 36.0527 28.6152 36.0527 28.1777Z" fill="#068FFF"/>
<path fill-rule="evenodd" clip-rule="evenodd" d="M36.0527 30.8027C36.4902 30.8027 36.9278 30.8027 37.3652 30.8027C37.3652 31.2402 37.3652 31.6778 37.3652 32.1152C36.9278 32.1152 36.4902 32.1152 36.0527 32.1152C36.0527 31.6778 36.0527 31.2402 36.0527 30.8027Z" fill="#068FFF"/>
</g>
<defs>
<clipPath id="clip0_770_1824">
<rect width="42" height="42" fill="white"/>
</clipPath>
</defs>
</svg>
