<svg width="31" height="31" viewBox="0 0 31 31" fill="none" xmlns="http://www.w3.org/2000/svg">
<g clip-path="url(#clip0_397_1897)">
<path opacity="0.956" fill-rule="evenodd" clip-rule="evenodd" d="M13.4488 1.00635C14.8551 0.996583 16.2614 1.00635 17.6675 1.03564C17.7749 1.06494 17.8433 1.1333 17.8726 1.24072C17.8837 1.58733 17.913 1.92913 17.9605 2.26611C18.5286 2.4392 19.0755 2.66381 19.6011 2.93994C19.8248 2.74555 20.0397 2.54047 20.2456 2.32471C20.468 2.27565 20.6828 2.29518 20.8902 2.3833C21.8196 3.29318 22.7278 4.22091 23.6148 5.1665C23.732 5.34228 23.732 5.51806 23.6148 5.69385C23.399 5.89982 23.194 6.11466 22.9995 6.33838C23.2838 6.85957 23.4987 7.40642 23.6441 7.979C24.0603 7.95539 24.4606 8.01398 24.8452 8.15478C24.9126 8.8916 24.9419 9.63381 24.9331 10.3813C24.9234 11.0845 24.9136 11.7876 24.9038 12.4907C24.8745 12.5981 24.8062 12.6665 24.6988 12.6958C24.3521 12.7069 24.0103 12.7362 23.6734 12.7837C23.5003 13.3518 23.2757 13.8987 22.9995 14.4243C23.194 14.648 23.399 14.8629 23.6148 15.0688C23.7236 15.2916 23.7041 15.5064 23.5562 15.7134C22.6463 16.6428 21.7186 17.551 20.773 18.438C20.6001 18.5384 20.4243 18.5384 20.2456 18.438C20.0397 18.2222 19.8248 18.0172 19.6011 17.8228C19.0786 18.1037 18.5317 18.3186 17.9605 18.4673C17.9702 18.7414 17.9604 19.0148 17.9312 19.2876C17.9134 19.4275 17.8646 19.5545 17.7847 19.6685C17.2049 19.7534 16.619 19.7827 16.0269 19.7563C16.0269 20.2251 16.0269 20.6938 16.0269 21.1626C16.8865 21.1528 17.7459 21.1626 18.605 21.1919C18.7124 21.2212 18.7808 21.2896 18.8101 21.397C18.8492 23.4282 18.8492 25.4595 18.8101 27.4907C18.7808 27.5981 18.7124 27.6665 18.605 27.6958C16.5737 27.7349 14.5425 27.7349 12.5113 27.6958C12.4039 27.6665 12.3355 27.5981 12.3062 27.4907C12.2671 25.4595 12.2671 23.4282 12.3062 21.397C12.3355 21.2896 12.4039 21.2212 12.5113 21.1919C13.3704 21.1626 14.2298 21.1528 15.0894 21.1626C15.0894 20.6938 15.0894 20.2251 15.0894 19.7563C14.4973 19.7827 13.9114 19.7534 13.3316 19.6685C13.2949 19.6245 13.2656 19.5756 13.2437 19.522C13.2242 19.1899 13.2046 18.8579 13.1851 18.5259C12.6125 18.3324 12.0558 18.098 11.5152 17.8228C11.2915 18.0172 11.0766 18.2222 10.8706 18.438C10.6483 18.487 10.4335 18.4675 10.2261 18.3794C9.29669 17.4695 8.38849 16.5418 7.5015 15.5962C7.38431 15.4204 7.38431 15.2446 7.5015 15.0688C7.71724 14.8629 7.92232 14.648 8.11673 14.4243C7.83577 13.9018 7.62091 13.3549 7.4722 12.7837C7.05601 12.8073 6.65564 12.7487 6.27103 12.6079C6.20373 11.8711 6.17443 11.1289 6.18314 10.3813C6.1929 9.67822 6.20267 8.9751 6.21243 8.27197C6.24173 8.16457 6.31009 8.09619 6.41751 8.06689C6.76415 8.05576 7.10593 8.02646 7.4429 7.979C7.61599 7.41088 7.84058 6.86402 8.11673 6.33838C7.92232 6.11466 7.71724 5.89982 7.5015 5.69385C7.39269 5.4711 7.4122 5.25625 7.56009 5.04931C8.46999 4.11988 9.39771 3.21167 10.3433 2.32471C10.5161 2.2243 10.6919 2.2243 10.8706 2.32471C11.0766 2.54047 11.2915 2.74555 11.5152 2.93994C12.0377 2.65899 12.5846 2.44415 13.1558 2.29541C13.1244 1.89269 13.1733 1.50207 13.3023 1.12353C13.3606 1.09037 13.4094 1.05131 13.4488 1.00635ZM14.1519 1.94385C15.0894 1.94385 16.0269 1.94385 16.9644 1.94385C16.8437 2.46087 17 2.86126 17.4331 3.14502C18.0817 3.34164 18.7066 3.59555 19.3081 3.90674C19.8133 4.03789 20.2138 3.89141 20.5093 3.46728C21.1636 4.12158 21.8179 4.77588 22.4722 5.43017C22.0481 5.72575 21.9016 6.12614 22.0327 6.63135C22.3439 7.23287 22.5978 7.85783 22.7945 8.50635C23.0782 8.93953 23.4786 9.0958 23.9956 8.9751C23.9956 9.9126 23.9956 10.8501 23.9956 11.7876C23.4786 11.6669 23.0782 11.8232 22.7945 12.2563C22.5978 12.9049 22.3439 13.5298 22.0327 14.1313C21.9016 14.6365 22.0481 15.037 22.4722 15.3325C21.8179 15.9868 21.1636 16.6411 20.5093 17.2954C20.2138 16.8713 19.8133 16.7248 19.3081 16.856C18.7066 17.1671 18.0817 17.421 17.4331 17.6177C17 17.9014 16.8437 18.3018 16.9644 18.8188C16.0269 18.8188 15.0894 18.8188 14.1519 18.8188C14.2726 18.3018 14.1163 17.9014 13.6831 17.6177C13.0346 17.421 12.4097 17.1671 11.8081 16.856C11.3029 16.7248 10.9025 16.8713 10.607 17.2954C9.95265 16.6411 9.29839 15.9868 8.64407 15.3325C9.06818 15.037 9.21466 14.6365 9.08353 14.1313C8.77234 13.5298 8.51845 12.9049 8.32181 12.2563C8.03804 11.8232 7.63767 11.6669 7.12064 11.7876C7.12064 10.8501 7.12064 9.9126 7.12064 8.9751C7.63767 9.0958 8.03804 8.93953 8.32181 8.50635C8.51845 7.85783 8.77234 7.23287 9.08353 6.63135C9.21466 6.12614 9.06818 5.72575 8.64407 5.43017C9.29839 4.77588 9.95265 4.12158 10.607 3.46728C10.9025 3.89141 11.3029 4.03789 11.8081 3.90674C12.4077 3.59607 13.0326 3.34216 13.6831 3.14502C14.1163 2.86126 14.2726 2.46087 14.1519 1.94385ZM15.4995 5.2251C17.8541 5.36419 19.485 6.5165 20.3921 8.68213C21.0943 11.2699 20.3424 13.3109 18.1363 14.8052C17.9214 14.9126 17.7066 15.02 17.4917 15.1274C17.4136 14.7368 17.4136 14.3462 17.4917 13.9556C17.7456 13.8286 17.9996 13.7017 18.2534 13.5747C18.2901 13.5308 18.3194 13.4819 18.3413 13.4282C18.3804 12.5493 18.3804 11.6704 18.3413 10.7915C18.167 10.0618 17.7471 9.52465 17.0816 9.18017C17.516 8.4682 17.5453 7.73578 17.1695 6.98291C16.6459 6.29378 15.9525 6.03011 15.0894 6.19189C13.9797 6.56426 13.5207 7.33576 13.7124 8.50635C13.7653 8.75859 13.8728 8.98324 14.0347 9.18017C13.3692 9.52465 12.9492 10.0618 12.7749 10.7915C12.7359 11.6704 12.7359 12.5493 12.7749 13.4282C12.7968 13.4819 12.8261 13.5308 12.8628 13.5747C13.1167 13.7017 13.3707 13.8286 13.6245 13.9556C13.7026 14.3462 13.7026 14.7368 13.6245 15.1274C11.2137 13.9389 10.1883 12.0053 10.5484 9.32666C11.0142 7.41545 12.1763 6.13618 14.0347 5.48877C14.5227 5.34998 15.011 5.26209 15.4995 5.2251ZM15.2652 7.15869C16.2768 7.14445 16.6186 7.6132 16.2906 8.56494C15.9243 8.94644 15.5043 9.01476 15.0308 8.77002C14.6493 8.40375 14.581 7.98381 14.8257 7.51025C14.9496 7.35668 15.0961 7.23949 15.2652 7.15869ZM15.0894 9.9126C16.7551 9.71326 17.5363 10.4457 17.4331 12.1099C17.4136 12.3735 17.3941 12.6372 17.3745 12.9009C17.1207 13.0279 16.8667 13.1548 16.6128 13.2817C16.5761 13.3257 16.5468 13.3745 16.5249 13.4282C16.4956 14.092 16.4859 14.7561 16.4956 15.4204C16.1812 15.449 15.8686 15.488 15.5581 15.5376C15.2469 15.4921 14.9344 15.453 14.6206 15.4204C14.6304 14.7561 14.6206 14.092 14.5913 13.4282C14.5694 13.3745 14.5401 13.3257 14.5034 13.2817C14.2496 13.1548 13.9956 13.0279 13.7417 12.9009C13.6735 12.3746 13.6637 11.8472 13.7124 11.3188C13.8313 10.5067 14.2903 10.0379 15.0894 9.9126ZM13.2144 22.1001C14.7769 22.1001 16.3394 22.1001 17.9019 22.1001C17.9019 23.6626 17.9019 25.2251 17.9019 26.7876C16.3394 26.7876 14.7769 26.7876 13.2144 26.7876C13.2144 25.2251 13.2144 23.6626 13.2144 22.1001ZM15.0894 23.9751C15.4019 23.9751 15.7144 23.9751 16.0269 23.9751C16.0269 24.2876 16.0269 24.6001 16.0269 24.9126C15.7144 24.9126 15.4019 24.9126 15.0894 24.9126C15.0894 24.6001 15.0894 24.2876 15.0894 23.9751Z" fill="#068FFF"/>
<path opacity="0.945" fill-rule="evenodd" clip-rule="evenodd" d="M2.90188 18.8188C3.73094 18.6879 4.40477 18.9418 4.92337 19.5805C5.07427 19.7695 5.16216 19.9844 5.18704 20.225C6.22238 20.2153 7.25751 20.225 8.29251 20.2543C8.93534 20.8385 9.5603 21.444 10.1675 22.0708C10.5576 22.1 10.9483 22.1098 11.3394 22.1C11.3394 22.4125 11.3394 22.7251 11.3394 23.0375C10.7473 23.0639 10.1614 23.0346 9.58157 22.9497C8.99563 22.3637 8.40969 21.7778 7.82376 21.1918C6.94509 21.1625 6.06616 21.1528 5.18704 21.1625C5.02653 21.8992 4.57731 22.3583 3.83938 22.5395C2.16946 22.6665 1.39797 21.895 1.52493 20.225C1.72116 19.4917 2.18015 19.023 2.90188 18.8188ZM3.07766 19.8149C4.08928 19.8007 4.43107 20.2694 4.10305 21.2211C3.73677 21.6026 3.31685 21.671 2.84329 21.4262C2.4618 21.0599 2.39345 20.64 2.63821 20.1665C2.76208 20.0129 2.90857 19.8957 3.07766 19.8149Z" fill="#068FFF"/>
<path opacity="0.945" fill-rule="evenodd" clip-rule="evenodd" d="M27.2769 18.8189C28.9455 18.7199 29.717 19.5012 29.5913 21.1626C29.2189 22.2723 28.4474 22.7313 27.2769 22.5396C26.5389 22.3584 26.0897 21.8993 25.9292 21.1626C25.0501 21.1529 24.1712 21.1626 23.2925 21.1919C22.7065 21.7779 22.1206 22.3638 21.5347 22.9498C20.9549 23.0347 20.3689 23.064 19.7769 23.0376C19.7769 22.7252 19.7769 22.4126 19.7769 22.1001C20.168 22.1099 20.5586 22.1001 20.9487 22.0708C21.5559 21.4441 22.1809 20.8386 22.8237 20.2544C23.8587 20.2251 24.8938 20.2154 25.9292 20.2251C25.9845 19.8866 26.131 19.5936 26.3687 19.3462C26.6382 19.1045 26.9409 18.9287 27.2769 18.8189ZM27.4526 19.815C28.4643 19.8007 28.806 20.2695 28.478 21.2212C28.1118 21.6027 27.6918 21.6711 27.2183 21.4263C26.8368 21.06 26.7684 20.6401 27.0132 20.1665C27.1371 20.013 27.2835 19.8958 27.4526 19.815Z" fill="#068FFF"/>
<path opacity="0.949" fill-rule="evenodd" clip-rule="evenodd" d="M6.18313 22.5688C7.01218 22.4379 7.686 22.6918 8.20462 23.3305C8.3555 23.5195 8.44339 23.7344 8.46829 23.975C9.4253 23.975 10.3824 23.975 11.3394 23.975C11.3394 24.2875 11.3394 24.6001 11.3394 24.9125C10.3824 24.9125 9.4253 24.9125 8.46829 24.9125C8.3078 25.6492 7.85856 26.1083 7.12063 26.2895C5.45071 26.4165 4.67922 25.645 4.80618 23.975C5.00241 23.2417 5.4614 22.773 6.18313 22.5688ZM6.35891 23.5649C7.37053 23.5507 7.71231 24.0194 7.3843 24.9711C7.01803 25.3526 6.59809 25.421 6.12454 25.1762C5.74305 24.8099 5.6747 24.39 5.91946 23.9165C6.04333 23.7629 6.18982 23.6457 6.35891 23.5649Z" fill="#068FFF"/>
<path opacity="0.948" fill-rule="evenodd" clip-rule="evenodd" d="M23.9956 22.5689C25.6642 22.4699 26.4357 23.2512 26.3101 24.9126C25.9377 26.0223 25.1662 26.4813 23.9956 26.2896C23.2577 26.1084 22.8084 25.6493 22.6479 24.9126C21.6909 24.9126 20.7339 24.9126 19.7769 24.9126C19.7769 24.6002 19.7769 24.2876 19.7769 23.9751C20.7339 23.9751 21.6909 23.9751 22.6479 23.9751C22.7033 23.6366 22.8497 23.3436 23.0874 23.0962C23.3569 22.8545 23.6596 22.6787 23.9956 22.5689ZM24.1714 23.565C25.183 23.5507 25.5248 24.0195 25.1968 24.9712C24.8305 25.3527 24.4106 25.4211 23.937 25.1763C23.5555 24.81 23.4872 24.3901 23.7319 23.9165C23.8558 23.763 24.0023 23.6458 24.1714 23.565Z" fill="#068FFF"/>
<path opacity="0.988" fill-rule="evenodd" clip-rule="evenodd" d="M14.3862 23.0376C15.1677 23.0278 15.949 23.0376 16.73 23.0669C16.7836 23.0888 16.8325 23.1181 16.8765 23.1548C16.9428 23.5786 16.9721 24.0083 16.9643 24.4439C17.2964 25.7134 16.8276 26.1822 15.5581 25.8501C15.1675 25.8403 14.7769 25.8306 14.3862 25.8208C14.3325 25.7989 14.2837 25.7696 14.2397 25.7329C14.1442 24.9181 14.1247 24.0978 14.1811 23.272C14.2216 23.1636 14.2899 23.0854 14.3862 23.0376ZM15.0893 23.9751C15.0893 24.2876 15.0893 24.6001 15.0893 24.9126C15.4018 24.9126 15.7144 24.9126 16.0268 24.9126C16.0268 24.6001 16.0268 24.2876 16.0268 23.9751C15.7144 23.9751 15.4018 23.9751 15.0893 23.9751Z" fill="#068FFF"/>
<path opacity="0.945" fill-rule="evenodd" clip-rule="evenodd" d="M9.69875 25.8501C10.2456 25.8501 10.7925 25.8501 11.3394 25.8501C11.3394 26.1626 11.3394 26.4751 11.3394 26.7876C10.9483 26.7779 10.5576 26.7876 10.1675 26.8169C9.56029 27.4437 8.93533 28.0491 8.2925 28.6333C7.2575 28.6626 6.22237 28.6724 5.18703 28.6626C5.02653 29.3993 4.57731 29.8583 3.83938 30.0396C2.851 30.2239 2.11858 29.8821 1.64211 29.0142C1.28553 28.0341 1.51014 27.2236 2.31594 26.5825C3.32192 26.0931 4.19106 26.2591 4.92336 27.0806C5.07426 27.2696 5.16215 27.4845 5.18703 27.7251C6.06616 27.7349 6.94508 27.7251 7.82375 27.6958C8.44262 27.0671 9.06758 26.4519 9.69875 25.8501ZM3.07766 27.3149C4.08927 27.3007 4.43107 27.7695 4.10305 28.7212C3.73677 29.1027 3.31684 29.171 2.84328 28.9263C2.4618 28.56 2.39344 28.1401 2.6382 27.6665C2.76208 27.5129 2.90856 27.3957 3.07766 27.3149Z" fill="#068FFF"/>
<path opacity="0.945" fill-rule="evenodd" clip-rule="evenodd" d="M19.7769 25.8502C20.3689 25.8238 20.9549 25.8531 21.5347 25.938C22.1206 26.524 22.7065 27.1099 23.2925 27.6959C24.1712 27.7252 25.0501 27.7349 25.9292 27.7252C26.0897 26.9885 26.5389 26.5294 27.2769 26.3482C28.2652 26.1639 28.9976 26.5057 29.4741 27.3736C29.8307 28.3536 29.6061 29.1642 28.8003 29.8052C27.7943 30.2947 26.9252 30.1286 26.1929 29.3072C26.042 29.1182 25.9541 28.9033 25.9292 28.6627C24.8938 28.6724 23.8587 28.6627 22.8237 28.6334C22.1809 28.0492 21.5559 27.4437 20.9487 26.817C20.5586 26.7877 20.168 26.7779 19.7769 26.7877C19.7769 26.4752 19.7769 26.1626 19.7769 25.8502ZM27.4526 27.315C28.4643 27.3008 28.806 27.7695 28.478 28.7212C28.1118 29.1028 27.6918 29.1711 27.2183 28.9263C26.8368 28.5601 26.7684 28.1401 27.0132 27.6666C27.1371 27.513 27.2835 27.3958 27.4526 27.315Z" fill="#068FFF"/>
</g>
<defs>
<clipPath id="clip0_397_1897">
<rect width="30" height="30" fill="white" transform="translate(0.587402 0.566895)"/>
</clipPath>
</defs>
</svg>
