<svg width="80" height="80" viewBox="0 0 80 80" fill="none" xmlns="http://www.w3.org/2000/svg">
<g clip-path="url(#clip0_382_1157)">
<path d="M44.9386 2.44359L45.824 3.58301C46.6497 4.6839 47.8193 5.47759 49.1473 5.83819C50.4753 6.19879 51.8857 6.10566 53.1548 5.57357L54.5276 5.01072C55.4087 4.6355 56.365 4.47026 57.3209 4.52806C58.2768 4.58585 59.2062 4.8651 60.0356 5.34374C60.8651 5.82238 61.5719 6.48731 62.1003 7.28602C62.6287 8.08473 62.9641 8.99534 63.0802 9.94595L63.2655 11.3943C63.4409 12.7565 64.0629 14.0222 65.034 14.9933C66.0052 15.9645 67.2709 16.5865 68.6331 16.7619L70.0814 16.9472C71.0321 17.0633 71.9427 17.3987 72.7414 17.9271C73.5401 18.4554 74.205 19.1623 74.6836 19.9917C75.1623 20.8212 75.4415 21.7506 75.4993 22.7065C75.5571 23.6624 75.3919 24.6187 75.0167 25.4998L74.4538 26.8726C73.9249 28.1397 73.8306 29.5463 74.1858 30.8726C74.5409 32.1989 75.3255 33.3702 76.4169 34.2033L77.5838 35.0888C78.3497 35.6644 78.9713 36.4102 79.3994 37.2673C79.8274 38.1244 80.0503 39.0694 80.0503 40.0275C80.0503 40.9855 79.8274 41.9305 79.3994 42.7876C78.9713 43.6447 78.3497 44.3906 77.5838 44.9661L76.4169 45.8516C75.3255 46.6847 74.5409 47.856 74.1858 49.1823C73.8306 50.5086 73.9249 51.9153 74.4538 53.1823L75.0167 54.5551C75.3919 55.4362 75.5571 56.3925 75.4993 57.3484C75.4415 58.3043 75.1623 59.2337 74.6836 60.0632C74.205 60.8926 73.5401 61.5995 72.7414 62.1278C71.9427 62.6562 71.0321 62.9916 70.0814 63.1077L68.6331 63.293C67.2687 63.4628 65.9999 64.0829 65.0276 65.0551C64.0553 66.0274 63.4352 67.2962 63.2655 68.6607L63.0802 70.109C62.955 71.0565 62.6117 71.962 62.0773 72.7544C61.5429 73.5468 60.8319 74.2043 60.0003 74.6754C59.1687 75.1464 58.2391 75.418 57.2847 75.4689C56.3303 75.5198 55.3771 75.3486 54.5001 74.9687L53.1273 74.4058C51.8612 73.8708 50.4527 73.7734 49.125 74.129C47.7972 74.4846 46.626 75.2728 45.7966 76.3689L44.9111 77.5358C44.3356 78.3018 43.5898 78.9233 42.7326 79.3514C41.8755 79.7794 40.9306 80.0023 39.9725 80.0023C39.0144 80.0023 38.0695 79.7794 37.2123 79.3514C36.3552 78.9233 35.6094 78.3018 35.0338 77.5358L34.1484 76.3689C33.319 75.2728 32.1477 74.4846 30.82 74.129C29.4922 73.7734 28.0838 73.8708 26.8176 74.4058L25.4448 74.9687C24.5669 75.3371 23.6157 75.4975 22.6656 75.4376C21.7154 75.3777 20.7919 75.0989 19.9673 74.6231C19.1427 74.1473 18.4391 73.4874 17.9117 72.6948C17.3842 71.9022 17.0471 70.9985 16.9266 70.054L16.7412 68.6057C16.5658 67.2435 15.9439 65.9778 14.9727 65.0066C14.0015 64.0355 12.7358 63.4135 11.3736 63.2381L9.92529 63.0528C8.97468 62.9367 8.06407 62.6013 7.26536 62.0729C6.46665 61.5445 5.80172 60.8377 5.32308 60.0082C4.84444 59.1788 4.5652 58.2494 4.5074 57.2935C4.44961 56.3376 4.61485 55.3813 4.99007 54.5002L5.55292 53.1274C6.08718 51.8605 6.18353 50.4516 5.8267 49.1238C5.46988 47.7959 4.68028 46.6251 3.58295 45.7966L2.44352 44.9386C1.67759 44.3631 1.05603 43.6173 0.62796 42.7601C0.199891 41.903 -0.0229492 40.9581 -0.0229492 40C-0.0229492 39.0419 0.199891 38.097 0.62796 37.2398C1.05603 36.3827 1.67759 35.6369 2.44352 35.0613L3.60354 34.1759C4.70087 33.3474 5.49047 32.1766 5.84729 30.8488C6.20412 29.5209 6.10777 28.112 5.57351 26.8451L5.01066 25.4723C4.63544 24.5912 4.4702 23.635 4.52799 22.6791C4.58579 21.7231 4.86503 20.7938 5.34367 19.9643C5.82231 19.1348 6.48725 18.428 7.28595 17.8996C8.08466 17.3712 8.99528 17.0358 9.94588 16.9198L11.3942 16.7344C12.756 16.5579 14.021 15.9356 14.992 14.9646C15.963 13.9936 16.5853 12.7286 16.7618 11.3668L16.9266 9.94595C17.0426 8.99534 17.378 8.08473 17.9064 7.28602C18.4348 6.48731 19.1416 5.82238 19.9711 5.34374C20.8006 4.8651 21.7299 4.58585 22.6859 4.52806C23.6418 4.47026 24.598 4.6355 25.4791 5.01072L26.8519 5.57357C28.1202 6.10395 29.5291 6.19616 30.8556 5.83562C32.1821 5.47508 33.3505 4.68238 34.1758 3.58301L35.0613 2.42299C35.6384 1.65826 36.3855 1.03825 37.2436 0.611968C38.1016 0.185685 39.047 -0.0351871 40.0051 -0.0331897C40.9632 -0.0311923 41.9076 0.193619 42.7639 0.623476C43.6201 1.05333 44.3646 1.67645 44.9386 2.44359Z" fill="#068FFF"/>
<path d="M39.9965 73.2392C58.3558 73.2392 73.2389 58.356 73.2389 39.9968C73.2389 21.6375 58.3558 6.75439 39.9965 6.75439C21.6373 6.75439 6.75415 21.6375 6.75415 39.9968C6.75415 58.356 21.6373 73.2392 39.9965 73.2392Z" fill="white"/>
<path d="M15.1556 44.5132L15.842 44.4103C17.4756 44.1769 18.4641 43.5523 18.3199 42.5844C18.217 41.898 17.3864 41.397 16.1646 41.0675V40.9028L18.1552 40.6831V40.7792C18.0522 40.8616 17.9904 40.9028 18.011 41.0469C18.2449 41.6025 18.4242 42.1795 18.5464 42.7698C18.8141 44.6505 17.9904 45.9478 15.8695 46.2567C13.7485 46.5656 12.4031 45.4879 12.1217 43.6689C12.0671 43.1028 12.0671 42.5328 12.1217 41.9667C12.1217 41.8294 12.0325 41.8019 11.9089 41.7539V41.6578L13.8652 41.3352V41.4931C12.8493 42.1383 12.1698 42.7835 12.2796 43.5523C12.4306 44.4171 13.3161 44.7672 15.1556 44.5132Z" fill="#068FFF"/>
<path d="M12.2248 36.3587H12.4239L12.3278 37.306L18.1759 37.91V37.5874C18.2926 36.4823 17.5376 35.9057 16.508 35.2674V35.082L18.5672 35.4664L18.0798 40.1957H17.8808L17.9357 39.6672L12.1219 39.0632L12.067 39.5917H11.8679L12.2248 36.3587Z" fill="#068FFF"/>
<path d="M14.2771 28.7603L15.9794 29.2682L15.9245 29.4192C14.6546 29.4947 14.133 29.7555 13.7692 30.792L13.6662 31.0872L16.2814 32.0069L16.3843 31.7255C16.5765 31.1695 16.2333 30.6547 15.643 30.2841L15.6911 30.1536L18.1896 31.0391L18.1415 31.1832C17.2218 31.0872 16.7687 31.2931 16.5697 31.8696L16.501 32.0756L19.2123 33.0297L19.329 32.7071C19.4954 32.2246 19.4944 31.7001 19.3263 31.2182C19.1582 30.7363 18.8327 30.325 18.4024 30.0507L18.4573 29.886L20.2762 30.5724L18.6426 35.2467L18.4573 35.1781L18.6357 34.677L13.0896 32.7208L12.9112 33.2219L12.7258 33.1601L14.2771 28.7603Z" fill="#068FFF"/>
<path d="M20.242 26.6736L19.2536 28.1494L20.4822 29.8036L20.8597 29.2408L20.997 29.3368L20.2351 30.4763L20.091 30.387L20.3312 30.037L16.4736 24.7105L16.8855 24.0996L23.2621 25.644L23.4955 25.3008L23.6328 25.3969L22.006 27.8336L21.8619 27.7375L22.2188 27.209L20.242 26.6736ZM19.1369 27.9778L20.0361 26.605L17.6542 25.9186L19.1369 27.9778Z" fill="#068FFF"/>
<path d="M27.4216 22.1501L26.4744 22.9738L20.3586 20.6332L24.0514 24.8614L24.4221 24.5388L24.5319 24.6692L23.6121 25.4792L23.4954 25.3487L23.8661 25.0261L19.9605 20.5577L19.5898 20.8803L19.48 20.743L21.3401 19.1094L26.0694 20.9489L23.214 17.6954L22.8433 18.018L22.7335 17.8876L23.6602 17.0845L23.77 17.208L23.3993 17.5375L27.4216 22.1501Z" fill="#068FFF"/>
<path d="M27.2228 15.0391L27.3051 15.1901L26.8796 15.4303L29.8311 20.5783L30.2635 20.3312L30.3459 20.4754L27.9778 21.8482L27.9092 21.6903L28.3416 21.45L25.3832 16.302L24.9576 16.5491L24.8684 16.3981L27.2228 15.0391Z" fill="#068FFF"/>
<path d="M35.2673 18.6837L34.0867 19.0749L29.3162 14.5653L31.1077 19.9055L31.5745 19.7476L31.6294 19.9055L30.4625 20.2967L30.4076 20.1389L30.8743 19.981L28.9936 14.3525L28.5268 14.5035L28.4719 14.3456L30.8194 13.5632L34.4711 17.0844L33.0983 12.966L32.6315 13.117L32.5766 12.9591L33.7435 12.5679L33.7984 12.7326L33.3316 12.8836L35.2673 18.6837Z" fill="#068FFF"/>
<path d="M39.6189 17.4687L39.516 15.7321H38.9394V15.5399L41.5134 15.3889V15.588H41.1633L41.3075 18.1071H41.1771C41.1274 18.0318 41.0566 17.9728 40.9736 17.9374C40.8906 17.902 40.7991 17.8918 40.7103 17.908C40.1227 18.0873 39.5243 18.2295 38.9188 18.3336C37.0175 18.4434 35.7957 17.5099 35.6721 15.3683C35.5486 13.2268 36.7361 11.9844 38.5687 11.8746C39.1539 11.8853 39.737 11.945 40.3122 12.053C40.4563 12.053 40.4907 11.9844 40.5456 11.8608H40.6417L40.8339 13.8789H40.676C40.1131 12.9042 39.4817 12.0805 38.6923 12.1285C37.9029 12.1766 37.3744 13.0277 37.4774 14.8741L37.5186 15.5605C37.6284 17.3795 38.15 18.2444 38.9737 18.1963C39.5778 18.1757 39.6395 17.9218 39.6189 17.4687Z" fill="#068FFF"/>
<path d="M48.7688 18.9449C49.0159 18.2585 48.5697 17.8329 47.6294 17.174C46.689 16.515 46.0644 15.8492 46.5105 14.5656C46.5994 14.3061 46.7419 14.0681 46.9288 13.8672C47.1156 13.6662 47.3427 13.5069 47.5951 13.3994C47.8476 13.292 48.1198 13.2388 48.3942 13.2434C48.6685 13.2481 48.9388 13.3103 49.1875 13.4262C49.6668 13.6496 50.1261 13.9137 50.5603 14.2156C50.6126 14.2375 50.6708 14.2414 50.7255 14.2264C50.7802 14.2115 50.8284 14.1787 50.8623 14.1332H50.9584L50.423 15.8698L50.2857 15.8217C50.1347 14.9226 49.8739 13.8792 48.9816 13.5704C48.8626 13.5101 48.7324 13.4751 48.5993 13.4676C48.4661 13.4601 48.3328 13.4801 48.2078 13.5265C48.0828 13.5729 47.9687 13.6447 47.8727 13.7373C47.7767 13.8299 47.7009 13.9413 47.65 14.0646C47.4372 14.696 47.9382 15.1079 48.7139 15.6296C49.4895 16.1512 50.4985 16.8925 50.0112 18.2997C49.9274 18.5731 49.7877 18.826 49.6008 19.0425C49.4139 19.2589 49.184 19.434 48.9257 19.5567C48.6675 19.6794 48.3864 19.747 48.1006 19.7551C47.8148 19.7632 47.5304 19.7117 47.2656 19.6038C46.682 19.3579 46.1176 19.0688 45.577 18.739C45.4466 18.6909 45.3642 18.7389 45.2407 18.9037L45.0691 18.8625L45.6869 16.8033L45.831 16.8513C45.9614 17.8466 46.435 19.1233 47.3685 19.4459C47.4925 19.5101 47.6283 19.548 47.7675 19.5573C47.9067 19.5667 48.0464 19.5472 48.1777 19.5002C48.3091 19.4532 48.4294 19.3796 48.5311 19.2841C48.6328 19.1885 48.7137 19.0731 48.7688 18.9449Z" fill="#068FFF"/>
<path d="M56.8545 17.5445L55.9691 19.0889L55.8318 18.9997C56.0583 17.7504 55.921 17.1807 55.0081 16.5904L54.7404 16.4256L53.244 18.7525L53.498 18.9173C53.763 19.0501 54.0666 19.0844 54.3546 19.014C54.6425 18.9436 54.8961 18.773 55.0699 18.5329L55.1866 18.6084L53.752 20.8392L53.6216 20.7568C53.9236 19.8851 53.8275 19.384 53.299 19.0683L53.1205 18.9516L51.5624 21.3746L51.8507 21.5599C52.2812 21.8335 52.7917 21.9532 53.299 21.8996C53.8062 21.846 54.2804 21.6223 54.6443 21.2648L54.7953 21.3609L53.6833 22.967L49.5649 20.3107L49.6748 20.1459L50.1141 20.4274L53.3058 15.4784L52.8597 15.1901L52.9695 15.0254L56.8545 17.5445Z" fill="#068FFF"/>
<path d="M57.8637 22.6445L55.6466 24.7037L56.0379 25.1293L55.9143 25.246L53.9443 23.0975L54.0679 22.9808L54.466 23.4133L58.8452 19.3704L58.4471 18.9448L58.5775 18.8281L60.4034 20.8256C61.6732 22.1984 62.1331 23.0014 61.1653 23.8869C60.3622 24.6282 59.7307 24.4223 59.0306 23.7771C59.5934 24.5802 59.5385 25.0812 58.7697 25.7814L58.4197 26.104C57.9941 26.4952 57.8568 26.6531 58.0284 26.8384C58.2 27.0238 58.2824 27.01 58.8727 26.6256L58.9619 26.7492C58.1177 27.3395 57.7607 27.3326 57.1979 26.7149C56.4291 25.8843 56.5115 25.3833 57.4175 24.5252L57.898 24.086C58.3716 23.6535 58.5295 23.3378 58.2069 22.9808L57.8637 22.6445ZM57.9872 22.5278L58.1794 22.7406C58.6325 23.228 59.1335 23.2348 59.8474 22.5759L60.0396 22.4043C60.7809 21.7179 60.6505 21.3404 60.2249 20.8805L60.0258 20.6608L57.9872 22.5278Z" fill="#068FFF"/>
<path d="M65.5649 28.76L65.2354 28.1422L65.3796 28.0598L66.066 29.2679L65.915 29.3503L65.661 28.9796L59.1814 30.0435L58.8245 29.3571L63.1694 24.3807L62.9703 24.0169L63.1213 23.9346L64.4941 26.5154L64.3431 26.5978L64.0342 26.035L60.8562 29.5356L65.5649 28.76Z" fill="#068FFF"/>
<path d="M67.1643 33.0981L67.0064 33.153L66.8623 32.6794L61.1857 34.4229L61.3299 34.8896L61.1651 34.9445L60.3621 32.3294L60.5268 32.2744L60.6709 32.7481L66.3475 30.9977L66.2033 30.5241L66.3681 30.4761L67.1643 33.0981Z" fill="#068FFF"/>
<path d="M65.0296 36.688L64.3432 36.7566C62.6959 36.9145 61.68 37.4842 61.7761 38.4589C61.8447 39.1453 62.6478 39.6875 63.8353 40.0788V40.2435L61.8379 40.3671V40.271C61.9477 40.1955 62.0095 40.1543 61.9958 40.0101C61.7906 39.4425 61.6412 38.8563 61.5496 38.2598C61.3711 36.3722 62.236 35.1161 64.3913 34.9102C66.5466 34.7043 67.8233 35.8437 67.9812 37.6558C67.998 38.2234 67.9589 38.7913 67.8645 39.3512C67.8645 39.4953 67.9469 39.5228 68.0704 39.5708V39.6738L66.1416 39.9278V39.7699C67.1918 39.1727 67.8988 38.5618 67.8233 37.7999C67.7203 36.9145 66.8761 36.5301 65.0296 36.688Z" fill="#068FFF"/>
<path d="M67.336 46.3871L65.5651 46.2017V46.0439C66.8006 45.7418 67.2673 45.3574 67.4321 44.3141L67.4801 44.0052L64.7345 43.5728L64.6865 43.8748C64.5972 44.4514 65.0228 44.8976 65.6749 45.1584V45.2888L63.0528 44.877V44.726C63.9726 44.6505 64.3707 44.369 64.4668 43.7513L64.5011 43.5385L61.6595 43.0923L61.6045 43.4287C61.5272 43.9308 61.6204 44.4444 61.8692 44.8874C62.1181 45.3303 62.5082 45.6771 62.9773 45.8723V46.0507L61.0554 45.6732L61.8173 40.8135H62.0095L61.9271 41.342L67.741 42.2481L67.8233 41.7264H68.0155L67.336 46.3871Z" fill="#068FFF"/>
<path d="M40.1612 39.9966H39.8386L13.7004 57.5341C16.588 61.8621 20.4991 65.4106 25.0868 67.8648C29.6745 70.319 34.797 71.603 39.9999 71.603C45.2028 71.603 50.3252 70.319 54.9129 67.8648C59.5006 65.4106 63.4117 61.8621 66.2993 57.5341L40.1612 39.9966Z" fill="#068FFF"/>
<path d="M58.7901 44.4545C61.2065 34.0953 54.7676 23.7388 44.4084 21.3224C34.0493 18.906 23.6927 25.3449 21.2763 35.7041C18.86 46.0632 25.2989 56.4198 35.658 58.8362C46.0171 61.2525 56.3737 54.8136 58.7901 44.4545Z" fill="#068FFF"/>
<path d="M40.1613 39.9966H39.8387L23.9485 50.6632C25.7023 53.3239 28.089 55.5077 30.8947 57.0187C33.7004 58.5297 36.8373 59.3207 40.024 59.3207C43.2107 59.3207 46.3476 58.5297 49.1532 57.0187C51.9589 55.5077 54.3457 53.3239 56.0995 50.6632L40.1613 39.9966Z" fill="white"/>
<path d="M58.0145 40.0721C58.0199 43.6301 56.9698 47.1098 54.9971 50.0708C53.0243 53.0318 50.2175 55.3411 46.9319 56.7064C43.6463 58.0718 40.0295 58.4319 36.5392 57.741C33.0489 57.0502 29.842 55.3396 27.3241 52.8257C24.8063 50.3117 23.0908 47.1074 22.3947 43.6181C21.6986 40.1289 22.0531 36.5115 23.4134 33.2239C24.7738 29.9362 27.0788 27.1259 30.0368 25.1486C32.9947 23.1713 36.4728 22.1159 40.0308 22.1159C40.6847 22.1131 41.3381 22.152 41.987 22.2326C42.1312 22.2326 42.2685 22.2326 42.4126 22.2806H42.5499C45.6901 22.724 48.657 23.9908 51.149 25.9523C53.641 27.9138 55.5692 30.5001 56.7378 33.4483C56.8476 33.716 56.9437 33.9837 57.0329 34.2514L57.0741 34.3612C57.6923 36.202 58.0099 38.1303 58.0145 40.0721Z" fill="white"/>
<path d="M38.0981 33.8478L37.8081 34.5967L54.1301 40.9177L54.4201 40.1688L38.0981 33.8478Z" fill="white"/>
<path d="M55.2483 39.1247L38.205 32.5215L38.1021 33.8531L54.4247 40.1749L55.2483 39.1247Z" fill="#068FFF"/>
<path d="M37.8139 34.6084C37.7299 34.8166 37.7232 35.048 37.7949 35.2608C37.8667 35.4736 38.0122 35.6536 38.2052 35.7684L44.2112 39.1455L42.4197 43.765L44.52 44.5818L46.3321 39.9623L53.0451 41.5136C53.2642 41.5654 53.4946 41.5362 53.6939 41.4315C53.8932 41.3268 54.048 41.1536 54.1297 40.9439L37.8139 34.6084Z" fill="#068FFF"/>
<path d="M39.7839 54.4936L39.2622 54.2945C39.0424 54.2087 38.8599 54.048 38.7469 53.8409C38.6339 53.6337 38.5976 53.3933 38.6445 53.162C39.2973 49.8158 40.5858 46.6259 42.4403 43.7651L44.5407 44.582C43.9102 47.9209 42.7172 51.1285 41.0126 54.068C40.8918 54.2734 40.7018 54.4291 40.4766 54.5071C40.2514 54.5851 40.0059 54.5803 39.7839 54.4936Z" fill="#068FFF"/>
<path d="M42.705 42.5004L42.3528 43.4092C42.2912 43.5683 42.3702 43.7472 42.5292 43.8089L44.4493 44.5529C44.6084 44.6145 44.7873 44.5355 44.8489 44.3764L45.2011 43.4676C45.2627 43.3085 45.1837 43.1296 45.0247 43.068L43.1046 42.324C42.9455 42.2624 42.7666 42.3413 42.705 42.5004Z" fill="white"/>
<path d="M44.561 44.9113C44.4807 44.9126 44.401 44.8962 44.3277 44.8633L42.4057 44.122C42.2456 44.0574 42.1157 43.9349 42.0419 43.7788C42.0081 43.6996 41.9907 43.6144 41.9907 43.5282C41.9907 43.4421 42.0081 43.3569 42.0419 43.2777L42.392 42.3717C42.4651 42.2214 42.5904 42.1029 42.7446 42.0385C42.8988 41.974 43.0711 41.968 43.2294 42.0216L45.1513 42.7698C45.3069 42.8394 45.431 42.9644 45.4995 43.1204C45.568 43.2765 45.5761 43.4524 45.522 43.614L45.1719 44.5201C45.1168 44.6359 45.0304 44.7339 44.9224 44.803C44.8144 44.8722 44.6892 44.9097 44.561 44.9113ZM43.0098 42.6394L42.7009 43.5248L44.5679 44.2112L44.9111 43.3395L43.0098 42.6394Z" fill="#068FFF"/>
<path d="M37.958 27.8059H37.1892V26.3164H37.958C38.1018 26.3164 38.2397 26.3735 38.3414 26.4752C38.4431 26.5769 38.5002 26.7148 38.5002 26.8587V27.2636C38.5002 27.4075 38.4431 27.5454 38.3414 27.6471C38.2397 27.7488 38.1018 27.8059 37.958 27.8059Z" fill="#068FFF"/>
<path d="M35.1711 28.6368L35.2466 28.7947C35.3016 28.9045 35.3771 29.0487 35.48 29.2271C35.583 29.4056 35.7065 29.6047 35.8507 29.8174C36.0107 30.0347 36.1849 30.2411 36.3723 30.4352C36.4703 30.5344 36.5734 30.6284 36.6812 30.7166C36.7889 30.8006 36.9012 30.8785 37.0176 30.95C37.1274 31.0186 37.2441 31.0667 37.3539 31.1216C37.4637 31.1765 37.5804 31.1902 37.6834 31.2246C37.7763 31.2455 37.8702 31.2616 37.9648 31.2726C38.0379 31.2792 38.1114 31.2792 38.1844 31.2726H38.3698C38.3893 31.2726 38.4086 31.2687 38.4266 31.261C38.4445 31.2534 38.4607 31.2421 38.4742 31.228C38.4877 31.2139 38.4982 31.1972 38.505 31.1789C38.5118 31.1606 38.5148 31.1411 38.5139 31.1216C38.5145 31.0877 38.5032 31.0546 38.4818 31.0283C38.4605 31.0019 38.4305 30.9839 38.3972 30.9775H38.2394C38.179 30.968 38.1193 30.9543 38.0609 30.9363L37.8412 30.8539C37.7726 30.8059 37.6834 30.7784 37.6079 30.7166C37.5216 30.6607 37.4411 30.5963 37.3676 30.5244C37.2854 30.4535 37.2095 30.3754 37.1411 30.2911C37.067 30.2037 36.9983 30.1121 36.9352 30.0165C36.8131 29.8257 36.7052 29.6261 36.6126 29.4193C36.5234 29.2134 36.4478 29.0212 36.3929 28.8496C36.338 28.678 36.2968 28.5407 36.2694 28.4378L36.2213 28.273C36.2023 28.2021 36.1693 28.1356 36.1244 28.0775C36.0795 28.0193 36.0235 27.9707 35.9597 27.9343C35.8959 27.8979 35.8255 27.8745 35.7526 27.8655C35.6797 27.8565 35.6057 27.862 35.5349 27.8818C35.4641 27.9008 35.3978 27.9337 35.3399 27.9788C35.282 28.0238 35.2338 28.0799 35.1979 28.1439C35.1621 28.2079 35.1395 28.2784 35.1313 28.3513C35.1232 28.4241 35.1297 28.4979 35.1506 28.5682C35.1543 28.5919 35.1612 28.615 35.1711 28.6368Z" fill="#068FFF"/>
<path d="M37.1893 26.3164V27.8059C36.6431 27.8059 36.1194 28.0228 35.7332 28.409C35.347 28.7952 35.1301 29.319 35.1301 29.8651V32.1577C35.1283 32.2281 35.0996 32.2952 35.0497 32.345C34.9999 32.3949 34.9328 32.4236 34.8624 32.4254H32.1923C32.1907 31.915 32.0649 31.4127 31.8257 30.9618C31.5865 30.511 31.2412 30.1251 30.8195 29.8376L30.4282 29.5768C30.43 28.7279 30.7686 27.9143 31.3695 27.3146C31.9705 26.715 32.7848 26.3782 33.6337 26.3782L37.1893 26.3164Z" fill="white"/>
<path d="M34.6631 32.4116H32.6245V33.0157H34.6631V32.4116Z" fill="#068FFF"/>
<path d="M38.205 49.0093V51.4391C38.205 51.7795 38.0698 52.106 37.829 52.3467C37.5883 52.5874 37.2618 52.7227 36.9214 52.7227H31.595C31.081 52.7227 30.5879 52.519 30.2238 52.1562C29.8597 51.7933 29.6543 51.301 29.6524 50.787V43.2366C29.6227 41.0382 29.9614 38.8503 30.6546 36.7639C31.0276 35.6646 31.463 34.5875 31.9587 33.5378C32.0334 33.3824 32.1501 33.2511 32.2958 33.1588C32.4414 33.0666 32.61 33.0171 32.7824 33.0161H34.4298C34.6315 33.0174 34.8271 33.0854 34.986 33.2096C35.145 33.3338 35.2583 33.5071 35.3084 33.7025L35.5349 34.6635C35.5564 34.7444 35.5536 34.83 35.5267 34.9094C35.4999 34.9887 35.4502 35.0584 35.3839 35.1096C35.2961 35.177 35.2259 35.2647 35.1793 35.3651C35.1327 35.4655 35.111 35.5756 35.1162 35.6862C35.1139 35.7825 35.131 35.8783 35.1663 35.9679C35.2017 36.0575 35.2547 36.1391 35.3221 36.2079C35.3544 36.2423 35.3724 36.2877 35.3724 36.3349C35.3724 36.3821 35.3544 36.4275 35.3221 36.4618C35.2343 36.5511 35.1726 36.6627 35.1436 36.7845C35.1333 36.8527 35.1333 36.9221 35.1436 36.9904C35.1414 37.0867 35.1584 37.1825 35.1938 37.2721C35.2291 37.3617 35.2821 37.4433 35.3496 37.512C35.3819 37.5464 35.3999 37.5918 35.3999 37.639C35.3999 37.6862 35.3819 37.7316 35.3496 37.766C35.2148 37.9087 35.141 38.0983 35.1436 38.2945C35.2379 38.6845 35.4108 39.0512 35.6516 39.3722L35.9605 39.9556C37.4355 42.7454 38.206 45.8535 38.205 49.0093Z" fill="#068FFF"/>
<path d="M35.1093 35.6656C35.107 35.7619 35.124 35.8577 35.1594 35.9473C35.1948 36.0369 35.2478 36.1185 35.3152 36.1873C35.3475 36.2217 35.3655 36.2671 35.3655 36.3143C35.3655 36.3615 35.3475 36.4069 35.3152 36.4413C35.2274 36.5305 35.1657 36.6421 35.1367 36.7639H30.6545C31.0276 35.6646 31.463 34.5875 31.9587 33.5378C32.0333 33.3824 32.1501 33.2511 32.2957 33.1588C32.4414 33.0666 32.61 33.0171 32.7824 33.0161H34.4297C34.6314 33.0174 34.827 33.0854 34.986 33.2096C35.1449 33.3338 35.2583 33.5071 35.3083 33.7025L35.5349 34.6635C35.5564 34.7444 35.5536 34.83 35.5267 34.9094C35.4998 34.9887 35.4501 35.0584 35.3838 35.1096C35.2977 35.1743 35.2279 35.2583 35.1802 35.3549C35.1325 35.4514 35.1082 35.5579 35.1093 35.6656Z" fill="white"/>
<path d="M30.9841 50.9928C30.9052 50.9928 30.8294 50.9619 30.773 50.9068C30.7165 50.8516 30.6839 50.7765 30.6821 50.6976V42.5981C30.7962 39.5853 31.4471 36.617 32.604 33.8328C32.6176 33.7961 32.6385 33.7625 32.6655 33.7342C32.6924 33.7058 32.7249 33.6833 32.7609 33.6678C32.7968 33.6524 32.8355 33.6445 32.8747 33.6445C32.9138 33.6446 32.9525 33.6526 32.9884 33.668C33.0254 33.6823 33.059 33.7039 33.0875 33.7316C33.1159 33.7592 33.1384 33.7922 33.1538 33.8287C33.1692 33.8652 33.177 33.9044 33.1769 33.9441C33.1768 33.9837 33.1687 34.0229 33.1532 34.0593C32.026 36.7716 31.3915 39.6631 31.2793 42.5981V50.6976C31.2793 50.7759 31.2482 50.851 31.1928 50.9063C31.1375 50.9617 31.0624 50.9928 30.9841 50.9928Z" fill="white"/>
<path d="M32.1922 32.4116H34.8486C34.9191 32.4099 34.9861 32.3811 35.036 32.3313C35.0858 32.2815 35.1146 32.2144 35.1163 32.1439V29.8514C35.1163 29.3052 35.3333 28.7815 35.7194 28.3953C36.1056 28.0091 36.6294 27.7922 37.1755 27.7922V26.3164H33.6405C32.7916 26.3164 31.9773 26.6532 31.3763 27.2528C30.7754 27.8525 30.4369 28.6661 30.4351 29.515L30.8263 29.7759C31.2535 30.0687 31.6017 30.4625 31.84 30.9224C32.0783 31.3822 32.1993 31.8938 32.1922 32.4116ZM33.6405 27.0165H36.5028V27.2156C35.915 27.3674 35.394 27.7098 35.0214 28.1892C34.6488 28.6686 34.4456 29.2579 34.4436 29.8651V31.7252H32.8169C32.7286 31.2257 32.541 30.749 32.2651 30.3234C31.9892 29.8977 31.6306 29.5318 31.2107 29.2473L31.1421 29.1993C31.2219 28.5927 31.5191 28.0356 31.9787 27.6317C32.4382 27.2277 33.0287 27.0042 33.6405 27.0028V27.0165Z" fill="#068FFF"/>
<path d="M35.9261 39.9625L35.6172 39.379C35.3764 39.0581 35.2036 38.6914 35.1093 38.3014C35.1066 38.1051 35.1805 37.9156 35.3152 37.7728C35.3475 37.7385 35.3655 37.6931 35.3655 37.6459C35.3655 37.5987 35.3475 37.5532 35.3152 37.5189C35.2478 37.4501 35.1948 37.3685 35.1594 37.2789C35.124 37.1893 35.107 37.0935 35.1093 36.9972C35.0989 36.929 35.0989 36.8595 35.1093 36.7913C35.1382 36.6695 35.1999 36.5579 35.2877 36.4687C35.3201 36.4343 35.3381 36.3889 35.3381 36.3417C35.3381 36.2945 35.3201 36.2491 35.2877 36.2147C35.2203 36.1459 35.1673 36.0643 35.132 35.9747C35.0966 35.8851 35.0795 35.7893 35.0818 35.693C35.0766 35.5825 35.0983 35.4723 35.1449 35.3719C35.1915 35.2715 35.2617 35.1839 35.3495 35.1165C35.4158 35.0652 35.4655 34.9956 35.4924 34.9162C35.5192 34.8368 35.5221 34.7513 35.5005 34.6703L35.274 33.7093C35.224 33.514 35.1106 33.3406 34.9517 33.2164C34.7927 33.0923 34.5971 33.0242 34.3954 33.0229H32.7481C32.5757 33.024 32.407 33.0734 32.2614 33.1657C32.1158 33.2579 31.999 33.3892 31.9244 33.5446C31.4287 34.5943 30.9933 35.6714 30.6202 36.7707C29.9271 38.8641 29.5907 41.0591 29.6249 43.264V50.8145C29.6268 51.3284 29.8322 51.8208 30.1963 52.1836C30.5604 52.5464 31.0535 52.7501 31.5675 52.7501H36.9008C37.0734 52.7529 37.2448 52.7209 37.4048 52.6559C37.5647 52.5909 37.7099 52.4943 37.8317 52.3719C37.9534 52.2495 38.0492 52.1038 38.1134 51.9436C38.1775 51.7833 38.2087 51.6117 38.2049 51.4391V49.0092C38.1943 45.8529 37.4119 42.7471 35.9261 39.9625ZM37.5185 51.4391C37.5185 51.5975 37.4556 51.7493 37.3436 51.8613C37.2316 51.9733 37.0798 52.0362 36.9214 52.0362H31.5949C31.263 52.0363 30.9445 51.9049 30.7091 51.6708C30.4737 51.4367 30.3406 51.1189 30.3388 50.787V43.2366C30.3051 41.104 30.6299 38.981 31.2998 36.956C31.661 35.8831 32.0874 34.8333 32.5765 33.8123C32.5936 33.7737 32.6215 33.7409 32.6568 33.7178C32.6921 33.6947 32.7333 33.6822 32.7755 33.6819H34.4229C34.4681 33.6809 34.5124 33.6944 34.5494 33.7203C34.5864 33.7462 34.6142 33.7833 34.6288 33.826L34.8279 34.636C34.6952 34.7677 34.5909 34.9252 34.5212 35.0987C34.4516 35.2722 34.4181 35.4581 34.4229 35.645C34.4232 35.8688 34.4748 36.0895 34.5739 36.2902C34.5307 36.3758 34.4962 36.4655 34.4709 36.5579C34.3814 36.907 34.4178 37.2764 34.5739 37.6012C34.4695 37.8147 34.4177 38.0501 34.4229 38.2876C34.4945 38.8107 34.7028 39.3055 35.0269 39.7222L35.3221 40.2713C36.754 42.962 37.5079 45.9613 37.5185 49.0092V51.4391Z" fill="#068FFF"/>
<path d="M37.2921 47.7049C37.2935 48.1453 37.164 48.5762 36.9202 48.943C36.6763 49.3098 36.3291 49.5959 35.9224 49.7651C35.5158 49.9342 35.068 49.9789 34.636 49.8933C34.2039 49.8077 33.8071 49.5957 33.4956 49.2843C33.1842 48.9729 32.9722 48.576 32.8866 48.1439C32.801 47.7119 32.8457 47.2642 33.0148 46.8575C33.184 46.4508 33.4701 46.1036 33.8369 45.8597C34.2037 45.6159 34.6346 45.4864 35.075 45.4878C35.3662 45.4878 35.6545 45.5451 35.9235 45.6566C36.1925 45.768 36.4369 45.9313 36.6427 46.1372C36.8486 46.343 37.0119 46.5874 37.1233 46.8564C37.2348 47.1254 37.2921 47.4137 37.2921 47.7049Z" fill="#068FFF"/>
<path d="M33.8463 48.8856C33.8087 48.8874 33.7713 48.8795 33.7377 48.8627C33.704 48.8458 33.6753 48.8207 33.6541 48.7895C33.4128 48.4796 33.2823 48.0978 33.2835 47.705C33.2813 47.3256 33.4001 46.9554 33.6227 46.6481C33.8452 46.3408 34.1599 46.1124 34.521 45.9961C34.8822 45.8798 35.271 45.8816 35.6311 46.0013C35.9911 46.121 36.3036 46.3523 36.5233 46.6617C36.5606 46.7136 36.5758 46.7781 36.5655 46.8412C36.5552 46.9043 36.5203 46.9607 36.4684 46.998C36.4165 47.0353 36.3519 47.0505 36.2888 47.0402C36.2258 47.0299 36.1694 46.995 36.132 46.9431C36.0106 46.7763 35.8517 46.6403 35.6681 46.5461C35.4845 46.4519 35.2813 46.4022 35.075 46.4008C34.8322 46.4012 34.5943 46.4692 34.3881 46.5974C34.1819 46.7256 34.0156 46.9088 33.9079 47.1264C33.8002 47.3439 33.7553 47.5873 33.7784 47.829C33.8015 48.0707 33.8916 48.3011 34.0385 48.4944C34.0673 48.53 34.0854 48.5731 34.0905 48.6187C34.0956 48.6642 34.0875 48.7102 34.0673 48.7514C34.0471 48.7925 34.0156 48.827 33.9764 48.8508C33.9373 48.8746 33.8921 48.8866 33.8463 48.8856Z" fill="white"/>
<path d="M49.5993 53.6424L48.8306 54.3768C48.6043 54.6015 48.2983 54.7276 47.9794 54.7276C47.6605 54.7276 47.3546 54.6015 47.1283 54.3768L46.8263 54.0817C46.5993 53.8663 46.2983 53.7463 45.9854 53.7463C45.6725 53.7463 45.3716 53.8663 45.1446 54.0817L44.8426 54.3768C44.6172 54.5953 44.3156 54.7175 44.0017 54.7175C43.6878 54.7175 43.3863 54.5953 43.1609 54.3768L42.852 54.0817C42.6261 53.8668 42.3263 53.747 42.0146 53.747C41.7029 53.747 41.403 53.8668 41.1772 54.0817L40.8683 54.3768C40.6441 54.5949 40.3437 54.7168 40.0309 54.7168C39.7181 54.7168 39.4177 54.5949 39.1935 54.3768L38.8915 54.0885C38.6656 53.8737 38.3658 53.7538 38.0541 53.7538C37.7423 53.7538 37.4425 53.8737 37.2167 54.0885L36.9078 54.3837C36.6836 54.6017 36.3831 54.7237 36.0704 54.7237C35.7576 54.7237 35.4572 54.6017 35.233 54.3837L34.4573 53.6424C34.34 53.5295 34.2467 53.3942 34.183 53.2444C34.1193 53.0946 34.0865 52.9334 34.0867 52.7706V48.1992H49.9768V52.7775C49.9752 52.9396 49.9409 53.0997 49.876 53.2483C49.8112 53.3969 49.7171 53.5309 49.5993 53.6424Z" fill="white"/>
<path d="M49.2904 48.8856V52.7775C49.2873 52.9201 49.2281 53.0558 49.1257 53.155L48.3501 53.8963C48.302 53.9432 48.2451 53.9801 48.1826 54.0049C48.1202 54.0296 48.0534 54.0417 47.9863 54.0405C47.851 54.0408 47.7208 53.9892 47.6225 53.8963L47.3205 53.6012C46.9666 53.2626 46.4958 53.0736 46.006 53.0736C45.5163 53.0736 45.0454 53.2626 44.6916 53.6012L44.3827 53.8963C44.3346 53.9432 44.2777 53.9801 44.2152 54.0049C44.1528 54.0296 44.086 54.0417 44.0189 54.0405C43.8835 54.0415 43.7531 53.9898 43.6551 53.8963L43.3531 53.6012C42.9977 53.2627 42.526 53.0735 42.0352 53.0727C41.5462 53.0724 41.0762 53.2619 40.7242 53.6012L40.4153 53.8963C40.3171 53.9895 40.1869 54.0415 40.0515 54.0415C39.9161 54.0415 39.7859 53.9895 39.6877 53.8963L39.3857 53.6012C39.0307 53.2622 38.5587 53.073 38.0678 53.073C37.5769 53.073 37.1049 53.2622 36.7499 53.6012L36.4479 53.8963C36.3497 53.9895 36.2195 54.0415 36.0841 54.0415C35.9487 54.0415 35.8185 53.9895 35.7203 53.8963L34.9447 53.155C34.8441 53.0551 34.7874 52.9193 34.7868 52.7775V48.8856H49.2904ZM49.9768 48.1992H34.0867V52.7775C34.0865 52.9403 34.1193 53.1014 34.183 53.2512C34.2467 53.401 34.34 53.5364 34.4573 53.6492L35.2467 54.3768C35.4717 54.5933 35.7719 54.7142 36.0841 54.7142C36.3963 54.7142 36.6965 54.5933 36.9215 54.3768L37.2304 54.0817C37.4554 53.8652 37.7556 53.7443 38.0678 53.7443C38.38 53.7443 38.6801 53.8652 38.9052 54.0817L39.2141 54.3768C39.4391 54.5933 39.7393 54.7142 40.0515 54.7142C40.3637 54.7142 40.6639 54.5933 40.8889 54.3768L41.1978 54.0817C41.4228 53.8652 41.7229 53.7443 42.0352 53.7443C42.3474 53.7443 42.6475 53.8652 42.8726 54.0817L43.1815 54.3768C43.4059 54.5941 43.7065 54.7149 44.0189 54.7132C44.3331 54.7138 44.6355 54.5933 44.8632 54.3768L45.1652 54.0817C45.3915 53.8674 45.6909 53.7472 46.0026 53.7453C46.3164 53.7468 46.618 53.867 46.8469 54.0817L47.1283 54.3768C47.3553 54.5922 47.6562 54.7122 47.9691 54.7122C48.282 54.7122 48.583 54.5922 48.81 54.3768L49.5787 53.6355C49.6973 53.5233 49.7919 53.3881 49.8568 53.2383C49.9217 53.0885 49.9555 52.9271 49.9563 52.7638V48.1992H49.9768Z" fill="#068FFF"/>
<path d="M49.9768 47.2793H34.1003V48.1922H49.9768V47.2793Z" fill="#068FFF"/>
<path d="M41.3625 53.0658C41.6165 53.0658 41.8224 52.8599 41.8224 52.6059C41.8224 52.3519 41.6165 52.146 41.3625 52.146C41.1085 52.146 40.9026 52.3519 40.9026 52.6059C40.9026 52.8599 41.1085 53.0658 41.3625 53.0658Z" fill="#068FFF"/>
<path d="M34.8279 50.6356C34.8293 50.6983 34.812 50.76 34.7781 50.8129C34.7442 50.8657 34.6954 50.9072 34.6379 50.9322C34.5803 50.9571 34.5166 50.9644 34.4549 50.953C34.3932 50.9416 34.3363 50.9121 34.2915 50.8682C34.2466 50.8243 34.2159 50.7681 34.2031 50.7066C34.1904 50.6452 34.1962 50.5814 34.2199 50.5233C34.2436 50.4652 34.284 50.4155 34.3361 50.3805C34.3882 50.3455 34.4495 50.3268 34.5122 50.3267C34.5533 50.3258 34.5942 50.3331 34.6325 50.3482C34.6708 50.3634 34.7056 50.386 34.7351 50.4147C34.7645 50.4435 34.7878 50.4779 34.8038 50.5158C34.8197 50.5537 34.828 50.5945 34.8279 50.6356Z" fill="#068FFF"/>
<path d="M36.1458 52.791C36.1518 52.8264 36.1499 52.8627 36.1404 52.8974C36.131 52.932 36.114 52.9642 36.0908 52.9916C36.0676 53.0191 36.0387 53.0411 36.0061 53.0562C35.9735 53.0713 35.9381 53.0792 35.9021 53.0792C35.8662 53.0792 35.8307 53.0713 35.7981 53.0562C35.7655 53.0411 35.7367 53.0191 35.7135 52.9916C35.6903 52.9642 35.6733 52.932 35.6638 52.8974C35.6543 52.8627 35.6525 52.8264 35.6585 52.791C35.6682 52.7334 35.698 52.6811 35.7426 52.6434C35.7872 52.6057 35.8437 52.585 35.9021 52.585C35.9606 52.585 36.0171 52.6057 36.0617 52.6434C36.1063 52.6811 36.1361 52.7334 36.1458 52.791Z" fill="#068FFF"/>
<path d="M37.553 52.9009C37.7198 52.9009 37.855 52.7657 37.855 52.5989C37.855 52.4321 37.7198 52.2969 37.553 52.2969C37.3862 52.2969 37.251 52.4321 37.251 52.5989C37.251 52.7657 37.3862 52.9009 37.553 52.9009Z" fill="#068FFF"/>
<path d="M40.2643 49.1941C40.2643 49.2742 40.2405 49.3525 40.196 49.4191C40.1515 49.4857 40.0883 49.5376 40.0143 49.5682C39.9403 49.5989 39.8589 49.6069 39.7803 49.5913C39.7018 49.5757 39.6296 49.5371 39.573 49.4805C39.5163 49.4238 39.4778 49.3517 39.4621 49.2731C39.4465 49.1945 39.4545 49.1131 39.4852 49.0391C39.5158 48.9651 39.5677 48.9019 39.6343 48.8574C39.7009 48.8129 39.7792 48.7891 39.8593 48.7891C39.9128 48.7882 39.9658 48.798 40.0154 48.8181C40.0649 48.8381 40.11 48.8679 40.1478 48.9057C40.1855 48.9435 40.2153 48.9885 40.2354 49.038C40.2554 49.0876 40.2652 49.1407 40.2643 49.1941Z" fill="#068FFF"/>
<path d="M44.2317 54.0199C44.2215 54.0827 44.1893 54.1398 44.1409 54.181C44.0925 54.2222 44.031 54.2449 43.9674 54.2449C43.9038 54.2449 43.8423 54.2222 43.7939 54.181C43.7455 54.1398 43.7133 54.0827 43.7031 54.0199C43.697 53.9816 43.6991 53.9425 43.7096 53.9051C43.72 53.8678 43.7384 53.8332 43.7636 53.8036C43.7887 53.7741 43.8199 53.7504 43.8551 53.7342C43.8903 53.7179 43.9286 53.7095 43.9674 53.7095C44.0062 53.7095 44.0445 53.7179 44.0797 53.7342C44.1149 53.7504 44.1461 53.7741 44.1712 53.8036C44.1964 53.8332 44.2148 53.8678 44.2252 53.9051C44.2357 53.9425 44.2379 53.9816 44.2317 54.0199Z" fill="#068FFF"/>
<path d="M43.2981 48.7893C43.2963 48.8627 43.2658 48.9325 43.2133 48.9838C43.1607 49.0351 43.0901 49.0638 43.0166 49.0638C42.9765 49.0701 42.9354 49.0677 42.8963 49.0566C42.8572 49.0456 42.8209 49.0262 42.79 48.9997C42.7591 48.9733 42.7343 48.9405 42.7172 48.9036C42.7002 48.8667 42.6914 48.8265 42.6914 48.7858C42.6914 48.7452 42.7002 48.705 42.7172 48.668C42.7343 48.6311 42.7591 48.5983 42.79 48.5719C42.8209 48.5455 42.8572 48.5261 42.8963 48.515C42.9354 48.5039 42.9765 48.5015 43.0166 48.5078C43.0913 48.5078 43.1629 48.5375 43.2156 48.5903C43.2684 48.643 43.2981 48.7146 43.2981 48.7893Z" fill="#068FFF"/>
<path d="M47.1832 50.2584C47.1832 50.3622 47.142 50.4617 47.0686 50.5351C46.9952 50.6084 46.8957 50.6497 46.7919 50.6497C46.698 50.6371 46.6117 50.5909 46.5493 50.5196C46.4868 50.4482 46.4524 50.3566 46.4524 50.2618C46.4524 50.167 46.4868 50.0754 46.5493 50.0041C46.6117 49.9328 46.698 49.8866 46.7919 49.874C46.8945 49.874 46.993 49.9143 47.0662 49.9862C47.1394 50.0581 47.1814 50.1558 47.1832 50.2584Z" fill="#068FFF"/>
<path d="M47.1832 49.2906C47.3879 49.2906 47.5538 49.1247 47.5538 48.92C47.5538 48.7153 47.3879 48.5493 47.1832 48.5493C46.9784 48.5493 46.8125 48.7153 46.8125 48.92C46.8125 49.1247 46.9784 49.2906 47.1832 49.2906Z" fill="#068FFF"/>
<path d="M49.1464 51.8234C49.1464 51.8871 49.121 51.9482 49.076 51.9932C49.0309 52.0383 48.9698 52.0636 48.9061 52.0636C48.8424 52.0636 48.7813 52.0383 48.7362 51.9932C48.6912 51.9482 48.6659 51.8871 48.6659 51.8234C48.6649 51.7915 48.6705 51.7599 48.6822 51.7303C48.694 51.7007 48.7116 51.6739 48.7341 51.6514C48.7566 51.6289 48.7835 51.6112 48.8131 51.5995C48.8426 51.5877 48.8743 51.5822 48.9061 51.5831C48.9698 51.5831 49.0309 51.6084 49.076 51.6535C49.121 51.6985 49.1464 51.7596 49.1464 51.8234Z" fill="#068FFF"/>
<path d="M35.027 53.2649C35.017 53.326 34.9856 53.3815 34.9385 53.4215C34.8913 53.4616 34.8315 53.4836 34.7696 53.4836C34.7078 53.4836 34.6479 53.4616 34.6007 53.4215C34.5536 53.3815 34.5222 53.326 34.5122 53.2649C34.5061 53.2276 34.5082 53.1894 34.5183 53.1529C34.5284 53.1165 34.5463 53.0827 34.5708 53.0539C34.5953 53.0251 34.6258 53.0019 34.6601 52.986C34.6944 52.9701 34.7318 52.9619 34.7696 52.9619C34.8074 52.9619 34.8448 52.9701 34.8791 52.986C34.9135 53.0019 34.9439 53.0251 34.9684 53.0539C34.9929 53.0827 35.0108 53.1165 35.0209 53.1529C35.0311 53.1894 35.0331 53.2276 35.027 53.2649Z" fill="#068FFF"/>
<path d="M36.4616 49.9357C36.4616 49.9928 36.4447 50.0485 36.413 50.0959C36.3813 50.1433 36.3363 50.1803 36.2836 50.2021C36.2309 50.2239 36.173 50.2296 36.1171 50.2185C36.0611 50.2074 36.0098 50.1799 35.9694 50.1396C35.9291 50.0993 35.9017 50.0479 35.8905 49.992C35.8794 49.9361 35.8851 49.8781 35.907 49.8254C35.9288 49.7727 35.9657 49.7277 36.0131 49.696C36.0605 49.6644 36.1163 49.6475 36.1733 49.6475C36.2498 49.6475 36.3231 49.6778 36.3771 49.7319C36.4312 49.786 36.4616 49.8593 36.4616 49.9357Z" fill="#068FFF"/>
<path d="M36.3585 53.9234C36.3585 53.9736 36.3436 54.0227 36.3157 54.0645C36.2878 54.1063 36.2482 54.1388 36.2017 54.158C36.1553 54.1773 36.1043 54.1823 36.055 54.1725C36.0057 54.1627 35.9605 54.1385 35.925 54.103C35.8895 54.0675 35.8653 54.0222 35.8555 53.9729C35.8457 53.9237 35.8507 53.8726 35.8699 53.8262C35.8891 53.7798 35.9217 53.7401 35.9635 53.7122C36.0052 53.6843 36.0543 53.6694 36.1046 53.6694C36.1379 53.6694 36.1709 53.676 36.2017 53.6888C36.2326 53.7015 36.2606 53.7202 36.2841 53.7438C36.3077 53.7674 36.3264 53.7954 36.3392 53.8262C36.352 53.857 36.3585 53.89 36.3585 53.9234Z" fill="#068FFF"/>
<path d="M37.498 49.6953C37.7255 49.6953 37.9099 49.5109 37.9099 49.2834C37.9099 49.056 37.7255 48.8716 37.498 48.8716C37.2706 48.8716 37.0862 49.056 37.0862 49.2834C37.0862 49.5109 37.2706 49.6953 37.498 49.6953Z" fill="#068FFF"/>
<path d="M43.6138 53.4842C43.6147 53.5416 43.6042 53.5985 43.5829 53.6518C43.5615 53.7051 43.5298 53.7535 43.4896 53.7944C43.4493 53.8353 43.4014 53.8678 43.3484 53.8899C43.2955 53.9121 43.2387 53.9235 43.1814 53.9235C43.1195 53.9313 43.0568 53.9258 42.9972 53.9075C42.9376 53.8891 42.8827 53.8583 42.8359 53.8171C42.7892 53.7758 42.7518 53.7252 42.7261 53.6684C42.7005 53.6116 42.6873 53.55 42.6873 53.4876C42.6873 53.4253 42.7005 53.3637 42.7261 53.3069C42.7518 53.2501 42.7892 53.1994 42.8359 53.1582C42.8827 53.117 42.9376 53.0862 42.9972 53.0678C43.0568 53.0495 43.1195 53.044 43.1814 53.0518C43.296 53.0518 43.406 53.0973 43.4871 53.1784C43.5682 53.2595 43.6138 53.3695 43.6138 53.4842Z" fill="#068FFF"/>
<path d="M41.8841 50.0728C42.085 50.0728 42.2478 49.9099 42.2478 49.709C42.2478 49.5081 42.085 49.3452 41.8841 49.3452C41.6831 49.3452 41.5203 49.5081 41.5203 49.709C41.5203 49.9099 41.6831 50.0728 41.8841 50.0728Z" fill="#068FFF"/>
<path d="M45.927 50.5809C45.927 50.6665 45.893 50.7485 45.8325 50.809C45.772 50.8695 45.6899 50.9035 45.6043 50.9035C45.5188 50.9035 45.4367 50.8695 45.3762 50.809C45.3157 50.7485 45.2817 50.6665 45.2817 50.5809C45.2817 50.4953 45.3157 50.4133 45.3762 50.3528C45.4367 50.2923 45.5188 50.2583 45.6043 50.2583C45.6899 50.2583 45.772 50.2923 45.8325 50.3528C45.893 50.4133 45.927 50.4953 45.927 50.5809Z" fill="#068FFF"/>
<path d="M45.8515 49.6476C45.8529 49.697 45.8394 49.7457 45.8128 49.7874C45.7861 49.829 45.7476 49.8618 45.7022 49.8813C45.6568 49.9009 45.6065 49.9063 45.558 49.897C45.5094 49.8877 45.4648 49.864 45.4298 49.8291C45.3948 49.7941 45.3712 49.7494 45.3618 49.7009C45.3525 49.6523 45.358 49.6021 45.3775 49.5566C45.3971 49.5112 45.4298 49.4727 45.4715 49.4461C45.5132 49.4195 45.5619 49.406 45.6113 49.4073C45.6745 49.4091 45.7346 49.4349 45.7793 49.4796C45.8239 49.5243 45.8498 49.5844 45.8515 49.6476Z" fill="#068FFF"/>
<path d="M49.4141 49.5033C49.4141 49.6235 49.3664 49.7387 49.2814 49.8237C49.1965 49.9086 49.0812 49.9563 48.9611 49.9563C48.8715 49.9563 48.7839 49.9298 48.7094 49.88C48.6349 49.8302 48.5768 49.7595 48.5425 49.6767C48.5083 49.5939 48.4993 49.5028 48.5168 49.4149C48.5342 49.3271 48.5774 49.2463 48.6407 49.183C48.7041 49.1196 48.7848 49.0765 48.8727 49.059C48.9606 49.0415 49.0517 49.0505 49.1344 49.0848C49.2172 49.1191 49.288 49.1771 49.3378 49.2516C49.3875 49.3261 49.4141 49.4137 49.4141 49.5033Z" fill="#068FFF"/>
<path d="M35.4593 51.5281C35.4593 51.6137 35.434 51.6973 35.3865 51.7684C35.339 51.8395 35.2714 51.8949 35.1924 51.9277C35.1134 51.9604 35.0264 51.9689 34.9426 51.9523C34.8587 51.9356 34.7816 51.8944 34.7211 51.8339C34.6607 51.7734 34.6195 51.6964 34.6028 51.6125C34.5861 51.5286 34.5947 51.4417 34.6274 51.3627C34.6601 51.2836 34.7156 51.2161 34.7867 51.1686C34.8578 51.1211 34.9414 51.0957 35.0269 51.0957C35.1416 51.0957 35.2516 51.1413 35.3327 51.2224C35.4138 51.3035 35.4593 51.4134 35.4593 51.5281Z" fill="#068FFF"/>
<path d="M38.5345 50.2171C38.5345 50.3299 38.4897 50.4382 38.4098 50.518C38.33 50.5978 38.2218 50.6426 38.1089 50.6426C37.9961 50.6426 37.8878 50.5978 37.808 50.518C37.7282 50.4382 37.6833 50.3299 37.6833 50.2171C37.6833 50.1042 37.7282 49.996 37.808 49.9162C37.8878 49.8363 37.9961 49.7915 38.1089 49.7915C38.2218 49.7915 38.33 49.8363 38.4098 49.9162C38.4897 49.996 38.5345 50.1042 38.5345 50.2171Z" fill="#068FFF"/>
<path d="M41.0193 51.2122C41.0193 51.2953 40.9945 51.3765 40.9482 51.4455C40.9019 51.5145 40.8361 51.5682 40.7592 51.5997C40.6823 51.6311 40.5978 51.639 40.5163 51.6223C40.4349 51.6056 40.3604 51.565 40.3021 51.5058C40.2438 51.4465 40.2045 51.3713 40.1891 51.2896C40.1737 51.2079 40.183 51.1236 40.2158 51.0472C40.2485 50.9708 40.3032 50.9059 40.373 50.8607C40.4427 50.8155 40.5244 50.7922 40.6075 50.7935C40.6621 50.7935 40.7162 50.8044 40.7667 50.8255C40.8171 50.8466 40.8628 50.8776 40.9011 50.9166C40.9395 50.9555 40.9696 51.0017 40.9899 51.0525C41.0102 51.1033 41.0202 51.1576 41.0193 51.2122Z" fill="#068FFF"/>
<path d="M40.3055 53.4842C40.3064 53.5398 40.2962 53.5949 40.2756 53.6465C40.2549 53.6981 40.2242 53.7451 40.1853 53.7847C40.1463 53.8243 40.0998 53.8558 40.0486 53.8772C39.9973 53.8987 39.9423 53.9098 39.8867 53.9098C39.7739 53.9098 39.6656 53.8649 39.5858 53.7851C39.506 53.7053 39.4612 53.5971 39.4612 53.4842C39.4612 53.4286 39.4722 53.3736 39.4937 53.3224C39.5152 53.2711 39.5466 53.2246 39.5862 53.1857C39.6258 53.1467 39.6728 53.116 39.7244 53.0954C39.776 53.0747 39.8312 53.0646 39.8867 53.0655C39.9978 53.0655 40.1043 53.1096 40.1828 53.1881C40.2613 53.2666 40.3055 53.3731 40.3055 53.4842Z" fill="#068FFF"/>
<path d="M43.4491 51.8505C43.4491 51.9743 43.4 52.0931 43.3124 52.1806C43.2249 52.2681 43.1062 52.3173 42.9824 52.3173C42.8586 52.3173 42.7399 52.2681 42.6523 52.1806C42.5648 52.0931 42.5156 51.9743 42.5156 51.8505C42.5156 51.7268 42.5648 51.608 42.6523 51.5205C42.7399 51.433 42.8586 51.3838 42.9824 51.3838C43.1062 51.3838 43.2249 51.433 43.3124 51.5205C43.4 51.608 43.4491 51.7268 43.4491 51.8505Z" fill="#068FFF"/>
<path d="M44.2454 50.0663C44.2454 50.1846 44.1984 50.2981 44.1147 50.3818C44.031 50.4655 43.9175 50.5125 43.7992 50.5125C43.6802 50.5125 43.566 50.4657 43.4813 50.3822C43.3965 50.2987 43.348 50.1853 43.3462 50.0663C43.348 49.9467 43.3963 49.8325 43.4808 49.7479C43.5654 49.6634 43.6796 49.6151 43.7992 49.6133C43.9182 49.6151 44.0316 49.6636 44.1151 49.7484C44.1986 49.8331 44.2454 49.9473 44.2454 50.0663Z" fill="#068FFF"/>
<path d="M49.1257 51.288C49.2849 51.288 49.414 51.1589 49.414 50.9997C49.414 50.8405 49.2849 50.7114 49.1257 50.7114C48.9665 50.7114 48.8374 50.8405 48.8374 50.9997C48.8374 51.1589 48.9665 51.288 49.1257 51.288Z" fill="#068FFF"/>
<path d="M44.4514 51.9882C44.4514 52.0533 44.4321 52.117 44.3959 52.1712C44.3597 52.2254 44.3082 52.2676 44.248 52.2926C44.1878 52.3175 44.1216 52.324 44.0577 52.3113C43.9938 52.2986 43.9351 52.2672 43.889 52.2211C43.8429 52.1751 43.8115 52.1163 43.7988 52.0524C43.7861 51.9885 43.7926 51.9223 43.8176 51.8621C43.8425 51.8019 43.8847 51.7504 43.9389 51.7142C43.9931 51.678 44.0568 51.6587 44.122 51.6587C44.2093 51.6587 44.2931 51.6934 44.3549 51.7552C44.4167 51.817 44.4514 51.9008 44.4514 51.9882Z" fill="#068FFF"/>
<path d="M39.3033 52.3173C39.3033 52.4069 39.2767 52.4945 39.2269 52.569C39.1771 52.6435 39.1064 52.7015 39.0236 52.7358C38.9408 52.7701 38.8497 52.7791 38.7619 52.7616C38.674 52.7441 38.5933 52.701 38.5299 52.6376C38.4666 52.5743 38.4234 52.4935 38.4059 52.4057C38.3884 52.3178 38.3974 52.2267 38.4317 52.1439C38.466 52.0611 38.5241 51.9904 38.5986 51.9406C38.6731 51.8908 38.7606 51.8643 38.8502 51.8643C38.9704 51.8643 39.0856 51.912 39.1706 51.9969C39.2555 52.0819 39.3033 52.1971 39.3033 52.3173Z" fill="#068FFF"/>
<path d="M38.7816 53.3541C38.7816 53.4196 38.7556 53.4825 38.7092 53.5288C38.6629 53.5751 38.6 53.6012 38.5345 53.6012C38.4683 53.6012 38.4047 53.5754 38.3573 53.5292C38.3098 53.4831 38.2823 53.4202 38.2805 53.3541C38.2823 53.2873 38.3096 53.2237 38.3568 53.1764C38.4041 53.1292 38.4677 53.1018 38.5345 53.1001C38.6006 53.1019 38.6635 53.1294 38.7096 53.1769C38.7558 53.2243 38.7816 53.2879 38.7816 53.3541Z" fill="#068FFF"/>
<path d="M45.8309 52.3173C45.8309 52.4083 45.7948 52.4956 45.7304 52.56C45.666 52.6244 45.5788 52.6605 45.4877 52.6605C45.3967 52.6605 45.3094 52.6244 45.2451 52.56C45.1807 52.4956 45.1445 52.4083 45.1445 52.3173C45.1445 52.2263 45.1807 52.139 45.2451 52.0746C45.3094 52.0103 45.3967 51.9741 45.4877 51.9741C45.5788 51.9741 45.666 52.0103 45.7304 52.0746C45.7948 52.139 45.8309 52.2263 45.8309 52.3173Z" fill="#068FFF"/>
<path d="M48.0548 53.9238C48.0548 54.0161 48.0275 54.1063 47.9762 54.1831C47.9249 54.2599 47.852 54.3197 47.7667 54.355C47.6814 54.3903 47.5876 54.3996 47.497 54.3816C47.4065 54.3636 47.3233 54.3191 47.258 54.2538C47.1928 54.1885 47.1483 54.1054 47.1303 54.0148C47.1123 53.9243 47.1215 53.8304 47.1569 53.7452C47.1922 53.6599 47.252 53.587 47.3288 53.5357C47.4055 53.4844 47.4958 53.457 47.5881 53.457C47.6494 53.457 47.7101 53.4691 47.7667 53.4926C47.8233 53.516 47.8748 53.5504 47.9181 53.5937C47.9615 53.6371 47.9959 53.6885 48.0193 53.7452C48.0428 53.8018 48.0548 53.8625 48.0548 53.9238Z" fill="#068FFF"/>
<path d="M46.5861 53.2646C46.5843 53.3544 46.5473 53.44 46.4831 53.5029C46.419 53.5658 46.3327 53.601 46.2429 53.601C46.1518 53.601 46.0645 53.5648 46.0002 53.5004C45.9358 53.4361 45.8997 53.3488 45.8997 53.2578C45.8997 53.1667 45.9358 53.0794 46.0002 53.0151C46.0645 52.9507 46.1518 52.9146 46.2429 52.9146C46.2885 52.9145 46.3337 52.9236 46.3758 52.9413C46.4179 52.959 46.456 52.9849 46.488 53.0175C46.52 53.0501 46.5451 53.0887 46.5619 53.1312C46.5788 53.1736 46.587 53.219 46.5861 53.2646Z" fill="#068FFF"/>
<path d="M35.8781 49.3385C35.8781 49.4145 35.8556 49.4888 35.8134 49.552C35.7711 49.6153 35.7111 49.6645 35.6409 49.6936C35.5706 49.7227 35.4933 49.7303 35.4188 49.7155C35.3442 49.7007 35.2757 49.664 35.222 49.6103C35.1682 49.5565 35.1316 49.488 35.1168 49.4135C35.1019 49.3389 35.1095 49.2616 35.1386 49.1914C35.1677 49.1212 35.217 49.0611 35.2802 49.0189C35.3434 48.9766 35.4177 48.9541 35.4938 48.9541C35.5957 48.9541 35.6935 48.9946 35.7656 49.0667C35.8376 49.1388 35.8781 49.2365 35.8781 49.3385Z" fill="#068FFF"/>
<path d="M47.2998 52.3174C47.2998 52.3811 47.2745 52.4422 47.2294 52.4873C47.1844 52.5323 47.1233 52.5576 47.0596 52.5576C46.9959 52.5576 46.9348 52.5323 46.8897 52.4873C46.8446 52.4422 46.8193 52.3811 46.8193 52.3174C46.8193 52.2537 46.8446 52.1926 46.8897 52.1475C46.9348 52.1025 46.9959 52.0771 47.0596 52.0771C47.0911 52.0771 47.1224 52.0834 47.1515 52.0954C47.1807 52.1075 47.2071 52.1252 47.2294 52.1475C47.2518 52.1698 47.2695 52.1963 47.2815 52.2254C47.2936 52.2546 47.2998 52.2858 47.2998 52.3174Z" fill="#068FFF"/>
<path d="M48.4187 53.0037C48.425 53.043 48.4227 53.0831 48.4119 53.1213C48.4012 53.1595 48.3823 53.195 48.3565 53.2252C48.3307 53.2554 48.2987 53.2797 48.2626 53.2963C48.2266 53.313 48.1873 53.3216 48.1476 53.3216C48.1079 53.3216 48.0687 53.313 48.0326 53.2963C47.9965 53.2797 47.9645 53.2554 47.9387 53.2252C47.9129 53.195 47.894 53.1595 47.8833 53.1213C47.8725 53.0831 47.8702 53.043 47.8765 53.0037C47.8868 52.9392 47.9197 52.8805 47.9694 52.8381C48.0191 52.7957 48.0823 52.7725 48.1476 52.7725C48.2129 52.7725 48.2761 52.7957 48.3258 52.8381C48.3755 52.8805 48.4084 52.9392 48.4187 53.0037Z" fill="#068FFF"/>
<path d="M36.3999 48.7343C36.4061 48.7725 36.4039 48.8117 36.3934 48.849C36.383 48.8864 36.3646 48.921 36.3395 48.9505C36.3143 48.98 36.2831 49.0037 36.2479 49.02C36.2127 49.0363 36.1744 49.0447 36.1356 49.0447C36.0968 49.0447 36.0585 49.0363 36.0233 49.02C35.9882 49.0037 35.9569 48.98 35.9318 48.9505C35.9066 48.921 35.8882 48.8864 35.8778 48.849C35.8674 48.8117 35.8652 48.7725 35.8714 48.7343C35.8652 48.696 35.8674 48.6568 35.8778 48.6195C35.8882 48.5821 35.9066 48.5475 35.9318 48.518C35.9569 48.4885 35.9882 48.4648 36.0233 48.4485C36.0585 48.4323 36.0968 48.4238 36.1356 48.4238C36.1744 48.4238 36.2127 48.4323 36.2479 48.4485C36.2831 48.4648 36.3143 48.4885 36.3395 48.518C36.3646 48.5475 36.383 48.5821 36.3934 48.6195C36.4039 48.6568 36.4061 48.696 36.3999 48.7343Z" fill="#068FFF"/>
<path d="M36.6607 49.4071C36.6553 49.6385 36.582 49.8632 36.4499 50.0532C36.3178 50.2433 36.1328 50.3903 35.9179 50.4761C35.7029 50.5618 35.4675 50.5825 35.2408 50.5355C35.0142 50.4886 34.8064 50.376 34.6432 50.2119C34.48 50.0478 34.3687 49.8394 34.323 49.6125C34.2774 49.3856 34.2994 49.1503 34.3863 48.9358C34.4733 48.7213 34.6214 48.5372 34.8122 48.4062C35.003 48.2752 35.2281 48.2032 35.4595 48.1991C35.6189 48.1953 35.7773 48.224 35.9252 48.2834C36.0731 48.3429 36.2074 48.4318 36.3198 48.5449C36.4322 48.6579 36.5204 48.7927 36.579 48.9409C36.6376 49.0892 36.6654 49.2478 36.6607 49.4071Z" fill="#068FFF"/>
<path d="M34.8349 50.1209C34.8017 50.122 34.7688 50.1151 34.739 50.1008C34.7091 50.0864 34.6831 50.0651 34.6633 50.0386C34.5214 49.8586 34.444 49.6362 34.4436 49.4071C34.4435 49.1357 34.5499 48.8752 34.7399 48.6814C34.9298 48.4876 35.1882 48.376 35.4595 48.3706C35.6235 48.3703 35.7852 48.4094 35.931 48.4846C36.0767 48.5599 36.2022 48.6691 36.2969 48.803C36.3297 48.8498 36.343 48.9074 36.3341 48.9638C36.3251 49.0202 36.2945 49.0708 36.2488 49.1051C36.2256 49.1219 36.1992 49.1338 36.1713 49.1401C36.1433 49.1465 36.1143 49.1471 36.0861 49.142C36.0579 49.1368 36.031 49.126 36.0071 49.1103C35.9832 49.0945 35.9627 49.074 35.9468 49.0501C35.89 48.9743 35.8165 48.9126 35.732 48.8698C35.6474 48.8269 35.5542 48.8041 35.4595 48.803C35.3799 48.8021 35.3009 48.8171 35.2272 48.8471C35.1535 48.8772 35.0866 48.9216 35.0303 48.9779C34.974 49.0342 34.9296 49.1011 34.8996 49.1748C34.8695 49.2485 34.8545 49.3275 34.8554 49.4071C34.8544 49.5388 34.8979 49.667 34.979 49.7709C35.0125 49.8168 35.027 49.8739 35.0193 49.9302C35.0116 49.9865 34.9824 50.0377 34.9378 50.0729C34.9087 50.0982 34.873 50.1149 34.8349 50.1209Z" fill="white"/>
<path d="M33.4345 51.7135C33.4345 52.2361 33.2795 52.747 32.9891 53.1816C32.6987 53.6162 32.286 53.9549 31.8031 54.1549C31.3202 54.355 30.7889 54.4073 30.2763 54.3053C29.7636 54.2034 29.2928 53.9517 28.9232 53.5821C28.5536 53.2125 28.3019 52.7416 28.1999 52.229C28.098 51.7164 28.1503 51.185 28.3503 50.7022C28.5503 50.2193 28.8891 49.8066 29.3236 49.5162C29.7582 49.2258 30.2691 49.0708 30.7918 49.0708C31.1391 49.0699 31.4831 49.1376 31.8042 49.2701C32.1252 49.4026 32.4169 49.5972 32.6625 49.8428C32.908 50.0884 33.1027 50.3801 33.2351 50.7011C33.3676 51.0221 33.4354 51.3662 33.4345 51.7135Z" fill="#068FFF"/>
<path d="M29.3368 53.1206C29.2917 53.1199 29.2473 53.109 29.2069 53.0888C29.1665 53.0686 29.1311 53.0396 29.1034 53.0039C28.8148 52.6361 28.6598 52.181 28.6642 51.7135C28.6635 51.2627 28.806 50.8233 29.0712 50.4587C29.3364 50.0941 29.7106 49.8232 30.1397 49.685C30.5688 49.5468 31.0307 49.5484 31.4589 49.6897C31.887 49.831 32.2592 50.1046 32.5217 50.4711C32.5663 50.5339 32.5841 50.6119 32.5713 50.6878C32.5584 50.7638 32.5159 50.8315 32.4531 50.8761C32.3903 50.9207 32.3123 50.9385 32.2364 50.9256C32.1604 50.9128 32.0927 50.8703 32.0481 50.8075C31.933 50.629 31.7825 50.476 31.6059 50.358C31.4293 50.2401 31.2303 50.1596 31.0213 50.1217C30.8124 50.0838 30.5978 50.0892 30.391 50.1376C30.1842 50.1859 29.9896 50.2763 29.8191 50.4029C29.6486 50.5296 29.506 50.6899 29.4 50.874C29.294 51.058 29.227 51.2619 29.203 51.4729C29.179 51.684 29.1986 51.8977 29.2606 52.1008C29.3226 52.3039 29.4256 52.4922 29.5633 52.6539C29.5864 52.684 29.6033 52.7185 29.613 52.7552C29.6228 52.7919 29.6251 52.8301 29.62 52.8678C29.6149 52.9054 29.6025 52.9417 29.5833 52.9744C29.5641 53.0072 29.5387 53.0359 29.5084 53.0588C29.4605 53.0994 29.3996 53.1213 29.3368 53.1206Z" fill="white"/>
<path d="M35.7822 51.2879C35.7835 51.7542 35.6464 52.2103 35.3883 52.5985C35.1301 52.9867 34.7625 53.2896 34.332 53.4686C33.9015 53.6477 33.4275 53.6949 32.9702 53.6042C32.5129 53.5136 32.0927 53.2892 31.7631 52.9596C31.4334 52.6299 31.209 52.2098 31.1184 51.7524C31.0278 51.2951 31.075 50.8211 31.254 50.3906C31.4331 49.9602 31.7359 49.5925 32.1241 49.3344C32.5123 49.0762 32.9685 48.9391 33.4347 48.9404C34.0573 48.9404 34.6544 49.1878 35.0946 49.628C35.5349 50.0682 35.7822 50.6653 35.7822 51.2879Z" fill="#068FFF"/>
<path d="M32.1304 52.5714C32.0869 52.5705 32.0442 52.5602 32.0051 52.5412C31.966 52.5223 31.9315 52.4951 31.9039 52.4616C31.7346 52.2604 31.6082 52.0267 31.5325 51.7749C31.4568 51.523 31.4335 51.2584 31.4638 50.9972C31.4942 50.736 31.5776 50.4837 31.709 50.256C31.8404 50.0282 32.017 49.8297 32.228 49.6727C32.4389 49.5156 32.6797 49.4034 32.9356 49.3428C33.1915 49.2823 33.4571 49.2747 33.716 49.3206C33.9749 49.3664 34.2217 49.4647 34.4413 49.6094C34.6608 49.7542 34.8485 49.9423 34.9927 50.1622C35.0178 50.1926 35.0365 50.2279 35.0474 50.2658C35.0584 50.3037 35.0614 50.3434 35.0564 50.3826C35.0514 50.4217 35.0384 50.4594 35.0182 50.4933C34.998 50.5273 34.971 50.5567 34.939 50.5797C34.907 50.6028 34.8706 50.6191 34.832 50.6275C34.7935 50.6359 34.7536 50.6363 34.7148 50.6287C34.6761 50.6211 34.6394 50.6056 34.6069 50.5832C34.5744 50.5608 34.5468 50.532 34.5259 50.4985C34.3519 50.2807 34.1157 50.1211 33.8488 50.0408C33.5818 49.9606 33.2967 49.9635 33.0315 50.0492C32.7662 50.1348 32.5333 50.2993 32.3638 50.5205C32.1942 50.7418 32.0961 51.0094 32.0823 51.2879C32.0801 51.5843 32.1794 51.8726 32.3638 52.1047C32.3868 52.1348 32.4037 52.1693 32.4134 52.206C32.4232 52.2427 32.4256 52.281 32.4205 52.3186C32.4154 52.3562 32.4029 52.3925 32.3837 52.4253C32.3646 52.458 32.3391 52.4867 32.3088 52.5097C32.2577 52.5492 32.195 52.5709 32.1304 52.5714Z" fill="white"/>
<path d="M31.5058 50.5189C32.1578 50.5189 32.6864 49.9904 32.6864 49.3383C32.6864 48.6863 32.1578 48.1577 31.5058 48.1577C30.8538 48.1577 30.3252 48.6863 30.3252 49.3383C30.3252 49.9904 30.8538 50.5189 31.5058 50.5189Z" fill="#068FFF"/>
<path d="M30.8538 50.0524C30.8208 50.0525 30.7883 50.0451 30.7586 50.0308C30.7289 50.0165 30.7027 49.9958 30.6822 49.9701C30.601 49.8606 30.5423 49.7361 30.5092 49.6039C30.4762 49.4717 30.4695 49.3342 30.4896 49.1994C30.5097 49.0646 30.5561 48.9351 30.6262 48.8182C30.6964 48.7014 30.7889 48.5995 30.8984 48.5183C31.0079 48.4372 31.1323 48.3784 31.2645 48.3454C31.3968 48.3124 31.5342 48.3057 31.669 48.3258C31.8038 48.3459 31.9334 48.3923 32.0502 48.4624C32.1671 48.5326 32.269 48.625 32.3501 48.7345C32.3732 48.7568 32.3912 48.7839 32.4027 48.8139C32.4142 48.8438 32.419 48.876 32.4168 48.908C32.4146 48.94 32.4054 48.9712 32.3898 48.9992C32.3742 49.0273 32.3527 49.0517 32.3267 49.0705C32.3007 49.0894 32.2709 49.1023 32.2394 49.1084C32.2078 49.1145 32.1754 49.1136 32.1442 49.1058C32.1131 49.0979 32.084 49.0834 32.0591 49.0631C32.0342 49.0429 32.014 49.0174 32 48.9885C31.9432 48.9105 31.8689 48.8469 31.7831 48.8028C31.6973 48.7587 31.6023 48.7353 31.5058 48.7345C31.3462 48.7363 31.1936 48.8005 31.0807 48.9134C30.9678 49.0263 30.9036 49.1789 30.9018 49.3386C30.9037 49.4719 30.9469 49.6014 31.0254 49.7092C31.0597 49.7543 31.0753 49.8109 31.0689 49.8671C31.0625 49.9234 31.0346 49.975 30.991 50.0113C30.9503 50.0382 30.9026 50.0526 30.8538 50.0524Z" fill="white"/>
<path d="M39.6121 51.5899C40.4385 51.5899 41.1084 50.9199 41.1084 50.0935C41.1084 49.2671 40.4385 48.5972 39.6121 48.5972C38.7857 48.5972 38.1157 49.2671 38.1157 50.0935C38.1157 50.9199 38.7857 51.5899 39.6121 51.5899Z" fill="#068FFF"/>
<path d="M38.7816 50.9993C38.7389 50.9999 38.6966 50.9902 38.6584 50.9711C38.6202 50.952 38.5871 50.924 38.5619 50.8895C38.3859 50.6616 38.2916 50.3812 38.2942 50.0933C38.2941 49.8143 38.3826 49.5424 38.5469 49.3169C38.7112 49.0913 38.9428 48.9238 39.2084 48.8383C39.474 48.7528 39.7599 48.7538 40.0249 48.8412C40.2898 48.9286 40.5203 49.0978 40.6829 49.3245C40.7248 49.3846 40.7411 49.4588 40.7282 49.5309C40.7153 49.603 40.6744 49.667 40.6143 49.7089C40.5542 49.7508 40.48 49.7671 40.4079 49.7542C40.3358 49.7413 40.2718 49.7003 40.2299 49.6403C40.1597 49.5421 40.0669 49.4622 39.9594 49.4072C39.8519 49.3523 39.7328 49.3239 39.6121 49.3245C39.4082 49.3245 39.2127 49.4055 39.0685 49.5497C38.9244 49.6939 38.8434 49.8894 38.8434 50.0933C38.8433 50.2599 38.8989 50.4217 39.0012 50.5532C39.0461 50.6117 39.0661 50.6854 39.0572 50.7586C39.0482 50.8318 39.0108 50.8985 38.9532 50.9444C38.9025 50.979 38.8429 50.9981 38.7816 50.9993Z" fill="white"/>
<path d="M25.7811 35.5349C26.5203 35.5349 27.1196 34.9356 27.1196 34.1964C27.1196 33.4572 26.5203 32.8579 25.7811 32.8579C25.0419 32.8579 24.4426 33.4572 24.4426 34.1964C24.4426 34.9356 25.0419 35.5349 25.7811 35.5349Z" fill="#068FFF"/>
<path d="M25.0467 34.9102C25.0236 34.9105 25.0008 34.905 24.9804 34.8942C24.96 34.8834 24.9427 34.8677 24.93 34.8484C24.7781 34.6527 24.7003 34.4095 24.7103 34.162C24.7108 33.9346 24.7831 33.7132 24.917 33.5294C25.051 33.3457 25.2396 33.209 25.4559 33.1389C25.6722 33.0688 25.9051 33.0689 26.1214 33.1393C26.3376 33.2096 26.526 33.3466 26.6597 33.5305C26.6734 33.5622 26.6758 33.5976 26.6666 33.6309C26.6573 33.6641 26.637 33.6932 26.6089 33.7133C26.5808 33.7334 26.5467 33.7432 26.5122 33.7412C26.4777 33.7391 26.445 33.7253 26.4195 33.7021C26.3456 33.6023 26.2494 33.5211 26.1386 33.4651C26.0277 33.4091 25.9053 33.3798 25.7811 33.3795C25.5736 33.3795 25.3746 33.4619 25.2278 33.6087C25.0811 33.7554 24.9986 33.9545 24.9986 34.162C24.9974 34.3341 25.0556 34.5014 25.1634 34.6356C25.1894 34.6636 25.2039 34.7004 25.2039 34.7386C25.2039 34.7768 25.1894 34.8136 25.1634 34.8415C25.1499 34.8606 25.1325 34.8766 25.1124 34.8884C25.0923 34.9002 25.0699 34.9076 25.0467 34.9102Z" fill="white"/>
<path d="M28.4443 42.1105C28.4443 42.5177 28.3236 42.9159 28.0973 43.2545C27.871 43.5931 27.5494 43.8571 27.1732 44.0129C26.7969 44.1688 26.3828 44.2096 25.9834 44.1301C25.584 44.0507 25.217 43.8545 24.9291 43.5665C24.6411 43.2786 24.445 42.9116 24.3655 42.5122C24.286 42.1128 24.3268 41.6987 24.4827 41.3225C24.6385 40.9462 24.9025 40.6246 25.2411 40.3983C25.5797 40.172 25.9779 40.0513 26.3851 40.0513C26.9313 40.0513 27.455 40.2682 27.8412 40.6544C28.2274 41.0406 28.4443 41.5643 28.4443 42.1105Z" fill="white"/>
<path d="M28.4443 42.1105C28.4443 42.5177 28.3236 42.9159 28.0973 43.2545C27.871 43.5931 27.5494 43.8571 27.1732 44.0129C26.7969 44.1688 26.3828 44.2096 25.9834 44.1301C25.584 44.0507 25.217 43.8545 24.9291 43.5665C24.6411 43.2786 24.445 42.9116 24.3655 42.5122C24.286 42.1128 24.3268 41.6987 24.4827 41.3225C24.6385 40.9462 24.9025 40.6246 25.2411 40.3983C25.5797 40.172 25.9779 40.0513 26.3851 40.0513C26.9313 40.0513 27.455 40.2682 27.8412 40.6544C28.2274 41.0406 28.4443 41.5643 28.4443 42.1105Z" fill="#068FFF"/>
<path d="M25.2734 43.2021C25.239 43.2009 25.2052 43.1923 25.1744 43.1769C25.1436 43.1615 25.1165 43.1396 25.0949 43.1129C24.9097 42.8686 24.7963 42.5775 24.7675 42.2724C24.7387 41.9672 24.7957 41.66 24.9319 41.3855C25.0681 41.1109 25.2782 40.8797 25.5386 40.718C25.7991 40.5564 26.0994 40.4705 26.4059 40.4702C26.6662 40.4718 26.9225 40.5348 27.1539 40.654C27.3853 40.7733 27.5852 40.9455 27.7375 41.1566C27.7605 41.1799 27.778 41.2079 27.7891 41.2387C27.8002 41.2695 27.8044 41.3023 27.8016 41.3348C27.7988 41.3674 27.789 41.399 27.7728 41.4274C27.7566 41.4558 27.7345 41.4804 27.7079 41.4994C27.6814 41.5185 27.651 41.5315 27.6189 41.5377C27.5868 41.5439 27.5537 41.5431 27.522 41.5353C27.4902 41.5275 27.4605 41.513 27.435 41.4926C27.4094 41.4723 27.3885 41.4466 27.3738 41.4175C27.28 41.2913 27.1623 41.1848 27.0274 41.104C26.8925 41.0233 26.743 40.97 26.5875 40.947C26.432 40.9241 26.2735 40.932 26.121 40.9703C25.9686 41.0086 25.8251 41.0766 25.6989 41.1703C25.5727 41.2641 25.4662 41.3818 25.3855 41.5167C25.3048 41.6516 25.2515 41.8011 25.2285 41.9566C25.2056 42.1121 25.2135 42.2706 25.2518 42.4231C25.2901 42.5755 25.3581 42.719 25.4518 42.8452C25.4879 42.8926 25.5038 42.9524 25.4961 43.0115C25.4884 43.0706 25.4577 43.1243 25.4106 43.1609C25.371 43.1901 25.3225 43.2047 25.2734 43.2021Z" fill="white"/>
<path d="M51.4456 46.2565C52.3479 46.2565 53.0793 45.5251 53.0793 44.6229C53.0793 43.7207 52.3479 42.9893 51.4456 42.9893C50.5434 42.9893 49.812 43.7207 49.812 44.6229C49.812 45.5251 50.5434 46.2565 51.4456 46.2565Z" fill="#068FFF"/>
<path d="M50.5603 45.4948C50.532 45.4945 50.5042 45.4876 50.4791 45.4744C50.4541 45.4613 50.4325 45.4424 50.4162 45.4193C50.2382 45.1921 50.1415 44.9117 50.1416 44.6231C50.1415 44.344 50.23 44.0722 50.3942 43.8467C50.5585 43.6211 50.7901 43.4535 51.0557 43.3681C51.3213 43.2826 51.6072 43.2836 51.8722 43.371C52.1372 43.4584 52.3676 43.6276 52.5303 43.8543C52.5483 43.8934 52.5522 43.9375 52.5413 43.9791C52.5304 44.0207 52.5053 44.0572 52.4704 44.0824C52.4355 44.1075 52.393 44.1198 52.35 44.117C52.3071 44.1142 52.2665 44.0965 52.2351 44.0671C52.1479 43.9422 52.0319 43.8402 51.8969 43.7697C51.7618 43.6992 51.6118 43.6623 51.4595 43.6621C51.2058 43.6639 50.9632 43.766 50.7844 43.946C50.6057 44.126 50.5054 44.3694 50.5054 44.6231C50.5029 44.8335 50.5705 45.0388 50.6976 45.2065C50.7122 45.2247 50.7229 45.2457 50.7291 45.2683C50.7353 45.2908 50.7369 45.3143 50.7337 45.3375C50.7305 45.3606 50.7226 45.3828 50.7105 45.4028C50.6983 45.4228 50.6823 45.4401 50.6633 45.4536C50.6354 45.4799 50.5986 45.4946 50.5603 45.4948Z" fill="white"/>
<path d="M23.5436 55.2349L24.3604 56.0448C24.528 56.173 24.6444 56.3569 24.6884 56.5633C24.7325 56.7697 24.7013 56.985 24.6007 57.1705C24.4498 57.4455 24.2602 57.6975 24.0378 57.9187C23.7838 58.1727 23.5917 58.3511 23.4544 58.4678C23.2257 58.6785 22.9385 58.8149 22.6307 58.8591C22.4936 58.8572 22.3584 58.8263 22.2342 58.7683C22.1099 58.7104 21.9994 58.6266 21.91 58.5227L21.5668 58.1864L19.988 59.7926L19.5076 59.3121L23.5436 55.2349ZM23.5436 57.4863C23.7511 57.285 23.9269 57.0536 24.0653 56.7999C24.1004 56.7269 24.1107 56.6445 24.0946 56.5652C24.0785 56.4859 24.0368 56.414 23.976 56.3606L23.674 56.0654L21.9649 57.8089L22.26 58.0972C22.3132 58.1605 22.3863 58.2039 22.4674 58.2201C22.5486 58.2364 22.6328 58.2244 22.7062 58.1864C22.9777 58.0228 23.223 57.8192 23.4338 57.5824L23.5436 57.4863Z" fill="white"/>
<path d="M25.4175 57.0469L26.3716 57.8088C26.5937 57.9549 26.7547 58.177 26.8247 58.4334C26.8343 58.6968 26.7544 58.9556 26.5981 59.1679C26.5226 59.2845 26.3922 59.4561 26.2138 59.6895C26.0632 59.8928 25.8772 60.0672 25.6646 60.2043C25.5828 60.2593 25.4888 60.2936 25.3908 60.3044C25.2928 60.3151 25.1936 60.302 25.1018 60.2661C25.1501 60.3152 25.1865 60.3748 25.2079 60.4403C25.2293 60.5058 25.2353 60.5754 25.2253 60.6436C25.1794 60.8506 25.0931 61.0466 24.9714 61.2202C24.8272 61.4536 24.587 61.7899 24.285 62.2223C24.0746 62.4638 23.8926 62.7287 23.7427 63.0117L23.2073 62.5999C23.5591 62.0567 23.9418 61.5341 24.3536 61.0349C24.6076 60.7123 24.7174 60.4995 24.6968 60.3965C24.6578 60.273 24.5779 60.1665 24.4703 60.0945L24.1683 59.8337L22.418 61.9958L21.8826 61.584L25.4175 57.0469ZM25.795 59.1061C26.065 58.7537 26.1886 58.5249 26.1657 58.4197C26.1351 58.3014 26.0617 58.1987 25.9598 58.1314L25.6234 57.8706L24.436 59.4012L24.7792 59.6621C24.8528 59.7299 24.9471 59.771 25.0469 59.7788C25.1548 59.7655 25.2545 59.7144 25.3283 59.6346C25.4893 59.4809 25.6363 59.3132 25.7676 59.1335L25.795 59.1061Z" fill="white"/>
<path d="M27.6826 58.7354L29.1515 59.6277L28.8564 60.1082L27.9709 59.5659L26.9482 61.2407L27.7856 61.7555L27.4973 62.236L26.653 61.7212L25.5685 63.5127L26.4677 64.055L26.1725 64.5354L24.6968 63.6363L27.6826 58.7354Z" fill="white"/>
<path d="M31.7803 60.863L32.549 61.1993L30.2565 66.464L29.7073 66.2237L30.6546 64.1096L31.5606 62.1671L29.0759 65.9217L28.513 65.6815L29.5495 61.2885L28.7121 63.2997L27.7923 65.3589L27.2432 65.1186L29.5426 59.8677L30.3114 60.204L29.1788 64.8578L31.7803 60.863Z" fill="white"/>
<path d="M33.2217 61.3643L33.9081 61.5564L32.2539 67.0477L31.6086 66.8486L33.2217 61.3643Z" fill="white"/>
<path d="M36.1459 62.0779L36.8323 62.2083L36.0155 66.3954C35.9668 66.8015 35.8024 67.1851 35.5419 67.5005C35.4142 67.607 35.2621 67.6802 35.0993 67.7138C34.9364 67.7473 34.7678 67.74 34.6084 67.6927C34.443 67.678 34.284 67.6218 34.1461 67.5295C34.0081 67.4371 33.8956 67.3115 33.819 67.1642C33.6996 66.7727 33.6996 66.3545 33.819 65.963L34.629 61.769L35.3154 61.8995L34.4231 66.0453C34.3654 66.2696 34.3354 66.5001 34.3338 66.7317C34.3492 66.7982 34.3722 66.8627 34.4025 66.9239C34.4318 66.9739 34.4726 67.0162 34.5215 67.0473C34.5705 67.0783 34.6262 67.0972 34.6839 67.1024C34.7447 67.119 34.8085 67.1215 34.8703 67.1096C34.9322 67.0977 34.9905 67.0717 35.0408 67.0337C35.1431 66.9313 35.2104 66.7992 35.233 66.6562C35.233 66.4778 35.3017 66.3336 35.3222 66.2238L36.1459 62.0779Z" fill="white"/>
<path d="M39.7632 62.4143L40.6075 62.4554L40.3535 68.1869H39.7495L39.8525 65.8874L40.0103 63.7459L39.0288 68.1045H38.4179L37.807 63.6361L37.7658 65.7845L37.6628 68.1045H37.0657L37.3265 62.3662L38.1639 62.4074L38.7748 67.1573L39.7632 62.4143Z" fill="white"/>
<path d="M42.8658 63.8214C42.7424 63.363 42.7887 62.8755 42.9962 62.4486C43.0851 62.3314 43.1976 62.2341 43.3265 62.1632C43.4554 62.0922 43.5978 62.0492 43.7444 62.0367C43.9485 61.9766 44.1672 61.9896 44.3627 62.0736C44.5582 62.1576 44.7182 62.3072 44.8151 62.4966C44.9627 62.7997 45.0623 63.1239 45.1103 63.4576L45.5221 65.9561C45.638 66.3901 45.638 66.8469 45.5221 67.2808C45.452 67.4521 45.3263 67.5948 45.1652 67.6858L45.7555 68.18L45.4741 68.5301L44.6024 67.8437C44.4492 67.8685 44.2923 67.8545 44.146 67.8029C43.9997 67.7514 43.8687 67.6639 43.7649 67.5485C43.51 67.1878 43.3538 66.7666 43.3119 66.3267L42.8658 63.8214ZM44.4376 63.5194C44.4065 63.2573 44.3323 63.0022 44.218 62.7643C44.1821 62.6971 44.1248 62.6437 44.0552 62.6127C43.9856 62.5816 43.9076 62.5746 43.8336 62.5927C43.7546 62.601 43.6802 62.634 43.6211 62.687C43.5619 62.74 43.521 62.8103 43.5041 62.8879C43.4571 63.1443 43.4571 63.4071 43.5041 63.6635L43.9297 66.2101C43.9633 66.5093 44.0444 66.8012 44.1699 67.0749C44.2076 67.1455 44.2684 67.201 44.3421 67.2323C44.4158 67.2635 44.4979 67.2685 44.5749 67.2465C44.6538 67.2401 44.7283 67.2076 44.7867 67.1541C44.8451 67.1007 44.8841 67.0294 44.8975 66.9514C44.9248 66.6529 44.9063 66.3519 44.8426 66.059L44.4376 63.5194Z" fill="white"/>
<path d="M46.8949 61.3299L47.5333 61.1377L48.7619 65.2561C48.9064 65.6395 48.9397 66.0558 48.858 66.4573C48.7817 66.6018 48.6774 66.7296 48.5511 66.8333C48.4247 66.9369 48.279 67.0144 48.1224 67.061C47.9658 67.1077 47.8015 67.1226 47.639 67.105C47.4766 67.0874 47.3193 67.0375 47.1764 66.9584C46.8798 66.6757 46.6763 66.3094 46.5929 65.9082L45.3643 61.7898L46.0095 61.5976L47.2313 65.6679C47.2855 65.8896 47.3661 66.1039 47.4715 66.3063C47.5142 66.3618 47.5651 66.4104 47.6225 66.4504C47.6746 66.477 47.7322 66.4908 47.7907 66.4908C47.8491 66.4908 47.9068 66.477 47.9589 66.4504C48.0205 66.4381 48.0783 66.411 48.1273 66.3716C48.1763 66.3322 48.215 66.2815 48.2403 66.2239C48.2854 66.0857 48.2854 65.9366 48.2403 65.7984L48.1236 65.3797L46.8949 61.3299Z" fill="white"/>
<path d="M48.6521 60.6776L49.4003 60.3481L52.6195 65.2147L52.0361 65.4687L51.4457 64.5352L50.4917 64.9539L50.8005 66.0178L50.2102 66.2786L48.6521 60.6776ZM50.3132 64.4254L51.1163 64.0684L49.4758 61.4807L50.3132 64.4254Z" fill="white"/>
<path d="M50.6221 59.7445L51.2055 59.4082L53.807 63.8904L54.7267 63.355L55.0013 63.8424L53.505 64.7072L50.6221 59.7445Z" fill="white"/>
<path d="M52.4822 58.6119L53.0382 58.2275L56.3123 62.9431L55.7563 63.3275L52.4822 58.6119Z" fill="white"/>
<path d="M53.395 57.9873L54.8639 56.7861L55.2208 57.2254L54.761 57.5961L58.0351 61.6115L57.5134 62.0371L54.2393 58.0217L53.752 58.4198L53.395 57.9873Z" fill="white"/>
<path d="M56.1887 55.5024L56.6624 55.0356L58.3372 58.0558L60.0326 59.7718L59.5521 60.2454L57.8567 58.5294L54.8091 56.8615L55.2758 56.4016L57.4105 57.5959L56.1887 55.5024Z" fill="white"/>
<path d="M39.9967 72.2228C33.6161 72.2228 27.3788 70.3308 22.0735 66.7859C16.7683 63.2411 12.6333 58.2026 10.1916 52.3077C7.74982 46.4128 7.11095 39.9262 8.35574 33.6682C9.60053 27.4103 12.6731 21.6619 17.1848 17.1502C21.6966 12.6384 27.4449 9.56586 33.7029 8.32107C39.9609 7.07628 46.4475 7.71515 52.3424 10.1569C58.2373 12.5986 63.2757 16.7336 66.8206 22.0389C70.3655 27.3441 72.2575 33.5814 72.2575 39.962C72.2575 44.1986 71.4231 48.3936 69.8018 52.3077C68.1805 56.2218 65.8042 59.7782 62.8085 62.7739C59.8128 65.7696 56.2564 68.1459 52.3424 69.7671C48.4283 71.3884 44.2332 72.2228 39.9967 72.2228ZM39.9967 9.00535C33.871 9.00535 27.8829 10.8219 22.7897 14.2253C17.6965 17.6287 13.727 22.466 11.3831 28.1255C9.03924 33.785 8.42632 40.0124 9.62188 46.0203C10.8174 52.0282 13.7678 57.5465 18.0997 61.8776C22.4317 66.2086 27.9508 69.1577 33.9589 70.3519C39.967 71.5461 46.1943 70.9318 51.8533 68.5867C57.5123 66.2416 62.3487 62.2709 65.751 57.177C69.1532 52.083 70.9684 46.0945 70.9671 39.9689C70.9489 31.7638 67.6791 23.9004 61.8739 18.1017C56.0688 12.303 48.2018 9.04187 39.9967 9.0328V9.00535Z" fill="#068FFF"/>
<path d="M42.55 22.2737L38.4316 33.5169L38.2051 32.5079L42.0077 22.2119C42.1519 22.2119 42.2892 22.2119 42.4333 22.26L42.55 22.2737Z" fill="#068FFF"/>
<path d="M57.0468 34.2513L55.2485 39.1385L54.7268 38.9463L56.786 33.4551C56.8615 33.7159 56.9576 33.9836 57.0468 34.2513Z" fill="#068FFF"/>
<path d="M37.8137 34.6086L38.102 33.8535L38.6649 34.0732L38.3422 34.8145L37.8137 34.6086Z" fill="#068FFF"/>
<path d="M53.8622 39.9616L53.572 40.7104L54.1352 40.9287L54.4254 40.1798L53.8622 39.9616Z" fill="#068FFF"/>
</g>
<defs>
<clipPath id="clip0_382_1157">
<rect width="80" height="80" fill="white"/>
</clipPath>
</defs>
</svg>
