<svg width="90" height="90" viewBox="0 0 90 90" fill="none" xmlns="http://www.w3.org/2000/svg">
<g clip-path="url(#clip0_429_3617)">
<path opacity="0.933" fill-rule="evenodd" clip-rule="evenodd" d="M79.541 -0.0878906C80.7129 -0.0878906 81.8847 -0.0878906 83.0566 -0.0878906C86.6895 0.849609 88.9747 3.13476 89.9121 6.76758C89.9121 7.93946 89.9121 9.11132 89.9121 10.2832C89.5403 11.672 88.9251 12.961 88.0664 14.1504C82.1718 19.6351 76.2246 25.0552 70.2246 30.4102C72.5233 35.7472 71.4686 40.3175 67.0605 44.1211C66.6657 44.3037 66.2848 44.5089 65.918 44.7363C65.0433 47.7659 64.2231 50.8127 63.457 53.877C62.6388 54.9766 61.5547 55.709 60.2051 56.0742C55.5137 56.7886 51.0606 56.0269 46.8457 53.7891C38.6137 49.2128 34.1019 42.2109 33.3105 32.7832C33.3446 30.8296 33.8426 29.0132 34.8047 27.334C35.1339 26.9457 35.5148 26.6235 35.9473 26.3672C39.0115 25.6011 42.0583 24.7809 45.0879 23.9063C48.0148 19.2572 52.175 17.558 57.5684 18.8086C58.2298 18.9703 58.8451 19.234 59.4141 19.5996C64.7691 13.5997 70.1891 7.65244 75.6738 1.75781C76.8632 0.899146 78.1523 0.283911 79.541 -0.0878906ZM80.0684 3.07617C83.3674 2.77668 85.5647 4.18293 86.6602 7.29492C87.0697 9.78629 86.2787 11.8078 84.2871 13.3594C78.9551 18.1348 73.623 22.9101 68.291 27.6855C66.1816 25.6934 64.1308 23.6426 62.1387 21.5332C67.256 15.683 72.4709 9.91146 77.7832 4.21875C78.5139 3.7362 79.2756 3.35533 80.0684 3.07617ZM53.5254 21.5332C55.2788 21.4327 56.9194 21.8136 58.4473 22.6758C61.4649 25.4589 64.3653 28.3593 67.1484 31.377C69.0637 35.1592 68.4485 38.4699 65.3027 41.3086C65.1855 41.4258 65.0684 41.4258 64.9512 41.3086C59.4726 35.83 53.9942 30.3516 48.5156 24.873C48.9201 24.056 49.5353 23.3822 50.3613 22.8516C51.3543 22.2191 52.409 21.7797 53.5254 21.5332ZM45.9668 26.9824C51.615 32.5427 57.24 38.1384 62.8418 43.7695C62.0488 46.707 61.2285 49.6368 60.3809 52.5586C59.2655 53.0652 58.0936 53.2703 56.8652 53.1738C56.2206 53.1445 55.5762 53.1153 54.9316 53.0859C54.4129 53.0691 53.9441 52.9226 53.5254 52.6465C54.0675 50.7412 54.5948 48.837 55.1074 46.9336C54.826 45.7081 54.0642 45.2392 52.8223 45.5273C52.5083 45.6653 52.2446 45.8703 52.0312 46.1426C51.4775 48.0057 50.9796 49.8807 50.5371 51.7676C48.1294 50.9112 45.9615 49.6514 44.0332 47.9883C45.7617 46.2598 47.4903 44.5312 49.2188 42.8027C49.7496 41.4621 49.3102 40.6419 47.9004 40.3418C47.456 40.388 47.0459 40.5345 46.6699 40.7813C45.0585 42.3926 43.4473 44.0039 41.8359 45.6152C40.165 43.7664 38.8466 41.6864 37.8809 39.375C39.8222 38.8751 41.7558 38.3477 43.6816 37.793C44.6191 36.8555 44.6191 35.9179 43.6816 34.9805C43.3796 34.9197 43.0866 34.8318 42.8027 34.7168C40.9277 35.2441 39.0528 35.7715 37.1777 36.2988C37.0561 36.2065 36.9682 36.0893 36.9141 35.9473C36.4797 34.0437 36.4797 32.1687 36.9141 30.3223C36.9932 29.9674 37.1396 29.6452 37.3535 29.3555C40.253 28.5871 43.1241 27.7961 45.9668 26.9824Z" fill="#068FFF"/>
<path opacity="0.902" fill-rule="evenodd" clip-rule="evenodd" d="M11.5136 1.31841C12.0925 1.27605 12.6198 1.42253 13.0956 1.75786C13.828 2.49029 14.5604 3.2227 15.2928 3.95512C16.1224 5.40017 15.7415 6.33768 14.1503 6.76762C13.852 6.69752 13.5591 6.60963 13.2714 6.50395C12.3632 5.59574 11.455 4.68755 10.5468 3.77934C10.1419 2.65751 10.4642 1.83719 11.5136 1.31841Z" fill="#068FFF"/>
<path opacity="0.905" fill-rule="evenodd" clip-rule="evenodd" d="M20.4785 1.31836C22.2739 1.39168 22.8306 2.27058 22.1484 3.95508C21.2989 4.80468 20.4491 5.6543 19.5996 6.50391C17.4748 7.01562 16.7424 6.22461 17.4023 4.13086C18.361 3.08273 19.3864 2.14522 20.4785 1.31836Z" fill="#068FFF"/>
<path opacity="0.934" fill-rule="evenodd" clip-rule="evenodd" d="M46.1425 1.31836C50.9371 1.39573 52.9586 3.79807 52.207 8.52539C50.3318 12.0194 47.6071 12.869 44.0332 11.0742C40.9863 8.14453 40.9863 5.21485 44.0332 2.28516C44.7277 1.90807 45.4308 1.5858 46.1425 1.31836ZM46.6699 4.48242C48.97 4.68962 49.7025 5.8615 48.8671 7.99805C47.4479 9.2408 46.2174 9.06502 45.1757 7.4707C44.8391 6.03461 45.3371 5.03851 46.6699 4.48242Z" fill="#068FFF"/>
<path opacity="0.904" fill-rule="evenodd" clip-rule="evenodd" d="M13.9745 7.99805C15.564 8.2466 16.062 9.12551 15.4687 10.6348C14.6191 11.4844 13.7694 12.334 12.9198 13.1836C11.7995 13.7306 10.9499 13.467 10.371 12.3926C10.2684 11.908 10.327 11.4392 10.5468 10.9863C11.5768 9.80633 12.7194 8.81024 13.9745 7.99805Z" fill="#068FFF"/>
<path opacity="0.91" fill-rule="evenodd" clip-rule="evenodd" d="M17.8417 8.17388C18.5111 8.11467 19.1555 8.20256 19.7753 8.43755C20.5663 9.22856 21.3573 10.0196 22.1484 10.8106C22.7949 12.9175 22.0624 13.7085 19.9511 13.1836C19.1015 12.334 18.2518 11.4844 17.4023 10.6348C16.9701 9.7037 17.1165 8.88338 17.8417 8.17388Z" fill="#068FFF"/>
<path opacity="0.934" fill-rule="evenodd" clip-rule="evenodd" d="M59.5019 89.9121C41.8066 89.9121 24.1114 89.9121 6.41602 89.9121C5.23893 89.3483 4.56511 88.4107 4.39453 87.0996C4.30664 70.5763 4.27734 54.0529 4.30664 37.5293C2.16387 37.8365 0.699026 37.0163 -0.0878906 35.0683C-0.0878906 34.6582 -0.0878906 34.248 -0.0878906 33.8379C0.18039 32.9489 0.707734 32.2166 1.49414 31.6406C11.4278 24.3592 21.3302 17.035 31.2012 9.66794C32.2304 9.16663 33.2851 9.10802 34.3652 9.49216C37.9259 12.0781 41.4707 14.6855 45 17.3144C45.6697 18.302 45.5233 19.1515 44.5605 19.8632C43.9516 20.0069 43.3656 19.9482 42.8027 19.6875C39.5508 17.2558 36.2988 14.8242 33.0469 12.3925C23.1738 19.6875 13.3008 26.9824 3.42773 34.2773C12.2754 34.3358 21.1231 34.3946 29.9707 34.4531C31.2142 35.627 31.0969 36.6231 29.6191 37.4414C22.2952 37.5293 14.9709 37.5586 7.64648 37.5293C7.64648 53.9355 7.64648 70.3418 7.64648 86.748C17.0801 86.748 26.5136 86.748 35.9473 86.748C35.9179 81.7085 35.9473 76.6696 36.0352 71.6308C37.8202 65.9188 41.658 63.6043 47.5488 64.6875C51.1975 65.8756 53.3361 68.3659 53.9648 72.1582C54.0527 77.0212 54.0821 81.8843 54.0527 86.748C55.5175 86.748 56.9825 86.748 58.4473 86.748C58.4179 77.783 58.4473 68.8181 58.5352 59.8535C59.3968 58.7563 60.3344 58.6977 61.3477 59.6777C61.6382 68.9252 61.6969 78.1831 61.5234 87.4511C61.3005 88.667 60.6268 89.4872 59.5019 89.9121ZM15.0293 67.4121C16.4941 67.4121 17.959 67.4121 19.4238 67.4121C19.4238 68.8769 19.4238 70.3418 19.4238 71.8066C17.959 71.8066 16.4941 71.8066 15.0293 71.8066C15.0293 70.3418 15.0293 68.8769 15.0293 67.4121ZM22.5879 67.4121C23.9941 67.4121 25.4004 67.4121 26.8066 67.4121C26.8066 68.8769 26.8066 70.3418 26.8066 71.8066C25.4004 71.8066 23.9941 71.8066 22.5879 71.8066C22.5879 70.3418 22.5879 68.8769 22.5879 67.4121ZM43.6816 67.5879C47.4386 67.2526 49.8117 68.8932 50.8008 72.5097C50.8887 77.2555 50.918 82.0016 50.8887 86.748C46.9629 86.748 43.037 86.748 39.1113 86.748C39.082 81.8843 39.1113 77.0212 39.1992 72.1582C39.9069 69.8394 41.4011 68.3159 43.6816 67.5879ZM15.0293 74.9707C16.4941 74.9707 17.959 74.9707 19.4238 74.9707C19.4238 76.4354 19.4238 77.9004 19.4238 79.3652C17.959 79.3652 16.4941 79.3652 15.0293 79.3652C15.0293 77.9004 15.0293 76.4354 15.0293 74.9707ZM22.5879 74.9707C23.9941 74.9707 25.4004 74.9707 26.8066 74.9707C26.8066 76.4354 26.8066 77.9004 26.8066 79.3652C25.4004 79.3652 23.9941 79.3652 22.5879 79.3652C22.5879 77.9004 22.5879 76.4354 22.5879 74.9707Z" fill="#068FFF"/>
<path opacity="0.913" fill-rule="evenodd" clip-rule="evenodd" d="M80.5957 35.7715C81.5548 35.6882 82.17 36.0983 82.4415 37.002C82.5587 38.291 82.5587 39.5802 82.4415 40.8692C82.2374 41.6309 81.7392 41.9824 80.9473 41.9239C80.2437 41.968 79.7457 41.675 79.4532 41.045C79.3359 39.5802 79.3359 38.1152 79.4532 36.6504C79.7705 36.2416 80.1514 35.9487 80.5957 35.7715Z" fill="#068FFF"/>
<path opacity="0.952" fill-rule="evenodd" clip-rule="evenodd" d="M13.2715 41.7481C18.3695 41.7187 23.4672 41.7481 28.5645 41.836C29.1337 41.8767 29.5731 42.1404 29.8828 42.627C30.0001 48.1347 30.0001 53.6427 29.8828 59.1504C29.6879 59.5573 29.3655 59.821 28.916 59.9414C23.6426 60.0587 18.3692 60.0587 13.0957 59.9414C12.683 59.8806 12.3608 59.6755 12.1289 59.3262C11.8387 53.8921 11.7801 48.4429 11.9532 42.9785C12.1591 42.3065 12.5985 41.8963 13.2715 41.7481ZM15.0293 44.9121C16.4942 44.9121 17.9591 44.9121 19.4239 44.9121C19.4239 46.3769 19.4239 47.8419 19.4239 49.3067C17.9591 49.3067 16.4942 49.3067 15.0293 49.3067C15.0293 47.8419 15.0293 46.3769 15.0293 44.9121ZM22.5879 44.9121C23.9942 44.9121 25.4004 44.9121 26.8067 44.9121C26.8067 46.3769 26.8067 47.8419 26.8067 49.3067C25.4004 49.3067 23.9942 49.3067 22.5879 49.3067C22.5879 47.8419 22.5879 46.3769 22.5879 44.9121ZM15.0293 52.4707C16.4942 52.4707 17.9591 52.4707 19.4239 52.4707C19.4239 53.9355 19.4239 55.4005 19.4239 56.8653C17.9591 56.8653 16.4942 56.8653 15.0293 56.8653C15.0293 55.4005 15.0293 53.9355 15.0293 52.4707ZM22.5879 52.4707C23.9942 52.4707 25.4004 52.4707 26.8067 52.4707C26.8067 53.9355 26.8067 55.4005 26.8067 56.8653C25.4004 56.8653 23.9942 56.8653 22.5879 56.8653C22.5879 55.4005 22.5879 53.9355 22.5879 52.4707Z" fill="#068FFF"/>
<path opacity="0.916" fill-rule="evenodd" clip-rule="evenodd" d="M74.7949 41.748C75.9097 41.7188 77.0229 41.748 78.1348 41.8359C79.5201 42.3529 79.8425 43.2611 79.1016 44.5605C78.9697 44.6705 78.8231 44.7584 78.6621 44.8242C77.1386 44.9414 75.6153 44.9414 74.0918 44.8242C73.4191 44.2427 73.2139 43.5104 73.4766 42.6269C73.8128 42.1382 74.2523 41.8452 74.7949 41.748Z" fill="#068FFF"/>
<path opacity="0.916" fill-rule="evenodd" clip-rule="evenodd" d="M83.7598 41.748C84.8746 41.7188 85.9879 41.748 87.0997 41.8359C88.4539 42.2309 88.8348 43.0806 88.2423 44.3847C88.0835 44.5958 87.8786 44.7424 87.627 44.8242C86.0271 44.9898 84.445 44.9312 82.8809 44.6484C81.9801 43.2898 82.2731 42.323 83.7598 41.748Z" fill="#068FFF"/>
<path opacity="0.916" fill-rule="evenodd" clip-rule="evenodd" d="M80.0684 44.9122C80.5989 44.8832 81.1263 44.9125 81.6504 45.0001C82.0574 45.195 82.321 45.5174 82.4415 45.9669C82.5587 47.2559 82.5587 48.5451 82.4415 49.8341C82.194 50.5762 81.6666 50.9863 80.8594 51.0645C80.189 50.98 79.7204 50.6284 79.4532 50.0098C79.3359 48.6036 79.3359 47.1973 79.4532 45.7911C79.6284 45.4706 79.8336 45.1776 80.0684 44.9122Z" fill="#068FFF"/>
<path opacity="0.936" fill-rule="evenodd" clip-rule="evenodd" d="M71.8065 52.2949C76.1083 52.3484 78.1297 54.5164 77.871 58.7988C76.7565 62.184 74.442 63.5024 70.9276 62.7539C67.5111 61.0768 66.5444 58.4692 68.0272 54.9316C68.9221 53.5048 70.1818 52.6259 71.8065 52.2949ZM72.3339 55.459C74.512 55.7728 75.1859 56.9445 74.3554 58.9746C73.1244 60.1937 71.9526 60.1351 70.8397 58.7988C70.1967 57.1563 70.6947 56.0429 72.3339 55.459Z" fill="#068FFF"/>
<path opacity="0.952" fill-rule="evenodd" clip-rule="evenodd" d="M13.2715 64.2481C18.3695 64.2187 23.4672 64.2481 28.5645 64.336C29.1337 64.3767 29.5731 64.6404 29.8828 65.127C30.0001 70.6347 30.0001 76.1427 29.8828 81.6504C29.6879 82.0573 29.3655 82.321 28.916 82.4414C23.6426 82.5587 18.3692 82.5587 13.0957 82.4414C12.683 82.3806 12.3608 82.1755 12.1289 81.8262C11.8387 76.3921 11.7801 70.9429 11.9532 65.4785C12.1591 64.8065 12.5985 64.3963 13.2715 64.2481ZM15.0293 67.4121C15.0293 68.8769 15.0293 70.3419 15.0293 71.8067C16.4942 71.8067 17.9591 71.8067 19.4239 71.8067C19.4239 70.3419 19.4239 68.8769 19.4239 67.4121C17.9591 67.4121 16.4942 67.4121 15.0293 67.4121ZM22.5879 67.4121C22.5879 68.8769 22.5879 70.3419 22.5879 71.8067C23.9942 71.8067 25.4004 71.8067 26.8067 71.8067C26.8067 70.3419 26.8067 68.8769 26.8067 67.4121C25.4004 67.4121 23.9942 67.4121 22.5879 67.4121ZM15.0293 74.9707C15.0293 76.4355 15.0293 77.9005 15.0293 79.3653C16.4942 79.3653 17.9591 79.3653 19.4239 79.3653C19.4239 77.9005 19.4239 76.4355 19.4239 74.9707C17.9591 74.9707 16.4942 74.9707 15.0293 74.9707ZM22.5879 74.9707C22.5879 76.4355 22.5879 77.9005 22.5879 79.3653C23.9942 79.3653 25.4004 79.3653 26.8067 79.3653C26.8067 77.9005 26.8067 76.4355 26.8067 74.9707C25.4004 74.9707 23.9942 74.9707 22.5879 74.9707Z" fill="#068FFF"/>
<path opacity="0.912" fill-rule="evenodd" clip-rule="evenodd" d="M45.9668 74.795C46.8878 74.6999 47.5615 75.0514 47.9883 75.8497C48.1056 77.1974 48.1056 78.5449 47.9883 79.8926C47.5661 80.8756 46.8336 81.1978 45.7911 80.8594C45.4101 80.713 45.1465 80.4493 45 80.0684C44.8828 78.6036 44.8828 77.1387 45 75.6739C45.3041 75.3395 45.6264 75.0465 45.9668 74.795Z" fill="#068FFF"/>
</g>
<defs>
<clipPath id="clip0_429_3617">
<rect width="90" height="90" fill="white"/>
</clipPath>
</defs>
</svg>
