<svg width="208" height="49" viewBox="0 0 208 49" fill="none" xmlns="http://www.w3.org/2000/svg">
<path d="M12.4512 6.45674C14.2958 5.99558 18.0774 5.07324 18.4463 5.07324H41.9658L48.4222 6.91791L47.4998 26.7481L44.2717 34.1267L35.9707 42.8889L29.5143 46.1171L24.4415 42.8889L13.8347 29.9762L12.4512 21.6752V6.45674Z" fill="white"/>
<path d="M40.9199 6.0548C42.9897 6.4023 45.056 6.84952 47.1189 7.39642V21.2669C47.1149 24.035 46.6141 26.7791 45.6413 29.3643C45.7673 29.5005 45.8646 29.6617 45.9268 29.8379C45.9952 29.882 46.0594 29.9324 46.1188 29.9884C46.407 30.2569 46.6951 30.5097 46.9844 30.7586C48.2361 27.6961 48.8841 24.4909 48.8841 21.2695V6.02221L48.2324 5.84237C46.1139 5.25637 43.9872 4.77376 41.8522 4.39453C41.5965 4.86454 41.2857 5.41797 40.9199 6.0548Z" fill="#54B435"/>
<path d="M14.0273 29.9904C14.0867 29.9344 14.151 29.884 14.2193 29.8399C14.2816 29.6635 14.3788 29.502 14.5048 29.3655C13.5323 26.7815 13.0315 24.0385 13.027 21.2714V7.40098C15.0879 6.85234 17.1536 6.40513 19.2239 6.05935C18.8591 5.42296 18.5476 4.86802 18.2894 4.39453C16.156 4.77376 14.0299 5.25637 11.9113 5.84237L11.2598 6.02221V21.2695C11.2598 24.4909 11.9075 27.6993 13.1588 30.7586C13.4507 30.5143 13.7394 30.2588 14.0273 29.9904Z" fill="#54B435"/>
<path d="M17.5746 41.823C16.7916 43.5402 14.6602 46.4625 12.6887 47.159C11.4582 46.4875 10.117 45.6261 8.764 44.6866C12.1655 42.7464 13.7296 38.9595 13.7296 38.9595C12.2056 41.524 9.02177 42.9165 7.15848 43.5409C6.34892 42.9487 5.55165 42.345 4.79002 41.7535C8.3521 41.0376 10.6357 38.2165 10.6357 38.2165C8.40456 40.2179 5.5413 40.658 3.60677 40.8262C1.21045 38.8931 0 37.8473 0 37.8473C0 37.8473 7.67012 37.6186 14.9056 31.0332L24.1671 38.462C22.5421 42.0189 20.9806 44.9701 17.2676 48.884C17.2676 48.884 15.2522 48.4432 13.5482 47.6049C17.0364 45.1924 17.5746 41.823 17.5746 41.823Z" fill="#068FFF"/>
<path d="M40.8494 3.03901C37.892 8.64835 23.4408 31.4663 23.4408 31.4663C23.1646 31.8751 23.0513 32.3735 23.1235 32.8626C23.1956 33.3516 23.4478 33.7954 23.8302 34.1058L24.1896 34.3977C24.523 34.6587 24.7792 35.0064 24.9306 35.4033C25.3659 36.6389 24.6567 37.8992 24.6567 37.8992L20.0188 34.1365L15.3789 30.3719C15.3789 30.3719 16.3976 29.4577 17.6447 29.5622C18.0982 29.6129 18.5269 29.7966 18.8775 30.0905C19.7807 30.8238 21.1407 30.6246 21.748 29.6294C34.3279 9.02251 36.9089 4.07273 38.0801 1.61154C39.2954 -0.936492 42.1834 0.506655 40.8494 3.03901Z" fill="#54B435"/>
<path d="M42.569 41.823C43.352 43.5402 45.4834 46.4625 47.4549 47.159C48.6854 46.4875 50.0267 45.6261 51.3796 44.6866C47.9782 42.7464 46.4141 38.9595 46.4141 38.9595C47.938 41.524 51.1219 42.9165 52.9852 43.5409C53.7948 42.9487 54.592 42.345 55.3537 41.7535C51.7915 41.0376 49.5079 38.2165 49.5079 38.2165C51.7391 40.2179 54.6023 40.658 56.5369 40.8262C58.9333 38.8931 60.1436 37.8473 60.1436 37.8473C60.1436 37.8473 52.4735 37.6186 45.238 31.0332L35.9766 38.462C37.6015 42.0189 39.163 44.9701 42.876 48.884C42.876 48.884 44.8915 48.4432 46.5955 47.6049C43.1072 45.1924 42.569 41.823 42.569 41.823Z" fill="#068FFF"/>
<path d="M19.0238 3.03947C22.0124 8.64873 36.6157 31.4664 36.6157 31.4664C36.8948 31.8752 37.0094 32.3736 36.9364 32.8627C36.8636 33.3517 36.6086 33.7954 36.2223 34.1059L35.8591 34.3978C35.5221 34.6588 35.2632 35.0065 35.1103 35.4034C34.6703 36.6389 35.387 37.8992 35.387 37.8992L40.0764 34.1346L44.7652 30.3701C44.7652 30.3701 43.7358 29.4558 42.4756 29.5603C42.0173 29.6111 41.5841 29.7948 41.2298 30.0886C40.3171 30.8219 38.9427 30.6228 38.329 29.6276C25.6107 9.02093 23.0025 4.07121 21.8189 1.61006C20.5942 -0.935986 17.6757 0.507143 19.0238 3.03947Z" fill="#54B435"/>
<path d="M25.597 5.55877C26.6123 7.41909 28.0293 9.93528 30.0728 13.4567C32.1162 9.93325 33.5333 7.41909 34.5486 5.55877V2.35806L35.1533 2.58996V1.94589L33.6689 1.37696V0.0169839H32.3206V0.861577L30.0728 0L24.9922 1.9472V2.58865L25.597 2.35676V5.55877Z" fill="#54B435"/>
<path d="M35.9395 41.7438C34.1057 43.1665 32.1489 44.4163 30.0933 45.4777L30.0714 45.4889L30.0496 45.477C27.9939 44.4156 26.0371 43.1659 24.2034 41.7432C23.9354 42.2718 23.6514 42.8025 23.3438 43.3395C25.1516 44.7302 30.0721 47.5103 30.0721 47.5103C30.0721 47.5103 34.9925 44.7302 36.8004 43.3389C36.4914 42.8031 36.2074 42.2725 35.9395 41.7438Z" fill="#54B435"/>
<path d="M35.4272 40.5024L35.2158 40.6637C33.5942 41.8947 31.8737 42.9907 30.0721 43.9405C28.2703 42.9907 26.5498 41.8948 24.9282 40.6637L24.7168 40.5024L25.4715 39.2068L25.478 39.1957L25.6266 39.1402L26.073 39.3067V33.5712L27.0744 33.1977V28.5802L30.0721 27.4629L33.0696 28.5802V33.1977L34.0711 33.5712V39.3067L34.5174 39.1402L34.666 39.1957C34.666 39.1957 35.3081 40.2484 35.4272 40.5024Z" fill="#54B435"/>
<path d="M41.7441 12.084L42.9097 13.3897L44.2158 14.5557L43.0503 13.2493L41.7441 12.084Z" fill="#54B435"/>
<path d="M41.7441 14.5557L43.0503 13.3897L44.2158 12.084L42.9097 13.2493L41.7441 14.5557Z" fill="#54B435"/>
<path d="M43.8107 13.5576L45.589 13.4616L43.8107 13.3663C43.6211 13.3557 43.4423 13.2796 43.3081 13.1524C43.1738 13.0252 43.0935 12.8558 43.0823 12.6762L42.9797 10.9854L42.8784 12.6712C42.8672 12.8508 42.7869 13.0202 42.6527 13.1474C42.5185 13.2746 42.3396 13.3507 42.1501 13.3613L40.3711 13.4567L42.1501 13.5527C42.3396 13.5633 42.5185 13.6394 42.6527 13.7666C42.7869 13.8937 42.8672 14.0632 42.8784 14.2428L42.9797 15.9286L43.081 14.2428C43.0935 14.0639 43.1745 13.8955 43.3089 13.7693C43.4433 13.6431 43.6218 13.5678 43.8107 13.5576Z" fill="#54B435"/>
<path d="M46.1367 35.4277L46.6551 36.1537L47.2352 36.8008L46.7175 36.0756L46.1367 35.4277Z" fill="white"/>
<path d="M46.1367 36.8008L46.7175 36.1537L47.2352 35.4277L46.6551 36.0756L46.1367 36.8008Z" fill="white"/>
<path d="M47.2172 36.1615L48.0596 36.1137L47.2172 36.0653C47.1272 36.0604 47.0421 36.0225 46.9784 35.9586C46.9147 35.8949 46.8767 35.8099 46.8717 35.7198L46.824 34.8779L46.7757 35.7198C46.7708 35.8099 46.7328 35.8949 46.6691 35.9586C46.6053 36.0225 46.5203 36.0604 46.4303 36.0653L45.5879 36.1137L46.4303 36.1615C46.5202 36.1665 46.6051 36.2045 46.6689 36.2683C46.7326 36.332 46.7706 36.4169 46.7757 36.507L46.824 37.3495L46.8717 36.507C46.8769 36.4169 46.9149 36.332 46.9786 36.2683C47.0422 36.2045 47.1272 36.1665 47.2172 36.1615Z" fill="white"/>
<path d="M41.4688 37.8984L41.7275 38.1884L42.0181 38.4477L41.7588 38.1572L41.4688 37.8984Z" fill="white"/>
<path d="M41.4688 38.4477L41.7588 38.1884L42.0181 37.8984L41.7275 38.1572L41.4688 38.4477Z" fill="white"/>
<path d="M42.1008 38.1948L42.5685 38.173L42.1008 38.1519C42.0507 38.1497 42.0035 38.1328 41.968 38.1044C41.9326 38.0761 41.9115 38.0382 41.9086 37.9982L41.8815 37.624L41.8552 37.9982C41.8522 38.0382 41.831 38.076 41.7956 38.1043C41.7602 38.1326 41.713 38.1496 41.6631 38.1519L41.1953 38.173L41.6631 38.1948C41.7131 38.197 41.7603 38.2139 41.7958 38.2423C41.8313 38.2706 41.8524 38.3084 41.8552 38.3484L41.8815 38.7226L41.9086 38.3484C41.9113 38.3083 41.9324 38.2705 41.9679 38.2421C42.0034 38.2137 42.0507 38.1969 42.1008 38.1948Z" fill="white"/>
<path d="M14.0047 35.4277L13.487 36.1537L12.9062 36.8008L13.424 36.0756L14.0047 35.4277Z" fill="white"/>
<path d="M14.0047 36.8008L13.424 36.1537L12.9062 35.4277L13.487 36.0756L14.0047 36.8008Z" fill="white"/>
<path d="M12.9244 36.1615L12.082 36.1137L12.9244 36.0653C13.0144 36.0604 13.0995 36.0225 13.1632 35.9586C13.2269 35.8949 13.2649 35.8099 13.2699 35.7198L13.3176 34.8779L13.3659 35.7198C13.3708 35.8099 13.4088 35.8949 13.4725 35.9586C13.5363 36.0225 13.6213 36.0604 13.7113 36.0653L14.5537 36.1137L13.7113 36.1615C13.6214 36.1665 13.5365 36.2045 13.4727 36.2683C13.409 36.332 13.371 36.4169 13.3659 36.507L13.3176 37.3495L13.2699 36.507C13.2647 36.4169 13.2267 36.332 13.163 36.2683C13.0993 36.2045 13.0144 36.1665 12.9244 36.1615Z" fill="white"/>
<path d="M18.6743 37.8984L18.415 38.1884L18.125 38.4477L18.3842 38.1572L18.6743 37.8984Z" fill="white"/>
<path d="M18.6743 38.4477L18.3842 38.1884L18.125 37.8984L18.415 38.1572L18.6743 38.4477Z" fill="white"/>
<path d="M18.0439 38.1948L17.5762 38.173L18.0439 38.1519C18.094 38.1497 18.1412 38.1328 18.1766 38.1044C18.212 38.0761 18.2331 38.0382 18.236 37.9982L18.2631 37.624L18.2895 37.9982C18.2925 38.0382 18.3137 38.076 18.3491 38.1043C18.3844 38.1326 18.4316 38.1496 18.4816 38.1519L18.9493 38.173L18.4816 38.1948C18.4315 38.197 18.3843 38.2139 18.3489 38.2423C18.3135 38.2706 18.2923 38.3084 18.2895 38.3484L18.2631 38.7226L18.236 38.3484C18.2333 38.3083 18.2122 38.2705 18.1768 38.2421C18.1413 38.2137 18.094 38.1969 18.0439 38.1948Z" fill="white"/>
<path d="M29.3848 4.66797L30.0321 5.53867L30.7578 6.31573L30.1106 5.44503L29.3848 4.66797Z" fill="white"/>
<path d="M29.3848 6.31573L30.1106 5.53867L30.7578 4.66797L30.0321 5.44503L29.3848 6.31573Z" fill="white"/>
<path d="M30.6409 5.55836L31.8573 5.49377L30.6409 5.4292C30.5109 5.42226 30.3883 5.37143 30.2963 5.2864C30.2044 5.20137 30.1495 5.08808 30.1421 4.9681L30.0722 3.8457L30.0023 4.9681C29.9949 5.08808 29.94 5.20137 29.8481 5.2864C29.7561 5.37143 29.6334 5.42226 29.5035 5.4292L28.2871 5.49377L29.5035 5.55836C29.6334 5.56498 29.7561 5.61551 29.8483 5.70031C29.9403 5.78512 29.9954 5.89826 30.0029 6.01817L30.0729 7.14121L30.1428 6.01817C30.1503 5.89848 30.2052 5.7855 30.2971 5.70073C30.3888 5.61595 30.5112 5.56528 30.6409 5.55836Z" fill="white"/>
<path d="M29.1113 30.4844L30.0181 31.3552L31.0337 32.1321L30.1269 31.2613L29.1113 30.4844Z" fill="white"/>
<path d="M29.1113 32.1321L30.1269 31.3552L31.0337 30.4844L30.0181 31.2613L29.1113 32.1321Z" fill="white"/>
<path d="M30.6401 31.3839L31.8573 31.3095L30.6401 31.2344C30.5105 31.2261 30.3883 31.167 30.2966 31.0681C30.2048 30.9693 30.1499 30.8377 30.1422 30.6981L30.0713 29.3857L30.0022 30.6968C29.9945 30.8363 29.9396 30.9679 29.8478 31.0668C29.7561 31.1656 29.6339 31.2248 29.5043 31.233L28.2871 31.3081L29.5043 31.3825C29.6339 31.3908 29.7561 31.4499 29.8478 31.5488C29.9396 31.6476 29.9945 31.7792 30.0022 31.9187L30.0713 33.2305L30.1404 31.9187C30.1484 31.7791 30.2037 31.6476 30.2958 31.549C30.3879 31.4504 30.5104 31.3916 30.6401 31.3839Z" fill="white"/>
<path d="M31.3066 36.25L31.6956 36.685L32.1306 37.0738L31.7423 36.6382L31.3066 36.25Z" fill="white"/>
<path d="M31.3066 37.0738L31.7423 36.685L32.1306 36.25L31.6956 36.6382L31.3066 37.0738Z" fill="white"/>
<path d="M32.0254 36.557L32.6801 36.5251L32.0254 36.4932C31.9553 36.4899 31.8891 36.4644 31.8394 36.4219C31.7897 36.3793 31.7601 36.3225 31.7561 36.2624L31.719 35.7012L31.6818 36.2624C31.6778 36.3225 31.6483 36.3792 31.5988 36.4217C31.5494 36.4642 31.4833 36.4897 31.4133 36.4932L30.7578 36.5251L31.4133 36.557C31.4831 36.5605 31.5491 36.5859 31.5986 36.6283C31.6481 36.6707 31.6777 36.7273 31.6818 36.7871L31.719 37.3489L31.7561 36.7871C31.7603 36.7271 31.79 36.6705 31.8396 36.6281C31.8892 36.5857 31.9554 36.5603 32.0254 36.557Z" fill="white"/>
<path d="M18.3993 12.084L17.2339 13.3897L15.9277 14.5557L17.0933 13.2493L18.3993 12.084Z" fill="#54B435"/>
<path d="M18.3993 14.5557L17.0933 13.3897L15.9277 12.084L17.2339 13.2493L18.3993 14.5557Z" fill="#54B435"/>
<path d="M16.333 13.5551L14.5547 13.4591L16.333 13.3639C16.5225 13.3534 16.7013 13.2773 16.8356 13.1502C16.9698 13.0232 17.0502 12.8538 17.0613 12.6744L17.164 10.9854L17.2652 12.6694C17.2764 12.8488 17.3567 13.0181 17.4909 13.1452C17.6252 13.2723 17.804 13.3483 17.9935 13.3589L19.7725 13.4542L17.9948 13.5551C17.8054 13.5657 17.6265 13.6417 17.4923 13.7688C17.358 13.8958 17.2777 14.0651 17.2665 14.2445L17.1653 15.9286L17.0626 14.2445C17.0514 14.0649 16.9709 13.8954 16.8364 13.7683C16.7019 13.6412 16.5228 13.5653 16.333 13.5551Z" fill="#54B435"/>
<path d="M20.9671 20.3179L19.498 18.6748L21.1442 20.1411H21.1479L22.7935 18.6748L21.325 20.3179L21.3245 20.3198L21.325 20.3217L22.7935 21.9654L21.1479 20.5034H21.1442L19.498 21.9704L20.9671 20.3266L20.9703 20.3253L20.9715 20.3223L20.9703 20.3192L20.9671 20.3179Z" fill="#54B435"/>
<path d="M20.2349 20.4749L17.5762 20.3234L20.2349 20.172C20.4327 20.1608 20.6195 20.0771 20.7597 19.937C20.8998 19.7969 20.9835 19.6102 20.995 19.4122L21.1463 16.752L21.2977 19.4122C21.309 19.6102 21.3928 19.7969 21.533 19.937C21.6732 20.0771 21.8599 20.1608 22.0578 20.172L24.7164 20.3234L22.0578 20.4749C21.8603 20.4861 21.6738 20.5695 21.5337 20.7092C21.3936 20.8489 21.3097 21.0351 21.2977 21.2326L21.1463 23.8923L20.995 21.2326C20.983 21.0351 20.899 20.8489 20.7589 20.7092C20.6188 20.5695 20.4324 20.4861 20.2349 20.4749Z" fill="#54B435"/>
<path d="M39.0528 20.3179L40.6444 18.6748L38.861 20.1411H38.8569L37.0742 18.6748L38.6652 20.3179L38.6656 20.3198L38.6652 20.3217L37.0742 21.9654L38.8569 20.5034H38.861L40.6444 21.9704L39.0528 20.3266L39.051 20.3263L39.0495 20.3253L39.0485 20.3239L39.0481 20.3223L39.0485 20.3206L39.0495 20.3192L39.051 20.3183L39.0528 20.3179Z" fill="#54B435"/>
<path d="M39.9073 20.4749L42.566 20.3234L39.9073 20.172C39.7096 20.1608 39.5227 20.0771 39.3826 19.937C39.2424 19.7969 39.1587 19.6102 39.1472 19.4122L38.9959 16.752L38.8445 19.4122C38.8332 19.6102 38.7494 19.7969 38.6092 19.937C38.469 20.0771 38.2822 20.1608 38.0844 20.172L35.4258 20.3234L38.0844 20.4749C38.2819 20.4861 38.4684 20.5695 38.6085 20.7092C38.7486 20.8489 38.8325 21.0351 38.8445 21.2326L38.9959 23.8923L39.1472 21.2326C39.1592 21.0351 39.2432 20.8489 39.3833 20.7092C39.5234 20.5695 39.7099 20.4861 39.9073 20.4749Z" fill="#54B435"/>
<path d="M88.4 37.8158L78.8224 25.2351V37.8158H71.8828V9.32673H78.8224V21.8262L88.3188 9.32673H96.4756L85.4374 23.2872L96.8815 37.8158H88.4ZM107.119 32.4588H116.21V37.8158H100.18V9.32673H107.119V32.4588ZM137.255 32.7835H126.622L124.918 37.8158H117.653L127.961 9.32673H135.997L146.305 37.8158H138.959L137.255 32.7835ZM135.469 27.4266L131.938 16.9968L128.448 27.4266H135.469ZM174.927 37.8158H167.988L156.381 20.2435V37.8158H149.442V9.32673H156.381L167.988 26.9802V9.32673H174.927V37.8158ZM193.431 38.0998C190.753 38.0998 188.291 37.4775 186.045 36.233C183.827 34.9885 182.054 33.2569 180.729 31.0385C179.43 28.7928 178.781 26.2767 178.781 23.4901C178.781 20.7034 179.43 18.2008 180.729 15.9823C182.054 13.7638 183.827 12.0322 186.045 10.7877C188.291 9.5432 190.753 8.9209 193.431 8.9209C196.11 8.9209 198.559 9.5432 200.777 10.7877C203.023 12.0322 204.781 13.7638 206.053 15.9823C207.351 18.2008 208 20.7034 208 23.4901C208 26.2767 207.351 28.7928 206.053 31.0385C204.754 33.2569 202.995 34.9885 200.777 36.233C198.559 37.4775 196.11 38.0998 193.431 38.0998ZM193.431 31.7689C195.704 31.7689 197.516 31.0114 198.869 29.4963C200.249 27.9812 200.939 25.9792 200.939 23.4901C200.939 20.974 200.249 18.9718 198.869 17.4838C197.516 15.9687 195.704 15.2112 193.431 15.2112C191.132 15.2112 189.292 15.9553 187.912 17.4433C186.559 18.9313 185.883 20.9469 185.883 23.4901C185.883 26.0062 186.559 28.0218 187.912 29.5369C189.292 31.0249 191.132 31.7689 193.431 31.7689Z" fill="white"/>
</svg>
