<svg width="80" height="80" viewBox="0 0 80 80" fill="none" xmlns="http://www.w3.org/2000/svg">
<g clip-path="url(#clip0_382_1271)">
<path d="M34.2536 17.7394C34.2981 18.579 34.1126 19.4141 33.7207 20.1391C33.3287 20.8642 32.7478 21.4466 32.0514 21.8129C31.355 22.1792 30.5744 22.3128 29.8081 22.197C29.0419 22.0811 28.3244 21.7209 27.7464 21.1619C27.1684 20.603 26.7558 19.8703 26.5607 19.0565C26.3657 18.2427 26.3969 17.3843 26.6505 16.5897C26.9041 15.7952 27.3687 15.1003 27.9855 14.5927C28.6023 14.0851 29.3437 13.7876 30.116 13.7379C30.6294 13.7049 31.1439 13.7822 31.6298 13.9655C32.1158 14.1488 32.5637 14.4344 32.948 14.8061C33.3323 15.1777 33.6455 15.6281 33.8695 16.1314C34.0935 16.6348 34.2241 17.1812 34.2536 17.7394Z" fill="#068FFF"/>
<path d="M28.3105 20.3818C28.2446 20.3858 28.1787 20.3734 28.1179 20.3456C28.057 20.3178 28.0028 20.2754 27.9593 20.2215C27.505 19.6524 27.238 18.9349 27.2005 18.1825C27.1551 17.4525 27.3258 16.7257 27.6875 16.1086C28.0493 15.4915 28.5832 15.0164 29.2111 14.7528C29.839 14.4891 30.5281 14.4507 31.1775 14.6433C31.8269 14.8358 32.4026 15.2492 32.8205 15.8229C32.857 15.87 32.8845 15.9247 32.9011 15.9836C32.9178 16.0425 32.9233 16.1045 32.9174 16.1659C32.9115 16.2272 32.8943 16.2866 32.8668 16.3405C32.8393 16.3944 32.802 16.4417 32.7573 16.4796C32.6682 16.5559 32.5552 16.5915 32.4424 16.5786C32.3295 16.5658 32.2258 16.5056 32.1531 16.4109C31.8479 16 31.4305 15.7054 30.9611 15.5694C30.4917 15.4334 29.9947 15.4632 29.5419 15.6545C29.0891 15.8458 28.704 16.1886 28.4423 16.6334C28.1805 17.0782 28.0556 17.602 28.0857 18.1291C28.1111 18.6755 28.304 19.1971 28.6336 19.6106C28.6842 19.6761 28.7172 19.7556 28.7289 19.8402C28.7407 19.9248 28.7308 20.0113 28.7003 20.0902C28.6698 20.1691 28.6199 20.2373 28.5561 20.2874C28.4923 20.3375 28.4171 20.3675 28.3386 20.3742L28.3105 20.3818Z" fill="white"/>
<path d="M25.7886 22.497C25.8351 23.2532 25.6736 24.0073 25.3246 24.6634C24.9755 25.3194 24.4548 25.8477 23.8287 26.181C23.2025 26.5143 22.4993 26.6375 21.8086 26.535C21.1178 26.4324 20.4707 26.1087 19.9498 25.605C19.4288 25.1014 19.0575 24.4406 18.8831 23.7069C18.7088 22.9731 18.7392 22.1995 18.9706 21.4846C19.202 20.7697 19.6238 20.1458 20.1825 19.6924C20.7411 19.2389 21.4112 18.9765 22.1075 18.9384C23.0279 18.8881 23.9295 19.233 24.6181 19.8987C25.3067 20.5643 25.7271 21.4975 25.7886 22.497Z" fill="#068FFF"/>
<path d="M20.4988 24.9101C20.434 24.914 20.3691 24.9016 20.3094 24.8737C20.2497 24.8459 20.1967 24.8035 20.1546 24.7497C19.7363 24.2368 19.4889 23.5859 19.4521 22.9017C19.4199 22.2477 19.5785 21.5994 19.9054 21.0493C20.2322 20.4992 20.7105 20.0753 21.2721 19.8382C21.8337 19.6012 22.4498 19.563 23.0325 19.7291C23.6153 19.8953 24.1348 20.2573 24.5171 20.7635C24.5888 20.8597 24.6225 20.9829 24.6106 21.1061C24.5987 21.2292 24.5424 21.3422 24.4539 21.4202C24.3654 21.4982 24.252 21.5347 24.1387 21.5219C24.0254 21.509 23.9214 21.4477 23.8497 21.3515C23.579 21.0051 23.2151 20.7598 22.8093 20.6504C22.4035 20.5411 21.9763 20.573 21.5881 20.7418C21.2 20.9106 20.8703 21.2077 20.6459 21.5911C20.4214 21.9746 20.3135 22.425 20.3372 22.8788C20.3586 23.3551 20.5269 23.8097 20.8149 24.1693C20.8894 24.2625 20.9268 24.3841 20.9189 24.5072C20.911 24.6303 20.8584 24.745 20.7728 24.8261C20.6916 24.8841 20.5959 24.9135 20.4988 24.9101Z" fill="white"/>
<path d="M27.6361 26.6666C29.2928 26.6666 30.6358 25.2067 30.6358 23.4058C30.6358 21.6049 29.2928 20.145 27.6361 20.145C25.9795 20.145 24.6365 21.6049 24.6365 23.4058C24.6365 25.2067 25.9795 26.6666 27.6361 26.6666Z" fill="#068FFF"/>
<path d="M26.0694 25.3607C26.0035 25.3652 25.9374 25.3531 25.8765 25.3253C25.8156 25.2975 25.7614 25.2547 25.7182 25.2003C25.4102 24.8144 25.2079 24.3423 25.1341 23.8377C25.0604 23.333 25.1183 22.8161 25.3011 22.3454C25.484 21.8747 25.7845 21.4691 26.1687 21.1747C26.5528 20.8802 27.0051 20.7087 27.4744 20.6795C27.8739 20.6555 28.2729 20.7342 28.6391 20.9094C29.0053 21.0845 29.3283 21.3512 29.5819 21.6875C29.6536 21.7837 29.6873 21.907 29.6754 22.0301C29.6635 22.1533 29.6072 22.2663 29.5187 22.3443C29.4302 22.4222 29.3168 22.4588 29.2035 22.4459C29.0902 22.433 28.9862 22.3717 28.9145 22.2755C28.7839 22.0696 28.6154 21.8955 28.4195 21.7643C28.2237 21.633 28.0049 21.5475 27.777 21.5132C27.5491 21.4789 27.3171 21.4965 27.0958 21.565C26.8745 21.6334 26.6688 21.7512 26.4916 21.9108C26.3145 22.0703 26.1698 22.2683 26.0669 22.4919C25.9639 22.7156 25.9049 22.9601 25.8936 23.2099C25.8823 23.4597 25.919 23.7093 26.0012 23.9428C26.0835 24.1764 26.2096 24.3888 26.3715 24.5665C26.4459 24.6597 26.4833 24.7812 26.4754 24.9043C26.4675 25.0275 26.415 25.1422 26.3293 25.2232C26.2581 25.2976 26.1672 25.3456 26.0694 25.3607Z" fill="white"/>
<path d="M45.1001 19.1981C45.1461 20.0383 44.9618 20.8743 44.5705 21.6006C44.1792 22.3268 43.5985 22.9105 42.9019 23.2778C42.2053 23.6451 41.4241 23.7795 40.6572 23.664C39.8903 23.5485 39.1721 23.1883 38.5936 22.629C38.0151 22.0696 37.6023 21.3363 37.4073 20.5218C37.2124 19.7073 37.2441 18.8482 37.4984 18.0533C37.7528 17.2584 38.2184 16.5634 38.8362 16.0562C39.4541 15.5491 40.1965 15.2526 40.9695 15.2042C41.482 15.1712 41.9955 15.2483 42.4806 15.4312C42.9658 15.6141 43.4129 15.8992 43.7966 16.2701C44.1802 16.6411 44.4928 17.0906 44.7165 17.5931C44.9402 18.0955 45.0705 18.6409 45.1001 19.1981Z" fill="#068FFF"/>
<path d="M39.1571 21.8482C39.0922 21.8521 39.0274 21.8396 38.9677 21.8118C38.908 21.784 38.855 21.7416 38.8129 21.6878C38.5117 21.3496 38.2778 20.9477 38.1257 20.5069C37.9737 20.0662 37.9067 19.5962 37.929 19.1261C37.9513 18.656 38.0624 18.196 38.2554 17.7746C38.4484 17.3533 38.7191 16.9796 39.0507 16.6769C39.3824 16.3742 39.7677 16.149 40.1829 16.0153C40.5981 15.8816 41.0341 15.8422 41.4639 15.8996C41.8937 15.9571 42.3079 16.1101 42.6809 16.3492C43.054 16.5882 43.3777 16.9082 43.632 17.2892C43.6675 17.3368 43.694 17.3916 43.7101 17.4504C43.7261 17.5092 43.7314 17.5708 43.7255 17.6318C43.7196 17.6928 43.7028 17.7519 43.6759 17.8058C43.649 17.8597 43.6126 17.9073 43.5688 17.9459C43.5249 17.9845 43.4745 18.0134 43.4205 18.0308C43.3664 18.0483 43.3097 18.054 43.2536 18.0476C43.1975 18.0412 43.1431 18.0229 43.0935 17.9936C43.0439 17.9644 43.0001 17.9248 42.9646 17.8772C42.6603 17.463 42.2423 17.1653 41.7715 17.0273C41.3007 16.8893 40.8016 16.9183 40.347 17.11C39.8924 17.3017 39.5059 17.6461 39.2439 18.0932C38.9819 18.5402 38.8579 19.0665 38.8901 19.5954C38.9227 20.1415 39.1175 20.6614 39.4451 21.0769C39.5196 21.1701 39.557 21.2916 39.5491 21.4147C39.5412 21.5379 39.4886 21.6526 39.403 21.7336C39.3329 21.7969 39.2475 21.8366 39.1571 21.8482Z" fill="white"/>
<path d="M26.829 20.323C27.2729 19.2637 26.8427 18.0138 25.8683 17.5312C24.8938 17.0487 23.744 17.5163 23.3001 18.5756C22.8562 19.6349 23.2863 20.8848 24.2608 21.3674C25.2353 21.8499 26.3851 21.3823 26.829 20.323Z" fill="#068FFF"/>
<path d="M24.1798 20.626C24.131 20.6269 24.0826 20.6164 24.0378 20.5953C23.9929 20.5743 23.9528 20.5431 23.9199 20.5038C23.7808 20.3413 23.6736 20.1497 23.6049 19.9407C23.5361 19.7317 23.5072 19.5097 23.52 19.2881C23.5328 19.0666 23.587 18.8502 23.6793 18.6522C23.7715 18.4542 23.8999 18.2787 24.0566 18.1364C24.2133 17.9941 24.3951 17.888 24.5907 17.8245C24.7864 17.7611 24.9919 17.7416 25.1947 17.7674C25.3976 17.7931 25.5934 17.8635 25.7704 17.9742C25.9474 18.085 26.1017 18.2337 26.2241 18.4114C26.2742 18.4832 26.297 18.5731 26.2879 18.6627C26.2787 18.7522 26.2383 18.8345 26.1749 18.8925C26.1429 18.9214 26.1059 18.943 26.0661 18.956C26.0263 18.969 25.9845 18.9731 25.9432 18.9681C25.9018 18.9631 25.8619 18.9491 25.8256 18.927C25.7894 18.9048 25.7577 18.8749 25.7323 18.8391C25.6159 18.6833 25.457 18.5717 25.2784 18.5205C25.0999 18.4693 24.911 18.4811 24.7391 18.5542C24.5671 18.6273 24.4209 18.7579 24.3217 18.9271C24.2224 19.0963 24.1752 19.2955 24.1868 19.4958C24.1999 19.7038 24.2737 19.9018 24.3976 20.0609C24.4511 20.13 24.4774 20.2193 24.4708 20.3093C24.4642 20.3993 24.4253 20.4829 24.3625 20.542C24.3103 20.5885 24.2469 20.6177 24.1798 20.626Z" fill="white"/>
<path d="M36.361 16.0445C36.3795 16.4172 36.2963 16.7876 36.1218 17.1091C35.9473 17.4306 35.6894 17.6889 35.3803 17.8515C35.0712 18.0141 34.7248 18.0738 34.3846 18.0231C34.0444 17.9723 33.7256 17.8135 33.4682 17.5664C33.2108 17.3193 33.0263 16.9951 32.9379 16.6344C32.8495 16.2737 32.8611 15.8926 32.9713 15.5391C33.0814 15.1856 33.2853 14.8753 33.5572 14.6473C33.829 14.4193 34.1568 14.2837 34.4994 14.2576C34.7299 14.24 34.9614 14.2724 35.1803 14.3531C35.3993 14.4337 35.6012 14.5609 35.7745 14.7272C35.9477 14.8935 36.0888 15.0956 36.1895 15.3218C36.2902 15.5479 36.3485 15.7936 36.361 16.0445Z" fill="#068FFF"/>
<path d="M33.7198 17.3656C33.6695 17.3705 33.6188 17.3619 33.5723 17.3406C33.5258 17.3193 33.4847 17.286 33.4528 17.2434C33.191 16.9032 33.0643 16.4638 33.1006 16.022C33.1368 15.5802 33.333 15.1721 33.646 14.8876C33.959 14.603 34.3632 14.4653 34.7696 14.5047C35.176 14.544 35.5514 14.7573 35.8132 15.0976C35.8401 15.1336 35.8603 15.175 35.8724 15.2196C35.8845 15.2641 35.8884 15.3108 35.8838 15.3569C35.8793 15.4031 35.8663 15.4478 35.8458 15.4885C35.8252 15.5292 35.7974 15.565 35.764 15.5939C35.7315 15.623 35.6939 15.6448 35.6535 15.6578C35.6131 15.6709 35.5708 15.6751 35.5289 15.6701C35.487 15.6651 35.4464 15.6511 35.4096 15.6288C35.3728 15.6066 35.3404 15.5765 35.3144 15.5405C35.1958 15.3787 35.0327 15.2624 34.8489 15.2086C34.6652 15.1548 34.4704 15.1662 34.2931 15.2413C34.1157 15.3164 33.9651 15.4511 33.8632 15.6258C33.7614 15.8006 33.7135 16.0061 33.7268 16.2125C33.7377 16.4247 33.8144 16.6266 33.9446 16.7852C34.0034 16.852 34.0362 16.941 34.0362 17.0334C34.0362 17.1259 34.0034 17.2148 33.9446 17.2816C33.915 17.3126 33.8796 17.3362 33.8407 17.3507C33.8019 17.3652 33.7606 17.3703 33.7198 17.3656Z" fill="white"/>
<path d="M38.9252 18.2741C38.9509 18.7358 38.8501 19.1953 38.6354 19.5946C38.4207 19.9939 38.1018 20.3149 37.7192 20.5171C37.3365 20.7192 36.9073 20.7934 36.4859 20.7303C36.0644 20.6671 35.6697 20.4694 35.3517 20.1622C35.0336 19.855 34.8066 19.4522 34.6993 19.0046C34.5921 18.5571 34.6094 18.085 34.749 17.6482C34.8887 17.2114 35.1445 16.8294 35.484 16.5507C35.8235 16.272 36.2314 16.109 36.6562 16.0825C37.2242 16.047 37.782 16.2577 38.2073 16.6686C38.6327 17.0794 38.8908 17.6568 38.9252 18.2741Z" fill="#068FFF"/>
<path d="M35.6656 19.8244C35.6163 19.8293 35.5667 19.8207 35.5213 19.7994C35.4759 19.778 35.4361 19.7446 35.4057 19.7022C35.1413 19.375 34.9855 18.9609 34.9631 18.5261C34.9405 18.1079 35.0406 17.6927 35.249 17.3403C35.4574 16.9879 35.7634 16.7166 36.1228 16.5654C36.4822 16.4142 36.8765 16.391 37.2489 16.4991C37.6212 16.6072 37.9524 16.841 38.1946 17.1669C38.2257 17.2018 38.2497 17.2434 38.2653 17.2889C38.2808 17.3345 38.2875 17.3831 38.2849 17.4316C38.2822 17.4801 38.2704 17.5275 38.25 17.5708C38.2297 17.6141 38.2013 17.6523 38.1667 17.6831C38.1321 17.7138 38.092 17.7364 38.0489 17.7494C38.0058 17.7625 37.9607 17.7656 37.9165 17.7588C37.8722 17.7519 37.8297 17.7351 37.7918 17.7094C37.7538 17.6838 37.7211 17.6498 37.6958 17.6098C37.5428 17.3877 37.3273 17.2259 37.0821 17.149C36.8369 17.0721 36.5752 17.0842 36.3369 17.1835C36.0986 17.2828 35.8965 17.4639 35.7614 17.6993C35.6264 17.9347 35.5656 18.2116 35.5883 18.488C35.6034 18.7689 35.702 19.0369 35.8693 19.2516C35.8969 19.286 35.9179 19.3261 35.931 19.3694C35.9442 19.4127 35.9493 19.4585 35.946 19.504C35.9428 19.5495 35.9312 19.5938 35.912 19.6344C35.8928 19.675 35.8663 19.711 35.8342 19.7404C35.7884 19.7883 35.7289 19.8179 35.6656 19.8244Z" fill="white"/>
<path d="M20.2248 34.2575C20.2694 35.0974 20.0838 35.9328 19.6916 36.6581C19.2994 37.3834 18.7181 37.966 18.0213 38.3321C17.3245 38.6982 16.5434 38.8315 15.7769 38.7151C15.0104 38.5987 14.2929 38.2378 13.7151 37.6781C13.1373 37.1183 12.7252 36.3849 12.5309 35.5705C12.3365 34.7561 12.3687 33.8974 12.6234 33.1029C12.8781 32.3085 13.3437 31.6139 13.9615 31.1072C14.5793 30.6004 15.3215 30.3042 16.0941 30.256C16.6072 30.2229 17.1213 30.3003 17.6069 30.4837C18.0924 30.6671 18.5399 30.9528 18.9236 31.3246C19.3074 31.6963 19.6198 32.1468 19.8431 32.6501C20.0664 33.1533 20.1961 33.6996 20.2248 34.2575Z" fill="#068FFF"/>
<path d="M14.2817 36.9072C14.2167 36.9118 14.1517 36.8996 14.0919 36.8717C14.0321 36.8439 13.9792 36.8011 13.9375 36.7469C13.4811 36.1785 13.2117 35.4611 13.1717 34.7079C13.1263 33.9779 13.297 33.2511 13.6587 32.634C14.0205 32.0169 14.5543 31.5418 15.1823 31.2782C15.8102 31.0145 16.4992 30.9761 17.1487 31.1687C17.7981 31.3612 18.3738 31.7745 18.7917 32.3482C18.8273 32.3958 18.854 32.4506 18.8701 32.5094C18.8862 32.5682 18.8915 32.6299 18.8856 32.6909C18.8797 32.7519 18.8628 32.8111 18.8359 32.865C18.8089 32.9189 18.7724 32.9665 18.7284 33.005C18.6851 33.0447 18.6348 33.0745 18.5806 33.0926C18.5264 33.1107 18.4693 33.1168 18.4129 33.1104C18.3565 33.1039 18.3019 33.0852 18.2523 33.0553C18.2027 33.0254 18.1592 32.9849 18.1243 32.9363C17.8178 32.5272 17.3999 32.2342 16.9307 32.0993C16.4615 31.9644 15.965 31.9945 15.5125 32.1853C15.06 32.3762 14.6748 32.7179 14.412 33.1615C14.1492 33.6051 14.0224 34.1277 14.0499 34.6545C14.0767 35.202 14.2722 35.7238 14.6048 36.136C14.678 36.2312 14.7144 36.3535 14.7066 36.4773C14.6987 36.6012 14.6472 36.7169 14.5627 36.8003C14.4844 36.8726 14.3843 36.9107 14.2817 36.9072Z" fill="white"/>
<path d="M23.3017 28.2476C23.3315 28.7801 23.2152 29.3101 22.9677 29.7707C22.7202 30.2313 22.3526 30.6017 21.9114 30.835C21.4702 31.0684 20.9752 31.1542 20.489 31.0816C20.0029 31.0091 19.5475 30.7813 19.1805 30.4273C18.8135 30.0733 18.5514 29.6088 18.4273 29.0928C18.3032 28.5767 18.3227 28.0322 18.4834 27.5282C18.6441 27.0242 18.9387 26.5834 19.33 26.2615C19.7213 25.9396 20.1916 25.7512 20.6814 25.72C21.3371 25.6782 21.9812 25.9209 22.4724 26.3948C22.9637 26.8686 23.2619 27.535 23.3017 28.2476Z" fill="#068FFF"/>
<path d="M19.7472 29.8205C19.6983 29.8224 19.6496 29.8124 19.6046 29.7912C19.5596 29.7701 19.5196 29.7384 19.4873 29.6983C19.3342 29.4977 19.2189 29.2663 19.148 29.0173C19.0771 28.7683 19.0521 28.5066 19.0742 28.2471C19.0964 27.9875 19.1654 27.7353 19.2773 27.5047C19.3891 27.2742 19.5417 27.0698 19.7262 26.9033C19.9107 26.7369 20.1235 26.6115 20.3526 26.5345C20.5817 26.4574 20.8224 26.4302 21.0612 26.4543C21.2999 26.4784 21.532 26.5534 21.7441 26.675C21.9562 26.7966 22.1441 26.9624 22.2973 27.163C22.324 27.1984 22.344 27.2392 22.3561 27.2831C22.3681 27.327 22.372 27.3731 22.3674 27.4186C22.3628 27.4641 22.3499 27.5082 22.3294 27.5483C22.3089 27.5883 22.2813 27.6235 22.2481 27.6517C22.1825 27.7094 22.0987 27.7369 22.0147 27.7283C21.9307 27.7198 21.8531 27.6758 21.7985 27.6059C21.6455 27.3838 21.43 27.2221 21.1848 27.1451C20.9396 27.0682 20.6779 27.0803 20.4396 27.1796C20.2013 27.2789 19.9992 27.46 19.8642 27.6954C19.7291 27.9309 19.6683 28.2077 19.691 28.4841C19.703 28.7658 19.802 29.0348 19.972 29.2478C20.0325 29.3136 20.0665 29.4029 20.0665 29.4959C20.0665 29.589 20.0325 29.6783 19.972 29.7441C19.9077 29.7975 19.8281 29.8246 19.7472 29.8205Z" fill="white"/>
<path d="M57.8935 64.4301C67.682 53.7895 67.682 36.5376 57.8935 25.897C48.105 15.2564 32.2348 15.2564 22.4463 25.897C12.6578 36.5376 12.6578 53.7895 22.4463 64.4301C32.2348 75.0708 48.105 75.0708 57.8935 64.4301Z" fill="#CFEDEC"/>
<path d="M57.8935 64.4301C67.682 53.7895 67.682 36.5376 57.8935 25.897C48.105 15.2564 32.2348 15.2564 22.4463 25.897C12.6578 36.5376 12.6578 53.7895 22.4463 64.4301C32.2348 75.0708 48.105 75.0708 57.8935 64.4301Z" fill="white"/>
<path d="M40.1685 20.206C44.7091 20.206 49.1477 21.6696 52.923 24.4118C56.6983 27.1541 59.6409 31.0517 61.3785 35.6118C63.1161 40.1719 63.5707 45.1898 62.6849 50.0308C61.7991 54.8718 59.6126 59.3185 56.4019 62.8087C53.1912 66.2989 49.1006 68.6757 44.6473 69.6386C40.194 70.6016 35.578 70.1074 31.383 68.2185C27.1881 66.3296 23.6026 63.1309 21.08 59.0269C18.5574 54.9229 17.211 50.0979 17.211 45.1621C17.2184 38.5458 19.6396 32.2028 23.9433 27.5244C28.2471 22.846 34.0821 20.2141 40.1685 20.206ZM40.1685 17.915C35.2111 17.915 30.3651 19.5131 26.2431 22.507C22.1212 25.5009 18.9086 29.7563 17.0115 34.7351C15.1144 39.7138 14.618 45.1923 15.5851 50.4777C16.5523 55.7631 18.9395 60.6181 22.4449 64.4286C25.9503 68.2392 30.4164 70.8342 35.2786 71.8856C40.1407 72.9369 45.1804 72.3973 49.7605 70.3351C54.3405 68.2728 58.2551 64.7805 61.0093 60.2997C63.7635 55.819 65.2335 50.551 65.2335 45.1621C65.2316 37.9363 62.5902 31.0071 57.8901 25.8977C53.1899 20.7884 46.8156 17.9171 40.1685 17.915Z" fill="#068FFF"/>
<path d="M40.1687 63.4746C36.8341 63.4746 33.5745 62.3997 30.8019 60.3858C28.0293 58.3719 25.8683 55.5096 24.5922 52.1606C23.3161 48.8117 22.9823 45.1266 23.6328 41.5714C24.2833 38.0162 25.8891 34.7505 28.247 32.1874C30.6049 29.6242 33.609 27.8787 36.8795 27.1715C40.15 26.4643 43.5399 26.8273 46.6207 28.2145C49.7014 29.6016 52.3346 31.9507 54.1871 34.9647C56.0397 37.9786 57.0286 41.5221 57.0286 45.147C57.0286 50.0077 55.2522 54.6694 52.0904 58.1065C48.9286 61.5436 44.6402 63.4746 40.1687 63.4746ZM40.1687 27.8426C37.0175 27.8426 33.9371 28.8584 31.317 30.7615C28.6969 32.6646 26.6548 35.3696 25.4489 38.5343C24.243 41.699 23.9275 45.1814 24.5423 48.5411C25.157 51.9008 26.6745 54.9868 28.9027 57.409C31.1309 59.8312 33.9698 61.4807 37.0604 62.149C40.151 62.8173 43.3545 62.4743 46.2658 61.1634C49.1771 59.8526 51.6654 57.6327 53.4161 54.7845C55.1668 51.9363 56.1013 48.5877 56.1013 45.1622C56.0957 40.5706 54.4153 36.1689 51.4286 32.9221C48.4418 29.6754 44.3926 27.8487 40.1687 27.8426Z" fill="#068FFF"/>
<path d="M1.25039 29.6526L1.44709 29.7366L1.21525 30.401L4.49591 31.7526L5.29674 29.4617L2.01611 28.11L1.77726 28.7897L1.58056 28.7057L2.831 25.1089L3.03471 25.1853L2.79586 25.8649L9.8208 28.7515L10.0596 28.0795L10.2563 28.1559L8.9989 31.7603L8.8022 31.6763L9.04104 30.9966L5.5918 29.5762L4.79094 31.8672L8.24019 33.2952L8.47203 32.6232L8.67573 32.7072L7.41828 36.2964L7.22159 36.2124L7.4534 35.5327L0.428463 32.6461L0.189617 33.3258L-0.00708008 33.2418L1.25039 29.6526Z" fill="#068FFF"/>
<path d="M5.95713 19.4883C7.36212 17.3119 9.26587 17.1286 11.3804 18.7246C13.4949 20.3206 14.085 22.3138 12.6027 24.6505C11.1205 26.9873 9.28695 27.1019 7.23567 25.5669C5.18439 24.032 4.52404 21.7487 5.95713 19.4883ZM9.77166 20.5803C7.86088 19.1523 6.87036 18.5032 6.10465 19.7174C5.33893 20.9316 6.2592 21.7639 8.17701 23.192L8.8795 23.696C10.6357 25.0094 11.6895 25.6356 12.4693 24.4596C13.249 23.2836 12.3709 22.5047 10.4952 21.1072L9.77166 20.5803Z" fill="#068FFF"/>
<path d="M16.3399 7.97998L16.4804 8.15562L16.0097 8.59854L20.9272 14.7077L21.3979 14.2648L21.5384 14.4405L18.9321 16.9071L18.7916 16.7238L19.2623 16.2809L14.6188 10.4848L18.1313 17.6707L17.0635 18.6864L10.741 14.1045L15.4056 19.9311L15.8763 19.4882L16.0168 19.6638L14.8296 20.8704L14.689 20.6948L15.1597 20.2442L10.2423 14.135L9.77159 14.5779L9.6311 14.4023L11.9353 12.2259L16.8949 15.9296L14.0849 10.1793L16.3399 7.97998Z" fill="#068FFF"/>
<path d="M23.2596 3.94043L24.4046 6.04047L24.222 6.14738C22.9786 5.03245 22.2761 4.81099 21.0608 5.50591L20.7095 5.70446L22.3393 9.06452L22.6765 8.87361C23.3298 8.49942 23.4633 7.65941 23.2315 6.73539L23.379 6.65139L24.9385 9.87399L24.7699 9.97327C24.0042 9.0187 23.4141 8.81252 22.7116 9.20962L22.4728 9.34707L24.1658 12.837L24.5451 12.6231C25.1117 12.2923 25.5589 11.763 25.8139 11.1212C26.069 10.4794 26.117 9.76266 25.9501 9.08743L26.1538 8.97288L27.2216 11.3937L21.7211 14.5323L21.6087 14.2879L22.1988 13.9519L18.7425 6.81175L18.1524 7.14776L18.04 6.91103L23.2596 3.94043Z" fill="#068FFF"/>
<path d="M33.0945 4.60474L33.235 5.5593C33.5582 7.79679 34.359 9.14082 35.5814 8.93463C36.4876 8.7819 37.0636 7.62879 37.457 5.94876L37.6607 5.91058L37.9769 8.63681H37.8574C37.7521 8.49172 37.6959 8.41535 37.5202 8.4459C36.8204 8.77413 36.0936 9.02982 35.3495 9.20955C32.9751 9.61428 31.3242 8.50699 30.9028 5.59748C30.4813 2.68797 31.816 0.832304 34.1061 0.442843C34.8071 0.372245 35.5126 0.372245 36.2136 0.442843C36.3963 0.442843 36.4244 0.320659 36.4806 0.14502H36.607L37.0777 2.76434H36.874C36.045 1.38213 35.2231 0.473388 34.2607 0.626119C33.1507 0.86285 32.7082 2.08469 33.0945 4.60474Z" fill="#068FFF"/>
<path d="M43.0487 0.20601V0.473288L41.8545 0.412195L41.5243 8.47634H41.9318C43.3367 8.54507 44.0041 7.46832 44.7417 6.00211H44.9806L44.6434 8.8658L38.6511 8.56798V8.29307L39.3185 8.33125L39.6557 0.267102H38.9883V-0.0078125L43.0487 0.20601Z" fill="#068FFF"/>
<path d="M52.6027 2.08496L52.1741 4.48282L51.9774 4.42936C51.7246 2.70351 51.3312 2.02387 50.0034 1.67259L49.6171 1.56567L48.7811 5.26174L49.1604 5.36102C49.8629 5.55193 50.4811 5.01737 50.8745 4.15445L51.0361 4.20027L50.2423 7.73597L50.0526 7.69015C50.0526 6.42249 49.7435 5.84212 48.9778 5.63593L48.7109 5.5672L47.8468 9.416L48.2613 9.53055C48.8903 9.69362 49.5516 9.62005 50.1373 9.32185C50.7229 9.02365 51.1983 8.51844 51.4857 7.8887L51.7035 7.94979L51.001 10.5309L44.9666 8.91963L45.0368 8.65235L45.6831 8.82035L47.4745 1.01585L46.8282 0.847844L46.8844 0.580566L52.6027 2.08496Z" fill="#068FFF"/>
<path d="M55.9817 9.77483L53.9585 8.72099L52.118 10.6988L52.8767 11.1036L52.7854 11.3098L51.2258 10.4927L51.3172 10.2865L51.8019 10.5385L57.7731 4.28418L58.609 4.71946L57.8012 13.6847L58.2718 13.9291L58.1805 14.1353L54.8718 12.3941L54.9701 12.1803L55.6726 12.5621L55.9817 9.77483ZM54.1693 8.52244L56.0098 9.49227L56.4102 6.12458L54.1693 8.52244Z" fill="#068FFF"/>
<path d="M63.1543 18.45L61.8969 17.3885L63.3721 8.52251L58.9745 14.6317L59.4662 15.0517L59.3328 15.235L58.1174 14.1888L58.2509 14.0055L58.7356 14.4255L63.3721 8.02614L62.8803 7.60613L63.0138 7.42285L65.4655 9.52289L64.2853 16.3957L67.6643 11.7222L67.1726 11.3098L67.3061 11.1266L68.5284 12.1651L68.3949 12.3484L67.9032 11.9284L63.1543 18.45Z" fill="#068FFF"/>
<path d="M71.9004 16.1281L71.7318 16.2885L71.3103 15.7845L65.7887 21.2828L66.2102 21.7868L66.0486 21.9395L63.7163 19.1751L63.8779 19.0224L64.2994 19.5188L69.835 13.9976L69.4135 13.4936L69.5681 13.3408L71.9004 16.1281Z" fill="#068FFF"/>
<path d="M69.8349 27.8961L68.9708 26.4529L72.975 18.5796L67.0249 22.8026L67.3692 23.3677L67.1865 23.4975L66.3435 22.0848L66.5191 21.9549L66.8634 22.5201L73.1366 18.068L72.7924 17.5029L72.975 17.373L74.6821 20.2138L71.542 26.323L76.1222 23.0775L75.778 22.5124L75.9606 22.3826L76.8036 23.7953L76.6491 23.9252L76.3049 23.3601L69.8349 27.8961Z" fill="#068FFF"/>
<path d="M72.926 33.1958L74.9772 32.3558L74.7244 31.5922L74.9562 31.4929L76.1012 34.8148L75.8694 34.9064L75.7149 34.4559L72.7293 35.6701L72.666 35.5021C72.738 35.4057 72.7824 35.2885 72.7936 35.1649C72.8049 35.0414 72.7825 34.917 72.7293 34.8071C72.2938 34.1096 71.8996 33.3827 71.5491 32.6307C70.7061 30.1947 71.3735 28.2092 73.9095 27.1783C76.4455 26.1473 78.3843 27.1783 79.1992 29.5609C79.4102 30.3288 79.556 31.1161 79.6348 31.9129C79.698 32.0962 79.7893 32.1114 79.9579 32.142L80.0001 32.2642L77.731 33.2951L77.6608 33.0889C78.6232 31.9587 79.3819 30.798 79.0306 29.7823C78.6443 28.6445 77.45 28.4154 75.2582 29.3089L74.4223 29.6525C72.2726 30.5231 71.4226 31.5693 71.7879 32.6307C72.0619 33.4631 72.3851 33.4173 72.926 33.1958Z" fill="#068FFF"/>
<path d="M71.3032 41.4126C71.1851 41.1904 71.0303 40.9936 70.8466 40.8323C70.6562 40.6752 70.4388 40.561 70.2073 40.4963C69.9793 40.4247 69.7398 40.4064 69.5048 40.4428C69.2751 40.4752 69.0532 40.5556 68.8515 40.6795C68.6453 40.8084 68.464 40.9796 68.3176 41.1835L65.62 45.0018L65.8238 43.6196L66.2523 40.7254L67.9383 29.5302C67.9929 29.1196 67.8968 28.7021 67.6708 28.3678C67.4447 28.0335 67.1068 27.8092 66.73 27.7433C66.5408 27.7095 66.3473 27.7168 66.1607 27.7646C65.9741 27.8124 65.7981 27.8999 65.6427 28.022C65.4873 28.1441 65.3556 28.2983 65.2553 28.4759C65.155 28.6535 65.0879 28.8509 65.0581 29.0568L63.4564 39.7021C63.4448 39.7749 63.421 39.8448 63.3861 39.9082C63.3319 39.9993 63.2547 40.0715 63.1638 40.1162C63.0729 40.1609 62.972 40.1762 62.8733 40.1603C62.7414 40.1341 62.6239 40.0535 62.5454 39.9354C62.4669 39.8173 62.4333 39.6708 62.4518 39.5264L64.3415 26.972C64.3943 26.6122 64.3317 26.2435 64.1641 25.9279C63.9966 25.6123 63.7343 25.3689 63.4213 25.2385C63.3287 25.198 63.232 25.1698 63.1332 25.1545C62.7514 25.0884 62.361 25.1896 62.0476 25.4358C61.7343 25.682 61.5234 26.0531 61.4613 26.468L59.5013 38.969C59.4929 39.0427 59.4688 39.1132 59.4311 39.1751C59.3979 39.2365 59.3522 39.2887 59.2976 39.3279C59.2686 39.3463 59.238 39.3616 59.2063 39.3737L59.122 39.4195C59.0545 39.4311 58.9858 39.4311 58.9183 39.4195C58.7841 39.3952 58.6644 39.314 58.5853 39.1937C58.5063 39.0734 58.4744 38.9239 58.4968 38.778L59.9509 29.1026C59.982 28.8969 59.9753 28.6866 59.9313 28.4838C59.8873 28.2809 59.8069 28.0895 59.6946 27.9206C59.5823 27.7517 59.4403 27.6086 59.277 27.4995C59.1136 27.3905 58.932 27.3176 58.7426 27.2851C58.5074 27.2441 58.2665 27.2665 58.0411 27.3504C57.8158 27.4343 57.6128 27.5771 57.4501 27.7662C57.2472 27.9941 57.1146 28.285 57.0707 28.5986L55.5744 38.274C55.5532 38.3786 55.5043 38.4741 55.4339 38.549C55.3816 38.6193 55.3131 38.6733 55.2354 38.7055C55.1576 38.7377 55.0734 38.7469 54.9913 38.7322C54.8938 38.7144 54.8031 38.6658 54.7307 38.5925C54.6583 38.5192 54.6072 38.4244 54.5839 38.3199C54.5697 38.2468 54.5697 38.1714 54.5839 38.0984L55.6587 30.9735C55.7033 30.6156 55.6343 30.2519 55.4632 29.9423C55.292 29.6328 55.029 29.3958 54.7173 29.2706C54.6248 29.2301 54.5281 29.2019 54.4293 29.1866C54.3312 29.1753 54.2324 29.1753 54.1343 29.1866C53.7945 29.1959 53.4683 29.3336 53.2118 29.5761C52.9554 29.8187 52.7848 30.1508 52.7293 30.5153L51.5772 38.1518L51.1487 41.0003L49.5119 51.8823L46.1188 65.88H46.1891C46.1305 65.8691 46.0704 65.8709 46.0125 65.8854C45.9545 65.8999 45.8998 65.9267 45.8514 65.9644C45.8031 66.002 45.7621 66.0497 45.7308 66.1047C45.6995 66.1597 45.6786 66.2209 45.6692 66.2847C45.6592 66.348 45.661 66.4128 45.6744 66.4753C45.6878 66.5379 45.7126 66.5968 45.7473 66.6488C45.782 66.7007 45.8259 66.7446 45.8764 66.7778C45.927 66.811 45.9831 66.8329 46.0415 66.8422L62.9646 69.851C63.0223 69.8665 63.0826 69.8665 63.1402 69.851C63.1963 69.8383 63.2491 69.8122 63.2948 69.7746C63.3438 69.7376 63.3854 69.69 63.4168 69.6349C63.4482 69.5797 63.4688 69.5181 63.4774 69.4539C63.4875 69.3912 63.486 69.3269 63.473 69.2648C63.4601 69.2027 63.4359 69.1441 63.4019 69.0922C63.3679 69.0404 63.3248 68.9963 63.2751 68.9627C63.2254 68.9291 63.17 68.9066 63.1122 68.8964H63.2948L64.187 54.4711L64.4047 53.0583L71.1627 43.5509C71.3786 43.2498 71.5072 42.8857 71.5322 42.505C71.5572 42.1242 71.4775 41.744 71.3032 41.4126Z" fill="#068FFF"/>
<path d="M64.9806 67.3766C64.9522 67.2453 64.8772 67.1315 64.7719 67.06C64.6667 66.9884 64.5397 66.965 64.4186 66.9948L64.6083 66.949L60.1615 52.5847L59.8524 51.1261L62.9083 38.9917C62.9731 38.7355 62.9907 38.4679 62.9601 38.2042C62.9295 37.9405 62.8512 37.6861 62.7298 37.4554C62.6083 37.2247 62.4462 37.0225 62.2525 36.8602C62.0589 36.6979 61.8377 36.5789 61.6016 36.5099H61.5665C61.3308 36.4391 61.0846 36.4195 60.8419 36.4523C60.5992 36.485 60.3649 36.5693 60.1522 36.7005C59.9395 36.8317 59.7527 37.0072 59.6024 37.2169C59.4522 37.4266 59.3414 37.6664 59.2764 37.9226L58.0611 42.7718L57.752 41.3438L57.1197 38.4037L54.6399 26.8344C54.5464 26.4069 54.3011 26.0369 53.9577 25.8052C53.6142 25.5734 53.2003 25.4987 52.8064 25.5973C52.6107 25.6458 52.4258 25.7361 52.2625 25.8628C52.0991 25.9895 51.9605 26.1502 51.8546 26.3356C51.7488 26.521 51.6778 26.7274 51.6458 26.9427C51.6139 27.1581 51.6215 27.3783 51.6684 27.5904L54.0217 38.5946C54.0384 38.6684 54.0414 38.745 54.0306 38.82C54.0198 38.895 53.9954 38.9669 53.9588 39.0316C53.9222 39.0963 53.8741 39.1524 53.8174 39.1967C53.7606 39.241 53.6964 39.2725 53.6283 39.2896C53.5605 39.3077 53.49 39.311 53.421 39.2993C53.352 39.2875 53.2858 39.261 53.2263 39.2212C53.1669 39.1814 53.1152 39.1291 53.0745 39.0675C53.0338 39.0058 53.0047 38.9359 52.989 38.8619L50.2142 25.8799C50.1636 25.6658 50.0744 25.4647 49.9516 25.2885C49.8288 25.1123 49.675 24.9644 49.4991 24.8535C49.3232 24.7427 49.1287 24.671 48.927 24.6426C48.7254 24.6143 48.5205 24.6299 48.3245 24.6886C48.1284 24.7331 47.9423 24.8192 47.7769 24.942C47.6114 25.0647 47.4698 25.2217 47.3602 25.404C47.2506 25.5862 47.1751 25.7902 47.1381 26.0042C47.101 26.2182 47.1031 26.438 47.1443 26.6512L49.9543 39.6332C49.971 39.7074 49.9741 39.7845 49.9634 39.86C49.9527 39.9356 49.9284 40.008 49.8918 40.0733C49.8553 40.1386 49.8072 40.1954 49.7504 40.2404C49.6936 40.2855 49.6292 40.3179 49.5609 40.3358C49.423 40.37 49.2783 40.3435 49.1584 40.2619C49.0386 40.1802 48.9534 40.0503 48.9216 39.9005L46.7439 29.8814C46.6984 29.6692 46.6148 29.4688 46.498 29.2917C46.3812 29.1147 46.2335 28.9644 46.0632 28.8495C45.8928 28.7346 45.7033 28.6573 45.5055 28.6221C45.3077 28.5869 45.1055 28.5944 44.9104 28.6443C44.5158 28.7443 44.1737 29.0102 43.9591 29.3837C43.7445 29.7573 43.6748 30.2081 43.7653 30.6374L45.9079 40.6336C45.9246 40.7073 45.9276 40.7839 45.9168 40.8589C45.906 40.934 45.8816 41.0059 45.845 41.0706C45.8084 41.1352 45.7603 41.1913 45.7036 41.2356C45.6469 41.2799 45.5826 41.3115 45.5145 41.3285C45.3776 41.363 45.2337 41.3375 45.1141 41.2574C44.9944 41.1774 44.9086 41.0493 44.8752 40.9009L43.3016 33.5393C43.2524 33.3253 43.1648 33.124 43.0437 32.947C42.9227 32.77 42.7706 32.6207 42.5963 32.5079C42.4219 32.395 42.2288 32.3208 42.0279 32.2894C41.8271 32.258 41.6225 32.2702 41.426 32.3251H41.3909C40.997 32.4285 40.6566 32.6966 40.4436 33.0712C40.2305 33.4458 40.162 33.8966 40.2528 34.3258L41.9529 42.2525L42.5781 45.1926L44.9947 56.4412L46.8492 71.4622H46.9265C46.8057 71.4931 46.701 71.5746 46.6352 71.689C46.5694 71.8034 46.5479 71.9415 46.5753 72.0731C46.5893 72.1379 46.615 72.1991 46.6509 72.2531C46.6868 72.3071 46.7322 72.3528 46.7845 72.3876C46.8367 72.4224 46.8948 72.4456 46.9554 72.4558C47.0159 72.4661 47.0777 72.4632 47.1373 72.4473L64.6223 68.0257C64.6861 68.0107 64.7464 67.9816 64.7994 67.9403C64.8524 67.8989 64.8971 67.8462 64.9306 67.7854C64.9642 67.7246 64.986 67.657 64.9946 67.5866C65.0031 67.5163 64.9984 67.4449 64.9806 67.3766Z" fill="white"/>
<path d="M47.039 72.7986C46.8535 72.8003 46.673 72.7331 46.5274 72.6081C46.3818 72.4831 46.2798 72.3079 46.2382 72.1113C46.1881 71.877 46.2234 71.6307 46.3365 71.424C46.3689 71.3709 46.404 71.3199 46.4419 71.2713L44.6154 56.4718L39.8806 34.4023C39.8244 34.141 39.8161 33.8703 39.8564 33.6055C39.8966 33.3408 39.9845 33.0873 40.115 32.8596C40.2455 32.6319 40.4161 32.4344 40.617 32.2784C40.8179 32.1225 41.0451 32.0112 41.2856 31.951C41.4349 31.9099 41.5883 31.8894 41.7422 31.8899C42.1669 31.8874 42.5795 32.0428 42.9118 32.3303C43.244 32.6178 43.4758 33.0202 43.5687 33.4706L45.1493 40.8246C45.1587 40.8677 45.1811 40.9061 45.213 40.9338C45.2448 40.9615 45.2842 40.9768 45.3249 40.9773C45.4725 40.9773 45.5357 40.8399 45.5146 40.7329L43.372 30.7368C43.3154 30.4782 43.3067 30.21 43.3465 29.9478C43.3863 29.6855 43.4738 29.4345 43.6038 29.2095C43.8686 28.7495 44.2906 28.4226 44.777 28.3007C44.9268 28.2629 45.0799 28.2425 45.2336 28.2396C45.6576 28.2399 46.069 28.3964 46.4007 28.6834C46.7324 28.9705 46.9648 29.3713 47.0601 29.8204L49.2519 39.7936C49.2613 39.8368 49.2837 39.8752 49.3155 39.9029C49.3473 39.9306 49.3868 39.9459 49.4275 39.9464C49.5259 39.9464 49.568 39.8929 49.5891 39.8471C49.5996 39.8246 49.605 39.7998 49.605 39.7746C49.605 39.7493 49.5996 39.7245 49.5891 39.702L46.7791 26.72C46.6675 26.1924 46.7526 25.6383 47.016 25.1789C47.2793 24.7195 47.6993 24.3922 48.1841 24.2686C48.3334 24.2276 48.4868 24.2071 48.6407 24.2075C49.0654 24.2051 49.478 24.3605 49.8102 24.648C50.1425 24.9355 50.3743 25.3379 50.4672 25.7883L53.2772 38.7704C53.2866 38.8135 53.309 38.8519 53.3408 38.8796C53.3726 38.9073 53.4121 38.9226 53.4528 38.9231C53.5512 38.9231 53.5933 38.8773 53.6144 38.8314C53.6245 38.8075 53.6297 38.7814 53.6297 38.7551C53.6297 38.7287 53.6245 38.7027 53.6144 38.6787L51.2891 27.6669C51.1775 27.1394 51.2627 26.5853 51.526 26.1259C51.7893 25.6664 52.2093 25.3391 52.6941 25.2156C52.8439 25.1778 52.997 25.1573 53.1507 25.1545C53.5754 25.152 53.988 25.3074 54.3202 25.5949C54.6525 25.8825 54.8843 26.2848 54.9772 26.7352L58.0752 41.1988L58.9322 37.8082C59.0619 37.306 59.3369 36.8625 59.7164 36.5434C60.096 36.2244 60.56 36.0466 61.0397 36.0365C61.2366 36.0376 61.4325 36.0659 61.6228 36.1205C61.9156 36.197 62.1911 36.3373 62.4326 36.5329C62.6741 36.7285 62.8765 36.9753 63.0278 37.2583C63.1726 37.5335 63.2658 37.8372 63.302 38.1518C63.3382 38.4664 63.3166 38.7856 63.2385 39.0911L60.2038 51.1262L60.4918 52.4855L64.8894 66.6894C64.9952 66.7495 65.0878 66.8339 65.1606 66.9367C65.2333 67.0396 65.2846 67.1585 65.3109 67.2851C65.3605 67.5169 65.3253 67.7606 65.2125 67.9647C65.1553 68.0643 65.0805 68.1506 64.9925 68.2188C64.9045 68.2869 64.805 68.3355 64.6997 68.3618L47.2217 72.7986C47.161 72.8065 47.0997 72.8065 47.039 72.7986ZM47.039 71.7753C47.0234 71.7778 47.0085 71.7839 46.9951 71.7931C46.9818 71.8023 46.9705 71.8145 46.9617 71.8288C46.9525 71.8611 46.9525 71.8957 46.9617 71.9281C46.9643 71.9452 46.97 71.9617 46.9785 71.9764C46.987 71.9911 46.9981 72.0039 47.0112 72.0138C47.0243 72.0238 47.0391 72.0308 47.0547 72.0344C47.0704 72.0381 47.0865 72.0383 47.1023 72.035L64.5873 67.6058C64.6163 67.5955 64.6412 67.5747 64.6578 67.5469C64.6744 67.5192 64.6818 67.486 64.6786 67.4531C64.6738 67.422 64.6594 67.3936 64.6376 67.3728C64.6159 67.3519 64.5882 67.3398 64.5592 67.3385L64.489 66.9872L64.3344 67.0407L59.8947 52.6764L59.5504 51.088L62.6344 38.8696C62.7208 38.4466 62.6506 38.0035 62.439 37.6363C62.2274 37.269 61.8913 37.0071 61.5034 36.9071C61.3614 36.8644 61.2151 36.8413 61.0678 36.8383C60.7362 36.838 60.4138 36.9569 60.1507 37.1765C59.8877 37.3961 59.6989 37.7041 59.6137 38.0525L58.026 44.345L54.2958 26.9491C54.2162 26.623 54.0229 26.3434 53.757 26.1695C53.491 25.9957 53.1732 25.9412 52.8709 26.0176C52.5686 26.0941 52.3056 26.2954 52.1375 26.579C51.9695 26.8627 51.9096 27.2063 51.9705 27.5371L54.3309 38.5413C54.3631 38.6699 54.3697 38.8046 54.3504 38.9363C54.331 39.0679 54.286 39.1936 54.2185 39.3049C54.1576 39.4119 54.0778 39.5048 53.9838 39.5782C53.8898 39.6516 53.7833 39.7041 53.6706 39.7326C53.5565 39.7677 53.437 39.7767 53.3195 39.7591C53.2021 39.7414 53.0893 39.6975 52.9883 39.63C52.8873 39.5625 52.8002 39.473 52.7326 39.3671C52.6651 39.2612 52.6185 39.1412 52.5958 39.0147L49.8209 26.0327C49.7413 25.7066 49.548 25.427 49.2821 25.2531C49.0161 25.0793 48.6983 25.0248 48.396 25.1012C48.0938 25.1777 47.8307 25.379 47.6627 25.6627C47.4946 25.9463 47.4347 26.2899 47.4956 26.6207L50.3056 39.6027C50.3328 39.7257 50.3368 39.8533 50.3175 39.9779C50.2982 40.1026 50.2559 40.2217 50.1932 40.3282C50.1346 40.4373 50.0555 40.5317 49.9611 40.6054C49.8667 40.679 49.7591 40.7303 49.6453 40.7559C49.5248 40.7961 49.3975 40.8068 49.2728 40.787C49.148 40.7672 49.0288 40.7175 48.9239 40.6415C48.819 40.5654 48.731 40.465 48.6662 40.3474C48.6014 40.2298 48.5615 40.0981 48.5494 39.9617L46.3998 29.9655C46.3278 29.6377 46.1402 29.3538 45.8773 29.1751C45.6144 28.9965 45.2974 28.9375 44.9948 29.0109C44.8397 29.0468 44.6927 29.116 44.5624 29.2143C44.4322 29.3126 44.3212 29.4382 44.2361 29.5837C44.1533 29.7265 44.0977 29.8858 44.0723 30.0524C44.047 30.2189 44.0525 30.3893 44.0885 30.5535L46.2312 40.5497C46.2838 40.7977 46.2439 41.0584 46.1201 41.2745C45.9963 41.4906 45.7988 41.6446 45.5708 41.7028C45.4572 41.7379 45.3381 41.7469 45.2211 41.7292C45.1041 41.7114 44.9918 41.6674 44.8913 41.5999C44.7908 41.5323 44.7044 41.4428 44.6375 41.3369C44.5707 41.231 44.5249 41.1111 44.503 40.9849L42.9294 33.631C42.8577 33.2968 42.6668 33.0073 42.3987 32.8261C42.1306 32.645 41.8073 32.587 41.4999 32.665C41.1924 32.743 40.9261 32.9505 40.7595 33.2419C40.5928 33.5334 40.5395 33.8848 40.6112 34.219L45.346 56.3649L47.2076 71.424H46.9477L47.039 71.7753Z" fill="#068FFF"/>
<path d="M46.3364 34.502H41.0536L37.6536 38.8242C37.0029 39.6541 36.5592 40.6516 36.3649 41.7213C36.1705 42.791 36.2321 43.897 36.5436 44.9334L36.5858 45.0785C37.1055 46.8052 37.1832 48.653 36.8106 50.4241V50.5081C35.9666 54.4929 35.5401 58.5687 35.5391 62.6577V70.8899C35.5391 71.295 35.6871 71.6834 35.9506 71.9699C36.2141 72.2563 36.5714 72.4172 36.9441 72.4172H50.5022C50.8748 72.4172 51.2322 72.2563 51.4957 71.9699C51.7591 71.6834 51.9072 71.295 51.9072 70.8899V62.673C51.9094 58.5838 51.4828 54.5075 50.6356 50.5233V50.4393C50.2568 48.6694 50.3321 46.8204 50.8534 45.0938L50.8956 44.9487C51.2071 43.9123 51.2686 42.8063 51.0743 41.7366C50.88 40.6669 50.4362 39.6693 49.7856 38.8395L46.3364 34.502Z" fill="white"/>
<path d="M45.6901 36.0293L48.6687 39.8475C49.1635 40.4795 49.5009 41.2389 49.6485 42.0532C49.7961 42.8675 49.749 43.7093 49.5117 44.4981L49.4695 44.6509C48.8702 46.6416 48.7827 48.7726 49.2166 50.8135V50.8975C50.0382 54.7694 50.453 58.73 50.453 62.7036V70.9128H36.923V62.673C36.923 58.6995 37.3377 54.7388 38.1594 50.867V50.783C38.591 48.7414 38.5011 46.6104 37.8994 44.6203L37.8573 44.4676C37.622 43.6785 37.5759 42.8372 37.7234 42.0233C37.8709 41.2095 38.2072 40.45 38.7003 39.817L41.6789 35.9987L45.6901 36.0293ZM46.3364 34.502H41.0536L37.6536 38.8242C37.0029 39.6541 36.5592 40.6516 36.3649 41.7213C36.1705 42.791 36.2321 43.897 36.5436 44.9334L36.5858 45.0785C37.1055 46.8052 37.1832 48.653 36.8106 50.4241V50.5081C35.9666 54.4929 35.5401 58.5687 35.5391 62.6577V70.8899C35.5391 71.295 35.6871 71.6834 35.9506 71.9699C36.2141 72.2563 36.5714 72.4172 36.9441 72.4172H50.5022C50.8748 72.4172 51.2322 72.2563 51.4957 71.9699C51.7591 71.6834 51.9072 71.295 51.9072 70.8899V62.673C51.9094 58.5838 51.4828 54.5075 50.6356 50.5233V50.4393C50.2568 48.6694 50.3321 46.8204 50.8534 45.0938L50.8956 44.9487C51.2071 43.9123 51.2686 42.8063 51.0743 41.7366C50.88 40.6669 50.4362 39.6693 49.7856 38.8395L46.3856 34.5172L46.3364 34.502Z" fill="#068FFF"/>
<path d="M48.5493 50.4008H38.7847C39.438 48.3765 39.438 46.1708 38.7847 44.1465H48.5493C47.896 46.1708 47.896 48.3765 48.5493 50.4008Z" fill="#068FFF"/>
<path d="M45.6059 31.9891L43.6951 31.4316L41.8265 31.9891C41.6072 32.0497 41.4126 32.1874 41.2728 32.3808C41.1331 32.5742 41.056 32.8123 41.0537 33.0582V34.5015H46.3857V33.0888C46.3892 32.8366 46.3141 32.5906 46.1725 32.3909C46.0308 32.1912 45.8311 32.0495 45.6059 31.9891Z" fill="#068FFF"/>
<path d="M45.3951 29.4385H42.0513V31.9127H45.3951V29.4385Z" fill="#068FFF"/>
<path d="M45.4865 28.3848H41.9599C41.7698 28.3848 41.6157 28.5523 41.6157 28.759V29.0644C41.6157 29.2711 41.7698 29.4386 41.9599 29.4386H45.4865C45.6766 29.4386 45.8307 29.2711 45.8307 29.0644V28.759C45.8307 28.5523 45.6766 28.3848 45.4865 28.3848Z" fill="#068FFF"/>
<path d="M5.21245 45.1623C5.21245 45.5293 5.11234 45.8881 4.92477 46.1933C4.7372 46.4984 4.47057 46.7363 4.15865 46.8767C3.84672 47.0172 3.50351 47.0539 3.17237 46.9823C2.84124 46.9107 2.53706 46.734 2.29833 46.4745C2.05959 46.2149 1.89701 45.8843 1.83114 45.5243C1.76528 45.1644 1.79908 44.7913 1.92828 44.4522C2.05748 44.1131 2.27628 43.8233 2.557 43.6194C2.83773 43.4155 3.16777 43.3066 3.5054 43.3066C3.95814 43.3066 4.39233 43.5021 4.71246 43.8502C5.0326 44.1982 5.21245 44.6702 5.21245 45.1623Z" fill="#068FFF"/>
<path d="M75.1248 45.1623C75.1248 45.5293 75.2249 45.8881 75.4125 46.1933C75.6 46.4984 75.8666 46.7363 76.1786 46.8767C76.4905 47.0172 76.8337 47.0539 77.1649 46.9823C77.496 46.9107 77.8002 46.734 78.0389 46.4745C78.2776 46.2149 78.4402 45.8843 78.5061 45.5243C78.572 45.1644 78.5382 44.7913 78.4089 44.4522C78.2797 44.1131 78.0609 43.8233 77.7802 43.6194C77.4995 43.4155 77.1695 43.3066 76.8318 43.3066C76.3791 43.3066 75.9449 43.5021 75.6247 43.8502C75.3046 44.1982 75.1248 44.6702 75.1248 45.1623Z" fill="#068FFF"/>
<path d="M22.4656 67.3462C21.3979 67.7967 18.8337 69.0644 17.8081 69.5913L21.0466 74.0892L22.1214 80.0075C23.0136 79.4806 24.6715 78.526 25.676 78.0984L22.4656 67.3462Z" fill="#068FFF"/>
<path d="M60.7517 67.3462C61.8195 67.7967 64.3836 69.0644 65.4092 69.5913L62.1707 74.0892L61.0959 80.0075C59.9424 79.3044 58.7559 78.6671 57.5413 78.0984L60.7517 67.3462Z" fill="#068FFF"/>
<path d="M41.6086 61.6115C34.5606 61.5757 27.5779 63.0793 21.0747 66.0331L24.4467 76.7242C29.603 74.2499 36.3891 73.1426 41.6086 73.1426C46.8281 73.1426 53.6774 74.0743 58.8408 76.5103L62.1425 66.0331C55.6397 63.0779 48.6567 61.5743 41.6086 61.6115Z" fill="#068FFF"/>
<path d="M23.4141 67.6138L24.6434 67.125C25.0049 66.9398 25.4192 66.9178 25.7955 67.0639C26.1026 67.3026 26.3177 67.6561 26.3997 68.0567L26.4418 68.1941C26.5356 68.4865 26.5854 68.7933 26.5893 69.1029C26.5473 69.3196 26.4608 69.5232 26.3364 69.6985C26.8081 69.9945 27.1744 70.4545 27.3761 71.0044L27.4183 71.1342C27.5831 71.5961 27.6221 72.0998 27.5307 72.5851C27.4669 72.7739 27.361 72.9425 27.2224 73.0758C27.0838 73.2091 26.917 73.3029 26.7369 73.3488C26.2662 73.5244 26.0344 73.6237 25.5567 73.8146L23.4141 67.6138ZM25.6269 68.3774C25.4934 67.9574 25.3389 67.7436 25.1633 67.7207C25.0424 67.7175 24.9224 67.7436 24.812 67.797L24.4186 67.9421C24.6785 68.744 24.812 69.1411 25.079 69.9429L25.5075 69.7749C25.6195 69.7446 25.7216 69.6811 25.8025 69.5916C25.8556 69.4925 25.8731 69.3756 25.8517 69.2632C25.8166 69.0286 25.7601 68.7984 25.6831 68.576L25.6269 68.3774ZM26.6034 71.1876C26.5305 70.8949 26.4064 70.6201 26.2381 70.3782C26.1774 70.3103 26.0986 70.2649 26.0129 70.2485C25.9271 70.232 25.8388 70.2453 25.7604 70.2865L25.2546 70.4774C25.5848 71.4702 25.7463 71.9589 26.0695 72.9517L26.5121 72.776C26.5988 72.7551 26.6776 72.7059 26.7379 72.6349C26.7982 72.5639 26.837 72.4746 26.8492 72.3789C26.8451 72.046 26.7832 71.717 26.6666 71.4091L26.6034 71.1876Z" fill="white"/>
<path d="M27.0601 66.2851C27.889 66.0178 28.3035 65.8956 29.1675 65.6665C29.2237 65.9185 29.2518 66.0483 29.3151 66.2927C28.8093 66.4302 28.5634 66.4989 28.0646 66.6516C28.2824 67.5222 28.3948 67.9575 28.6196 68.828L29.7506 68.4996C29.8068 68.7517 29.8349 68.8815 29.8981 69.1258L28.7741 69.4466C29.013 70.3782 29.1324 70.8441 29.3642 71.7375C29.8209 71.6001 30.0667 71.539 30.5093 71.4168L30.6568 72.043C29.9122 72.2415 29.5399 72.3484 28.8093 72.5852L27.0601 66.2851Z" fill="white"/>
<path d="M30.4601 67.453C30.3713 67.2869 30.3073 67.1065 30.2704 66.9185C30.1687 66.5291 30.1834 66.1145 30.3126 65.7348C30.4167 65.546 30.561 65.387 30.7333 65.2714C30.9057 65.1558 31.1011 65.0869 31.3031 65.0705C31.5643 64.9671 31.8522 64.9778 32.1063 65.1003C32.3604 65.2227 32.561 65.4474 32.6659 65.7272C32.7745 66.0412 32.8545 66.366 32.9048 66.697C32.9048 66.8574 32.9048 66.9338 32.968 67.0865C32.6589 67.1399 32.5114 67.1705 32.2023 67.2392C32.2023 67.0636 32.1601 66.9796 32.125 66.8039C32.091 66.522 32.02 66.2469 31.9143 65.9868C31.8666 65.881 31.7907 65.7932 31.6965 65.7348C31.6069 65.7074 31.5121 65.7074 31.4225 65.7348C31.3396 65.7429 31.2602 65.7747 31.1924 65.8271C31.1245 65.8794 31.0706 65.9503 31.0362 66.0327C30.9782 66.2366 30.9782 66.4549 31.0362 66.6588C31.0594 66.8637 31.1404 67.0558 31.268 67.2087C31.3749 67.3192 31.4927 67.4165 31.6192 67.4989L31.837 67.644L32.3779 68.0105C32.6687 68.1893 32.92 68.435 33.1141 68.7305C33.3083 69.026 33.4407 69.3641 33.5019 69.7211C33.5985 70.1626 33.5839 70.6242 33.4597 71.0575C33.3773 71.2366 33.2539 71.3897 33.1014 71.502C32.9488 71.6143 32.7723 71.6821 32.5887 71.6989C32.3599 71.7759 32.1139 71.7665 31.8907 71.6722C31.6675 71.578 31.4802 71.4044 31.3593 71.1797C31.1839 70.8361 31.0583 70.4652 30.987 70.08L30.8535 69.4538L31.5981 69.2705L31.7246 69.9273C31.7715 70.264 31.8713 70.5895 32.0196 70.8895C32.0625 70.9673 32.1274 71.028 32.2047 71.0625C32.2819 71.0969 32.3673 71.1032 32.4482 71.0804C32.5173 71.0737 32.5843 71.0512 32.6448 71.0143C32.7054 70.9775 32.758 70.9271 32.7994 70.8666C32.8556 70.7355 32.8728 70.5887 32.8486 70.4466C32.8486 70.2633 32.7924 70.0647 32.7573 69.8356C32.7038 69.5917 32.6019 69.3635 32.4587 69.1669C32.3155 68.9703 32.1345 68.8102 31.9283 68.6978L31.4155 68.3771C31.0312 68.1604 30.7028 67.8427 30.4601 67.453Z" fill="white"/>
<path d="M33.1367 64.765C34.071 64.597 34.5417 64.5206 35.476 64.3984C35.476 64.6581 35.5182 64.7879 35.5533 65.0399L34.8508 65.1392C35.1388 67.4989 35.2864 68.6825 35.5533 71.0422L34.8157 71.1567C34.4925 68.8047 34.331 67.621 34.0008 65.269L33.228 65.3988L33.1367 64.765Z" fill="white"/>
<path d="M38.2438 65.9259C38.1959 65.6526 38.2012 65.3715 38.2593 65.1005C38.3173 64.8296 38.4269 64.5749 38.581 64.3528C38.8551 64.0994 39.2048 63.9636 39.5645 63.971C39.8116 63.9198 40.0673 63.9596 40.2912 64.084C40.5151 64.2085 40.6945 64.4106 40.8009 64.6582C40.9247 65.0248 40.9842 65.4133 40.9765 65.8037V68.7209C41.0181 69.2469 40.9257 69.7753 40.7096 70.2482C40.6062 70.4328 40.4474 70.5731 40.26 70.6453C40.4918 70.9049 40.6042 71.0347 40.822 71.302L40.4707 71.6609C40.1406 71.2944 39.972 71.1111 39.6277 70.7522C39.4593 70.7613 39.2914 70.7257 39.1384 70.6486C38.9854 70.5714 38.852 70.455 38.7496 70.3092C38.5086 69.868 38.3823 69.3639 38.3843 68.8507L38.2438 65.9259ZM40.1616 65.7808C40.1679 65.4766 40.1227 65.1737 40.0282 64.8873C39.9885 64.8001 39.924 64.7292 39.8443 64.6852C39.7645 64.6411 39.6737 64.6263 39.5856 64.643C39.4925 64.6366 39.3998 64.6608 39.3196 64.7126C39.2394 64.7644 39.1754 64.8412 39.136 64.9331C39.0469 65.2204 39.0181 65.5257 39.0517 65.8266L39.1922 68.7896C39.1882 69.1348 39.2381 69.4782 39.3397 69.8052C39.3763 69.8904 39.4368 69.9608 39.5126 70.0061C39.5884 70.0514 39.6755 70.0693 39.7612 70.0572C39.8479 70.0626 39.9338 70.0372 40.006 69.9848C40.0782 69.9325 40.1328 69.8561 40.1616 69.7671C40.2403 69.4331 40.2665 69.0872 40.2389 68.7438C40.2038 67.5525 40.1897 66.9568 40.1616 65.7732V65.7808Z" fill="white"/>
<path d="M43.9832 64.0626L44.8192 64.1084L44.5382 69.011C44.5432 69.4828 44.4185 69.9456 44.1799 70.3398C44.0559 70.4816 43.9028 70.5895 43.7331 70.6546C43.5633 70.7196 43.3818 70.74 43.2034 70.7139C43.0217 70.7269 42.8396 70.6928 42.6724 70.6145C42.5051 70.5362 42.3572 70.4159 42.241 70.2634C42.0237 69.8543 41.928 69.3822 41.967 68.9117L42.0021 64.0015H42.8381L42.7327 68.8888C42.7034 69.1424 42.7034 69.3989 42.7327 69.6525C42.7618 69.7247 42.7971 69.7937 42.8381 69.8587C42.8826 69.9108 42.9372 69.9515 42.998 69.9779C43.0587 70.0043 43.1241 70.0157 43.1894 70.0114C43.2575 70.0209 43.3268 70.0127 43.3915 69.9874C43.4563 69.9622 43.5146 69.9207 43.5617 69.8663C43.6554 69.7351 43.7072 69.5742 43.7092 69.4081C43.7092 69.2019 43.7092 69.0339 43.7092 68.9041C43.8567 66.995 43.8989 66.0175 43.9832 64.0626Z" fill="white"/>
<path d="M46.7089 64.2764L47.7205 64.3986C47.8961 67.079 47.9594 68.423 48.0296 71.0958L47.3271 70.9965V69.7212C46.8564 69.6601 46.6246 69.6296 46.161 69.5837L45.88 70.8209L45.1775 70.7521C45.7395 68.1557 46.0416 66.8575 46.7089 64.2764ZM46.2804 68.9652L47.2779 69.0874C47.2288 67.6746 47.1936 66.9644 47.1164 65.5517C46.7581 66.911 46.5965 67.5982 46.2804 68.9805V68.9652Z" fill="white"/>
<path d="M49.7367 64.7041L50.5656 64.8568L49.6172 70.7217C50.0809 70.8133 50.3197 70.8591 50.7764 70.966L50.6569 71.5922C49.9123 71.4242 49.5329 71.3555 48.7812 71.2257C49.1606 68.614 49.3503 67.3081 49.7367 64.7041Z" fill="white"/>
<path d="M52.6518 65.3076L53.4737 65.5062C52.9187 68.0797 52.6377 69.3244 52.0687 71.9361L51.3662 71.7528L52.6518 65.3076Z" fill="white"/>
<path d="M54.2254 65.7046C55.1457 65.9642 55.6304 66.1017 56.5155 66.3995C56.4453 66.6439 56.4172 66.7737 56.3469 67.0181L55.6444 66.789C55.0333 69.0799 54.7312 70.2254 54.1271 72.5163C53.8461 72.4247 53.6985 72.3865 53.4246 72.3025C53.9936 70.0116 54.2816 68.8508 54.8295 66.5522L54.0708 66.3308C54.1692 66.0864 54.1692 65.926 54.2254 65.7046Z" fill="white"/>
<path d="M59.0235 67.3005L59.8103 67.6136C58.869 68.8659 58.4053 69.4998 57.5413 70.7904C57.1971 71.8366 57.0285 72.3635 56.6913 73.402L55.9888 73.1424L56.7966 70.5078C56.7966 68.8965 56.7966 68.087 56.7123 66.4604L57.4991 66.7354C57.4991 67.8732 57.4991 68.4459 57.4991 69.5838C58.1033 68.6674 58.3843 68.2168 59.0235 67.3005Z" fill="white"/>
<path d="M18.7916 55.479C18.793 56.0596 18.6358 56.6276 18.3399 57.111C18.044 57.5944 17.6228 57.9715 17.1296 58.1944C16.6364 58.4172 16.0934 58.476 15.5695 58.3631C15.0456 58.2502 14.5643 57.9707 14.1866 57.5602C13.8089 57.1496 13.5518 56.6264 13.448 56.0568C13.3441 55.4873 13.3981 54.8971 13.6032 54.3609C13.8082 53.8248 14.155 53.3669 14.5997 53.0452C15.0444 52.7236 15.5669 52.5527 16.1011 52.5542C16.8146 52.5542 17.499 52.8624 18.0036 53.4109C18.5082 53.9594 18.7916 54.7033 18.7916 55.479Z" fill="#068FFF"/>
<path d="M14.612 57.0446C14.5656 57.0449 14.5198 57.0333 14.4783 57.0107C14.4368 56.9882 14.4007 56.9553 14.3731 56.9147C14.2034 56.664 14.0807 56.3794 14.0122 56.0772C13.9436 55.775 13.9305 55.461 13.9735 55.1532C14.0166 54.8455 14.115 54.55 14.2631 54.2835C14.4112 54.0171 14.6061 53.785 14.8368 53.6005C15.0674 53.416 15.3292 53.2826 15.6073 53.2081C15.8853 53.1336 16.1741 53.1193 16.4572 53.1661C16.7403 53.2129 17.0122 53.3199 17.2573 53.4809C17.5023 53.6419 17.7159 53.8538 17.8856 54.1045C17.9082 54.1391 17.9243 54.1782 17.933 54.2196C17.9417 54.2609 17.9428 54.3038 17.9363 54.3456C17.9298 54.3874 17.9157 54.4275 17.895 54.4634C17.8742 54.4994 17.8472 54.5305 17.8153 54.5551C17.7835 54.5796 17.7476 54.5972 17.7095 54.6066C17.6715 54.6161 17.6321 54.6173 17.5936 54.6102C17.5551 54.6031 17.5183 54.5878 17.4852 54.5653C17.4521 54.5427 17.4235 54.5133 17.4009 54.4787C17.2076 54.181 16.9318 53.9581 16.6138 53.8426C16.2959 53.7272 15.9523 53.7251 15.6331 53.8368C15.314 53.9484 15.036 54.168 14.8397 54.4634C14.6434 54.7588 14.539 55.1147 14.5417 55.4791C14.5412 55.8569 14.6547 56.2244 14.8649 56.5253C14.8885 56.5588 14.9058 56.5971 14.9157 56.638C14.9257 56.6788 14.9281 56.7214 14.9229 56.7633C14.9177 56.8051 14.9049 56.8455 14.8853 56.8819C14.8657 56.9184 14.8397 56.9503 14.8087 56.9758C14.7817 57.0009 14.7505 57.0199 14.7167 57.0317C14.6829 57.0435 14.6473 57.0479 14.612 57.0446Z" fill="white"/>
<path d="M33.7409 63.3142L32.7996 64.2993C32.526 64.5858 32.1609 64.7459 31.781 64.7459C31.401 64.7459 31.0359 64.5858 30.7623 64.2993L30.39 63.9098C30.1164 63.6233 29.7513 63.4632 29.3714 63.4632C28.9915 63.4632 28.6264 63.6233 28.3528 63.9098L27.9805 64.2993C27.7069 64.5858 27.3417 64.7459 26.9618 64.7459C26.5819 64.7459 26.2168 64.5858 25.9432 64.2993L25.5709 63.9098C25.2973 63.6233 24.9322 63.4632 24.5523 63.4632C24.1724 63.4632 23.8073 63.6233 23.5337 63.9098L23.1613 64.2993C22.8877 64.5858 22.5226 64.7459 22.1427 64.7459C21.7628 64.7459 21.3977 64.5858 21.1241 64.2993L20.7518 63.9098C20.4782 63.6233 20.1131 63.4632 19.7332 63.4632C19.3533 63.4632 18.9882 63.6233 18.7146 63.9098L18.3422 64.2993C18.0686 64.5858 17.7035 64.7459 17.3236 64.7459C16.9437 64.7459 16.5786 64.5858 16.305 64.2993L15.3637 63.3142C15.2211 63.1649 15.1077 62.9857 15.0305 62.7876C14.9532 62.5894 14.9136 62.3763 14.9141 62.1611V56.1206H34.1905V62.1611C34.191 62.3763 34.1514 62.5894 34.0741 62.7876C33.9968 62.9857 33.8835 63.1649 33.7409 63.3142Z" fill="white"/>
<path d="M33.3545 57.0293V62.1611C33.3547 62.3496 33.2865 62.5307 33.1649 62.6651L32.2235 63.6349C32.1655 63.6982 32.0965 63.7484 32.0205 63.7826C31.9446 63.8169 31.8632 63.8345 31.781 63.8345C31.6987 63.8345 31.6173 63.8169 31.5414 63.7826C31.4654 63.7484 31.3965 63.6982 31.3384 63.6349L30.9661 63.2531C30.5387 62.8024 29.9668 62.5504 29.3714 62.5504C28.776 62.5504 28.204 62.8024 27.7767 63.2531L27.4044 63.6349C27.3465 63.6983 27.2775 63.7486 27.2015 63.7827C27.1255 63.8168 27.044 63.834 26.9618 63.8335C26.8797 63.8336 26.7983 63.8161 26.7224 63.7821C26.6464 63.748 26.5774 63.698 26.5193 63.6349L26.1469 63.2531C25.7196 62.8024 25.1477 62.5504 24.5523 62.5504C23.9569 62.5504 23.3849 62.8024 22.9576 63.2531L22.5853 63.6349C22.5274 63.6983 22.4584 63.7486 22.3824 63.7827C22.3064 63.8168 22.2249 63.834 22.1427 63.8335C22.0606 63.8336 21.9792 63.8161 21.9033 63.7821C21.8273 63.748 21.7583 63.698 21.7002 63.6349L21.3349 63.2531C20.9058 62.8006 20.331 62.5485 19.7332 62.5505C19.1372 62.5472 18.5642 62.7997 18.1385 63.2531L17.7662 63.6349C17.7083 63.6983 17.6393 63.7486 17.5633 63.7827C17.4873 63.8168 17.4058 63.834 17.3236 63.8335C17.2415 63.8336 17.1601 63.8161 17.0842 63.7821C17.0082 63.748 16.9392 63.698 16.8811 63.6349L15.9467 62.6574C15.8843 62.5923 15.8346 62.514 15.8008 62.4274C15.767 62.3408 15.7497 62.2475 15.75 62.1534V57.0217L33.3545 57.0293ZM34.1905 56.1206H14.9141V62.1611C14.9136 62.3763 14.9532 62.5894 15.0305 62.7876C15.1077 62.9857 15.2211 63.1649 15.3637 63.3142L16.305 64.2993C16.5791 64.5845 16.9442 64.7432 17.3236 64.7422C17.7035 64.7456 18.0693 64.5865 18.3422 64.2993L18.7146 63.9098C18.989 63.6251 19.3538 63.4662 19.7332 63.4662C20.1126 63.4662 20.4774 63.6251 20.7518 63.9098L21.1241 64.2993C21.3985 64.5841 21.7633 64.7429 22.1427 64.7429C22.5221 64.7429 22.8869 64.5841 23.1613 64.2993L23.5337 63.9098C23.8081 63.6251 24.1729 63.4662 24.5523 63.4662C24.9317 63.4662 25.2965 63.6251 25.5709 63.9098L25.9432 64.2993C26.2177 64.5841 26.5824 64.7429 26.9618 64.7429C27.3412 64.7429 27.706 64.5841 27.9805 64.2993L28.3528 63.9098C28.6272 63.6251 28.992 63.4662 29.3714 63.4662C29.7508 63.4662 30.1156 63.6251 30.39 63.9098L30.7623 64.2993C31.0368 64.5841 31.4016 64.7429 31.781 64.7429C32.1603 64.7429 32.5251 64.5841 32.7996 64.2993L33.7409 63.3142C33.8835 63.1649 33.9968 62.9857 34.0741 62.7876C34.1514 62.5894 34.191 62.3763 34.1905 62.1611V56.1206Z" fill="#068FFF"/>
<path d="M34.1973 54.9141H14.9209V56.1206H34.1973V54.9141Z" fill="#068FFF"/>
<path d="M24.2922 61.9552C24.2922 62.076 24.2592 62.1941 24.1975 62.2946C24.1357 62.395 24.048 62.4733 23.9453 62.5196C23.8426 62.5658 23.7296 62.5779 23.6206 62.5543C23.5115 62.5308 23.4114 62.4726 23.3328 62.3871C23.2542 62.3017 23.2007 62.1928 23.179 62.0743C23.1573 61.9558 23.1685 61.833 23.211 61.7214C23.2535 61.6097 23.3256 61.5143 23.418 61.4472C23.5104 61.3801 23.6191 61.3442 23.7302 61.3442C23.8793 61.3442 24.0222 61.4086 24.1276 61.5232C24.233 61.6377 24.2922 61.7931 24.2922 61.9552Z" fill="#068FFF"/>
<path d="M15.799 59.3508C15.799 59.405 15.7892 59.4586 15.7701 59.5087C15.751 59.5587 15.7231 59.6041 15.6879 59.6424C15.6526 59.6807 15.6108 59.7111 15.5648 59.7318C15.5188 59.7526 15.4695 59.7632 15.4196 59.7632C15.3698 59.7632 15.3205 59.7526 15.2745 59.7318C15.2285 59.7111 15.1866 59.6807 15.1514 59.6424C15.1162 59.6041 15.0882 59.5587 15.0692 59.5087C15.0501 59.4586 15.0403 59.405 15.0403 59.3508C15.0403 59.2415 15.0803 59.1366 15.1514 59.0593C15.2225 58.9819 15.319 58.9385 15.4196 58.9385C15.5202 58.9385 15.6167 58.9819 15.6879 59.0593C15.759 59.1366 15.799 59.2415 15.799 59.3508Z" fill="#068FFF"/>
<path d="M17.3657 62.1992C17.3657 62.2626 17.3484 62.3246 17.316 62.3773C17.2836 62.4301 17.2375 62.4712 17.1836 62.4955C17.1297 62.5197 17.0704 62.5261 17.0131 62.5137C16.9559 62.5013 16.9033 62.4708 16.862 62.4259C16.8208 62.3811 16.7927 62.3239 16.7813 62.2617C16.7699 62.1995 16.7758 62.135 16.7981 62.0764C16.8204 62.0178 16.8582 61.9677 16.9068 61.9325C16.9553 61.8972 17.0123 61.8784 17.0707 61.8784C17.1489 61.8784 17.224 61.9122 17.2793 61.9724C17.3347 62.0325 17.3657 62.1141 17.3657 62.1992Z" fill="#068FFF"/>
<path d="M19.473 61.9396C19.473 62.0181 19.4516 62.0949 19.4115 62.1602C19.3713 62.2255 19.3143 62.2764 19.2475 62.3064C19.1808 62.3365 19.1073 62.3444 19.0365 62.329C18.9656 62.3137 18.9005 62.2759 18.8494 62.2204C18.7983 62.1648 18.7635 62.0941 18.7494 62.017C18.7354 61.94 18.7426 61.8602 18.7702 61.7876C18.7979 61.7151 18.8447 61.653 18.9048 61.6094C18.9649 61.5658 19.0355 61.5425 19.1077 61.5425C19.2046 61.5425 19.2975 61.5843 19.366 61.6588C19.4345 61.7333 19.473 61.8343 19.473 61.9396Z" fill="#068FFF"/>
<path d="M22.4377 57.4494C22.4377 57.5567 22.4085 57.6615 22.3537 57.7506C22.2989 57.8398 22.221 57.9093 22.1298 57.9503C22.0387 57.9914 21.9384 58.0021 21.8416 57.9812C21.7449 57.9603 21.656 57.9086 21.5863 57.8328C21.5165 57.757 21.469 57.6604 21.4498 57.5552C21.4305 57.45 21.4404 57.341 21.4782 57.2419C21.5159 57.1429 21.5798 57.0582 21.6619 56.9986C21.7439 56.939 21.8403 56.9072 21.939 56.9072C22.0712 56.9072 22.1981 56.9644 22.2916 57.066C22.3852 57.1677 22.4377 57.3056 22.4377 57.4494Z" fill="#068FFF"/>
<path d="M27.2147 63.8182C27.2146 63.888 27.1955 63.9562 27.1597 64.0141C27.1238 64.072 27.073 64.117 27.0135 64.1434C26.954 64.1697 26.8887 64.1762 26.8258 64.162C26.763 64.1478 26.7054 64.1136 26.6605 64.0637C26.6156 64.0138 26.5854 63.9505 26.5737 63.8819C26.5621 63.8133 26.5695 63.7424 26.595 63.6784C26.6206 63.6143 26.6631 63.56 26.7171 63.5223C26.7712 63.4847 26.8343 63.4654 26.8985 63.4669C26.9406 63.4669 26.9823 63.476 27.0212 63.4938C27.06 63.5115 27.0951 63.5375 27.1246 63.5702C27.154 63.6029 27.1772 63.6417 27.1926 63.6843C27.2081 63.7269 27.2156 63.7724 27.2147 63.8182Z" fill="#068FFF"/>
<path d="M26.0695 56.9071C26.0709 56.9814 26.0519 57.0545 26.0149 57.117C25.978 57.1795 25.9247 57.2287 25.8619 57.2582C25.7992 57.2877 25.7297 57.2962 25.6625 57.2826C25.5953 57.2691 25.5333 57.234 25.4844 57.182C25.4356 57.13 25.4021 57.0634 25.3882 56.9906C25.3744 56.9178 25.3808 56.8422 25.4066 56.7733C25.4325 56.7045 25.4766 56.6456 25.5333 56.6042C25.5901 56.5627 25.6569 56.5405 25.7253 56.5405C25.8154 56.5405 25.9019 56.5789 25.9662 56.6474C26.0306 56.7159 26.0676 56.8092 26.0695 56.9071Z" fill="#068FFF"/>
<path d="M30.7973 58.8467C30.7973 58.9482 30.7695 59.0474 30.7175 59.1317C30.6654 59.216 30.5915 59.2816 30.5051 59.3201C30.4187 59.3585 30.3237 59.3682 30.2322 59.3478C30.1407 59.3275 30.0569 59.278 29.9913 59.2057C29.9258 59.1333 29.8815 59.0415 29.8642 58.9417C29.8468 58.842 29.8571 58.7389 29.8938 58.6455C29.9305 58.5522 29.992 58.4728 30.0703 58.4175C30.1486 58.3622 30.2403 58.3335 30.3337 58.335C30.4573 58.337 30.5752 58.3918 30.6619 58.4876C30.7487 58.5833 30.7973 58.7123 30.7973 58.8467Z" fill="#068FFF"/>
<path d="M30.8043 57.5717C31.0526 57.5717 31.2539 57.3529 31.2539 57.083C31.2539 56.8131 31.0526 56.5942 30.8043 56.5942C30.556 56.5942 30.3547 56.8131 30.3547 57.083C30.3547 57.3529 30.556 57.5717 30.8043 57.5717Z" fill="#068FFF"/>
<path d="M33.1858 60.9164C33.1858 61.0015 33.1547 61.0831 33.0994 61.1432C33.044 61.2034 32.969 61.2372 32.8907 61.2372C32.8125 61.2372 32.7375 61.2034 32.6821 61.1432C32.6268 61.0831 32.5957 61.0015 32.5957 60.9164C32.5957 60.8314 32.6268 60.7498 32.6821 60.6896C32.7375 60.6295 32.8125 60.5957 32.8907 60.5957C32.969 60.5957 33.044 60.6295 33.0994 60.6896C33.1547 60.7498 33.1858 60.8314 33.1858 60.9164Z" fill="#068FFF"/>
<path d="M16.0451 62.8178C16.0451 62.8857 16.0266 62.9522 15.9918 63.0087C15.9571 63.0652 15.9077 63.1092 15.8499 63.1352C15.7922 63.1613 15.7286 63.1681 15.6673 63.1548C15.606 63.1415 15.5496 63.1088 15.5054 63.0608C15.4612 63.0127 15.4311 62.9515 15.4189 62.8848C15.4067 62.8181 15.413 62.749 15.4369 62.6863C15.4608 62.6235 15.5013 62.5698 15.5533 62.532C15.6053 62.4943 15.6664 62.4741 15.729 62.4741C15.8128 62.4741 15.8932 62.5103 15.9525 62.5748C16.0118 62.6392 16.0451 62.7266 16.0451 62.8178Z" fill="#068FFF"/>
<path d="M17.7801 58.4267C17.7801 58.5023 17.7595 58.5761 17.7209 58.6389C17.6823 58.7017 17.6275 58.7506 17.5633 58.7795C17.4991 58.8084 17.4285 58.816 17.3604 58.8012C17.2922 58.7865 17.2296 58.7501 17.1805 58.6967C17.1314 58.6433 17.0979 58.5753 17.0844 58.5012C17.0708 58.4272 17.0778 58.3504 17.1044 58.2806C17.131 58.2109 17.176 58.1512 17.2337 58.1093C17.2915 58.0673 17.3594 58.0449 17.4289 58.0449C17.5221 58.0449 17.6114 58.0851 17.6773 58.1568C17.7431 58.2284 17.7801 58.3255 17.7801 58.4267Z" fill="#068FFF"/>
<path d="M17.6397 63.6885C17.6397 63.755 17.6215 63.82 17.5876 63.8752C17.5536 63.9305 17.5054 63.9735 17.4489 63.999C17.3924 64.0244 17.3302 64.0311 17.2703 64.0181C17.2103 64.0051 17.1552 63.9731 17.112 63.9261C17.0688 63.8791 17.0393 63.8193 17.0274 63.7541C17.0155 63.6889 17.0216 63.6214 17.045 63.56C17.0684 63.4986 17.108 63.4461 17.1589 63.4092C17.2097 63.3722 17.2694 63.3525 17.3306 63.3525C17.4126 63.3525 17.4912 63.3879 17.5491 63.451C17.6071 63.514 17.6397 63.5994 17.6397 63.6885Z" fill="#068FFF"/>
<path d="M19.0517 58.1064C19.3272 58.1064 19.5505 57.8636 19.5505 57.5642C19.5505 57.2647 19.3272 57.022 19.0517 57.022C18.7763 57.022 18.553 57.2647 18.553 57.5642C18.553 57.8636 18.7763 58.1064 19.0517 58.1064Z" fill="#068FFF"/>
<path d="M26.4699 63.1156C26.4699 63.2307 26.4384 63.3432 26.3794 63.4388C26.3204 63.5344 26.2366 63.6088 26.1386 63.6525C26.0407 63.6962 25.933 63.7072 25.8292 63.6842C25.7255 63.6612 25.6304 63.6051 25.556 63.5232C25.4816 63.4413 25.4313 63.3371 25.4115 63.2241C25.3917 63.111 25.4033 62.994 25.4448 62.8881C25.4863 62.7822 25.5558 62.6921 25.6445 62.6293C25.7332 62.5664 25.8371 62.5337 25.943 62.5352C26.0834 62.5372 26.2174 62.5992 26.316 62.7079C26.4146 62.8165 26.4699 62.963 26.4699 63.1156Z" fill="#068FFF"/>
<path d="M24.3696 58.6102C24.614 58.6102 24.8121 58.3948 24.8121 58.1291C24.8121 57.8633 24.614 57.6479 24.3696 57.6479C24.1251 57.6479 23.927 57.8633 23.927 58.1291C23.927 58.3948 24.1251 58.6102 24.3696 58.6102Z" fill="#068FFF"/>
<path d="M29.28 59.2743C29.28 59.3589 29.2569 59.4416 29.2137 59.5119C29.1704 59.5822 29.109 59.637 29.0371 59.6694C28.9652 59.7018 28.8861 59.7103 28.8098 59.6937C28.7335 59.6772 28.6634 59.6365 28.6084 59.5767C28.5534 59.5169 28.5159 59.4407 28.5007 59.3578C28.4855 59.2748 28.4933 59.1888 28.5231 59.1107C28.5529 59.0325 28.6033 58.9657 28.668 58.9187C28.7327 58.8718 28.8088 58.8467 28.8866 58.8467C28.9909 58.8467 29.091 58.8917 29.1647 58.9719C29.2385 59.0521 29.28 59.1609 29.28 59.2743Z" fill="#068FFF"/>
<path d="M29.1887 58.0449C29.1887 58.1083 29.1714 58.1703 29.139 58.223C29.1066 58.2758 29.0605 58.3169 29.0066 58.3412C28.9527 58.3654 28.8934 58.3718 28.8361 58.3594C28.7789 58.347 28.7263 58.3165 28.6851 58.2716C28.6438 58.2268 28.6157 58.1696 28.6043 58.1074C28.5929 58.0452 28.5988 57.9807 28.6211 57.9221C28.6434 57.8635 28.6812 57.8134 28.7298 57.7782C28.7783 57.7429 28.8353 57.7241 28.8937 57.7241C28.9719 57.7241 29.047 57.7579 29.1023 57.8181C29.1576 57.8782 29.1887 57.9598 29.1887 58.0449Z" fill="#068FFF"/>
<path d="M33.5089 57.8541C33.5103 57.9722 33.4794 58.0881 33.42 58.1871C33.3607 58.2861 33.2756 58.3636 33.1756 58.4098C33.0756 58.4561 32.9652 58.469 32.8585 58.4469C32.7517 58.4248 32.6534 58.3686 32.5761 58.2856C32.4987 58.2027 32.4459 58.0965 32.4241 57.9808C32.4024 57.8651 32.4129 57.7449 32.4541 57.6356C32.4954 57.5263 32.5656 57.4328 32.6558 57.3671C32.7461 57.3013 32.8523 57.2661 32.961 57.2661C33.1051 57.2661 33.2434 57.3278 33.346 57.4379C33.4485 57.5479 33.5071 57.6975 33.5089 57.8541Z" fill="#068FFF"/>
<path d="M16.5999 60.5192C16.5981 60.6705 16.542 60.815 16.4436 60.922C16.3452 61.029 16.2122 61.09 16.0731 61.0919C15.9345 61.0899 15.8023 61.0287 15.705 60.9215C15.6078 60.8143 15.5532 60.6698 15.5532 60.5192C15.5532 60.3693 15.608 60.2256 15.7055 60.1196C15.803 60.0136 15.9352 59.9541 16.0731 59.9541C16.2116 59.9541 16.3445 60.0134 16.4432 60.1191C16.5418 60.2249 16.5981 60.3686 16.5999 60.5192Z" fill="#068FFF"/>
<path d="M20.3021 58.7934C20.3035 58.9054 20.2742 59.0154 20.2179 59.1094C20.1616 59.2033 20.081 59.2769 19.9861 59.3209C19.8912 59.3648 19.7865 59.3771 19.6852 59.3562C19.5839 59.3352 19.4906 59.282 19.4172 59.2033C19.3438 59.1246 19.2936 59.0239 19.273 58.9141C19.2523 58.8043 19.2622 58.6902 19.3013 58.5865C19.3405 58.4828 19.4071 58.3941 19.4927 58.3317C19.5783 58.2692 19.6791 58.2359 19.7822 58.2359C19.8502 58.2349 19.9176 58.2486 19.9807 58.2761C20.0437 58.3037 20.101 58.3446 20.1494 58.3964C20.1978 58.4483 20.2362 58.5101 20.2624 58.5782C20.2886 58.6464 20.3021 58.7195 20.3021 58.7934Z" fill="#068FFF"/>
<path d="M23.3229 60.107C23.3229 60.2157 23.2932 60.322 23.2376 60.4124C23.182 60.5028 23.1031 60.5733 23.0106 60.6149C22.9182 60.6565 22.8165 60.6674 22.7184 60.6462C22.6203 60.625 22.5301 60.5726 22.4594 60.4957C22.3887 60.4188 22.3405 60.3209 22.321 60.2142C22.3015 60.1076 22.3115 59.997 22.3498 59.8965C22.3881 59.7961 22.4529 59.7102 22.5361 59.6498C22.6192 59.5894 22.717 59.5571 22.8171 59.5571C22.9512 59.5571 23.0799 59.6151 23.1747 59.7182C23.2696 59.8213 23.3229 59.9611 23.3229 60.107Z" fill="#068FFF"/>
<path d="M22.4517 63.1156C22.4517 63.2258 22.4216 63.3336 22.3652 63.4253C22.3089 63.517 22.2288 63.5884 22.1351 63.6306C22.0414 63.6728 21.9383 63.6838 21.8388 63.6623C21.7393 63.6408 21.648 63.5877 21.5762 63.5098C21.5045 63.4318 21.4557 63.3325 21.4359 63.2243C21.4161 63.1162 21.4262 63.0041 21.4651 62.9022C21.5039 62.8004 21.5696 62.7133 21.654 62.6521C21.7383 62.5908 21.8374 62.5581 21.9388 62.5581C22.0062 62.5581 22.0729 62.5725 22.1351 62.6005C22.1973 62.6286 22.2539 62.6696 22.3015 62.7214C22.3491 62.7731 22.3869 62.8346 22.4126 62.9022C22.4384 62.9699 22.4517 63.0424 22.4517 63.1156Z" fill="#068FFF"/>
<path d="M26.2733 60.9467C26.2733 61.1107 26.2133 61.2681 26.1066 61.3841C25.9999 61.5001 25.8552 61.5652 25.7043 61.5652C25.5534 61.5652 25.4086 61.5001 25.3019 61.3841C25.1952 61.2681 25.1353 61.1107 25.1353 60.9467C25.1353 60.7826 25.1952 60.6253 25.3019 60.5093C25.4086 60.3933 25.5534 60.3281 25.7043 60.3281C25.8552 60.3281 25.9999 60.3933 26.1066 60.5093C26.2133 60.6253 26.2733 60.7826 26.2733 60.9467Z" fill="#068FFF"/>
<path d="M27.2357 58.5949C27.2371 58.713 27.2062 58.8289 27.1468 58.9279C27.0875 59.0268 27.0024 59.1044 26.9024 59.1506C26.8024 59.1969 26.692 59.2098 26.5852 59.1877C26.4785 59.1655 26.3802 59.1094 26.3029 59.0264C26.2255 58.9434 26.1727 58.8373 26.1509 58.7216C26.1292 58.6058 26.1397 58.4857 26.1809 58.3764C26.2222 58.2671 26.2924 58.1736 26.3827 58.1078C26.4729 58.042 26.5791 58.0069 26.6878 58.0069C26.7594 58.0059 26.8305 58.0203 26.8969 58.0494C26.9634 58.0785 27.0238 58.1217 27.0748 58.1764C27.1258 58.2311 27.1663 58.2963 27.1939 58.3681C27.2215 58.4399 27.2357 58.517 27.2357 58.5949Z" fill="#068FFF"/>
<path d="M33.1647 60.206C33.3587 60.206 33.516 60.0351 33.516 59.8242C33.516 59.6133 33.3587 59.4424 33.1647 59.4424C32.9707 59.4424 32.8135 59.6133 32.8135 59.8242C32.8135 60.0351 32.9707 60.206 33.1647 60.206Z" fill="#068FFF"/>
<path d="M27.4744 61.1379C27.4744 61.2534 27.4322 61.3641 27.3571 61.4457C27.2821 61.5273 27.1802 61.5732 27.074 61.5732C26.9678 61.5732 26.866 61.5273 26.7909 61.4457C26.7158 61.3641 26.6736 61.2534 26.6736 61.1379C26.6736 61.0225 26.7158 60.9118 26.7909 60.8301C26.866 60.7485 26.9678 60.7026 27.074 60.7026C27.1802 60.7026 27.2821 60.7485 27.3571 60.8301C27.4322 60.9118 27.4744 61.0225 27.4744 61.1379Z" fill="#068FFF"/>
<path d="M21.2294 61.5732C21.2294 61.691 21.1973 61.8062 21.1371 61.9041C21.0769 62.0021 20.9913 62.0784 20.8912 62.1235C20.791 62.1686 20.6809 62.1804 20.5746 62.1574C20.4683 62.1344 20.3706 62.0777 20.294 61.9944C20.2174 61.9111 20.1652 61.8049 20.1441 61.6894C20.1229 61.5739 20.1338 61.4541 20.1752 61.3452C20.2167 61.2364 20.287 61.1434 20.3771 61.0779C20.4672 61.0125 20.5731 60.9775 20.6815 60.9775C20.8268 60.9775 20.9662 61.0403 21.0689 61.152C21.1717 61.2637 21.2294 61.4152 21.2294 61.5732Z" fill="#068FFF"/>
<path d="M20.6042 62.9325C20.6109 62.9803 20.608 63.0292 20.5957 63.0757C20.5834 63.1222 20.562 63.1653 20.533 63.202C20.504 63.2387 20.468 63.2681 20.4276 63.2883C20.3871 63.3085 20.3431 63.319 20.2986 63.319C20.2541 63.319 20.2101 63.3085 20.1696 63.2883C20.1292 63.2681 20.0932 63.2387 20.0642 63.202C20.0351 63.1653 20.0138 63.1222 20.0015 63.0757C19.9892 63.0292 19.9863 62.9803 19.993 62.9325C20.0041 62.853 20.0411 62.7805 20.0971 62.7281C20.1532 62.6758 20.2247 62.647 20.2986 62.647C20.3725 62.647 20.444 62.6758 20.5001 62.7281C20.5561 62.7805 20.5931 62.853 20.6042 62.9325Z" fill="#068FFF"/>
<path d="M29.1606 61.5733C29.1606 61.6609 29.1367 61.7465 29.0919 61.8194C29.0471 61.8922 28.9835 61.949 28.9091 61.9825C28.8346 62.016 28.7527 62.0248 28.6737 62.0077C28.5946 61.9906 28.522 61.9484 28.465 61.8865C28.4081 61.8245 28.3693 61.7456 28.3535 61.6597C28.3378 61.5738 28.3459 61.4847 28.3767 61.4038C28.4075 61.3229 28.4598 61.2537 28.5268 61.205C28.5938 61.1563 28.6726 61.1304 28.7531 61.1304C28.8612 61.1304 28.9648 61.177 29.0413 61.2601C29.1177 61.3432 29.1606 61.4558 29.1606 61.5733Z" fill="#068FFF"/>
<path d="M31.8581 63.6886C31.8581 63.8094 31.8252 63.9275 31.7634 64.028C31.7017 64.1284 31.6139 64.2067 31.5112 64.253C31.4085 64.2992 31.2955 64.3113 31.1865 64.2877C31.0775 64.2642 30.9773 64.206 30.8987 64.1205C30.8202 64.0351 30.7666 63.9263 30.7449 63.8077C30.7232 63.6892 30.7344 63.5664 30.7769 63.4548C30.8195 63.3431 30.8915 63.2477 30.9839 63.1806C31.0763 63.1135 31.185 63.0776 31.2961 63.0776C31.4452 63.0776 31.5881 63.142 31.6935 63.2566C31.7989 63.3711 31.8581 63.5265 31.8581 63.6886Z" fill="#068FFF"/>
<path d="M30.0738 62.8177C30.0738 62.9372 30.0302 63.0518 29.9524 63.1363C29.8747 63.2208 29.7693 63.2683 29.6593 63.2683C29.5494 63.2683 29.444 63.2208 29.3663 63.1363C29.2886 63.0518 29.2449 62.9372 29.2449 62.8177C29.2449 62.6982 29.2886 62.5837 29.3663 62.4992C29.444 62.4147 29.5494 62.3672 29.6593 62.3672C29.7693 62.3672 29.8747 62.4147 29.9524 62.4992C30.0302 62.5837 30.0738 62.6982 30.0738 62.8177Z" fill="#068FFF"/>
<path d="M17.0706 57.6402C17.0706 57.7399 17.0434 57.8374 16.9925 57.9203C16.9415 58.0031 16.8691 58.0677 16.7844 58.1059C16.6997 58.144 16.6064 58.154 16.5165 58.1346C16.4266 58.1151 16.344 58.0671 16.2791 57.9966C16.2143 57.9261 16.1701 57.8363 16.1522 57.7386C16.1343 57.6408 16.1435 57.5395 16.1786 57.4474C16.2137 57.3553 16.2731 57.2766 16.3494 57.2212C16.4256 57.1658 16.5153 57.1362 16.607 57.1362C16.6678 57.1362 16.7281 57.1493 16.7844 57.1746C16.8406 57.1999 16.8918 57.2371 16.9348 57.2839C16.9779 57.3307 17.012 57.3862 17.0353 57.4474C17.0586 57.5085 17.0706 57.5741 17.0706 57.6402Z" fill="#068FFF"/>
<path d="M30.9449 61.5424C30.9458 61.5842 30.9391 61.6257 30.925 61.6646C30.911 61.7035 30.8899 61.7389 30.8631 61.7688C30.8362 61.7986 30.8041 61.8224 30.7687 61.8386C30.7333 61.8548 30.6953 61.8632 30.6569 61.8631C30.5786 61.8631 30.5036 61.8294 30.4482 61.7692C30.3929 61.7091 30.3618 61.6275 30.3618 61.5424C30.3618 61.4574 30.3929 61.3758 30.4482 61.3156C30.5036 61.2555 30.5786 61.2217 30.6569 61.2217C30.6953 61.2217 30.7333 61.23 30.7687 61.2462C30.8041 61.2624 30.8362 61.2862 30.8631 61.3161C30.8899 61.346 30.911 61.3814 30.925 61.4203C30.9391 61.4591 30.9458 61.5007 30.9449 61.5424Z" fill="#068FFF"/>
<path d="M32.3007 62.459C32.3007 62.5542 32.2659 62.6455 32.204 62.7128C32.1421 62.7801 32.0581 62.8179 31.9706 62.8179C31.883 62.8179 31.799 62.7801 31.7371 62.7128C31.6752 62.6455 31.6404 62.5542 31.6404 62.459C31.6404 62.3638 31.6752 62.2725 31.7371 62.2052C31.799 62.1379 31.883 62.1001 31.9706 62.1001C32.0581 62.1001 32.1421 62.1379 32.204 62.2052C32.2659 62.2725 32.3007 62.3638 32.3007 62.459Z" fill="#068FFF"/>
<path d="M17.7098 56.8459C17.7098 56.9391 17.6757 57.0284 17.6151 57.0943C17.5545 57.1602 17.4723 57.1972 17.3866 57.1972C17.3009 57.1972 17.2187 57.1602 17.1581 57.0943C17.0975 57.0284 17.0635 56.9391 17.0635 56.8459C17.0635 56.7527 17.0975 56.6634 17.1581 56.5975C17.2187 56.5316 17.3009 56.4946 17.3866 56.4946C17.4723 56.4946 17.5545 56.5316 17.6151 56.5975C17.6757 56.6634 17.7098 56.7527 17.7098 56.8459Z" fill="#068FFF"/>
<path d="M18.026 57.7246C18.026 58.0266 17.9436 58.3219 17.7893 58.5731C17.6349 58.8242 17.4154 59.02 17.1587 59.1356C16.902 59.2512 16.6195 59.2815 16.3469 59.2225C16.0744 59.1636 15.8241 59.0181 15.6276 58.8045C15.4311 58.5909 15.2973 58.3188 15.2431 58.0225C15.1889 57.7263 15.2167 57.4192 15.323 57.1401C15.4293 56.861 15.6094 56.6225 15.8405 56.4547C16.0715 56.2868 16.3432 56.1973 16.621 56.1973C16.9937 56.1973 17.351 56.3582 17.6145 56.6446C17.878 56.931 18.026 57.3195 18.026 57.7246Z" fill="#068FFF"/>
<path d="M15.8061 58.6713C15.7653 58.671 15.725 58.6605 15.6885 58.6406C15.652 58.6208 15.6201 58.5921 15.5954 58.5567C15.4258 58.3185 15.3344 58.0255 15.3355 57.7243C15.3379 57.4358 15.4238 57.1554 15.5809 56.9229C15.7381 56.6904 15.9586 56.5176 16.2112 56.4289C16.4637 56.3402 16.7356 56.3401 16.9882 56.4287C17.2408 56.5173 17.4613 56.6901 17.6186 56.9225C17.6586 56.985 17.675 57.0617 17.6646 57.137C17.6541 57.2123 17.6175 57.2804 17.5624 57.3272C17.5338 57.3493 17.5015 57.365 17.4673 57.3735C17.4331 57.382 17.3977 57.3831 17.3631 57.3767C17.3285 57.3703 17.2954 57.3566 17.2658 57.3363C17.2361 57.316 17.2103 57.2896 17.19 57.2585C17.1241 57.1552 17.0358 57.0712 16.9329 57.0139C16.8299 56.9566 16.7156 56.9278 16.5999 56.9301C16.4136 56.9301 16.235 57.0106 16.1032 57.1538C15.9715 57.297 15.8974 57.4912 15.8974 57.6938C15.8968 57.8687 15.9513 58.0385 16.052 58.1749C16.0928 58.2365 16.1104 58.3126 16.1012 58.3878C16.0921 58.4631 16.0569 58.5317 16.0028 58.5796C15.951 58.6372 15.8803 58.6701 15.8061 58.6713Z" fill="white"/>
<path d="M14.1272 60.7713C14.1272 61.46 13.9393 62.1333 13.5873 62.7059C13.2353 63.2786 12.735 63.7249 12.1497 63.9885C11.5644 64.252 10.9203 64.321 10.2989 64.1866C9.67749 64.0523 9.10671 63.7206 8.65871 63.2336C8.21071 62.7466 7.90561 62.1261 7.78201 61.4507C7.65841 60.7752 7.72185 60.075 7.9643 59.4387C8.20676 58.8024 8.61733 58.2586 9.14412 57.8759C9.67091 57.4933 10.2903 57.2891 10.9238 57.2891C11.7734 57.2891 12.5882 57.6559 13.189 58.309C13.7897 58.962 14.1272 59.8478 14.1272 60.7713Z" fill="#068FFF"/>
<path d="M9.13242 62.6269C9.07798 62.6263 9.02437 62.6123 8.97568 62.5858C8.92699 62.5593 8.88449 62.5212 8.8514 62.4742C8.64937 62.1783 8.50291 61.8421 8.4204 61.4848C8.33789 61.1274 8.32096 60.7559 8.37054 60.3914C8.42011 60.0269 8.53524 59.6766 8.70935 59.3605C8.88347 59.0444 9.11316 58.7686 9.3853 58.549C9.65745 58.3294 9.96673 58.1702 10.2955 58.0805C10.6242 57.9908 10.966 57.9724 11.3013 58.0263C11.6366 58.0802 11.9588 58.2053 12.2496 58.3946C12.5404 58.5839 12.7941 58.8335 12.9961 59.1294C13.0511 59.2114 13.0738 59.3138 13.0593 59.4141C13.0448 59.5143 12.9943 59.6042 12.9188 59.6639C12.8434 59.7237 12.7492 59.7484 12.657 59.7326C12.5648 59.7169 12.4821 59.662 12.4271 59.5799C12.1966 59.2256 11.8681 58.9604 11.4893 58.823C11.1106 58.6856 10.7014 58.6832 10.3213 58.8161C9.94121 58.949 9.61004 59.2103 9.376 59.5619C9.14196 59.9136 9.01725 60.3372 9.02001 60.7712C9.01891 61.2188 9.15483 61.654 9.40638 62.0083C9.46343 62.0897 9.48878 62.1921 9.47695 62.2935C9.46512 62.395 9.41706 62.4873 9.34316 62.5505C9.2826 62.6006 9.2085 62.6275 9.13242 62.6269Z" fill="white"/>
<path d="M16.9372 60.214C16.9358 60.8269 16.7673 61.4256 16.4531 61.9344C16.1388 62.4433 15.6929 62.8395 15.1716 63.073C14.6504 63.3065 14.0771 63.3668 13.5243 63.2463C12.9715 63.1258 12.464 62.8299 12.0658 62.396C11.6676 61.9621 11.3967 61.4096 11.2872 60.8084C11.1777 60.2072 11.2346 59.5842 11.4507 59.0181C11.6668 58.4521 12.0323 57.9683 12.5012 57.6279C12.9701 57.2876 13.5212 57.106 14.085 57.106C14.4602 57.106 14.8316 57.1864 15.1781 57.3427C15.5246 57.499 15.8393 57.728 16.1043 58.0167C16.3692 58.3055 16.5791 58.6481 16.7221 59.0252C16.865 59.4022 16.9381 59.8062 16.9372 60.214Z" fill="#068FFF"/>
<path d="M12.5255 61.9016C12.4726 61.9025 12.4202 61.8898 12.3726 61.8646C12.325 61.8394 12.2835 61.8024 12.2516 61.7565C11.8789 61.2157 11.7192 60.5362 11.8075 59.8674C11.8957 59.1986 12.2248 58.5953 12.7222 58.1902C13.2197 57.7852 13.8448 57.6115 14.46 57.7075C15.0753 57.8034 15.6303 58.1611 16.0029 58.7019C16.0578 58.7839 16.0806 58.8863 16.0661 58.9866C16.0516 59.0868 16.0011 59.1767 15.9256 59.2364C15.8501 59.2962 15.756 59.3209 15.6637 59.3052C15.5715 59.2894 15.4888 59.2345 15.4338 59.1524C15.3109 58.9516 15.1518 58.7801 14.966 58.6482C14.7802 58.5163 14.5716 58.4269 14.3531 58.3854C14.1345 58.3438 13.9104 58.351 13.6945 58.4065C13.4785 58.462 13.2752 58.5647 13.0969 58.7082C12.9186 58.8518 12.769 59.0333 12.6572 59.2416C12.5454 59.45 12.4738 59.6809 12.4466 59.9203C12.4195 60.1597 12.4374 60.4026 12.4992 60.6342C12.5611 60.8659 12.6656 61.0814 12.8065 61.2678C12.8486 61.3236 12.8749 61.3915 12.8823 61.4633C12.8897 61.535 12.8778 61.6076 12.8481 61.6722C12.8184 61.7368 12.7721 61.7906 12.7149 61.8273C12.6577 61.8639 12.5919 61.8818 12.5255 61.8787V61.9016Z" fill="white"/>
<path d="M11.7739 59.1982C12.5654 59.1982 13.207 58.5007 13.207 57.6404C13.207 56.78 12.5654 56.0825 11.7739 56.0825C10.9824 56.0825 10.3408 56.78 10.3408 57.6404C10.3408 58.5007 10.9824 59.1982 11.7739 59.1982Z" fill="#068FFF"/>
<path d="M10.9799 58.5797C10.9396 58.5809 10.8995 58.5718 10.863 58.5533C10.8264 58.5347 10.7943 58.5071 10.7692 58.4728C10.5699 58.1811 10.4852 57.8153 10.534 57.4559C10.5827 57.0964 10.7608 56.7727 11.0291 56.556C11.2974 56.3393 11.6339 56.2473 11.9646 56.3003C12.2953 56.3533 12.593 56.5469 12.7924 56.8385C12.8125 56.869 12.8268 56.9035 12.8346 56.9401C12.8423 56.9767 12.8432 57.0145 12.8374 57.0515C12.8315 57.0885 12.8189 57.1238 12.8003 57.1554C12.7817 57.187 12.7575 57.2143 12.7292 57.2356C12.7019 57.2589 12.6706 57.2759 12.6371 57.2855C12.6035 57.2951 12.5686 57.297 12.5343 57.2913C12.5001 57.2856 12.4673 57.2723 12.4379 57.2522C12.4086 57.2321 12.3834 57.2057 12.3639 57.1746C12.2952 57.0725 12.2053 56.9896 12.1015 56.9325C11.9978 56.8755 11.8831 56.8459 11.7668 56.8462C11.5804 56.8462 11.4018 56.9266 11.27 57.0698C11.1383 57.2131 11.0643 57.4073 11.0643 57.6098C11.0616 57.7838 11.1136 57.9535 11.2118 58.0909C11.2337 58.1207 11.2499 58.155 11.2594 58.1917C11.2688 58.2285 11.2713 58.2669 11.2667 58.3047C11.2621 58.3425 11.2505 58.3789 11.2326 58.4118C11.2147 58.4446 11.1909 58.4731 11.1626 58.4957C11.1395 58.5231 11.1112 58.5448 11.0797 58.5593C11.0482 58.5737 11.0142 58.5807 10.9799 58.5797Z" fill="white"/>
<path d="M13.3615 51.6533C13.3615 51.9553 13.2791 52.2506 13.1247 52.5018C12.9703 52.753 12.7509 52.9487 12.4942 53.0643C12.2374 53.1799 11.9549 53.2102 11.6824 53.1512C11.4099 53.0923 11.1595 52.9468 10.963 52.7332C10.7665 52.5196 10.6327 52.2475 10.5785 51.9512C10.5243 51.655 10.5521 51.3479 10.6585 51.0688C10.7648 50.7897 10.9449 50.5512 11.1759 50.3834C11.407 50.2156 11.6786 50.126 11.9565 50.126C12.3291 50.126 12.6865 50.2869 12.95 50.5733C13.2135 50.8597 13.3615 51.2482 13.3615 51.6533Z" fill="#068FFF"/>
<path d="M11.24 52.4397C11.2048 52.4384 11.1702 52.4288 11.1387 52.4117C11.1072 52.3946 11.0794 52.3703 11.0573 52.3405C10.9111 52.135 10.832 51.8824 10.8325 51.6226C10.8344 51.3093 10.9497 51.0094 11.1535 50.7879C11.3573 50.5663 11.6332 50.441 11.9214 50.439C12.0947 50.4386 12.2656 50.4835 12.4196 50.5698C12.5737 50.6562 12.7064 50.7816 12.8065 50.9353C12.841 50.989 12.8544 51.0554 12.8439 51.1198C12.8334 51.1843 12.7997 51.2415 12.7503 51.279C12.701 51.3164 12.6399 51.3311 12.5806 51.3196C12.5213 51.3082 12.4687 51.2716 12.4342 51.2179C12.375 51.1305 12.2977 51.0595 12.2087 51.0104C12.1196 50.9613 12.0212 50.9356 11.9214 50.9353C11.7537 50.9353 11.5929 51.0078 11.4743 51.1366C11.3558 51.2655 11.2891 51.4403 11.2891 51.6226C11.2874 51.7752 11.3346 51.9237 11.4226 52.0426C11.4574 52.0949 11.4724 52.1597 11.4645 52.2236C11.4567 52.2875 11.4266 52.3457 11.3805 52.3863C11.3409 52.4215 11.2911 52.4404 11.24 52.4397Z" fill="white"/>
<path d="M23.4282 58.6331C23.4282 59.0243 23.3215 59.4067 23.1216 59.732C22.9217 60.0572 22.6375 60.3107 22.305 60.4604C21.9726 60.6101 21.6067 60.6493 21.2538 60.573C20.9009 60.4967 20.5767 60.3083 20.3222 60.0317C20.0678 59.7551 19.8945 59.4027 19.8243 59.019C19.7541 58.6353 19.7901 58.2377 19.9278 57.8762C20.0655 57.5148 20.2987 57.2059 20.5979 56.9886C20.8971 56.7713 21.2489 56.6553 21.6088 56.6553C21.848 56.6543 22.085 56.7047 22.3061 56.8038C22.5273 56.9028 22.7282 57.0485 22.8974 57.2323C23.0665 57.4162 23.2005 57.6346 23.2916 57.8751C23.3827 58.1155 23.4291 58.3731 23.4282 58.6331Z" fill="#068FFF"/>
<path d="M20.6042 59.817C20.5524 59.8173 20.5012 59.8043 20.4548 59.7791C20.4084 59.7539 20.3682 59.7171 20.3373 59.6719C20.1222 59.3704 20.006 58.9995 20.0071 58.618C20.0075 58.2499 20.1152 57.8914 20.3148 57.594C20.5143 57.2966 20.7955 57.0756 21.1178 56.9627C21.4402 56.8499 21.7871 56.851 22.1088 56.9659C22.4305 57.0809 22.7105 57.3037 22.9084 57.6024C22.9487 57.6814 22.9607 57.7739 22.9422 57.862C22.9236 57.95 22.8757 58.0276 22.8078 58.0797C22.7399 58.1317 22.6566 58.1547 22.574 58.1441C22.4915 58.1336 22.4154 58.0902 22.3604 58.0224C22.244 57.8509 22.0808 57.7235 21.8941 57.6584C21.7073 57.5933 21.5065 57.5938 21.32 57.6597C21.1335 57.7255 20.9707 57.8536 20.8549 58.0256C20.739 58.1976 20.6759 58.4048 20.6745 58.618C20.6754 58.8398 20.7447 59.0549 20.8712 59.2289C20.9248 59.3061 20.9483 59.4031 20.9365 59.4989C20.9246 59.5948 20.8784 59.6816 20.8079 59.7406C20.7501 59.7906 20.6782 59.8176 20.6042 59.817Z" fill="white"/>
</g>
<defs>
<clipPath id="clip0_382_1271">
<rect width="80" height="80" fill="white"/>
</clipPath>
</defs>
</svg>
