<svg width="228" height="54" viewBox="0 0 228 54" fill="none" xmlns="http://www.w3.org/2000/svg">
<path d="M44.3652 6.56423C46.6093 6.941 48.8496 7.42587 51.0862 8.01883V23.0573C51.0818 26.0585 50.5389 29.0337 49.4841 31.8365C49.6208 31.9842 49.7262 32.159 49.7937 32.35C49.8678 32.3979 49.9375 32.4525 50.0019 32.5132C50.3143 32.8043 50.6267 33.0784 50.9404 33.3483C52.2975 30.0279 53 26.5528 53 23.0601V6.5289L52.2934 6.33392C49.9966 5.69857 47.6908 5.17532 45.376 4.76416C45.0988 5.27375 44.7618 5.87378 44.3652 6.56423Z" fill="#001524"/>
<path d="M15.2076 32.5154C15.272 32.4547 15.3417 32.4 15.4158 32.3522C15.4833 32.161 15.5887 31.9859 15.7253 31.8379C14.6709 29.0363 14.1279 26.0623 14.123 23.0622V8.02377C16.3575 7.42893 18.5971 6.94407 20.8418 6.56917C20.4462 5.87919 20.1085 5.27752 19.8286 4.76416C17.5155 5.17532 15.2104 5.69857 12.9134 6.33392L12.207 6.5289V23.0601C12.207 26.5528 12.9093 30.0314 14.2659 33.3483C14.5824 33.0834 14.8954 32.8064 15.2076 32.5154Z" fill="#001524"/>
<path d="M19.0545 45.3446C18.2056 47.2064 15.8947 50.3747 13.7572 51.1299C12.4231 50.4019 10.9689 49.4679 9.50199 48.4493C13.1899 46.3457 14.8857 42.2399 14.8857 42.2399C13.2334 45.0204 9.78146 46.5302 7.76127 47.2071C6.88354 46.5651 6.01914 45.9105 5.19337 45.2692C9.0554 44.493 11.5313 41.4344 11.5313 41.4344C9.11228 43.6043 6.00791 44.0815 3.91048 44.2638C1.31238 42.168 0 41.0341 0 41.0341C0 41.0341 8.316 40.7861 16.1608 33.6462L26.2021 41.7006C24.4403 45.557 22.7473 48.7567 18.7217 53.0001C18.7217 53.0001 16.5365 52.5222 14.689 51.6133C18.471 48.9977 19.0545 45.3446 19.0545 45.3446Z" fill="#068FFF"/>
<path d="M44.2891 3.2948C41.0826 9.37648 25.4146 34.1159 25.4146 34.1159C25.1151 34.5591 24.9923 35.0995 25.0705 35.6297C25.1487 36.1599 25.4222 36.6411 25.8367 36.9776L26.2264 37.2941C26.5879 37.5771 26.8657 37.9541 27.0298 38.3844C27.5018 39.724 26.7329 41.0904 26.7329 41.0904L21.7044 37.0109L16.6738 32.9293C16.6738 32.9293 17.7783 31.9381 19.1304 32.0514C19.6221 32.1064 20.0869 32.3056 20.467 32.6242C21.4463 33.4193 22.9208 33.2033 23.5792 32.1243C37.2184 9.78215 40.0168 4.41556 41.2866 1.74712C42.6042 -1.01547 45.7354 0.549201 44.2891 3.2948Z" fill="#001524"/>
<path d="M46.1535 45.3446C47.0024 47.2064 49.3133 50.3747 51.4508 51.1299C52.7849 50.4019 54.2392 49.4679 55.706 48.4493C52.0182 46.3457 50.3224 42.2399 50.3224 42.2399C51.9746 45.0204 55.4266 46.5302 57.4468 47.2071C58.3245 46.5651 59.1889 45.9105 60.0147 45.2692C56.1526 44.493 53.6767 41.4344 53.6767 41.4344C56.0958 43.6043 59.2001 44.0815 61.2976 44.2638C63.8957 42.168 65.208 41.0341 65.208 41.0341C65.208 41.0341 56.892 40.7861 49.0472 33.6462L39.0059 41.7006C40.7677 45.557 42.4607 48.7567 46.4863 53.0001C46.4863 53.0001 48.6715 52.5222 50.519 51.6133C46.737 48.9977 46.1535 45.3446 46.1535 45.3446Z" fill="#068FFF"/>
<path d="M20.6234 3.2953C23.8636 9.37689 39.6967 34.116 39.6967 34.116C39.9993 34.5592 40.1235 35.0996 40.0444 35.6298C39.9654 36.16 39.689 36.6411 39.2701 36.9777L38.8763 37.2942C38.511 37.5772 38.2303 37.9542 38.0645 38.3845C37.5874 39.724 38.3645 41.0904 38.3645 41.0904L43.4488 37.0088L48.5324 32.9273C48.5324 32.9273 47.4163 31.9361 46.05 32.0494C45.5531 32.1044 45.0834 32.3036 44.6993 32.6222C43.7097 33.4172 42.2196 33.2013 41.5542 32.1223C27.765 9.78044 24.9371 4.41391 23.6539 1.74552C22.326 -1.01492 19.1618 0.54973 20.6234 3.2953Z" fill="#001524"/>
<path d="M27.7514 6.02686C28.8522 8.04383 30.3886 10.7719 32.6041 14.5898C34.8196 10.7697 36.356 8.04383 37.4568 6.02686V2.55663L38.1125 2.80805V2.10975L36.503 1.49291V0.0184141H35.0412V0.934128L32.6041 0L27.0957 2.11117V2.80663L27.7514 2.55522V6.02686Z" fill="#001524"/>
<path d="M38.965 45.2586C36.9768 46.8011 34.8552 48.1561 32.6265 49.3069L32.6028 49.319L32.5791 49.3062C30.3503 48.1554 28.2287 46.8004 26.2406 45.2579C25.9501 45.8311 25.6422 46.4064 25.3086 46.9887C27.2687 48.4965 32.6035 51.5107 32.6035 51.5107C32.6035 51.5107 37.9383 48.4965 39.8984 46.988C39.5634 46.4071 39.2555 45.8318 38.965 45.2586Z" fill="#001524"/>
<path d="M38.4092 43.9126L38.18 44.0875C36.4218 45.4222 34.5565 46.6105 32.6031 47.6402C30.6496 46.6105 28.7843 45.4223 27.0261 44.0875L26.7969 43.9126L27.6151 42.5079L27.6222 42.4959L27.7833 42.4357L28.2673 42.6162V36.3978L29.353 35.9928V30.9865L32.6031 29.7751L35.8531 30.9865V35.9928L36.9389 36.3978V42.6162L37.4228 42.4357L37.5839 42.4959C37.5839 42.4959 38.2801 43.6372 38.4092 43.9126Z" fill="#001524"/>
<path d="M45.2578 13.1013L46.5215 14.517L47.9376 15.7811L46.6739 14.3647L45.2578 13.1013Z" fill="#54B435"/>
<path d="M45.2578 15.7811L46.6739 14.517L47.9376 13.1013L46.5215 14.3647L45.2578 15.7811Z" fill="#54B435"/>
<path d="M47.4987 14.6992L49.4268 14.5951L47.4987 14.4917C47.2932 14.4803 47.0993 14.3977 46.9538 14.2598C46.8082 14.1219 46.7212 13.9382 46.709 13.7435L46.5978 11.9103L46.4879 13.7381C46.4758 13.9328 46.3887 14.1165 46.2432 14.2544C46.0977 14.3923 45.9038 14.4748 45.6983 14.4863L43.7695 14.5897L45.6983 14.6938C45.9038 14.7053 46.0977 14.7878 46.2432 14.9257C46.3887 15.0636 46.4758 15.2473 46.4879 15.442L46.5978 17.2698L46.7076 15.442C46.7211 15.2481 46.809 15.0655 46.9547 14.9287C47.1004 14.7919 47.2939 14.7102 47.4987 14.6992Z" fill="#54B435"/>
<path d="M50.0215 38.4103L50.5835 39.1974L51.2125 39.899L50.6512 39.1127L50.0215 38.4103Z" fill="white"/>
<path d="M50.0215 39.899L50.6512 39.1974L51.2125 38.4103L50.5835 39.1127L50.0215 39.899Z" fill="white"/>
<path d="M51.1942 39.2061L52.1075 39.1543L51.1942 39.1019C51.0966 39.0965 51.0044 39.0554 50.9353 38.9862C50.8662 38.9171 50.825 38.8249 50.8196 38.7273L50.7679 37.8145L50.7155 38.7273C50.7102 38.8249 50.669 38.9171 50.5999 38.9862C50.5308 39.0554 50.4386 39.0965 50.341 39.1019L49.4277 39.1543L50.341 39.2061C50.4385 39.2116 50.5306 39.2528 50.5997 39.3219C50.6688 39.391 50.71 39.4831 50.7155 39.5807L50.7679 40.4942L50.8196 39.5807C50.8252 39.4831 50.8664 39.391 50.9355 39.3219C51.0045 39.2528 51.0966 39.2116 51.1942 39.2061Z" fill="white"/>
<path d="M44.9609 41.0897L45.2414 41.4041L45.5565 41.6852L45.2754 41.3702L44.9609 41.0897Z" fill="white"/>
<path d="M44.9609 41.6852L45.2754 41.4041L45.5565 41.0897L45.2414 41.3702L44.9609 41.6852Z" fill="white"/>
<path d="M45.6438 41.4105L46.1509 41.3869L45.6438 41.364C45.5895 41.3616 45.5383 41.3433 45.4999 41.3125C45.4615 41.2818 45.4386 41.2408 45.4355 41.1974L45.4061 40.7917L45.3775 41.1974C45.3743 41.2408 45.3513 41.2817 45.3129 41.3124C45.2746 41.3431 45.2234 41.3615 45.1693 41.364L44.6621 41.3869L45.1693 41.4105C45.2235 41.4129 45.2747 41.4312 45.3131 41.462C45.3516 41.4927 45.3745 41.5337 45.3775 41.5771L45.4061 41.9828L45.4355 41.5771C45.4384 41.5336 45.4613 41.4926 45.4997 41.4618C45.5382 41.431 45.5895 41.4128 45.6438 41.4105Z" fill="white"/>
<path d="M15.1851 38.4103L14.6238 39.1974L13.9941 39.899L14.5554 39.1127L15.1851 38.4103Z" fill="white"/>
<path d="M15.1851 39.899L14.5554 39.1974L13.9941 38.4103L14.6238 39.1127L15.1851 39.899Z" fill="white"/>
<path d="M14.0149 39.2061L13.1016 39.1543L14.0149 39.1019C14.1125 39.0965 14.2047 39.0554 14.2738 38.9862C14.3429 38.9171 14.3841 38.8249 14.3895 38.7273L14.4412 37.8145L14.4936 38.7273C14.4989 38.8249 14.5401 38.9171 14.6092 38.9862C14.6783 39.0554 14.7705 39.0965 14.8681 39.1019L15.7814 39.1543L14.8681 39.2061C14.7706 39.2116 14.6785 39.2528 14.6094 39.3219C14.5403 39.391 14.4991 39.4831 14.4936 39.5807L14.4412 40.4942L14.3895 39.5807C14.3839 39.4831 14.3427 39.391 14.2736 39.3219C14.2045 39.2528 14.1125 39.2116 14.0149 39.2061Z" fill="white"/>
<path d="M20.2478 41.0897L19.9667 41.4041L19.6523 41.6852L19.9333 41.3702L20.2478 41.0897Z" fill="white"/>
<path d="M20.2478 41.6852L19.9333 41.4041L19.6523 41.0897L19.9667 41.3702L20.2478 41.6852Z" fill="white"/>
<path d="M19.5637 41.4105L19.0566 41.3869L19.5637 41.364C19.618 41.3616 19.6692 41.3433 19.7076 41.3125C19.746 41.2818 19.7689 41.2408 19.772 41.1974L19.8014 40.7917L19.83 41.1974C19.8332 41.2408 19.8562 41.2817 19.8946 41.3124C19.9329 41.3431 19.9841 41.3615 20.0383 41.364L20.5454 41.3869L20.0383 41.4105C19.984 41.4129 19.9328 41.4312 19.8944 41.462C19.856 41.4927 19.833 41.5337 19.83 41.5771L19.8014 41.9828L19.772 41.5771C19.7691 41.5336 19.7462 41.4926 19.7078 41.4618C19.6693 41.431 19.618 41.4128 19.5637 41.4105Z" fill="white"/>
<path d="M31.8594 5.0614L32.5612 6.00542L33.3481 6.84791L32.6463 5.90389L31.8594 5.0614Z" fill="white"/>
<path d="M31.8594 6.84791L32.6463 6.00542L33.3481 5.0614L32.5612 5.90389L31.8594 6.84791Z" fill="white"/>
<path d="M33.22 6.02582L34.5388 5.9558L33.22 5.88579C33.0791 5.87826 32.9461 5.82315 32.8464 5.73096C32.7467 5.63877 32.6872 5.51594 32.6792 5.38586L32.6034 4.16895L32.5276 5.38586C32.5196 5.51594 32.4601 5.63877 32.3604 5.73096C32.2607 5.82315 32.1277 5.87826 31.9868 5.88579L30.668 5.9558L31.9868 6.02582C32.1277 6.03299 32.2607 6.08779 32.3606 6.17973C32.4604 6.27168 32.5201 6.39435 32.5283 6.52435L32.6042 7.74196L32.68 6.52435C32.6881 6.39458 32.7476 6.27209 32.8472 6.18018C32.9467 6.08826 33.0794 6.03332 33.22 6.02582Z" fill="white"/>
<path d="M31.5625 33.051L32.5456 33.9952L33.6467 34.8375L32.6636 33.8934L31.5625 33.051Z" fill="white"/>
<path d="M31.5625 34.8375L32.6636 33.9952L33.6467 33.051L32.5456 33.8934L31.5625 34.8375Z" fill="white"/>
<path d="M33.2191 34.0264L34.5388 33.9457L33.2191 33.8643C33.0786 33.8553 32.9461 33.7912 32.8467 33.684C32.7472 33.5769 32.6876 33.4342 32.6793 33.2829L32.6024 31.86L32.5275 33.2815C32.5192 33.4327 32.4596 33.5754 32.3601 33.6826C32.2607 33.7897 32.1282 33.8539 31.9877 33.8628L30.668 33.9442L31.9877 34.0249C32.1282 34.0339 32.2607 34.098 32.3601 34.2052C32.4596 34.3123 32.5192 34.455 32.5275 34.6063L32.6024 36.0285L32.6773 34.6063C32.686 34.4549 32.746 34.3123 32.8458 34.2054C32.9457 34.0985 33.0785 34.0348 33.2191 34.0264Z" fill="white"/>
<path d="M33.9434 39.3029L34.3651 39.7745L34.8367 40.1961L34.4157 39.7238L33.9434 39.3029Z" fill="white"/>
<path d="M33.9434 40.1961L34.4157 39.7745L34.8367 39.3029L34.3651 39.7238L33.9434 40.1961Z" fill="white"/>
<path d="M34.722 39.6355L35.4319 39.6009L34.722 39.5663C34.646 39.5627 34.5742 39.5351 34.5204 39.489C34.4665 39.4428 34.4344 39.3813 34.4301 39.3161L34.3898 38.7076L34.3495 39.3161C34.3452 39.3812 34.3132 39.4427 34.2595 39.4888C34.2059 39.5349 34.1343 39.5625 34.0584 39.5663L33.3477 39.6009L34.0584 39.6355C34.1341 39.6393 34.2056 39.6668 34.2593 39.7128C34.313 39.7588 34.3451 39.8201 34.3495 39.885L34.3898 40.4941L34.4301 39.885C34.4346 39.8199 34.4668 39.7586 34.5206 39.7126C34.5744 39.6666 34.6461 39.6391 34.722 39.6355Z" fill="white"/>
<path d="M19.9492 13.1013L18.6856 14.517L17.2695 15.7811L18.5332 14.3647L19.9492 13.1013Z" fill="#54B435"/>
<path d="M19.9492 15.7811L18.5332 14.517L17.2695 13.1013L18.6856 14.3647L19.9492 15.7811Z" fill="#54B435"/>
<path d="M17.7094 14.6964L15.7812 14.5924L17.7094 14.4891C17.9148 14.4777 18.1086 14.3952 18.2542 14.2574C18.3997 14.1197 18.4869 13.9361 18.499 13.7416L18.6103 11.9103L18.7201 13.7362C18.7322 13.9307 18.8193 14.1142 18.9648 14.252C19.1104 14.3898 19.3041 14.4722 19.5096 14.4837L21.4384 14.587L19.511 14.6964C19.3056 14.7079 19.1117 14.7903 18.9662 14.9281C18.8206 15.0658 18.7336 15.2494 18.7215 15.4439L18.6117 17.2698L18.5004 15.4439C18.4883 15.2492 18.4009 15.0654 18.2551 14.9276C18.1092 14.7898 17.9151 14.7075 17.7094 14.6964Z" fill="#54B435"/>
<path d="M22.7334 22.0284L21.1406 20.2469L22.9254 21.8367H22.9294L24.7136 20.2469L23.1214 22.0284L23.1209 22.0304L23.1214 22.0325L24.7136 23.8146L22.9294 22.2295H22.9254L21.1406 23.82L22.7334 22.0378L22.7368 22.0364L22.7381 22.0331L22.7368 22.0298L22.7334 22.0284Z" fill="#54B435"/>
<path d="M21.9392 22.1991L19.0566 22.0349L21.9392 21.8707C22.1537 21.8586 22.3562 21.7679 22.5082 21.616C22.6601 21.4641 22.7509 21.2616 22.7633 21.047L22.9274 18.1627L23.0915 21.047C23.1038 21.2616 23.1946 21.4641 23.3466 21.616C23.4986 21.7679 23.7011 21.8586 23.9156 21.8707L26.7981 22.0349L23.9156 22.1991C23.7015 22.2113 23.4993 22.3017 23.3474 22.4532C23.1955 22.6046 23.1045 22.8065 23.0915 23.0206L22.9274 25.9043L22.7633 23.0206C22.7503 22.8065 22.6592 22.6046 22.5073 22.4532C22.3554 22.3017 22.1533 22.2113 21.9392 22.1991Z" fill="#54B435"/>
<path d="M42.3425 22.0284L44.0681 20.2469L42.1345 21.8367H42.1301L40.1973 20.2469L41.9222 22.0284L41.9227 22.0304L41.9222 22.0325L40.1973 23.8146L42.1301 22.2295H42.1345L44.0681 23.82L42.3425 22.0378L42.3405 22.0375L42.3389 22.0364L42.3378 22.0349L42.3374 22.0331L42.3378 22.0313L42.3389 22.0298L42.3405 22.0288L42.3425 22.0284Z" fill="#54B435"/>
<path d="M43.2691 22.1991L46.1517 22.0349L43.2691 21.8707C43.0547 21.8586 42.8521 21.7679 42.7002 21.616C42.5482 21.4641 42.4574 21.2616 42.445 21.047L42.2809 18.1627L42.1168 21.047C42.1045 21.2616 42.0137 21.4641 41.8617 21.616C41.7097 21.7679 41.5072 21.8586 41.2927 21.8707L38.4102 22.0349L41.2927 22.1991C41.5068 22.2113 41.709 22.3017 41.8609 22.4532C42.0128 22.6046 42.1038 22.8065 42.1168 23.0206L42.2809 25.9043L42.445 23.0206C42.458 22.8065 42.5491 22.6046 42.701 22.4532C42.8529 22.3017 43.0551 22.2113 43.2691 22.1991Z" fill="#54B435"/>
<path d="M95.8435 41L85.4595 27.36V41H77.9355V10.112H85.4595V23.664L95.7555 10.112H104.599L92.6315 25.248L105.039 41H95.8435ZM116.139 35.192H125.995V41H108.615V10.112H116.139V35.192ZM148.812 35.544H137.284L135.436 41H127.56L138.736 10.112H147.448L158.624 41H150.66L148.812 35.544ZM146.876 29.736L143.048 18.428L139.264 29.736H146.876ZM189.657 41H182.133L169.549 21.948V41H162.025V10.112H169.549L182.133 29.252V10.112H189.657V41ZM209.719 41.308C206.815 41.308 204.146 40.6333 201.711 39.284C199.306 37.9347 197.384 36.0573 195.947 33.652C194.539 31.2173 193.835 28.4893 193.835 25.468C193.835 22.4467 194.539 19.7333 195.947 17.328C197.384 14.9227 199.306 13.0453 201.711 11.696C204.146 10.3467 206.815 9.672 209.719 9.672C212.623 9.672 215.278 10.3467 217.683 11.696C220.118 13.0453 222.024 14.9227 223.403 17.328C224.811 19.7333 225.515 22.4467 225.515 25.468C225.515 28.4893 224.811 31.2173 223.403 33.652C221.995 36.0573 220.088 37.9347 217.683 39.284C215.278 40.6333 212.623 41.308 209.719 41.308ZM209.719 34.444C212.183 34.444 214.148 33.6227 215.615 31.98C217.111 30.3373 217.859 28.1667 217.859 25.468C217.859 22.74 217.111 20.5693 215.615 18.956C214.148 17.3133 212.183 16.492 209.719 16.492C207.226 16.492 205.231 17.2987 203.735 18.912C202.268 20.5253 201.535 22.7107 201.535 25.468C201.535 28.196 202.268 30.3813 203.735 32.024C205.231 33.6373 207.226 34.444 209.719 34.444Z" fill="#001524"/>
</svg>
