<svg width="31" height="31" viewBox="0 0 31 31" fill="none" xmlns="http://www.w3.org/2000/svg">
<g clip-path="url(#clip0_409_494)">
<path opacity="0.935" fill-rule="evenodd" clip-rule="evenodd" d="M14.7378 0.537598C15.2846 0.537598 15.8316 0.537598 16.3784 0.537598C19.2957 1.14054 20.9851 2.91789 21.4468 5.86963C21.4663 6.39697 21.4859 6.92432 21.5054 7.45166C22.9136 6.22591 24.4273 6.07943 26.0464 7.01221C26.8114 7.55555 27.2899 8.28797 27.4819 9.20947C27.5981 10.3226 27.5981 11.4359 27.4819 12.5493C27.2517 13.5795 26.6854 14.3607 25.7827 14.8931C25.7436 15.1665 25.7436 15.4399 25.7827 15.7134C26.6683 16.0008 27.557 16.284 28.4487 16.563C29.6003 17.0788 30.3035 17.948 30.5581 19.1704C30.5581 19.6978 30.5581 20.2251 30.5581 20.7524C30.2749 20.9846 29.9916 20.9846 29.7085 20.7524C29.6865 20.2627 29.6474 19.7745 29.5913 19.2876C29.2787 18.1547 28.5462 17.4613 27.394 17.2075C26.8259 17.0474 26.2595 16.8814 25.6948 16.7095C25.4747 17.0371 25.2012 17.3204 24.8745 17.5591C24.0731 17.9144 23.3602 17.7874 22.7358 17.1782C22.6455 16.9955 22.5283 16.8392 22.3843 16.7095C21.5897 16.9418 20.7987 17.1859 20.0112 17.4419C20.8148 17.6477 21.6156 17.8625 22.4136 18.0864C23.9771 18.7996 24.8072 20.0203 24.9038 21.7485C24.9331 22.3146 24.9428 22.881 24.9331 23.4478C25.5386 23.4478 26.1441 23.4478 26.7495 23.4478C26.7398 22.9396 26.7495 22.4317 26.7788 21.9243C26.897 21.6065 27.1216 21.499 27.4526 21.6021C27.521 21.6704 27.5893 21.7388 27.6577 21.8071C27.687 22.3536 27.6967 22.9005 27.687 23.4478C28.3511 23.4478 29.0152 23.4478 29.6792 23.4478C29.6695 23.0566 29.6792 22.666 29.7085 22.2759C29.9916 22.0437 30.2749 22.0437 30.5581 22.2759C30.5581 22.9009 30.5581 23.5259 30.5581 24.1509C30.5103 24.2472 30.4321 24.3155 30.3237 24.356C28.527 24.3853 26.7301 24.395 24.9331 24.3853C24.9429 25.1863 24.9331 25.987 24.9038 26.7876C24.8999 26.9503 24.8316 27.0772 24.6987 27.1685C23.161 27.2553 21.618 27.2846 20.0698 27.2563C19.4396 29.0562 18.1896 30.1499 16.3198 30.5376C15.812 30.5376 15.3042 30.5376 14.7964 30.5376C12.9266 30.1499 11.6766 29.0562 11.0464 27.2563C9.49822 27.2846 7.95521 27.2553 6.41748 27.1685C6.28461 27.0772 6.21625 26.9503 6.2124 26.7876C6.18311 25.987 6.17334 25.1863 6.18311 24.3853C4.38612 24.395 2.58925 24.3853 0.79248 24.356C0.684069 24.3155 0.605943 24.2472 0.558105 24.1509C0.558105 23.5454 0.558105 22.9399 0.558105 22.3345C0.780688 22.0752 1.04436 22.0362 1.34912 22.2173C1.4326 22.6207 1.4619 23.0309 1.43701 23.4478C2.10107 23.4478 2.76514 23.4478 3.4292 23.4478C3.41944 22.9005 3.42921 22.3536 3.4585 21.8071C3.65891 21.5579 3.90305 21.5091 4.19092 21.6606C4.24717 21.7438 4.29601 21.8317 4.3374 21.9243C4.36669 22.4317 4.37645 22.9396 4.3667 23.4478C4.97217 23.4478 5.57764 23.4478 6.18311 23.4478C6.15598 22.5639 6.20481 21.685 6.32959 20.811C6.70617 19.5364 7.49719 18.6282 8.70264 18.0864C9.50057 17.8625 10.3014 17.6477 11.105 17.4419C10.3175 17.1859 9.52652 16.9418 8.73193 16.7095C8.5507 16.9305 8.36514 17.1551 8.17529 17.3833C7.04186 18.0326 6.12389 17.8079 5.42139 16.7095C4.48501 16.9597 3.56704 17.2625 2.66748 17.6177C2.07591 18.0291 1.69505 18.5857 1.5249 19.2876C1.46884 19.7745 1.42978 20.2627 1.40771 20.7524C1.12513 21.0588 0.841923 21.0588 0.558105 20.7524C0.558105 20.2251 0.558105 19.6978 0.558105 19.1704C0.812759 17.948 1.51588 17.0788 2.66748 16.563C3.55921 16.284 4.44788 16.0008 5.3335 15.7134C5.37256 15.4399 5.37256 15.1665 5.3335 14.8931C3.91395 13.9276 3.31824 12.5799 3.54639 10.8501C3.4074 9.6873 3.67107 8.63262 4.3374 7.68604C5.70233 6.27857 7.25508 6.03442 8.99561 6.95361C9.20068 7.11961 9.40576 7.28566 9.61084 7.45166C9.40822 5.29087 10.0821 3.4647 11.6323 1.97314C12.5384 1.20752 13.5735 0.729007 14.7378 0.537598ZM15.4995 1.4165C17.6676 1.53802 19.2203 2.57318 20.1577 4.52197C20.5281 5.58776 20.6355 6.6815 20.48 7.80322C20.0532 7.75635 19.6235 7.72705 19.1909 7.71533C18.6952 7.55162 18.3241 7.23914 18.0776 6.77783C18.3841 6.45768 18.5989 6.08658 18.7222 5.66455C18.732 5.36181 18.5855 5.21533 18.2827 5.2251C18.1178 5.21968 17.9811 5.27828 17.8726 5.40088C17.498 6.00989 17.078 6.58605 16.6128 7.12939C16.2206 7.4492 15.7713 7.64449 15.2651 7.71533C14.6011 7.73484 13.937 7.75441 13.2729 7.77393C12.9821 7.84611 12.7185 7.97303 12.4819 8.15479C12.4581 7.97936 12.3703 7.85238 12.2183 7.77393C11.6881 7.72676 11.1608 7.73648 10.6362 7.80322C10.3477 6.08631 10.7286 4.54334 11.7788 3.17432C12.7805 2.07581 14.0208 1.48988 15.4995 1.4165ZM6.76904 7.33447C8.30936 7.32223 9.25664 8.06443 9.61084 9.56104C9.64992 10.4204 9.64992 11.2798 9.61084 12.1392C9.40377 13.3032 8.72994 14.0356 7.58936 14.3364C6.24134 14.5171 5.27454 13.9995 4.68896 12.7837C4.60269 12.5363 4.54409 12.2823 4.51318 12.022C4.47412 11.2603 4.47412 10.4985 4.51318 9.73682C4.71645 8.41078 5.4684 7.60998 6.76904 7.33447ZM23.7026 7.33447C25.3521 7.31414 26.3188 8.11488 26.603 9.73682C26.6421 10.479 26.6421 11.2212 26.603 11.9634C26.3921 13.4634 25.5328 14.2837 24.0249 14.4243C22.6286 14.2781 21.7888 13.5163 21.5054 12.1392C21.4663 11.2798 21.4663 10.4204 21.5054 9.56104C21.7796 8.35904 22.5121 7.61689 23.7026 7.33447ZM17.4331 7.62744C17.7564 8.00912 18.147 8.30209 18.605 8.50635C18.6854 9.60123 18.6756 10.695 18.5757 11.7876C18.0756 13.4593 16.9526 14.2699 15.2065 14.2192C13.565 13.9059 12.6568 12.9195 12.4819 11.2603C12.4429 10.7524 12.4429 10.2446 12.4819 9.73682C12.6333 9.53191 12.77 9.31705 12.8921 9.09229C13.0018 8.96285 13.1288 8.85545 13.2729 8.77002C13.9524 8.69561 14.636 8.65658 15.3237 8.65283C16.1629 8.57496 16.866 8.23318 17.4331 7.62744ZM10.8706 8.68213C11.0855 8.68213 11.3003 8.68213 11.5151 8.68213C11.5151 9.30715 11.5151 9.93211 11.5151 10.5571C11.2994 10.5668 11.0846 10.5571 10.8706 10.5278C10.7402 10.4559 10.6523 10.3485 10.6069 10.2056C10.5679 9.81492 10.5679 9.42434 10.6069 9.03369C10.654 8.87865 10.7419 8.76147 10.8706 8.68213ZM19.6011 8.68213C20.3543 8.54596 20.6668 8.8585 20.5386 9.61963C20.6523 10.3652 20.3398 10.6778 19.6011 10.5571C19.6011 9.93211 19.6011 9.30715 19.6011 8.68213ZM10.5776 11.436C10.9061 11.4892 11.2382 11.5087 11.5737 11.4946C11.6678 12.7182 12.205 13.6948 13.1851 14.4243C13.2241 14.8736 13.2241 15.3227 13.1851 15.772C12.8265 16.165 12.4359 16.5165 12.0132 16.8267C11.8011 16.6962 11.5765 16.5888 11.3394 16.5044C10.4846 16.252 9.63498 15.9883 8.79053 15.7134C8.75145 15.4399 8.75145 15.1665 8.79053 14.8931C10.061 14.0983 10.6567 12.9459 10.5776 11.436ZM20.4214 11.436C20.4555 12.4262 20.7778 13.3247 21.3882 14.1313C21.6684 14.4274 21.981 14.6812 22.3257 14.8931C22.3648 15.1665 22.3648 15.4399 22.3257 15.7134C21.4812 15.9883 20.6316 16.252 19.7769 16.5044C19.5397 16.5888 19.3151 16.6962 19.103 16.8267C18.6803 16.5165 18.2897 16.165 17.9312 15.772C17.8921 15.3227 17.8921 14.8736 17.9312 14.4243C18.9112 13.6948 19.4484 12.7182 19.5425 11.4946C19.8469 11.5134 20.1398 11.4939 20.4214 11.436ZM14.1519 14.9517C15.0894 15.2641 16.0269 15.2641 16.9644 14.9517C16.9741 15.6551 16.9644 16.3582 16.9351 17.061C16.481 17.3613 16.0221 17.6543 15.5581 17.9399C15.0942 17.6543 14.6352 17.3613 14.1812 17.061C14.1519 16.3582 14.1421 15.6551 14.1519 14.9517ZM6.30029 15.2446C6.78861 15.321 7.27688 15.321 7.76514 15.2446C7.83328 15.5749 7.84307 15.907 7.79443 16.2407C7.57148 16.7904 7.19063 16.9369 6.65186 16.6802C6.44401 16.5282 6.33658 16.3231 6.32959 16.0649C6.30034 15.7922 6.29058 15.5188 6.30029 15.2446ZM23.2925 15.2446C23.7808 15.321 24.2691 15.321 24.7573 15.2446C24.8312 15.6175 24.8214 15.9885 24.728 16.3579C24.4003 16.878 23.9901 16.9562 23.4976 16.5923C23.4132 16.4883 23.3546 16.3711 23.3218 16.2407C23.2925 15.9093 23.2828 15.5772 23.2925 15.2446ZM13.0972 17.1196C13.1895 17.288 13.2676 17.4736 13.3315 17.6763C13.8124 17.9652 14.2812 18.268 14.7378 18.5845C14.2886 19.0727 13.8198 19.5415 13.3315 19.9907C12.9745 19.301 12.623 18.6076 12.2769 17.9106C12.5797 17.6761 12.8532 17.4124 13.0972 17.1196ZM17.9019 17.1196C18.2207 17.3696 18.5331 17.6333 18.8394 17.9106C18.5112 18.6159 18.1596 19.3092 17.7847 19.9907C17.2964 19.5415 16.8277 19.0727 16.3784 18.5845C16.835 18.268 17.3038 17.9652 17.7847 17.6763C17.8859 17.5061 17.9249 17.3206 17.9019 17.1196ZM11.3394 18.3501C11.3977 18.3451 11.4465 18.3646 11.4858 18.4087C11.8378 19.2397 12.2577 20.0307 12.7456 20.7817C13.1833 21.0473 13.6032 21.018 14.0054 20.6938C14.0913 20.8847 14.1596 21.0801 14.2104 21.2798C12.282 21.8903 11.1589 23.1989 10.8413 25.2056C10.812 25.5762 10.8023 25.9472 10.812 26.3188C10.519 26.3188 10.2261 26.3188 9.93311 26.3188C9.94283 25.7912 9.93311 25.2638 9.90381 24.7368C9.69973 24.4151 9.42627 24.1807 9.0835 24.0337C8.62459 24.1604 8.5074 24.4338 8.73193 24.854C8.81004 24.9321 8.8882 25.0103 8.96631 25.0884C8.99561 25.4981 9.00533 25.9082 8.99561 26.3188C8.37059 26.3188 7.74563 26.3188 7.12061 26.3188C7.11082 24.8148 7.12061 23.3109 7.1499 21.8071C7.22432 20.483 7.85906 19.5357 9.0542 18.9653C9.82049 18.7495 10.5822 18.5444 11.3394 18.3501ZM19.6597 18.3501C20.4669 18.5275 21.2676 18.7325 22.062 18.9653C23.2571 19.5357 23.8919 20.483 23.9663 21.8071C23.9956 23.3109 24.0054 24.8148 23.9956 26.3188C23.3706 26.3188 22.7456 26.3188 22.1206 26.3188C22.1109 25.9082 22.1206 25.4981 22.1499 25.0884C22.5095 24.824 22.5779 24.5115 22.355 24.1509C22.1646 24.013 21.9693 24.0033 21.769 24.1216C21.5619 24.3091 21.3763 24.5142 21.2124 24.7368C21.1831 25.2638 21.1734 25.7912 21.1831 26.3188C20.8901 26.3188 20.5972 26.3188 20.3042 26.3188C20.4115 25.0888 20.1087 23.9755 19.396 22.979C18.7949 22.7229 18.5411 22.9182 18.6343 23.5649C19.4948 24.8547 19.5925 26.2024 18.9272 27.6079C17.7599 29.4163 16.1486 29.9926 14.0933 29.3364C12.1899 28.3713 11.4575 26.8381 11.896 24.7368C12.428 23.1696 13.512 22.2614 15.1479 22.0122C15.9097 21.9406 16.6323 22.0773 17.3159 22.4224C17.8236 22.481 18.0287 22.2563 17.9312 21.7485C17.6364 21.4888 17.2946 21.3326 16.9058 21.2798C16.9566 21.0801 17.0249 20.8847 17.1108 20.6938C17.6265 21.0796 18.1148 21.0405 18.5757 20.5767C18.9537 19.8401 19.3151 19.0979 19.6597 18.3501ZM15.4995 19.1704C15.8269 19.3999 16.1199 19.6734 16.3784 19.9907C16.2181 20.3351 16.0814 20.6867 15.9683 21.0454C15.6948 21.0454 15.4214 21.0454 15.1479 21.0454C15.0348 20.6867 14.8981 20.3351 14.7378 19.9907C14.993 19.7161 15.2469 19.4426 15.4995 19.1704ZM15.4995 23.8579C15.5508 23.8502 15.5899 23.8697 15.6167 23.9165C15.7774 24.2429 15.9727 24.5456 16.2026 24.8247C16.5959 25.0052 17.006 25.1419 17.4331 25.2349C17.2085 25.4985 16.9839 25.7622 16.7593 26.0259C16.6826 26.4932 16.6533 26.962 16.6714 27.4321C16.3172 27.245 15.9461 27.1083 15.5581 27.022C15.1702 27.1083 14.799 27.245 14.4448 27.4321C14.4629 26.962 14.4336 26.4932 14.3569 26.0259C14.1323 25.7622 13.9077 25.4985 13.6831 25.2349C14.1102 25.1419 14.5204 25.0052 14.9136 24.8247C15.1617 24.5333 15.3571 24.211 15.4995 23.8579Z" fill="#068FFF"/>
<path opacity="0.926" fill-rule="evenodd" clip-rule="evenodd" d="M15.3237 22.8618C15.7434 22.8095 16.0852 22.9462 16.3491 23.272C16.4956 23.5258 16.642 23.7798 16.7885 24.0337C17.1987 24.1568 17.6089 24.2838 18.019 24.4145C18.4129 24.7371 18.5204 25.1375 18.3413 25.6157C18.1069 25.8892 17.8725 26.1626 17.6381 26.436C17.652 26.8846 17.652 27.3338 17.6381 27.7837C17.4713 28.1699 17.1783 28.3847 16.7592 28.4282C16.3502 28.3215 15.9596 28.1652 15.5873 27.9595C13.9185 28.823 13.2154 28.3152 13.478 26.436C13.1775 26.1361 12.9236 25.804 12.7163 25.4399C12.6348 25.0201 12.7618 24.6783 13.0971 24.4145C13.5072 24.2838 13.9174 24.1568 14.3276 24.0337C14.4741 23.7798 14.6206 23.5258 14.767 23.272C14.9152 23.0736 15.1008 22.9369 15.3237 22.8618ZM15.4995 23.8579C15.357 24.211 15.1617 24.5332 14.9135 24.8247C14.5203 25.0052 14.1101 25.1419 13.6831 25.2348C13.9076 25.4985 14.1323 25.7622 14.3569 26.0259C14.4335 26.4932 14.4628 26.962 14.4448 27.4321C14.799 27.245 15.1701 27.1083 15.5581 27.022C15.946 27.1083 16.3171 27.245 16.6713 27.4321C16.6533 26.962 16.6826 26.4932 16.7592 26.0259C16.9838 25.7622 17.2085 25.4985 17.4331 25.2348C17.006 25.1419 16.5958 25.0052 16.2026 24.8247C15.9727 24.5456 15.7773 24.2428 15.6166 23.9165C15.5899 23.8697 15.5508 23.8502 15.4995 23.8579Z" fill="#068FFF"/>
</g>
<defs>
<clipPath id="clip0_409_494">
<rect width="30" height="30" fill="white" transform="translate(0.587402 0.566895)"/>
</clipPath>
</defs>
</svg>
