<svg width="35" height="36" viewBox="0 0 35 36" fill="none" xmlns="http://www.w3.org/2000/svg">
<path opacity="0.919" fill-rule="evenodd" clip-rule="evenodd" d="M16.2354 2.97607C18.2995 3.18319 19.2679 4.32251 19.1406 6.39404C18.739 9.03798 17.668 11.3622 15.9278 13.3667C15.9619 13.7555 16.0303 14.1428 16.1328 14.5288C16.3138 15.6968 16.0176 16.7222 15.2442 17.605C14.0251 18.824 12.806 20.0432 11.5869 21.2622C11.2164 21.4574 10.9316 21.3777 10.7324 21.0229C10.199 19.5365 9.65215 18.0555 9.09181 16.5796C7.91829 15.4061 6.74481 14.2326 5.57131 13.0591C4.0674 12.5122 2.56349 11.9653 1.05959 11.4185C0.85511 11.2721 0.775355 11.0784 0.820329 10.8374C2.24659 9.2972 3.7391 7.82747 5.29787 6.42822C6.44142 5.87228 7.60356 5.8381 8.7842 6.32568C10.9234 4.44725 13.4071 3.33072 16.2354 2.97607ZM15.7569 4.00146C16.8698 3.81253 17.6559 4.22269 18.1153 5.23193C18.2509 6.04856 18.1712 6.84609 17.876 7.62451C16.6581 6.6231 15.5416 5.51796 14.5264 4.30908C14.9421 4.19219 15.3522 4.08965 15.7569 4.00146ZM13.4326 4.6167C14.2564 5.52071 15.0995 6.42077 15.9619 7.31689C16.5088 7.77265 17.0557 8.22833 17.6026 8.68408C16.1747 12.2083 13.7252 14.749 10.2539 16.3062C8.76417 14.8848 7.29444 13.4379 5.84474 11.9653C7.40402 8.50327 9.93332 6.05369 13.4326 4.6167ZM6.87013 6.94092C7.23757 6.97556 7.60213 7.03253 7.96388 7.11182C6.64312 8.44332 5.64051 9.98141 4.95607 11.7261C4.03211 11.4485 3.12065 11.1294 2.2217 10.769C3.28031 9.67625 4.35127 8.59392 5.43459 7.52197C5.87425 7.21028 6.35276 7.01659 6.87013 6.94092ZM15.0049 14.2554C15.3131 15.0237 15.2561 15.7757 14.834 16.5112C13.7195 17.6942 12.5801 18.8563 11.416 19.9976C11.0924 19.1062 10.762 18.2175 10.4248 17.3315C12.1566 16.6008 13.6832 15.5755 15.0049 14.2554Z" fill="#068FFF"/>
<path opacity="0.927" fill-rule="evenodd" clip-rule="evenodd" d="M30.5225 5.64214C31.0694 5.63004 31.2631 5.88068 31.1035 6.3941C29.5198 7.97778 27.9362 9.56139 26.3525 11.1451C24.8775 11.2348 23.3963 11.2803 21.9092 11.2818C21.3851 11.8059 20.861 12.3299 20.3369 12.8541C19.7703 12.9423 19.5538 12.7031 19.6875 12.1363C20.2913 11.5325 20.8952 10.9286 21.499 10.3248C22.9573 10.302 24.4157 10.2792 25.874 10.2564C27.4163 8.70266 28.9658 7.16459 30.5225 5.64214Z" fill="#068FFF"/>
<path opacity="0.966" fill-rule="evenodd" clip-rule="evenodd" d="M12.0654 7.41943C13.6873 7.43529 14.576 8.24419 14.7314 9.84619C14.6155 11.318 13.818 12.1269 12.3389 12.2729C10.8622 12.1281 10.0646 11.3192 9.94629 9.84619C10.0382 8.49021 10.7445 7.68132 12.0654 7.41943Z" fill="#068FFF"/>
<path opacity="0.932" fill-rule="evenodd" clip-rule="evenodd" d="M29.9756 12.1362C31.2052 13.5029 32.4129 14.8929 33.5986 16.3062C32.9165 16.3744 32.2329 16.3972 31.5478 16.3745C31.5478 21.5015 31.5478 26.6284 31.5478 31.7554C32.3496 31.7272 33.1472 31.7614 33.9404 31.8579C34.149 32.0731 34.1832 32.3124 34.0429 32.5757C33.9629 32.6709 33.8604 32.7279 33.7353 32.7466C23.1852 32.7922 12.635 32.7922 2.08494 32.7466C1.71532 32.5954 1.61278 32.3333 1.77732 31.9604C1.87922 31.8576 2.00455 31.8007 2.1533 31.7896C4.02165 31.7554 5.89014 31.744 7.75877 31.7554C7.74735 29.9095 7.75877 28.0638 7.79295 26.2183C7.82713 26.1385 7.88407 26.0815 7.96384 26.0474C9.26267 26.0018 10.5615 26.0018 11.8603 26.0474C11.9173 26.1043 11.9743 26.1613 12.0312 26.2183C12.0654 28.0638 12.0768 29.9095 12.0654 31.7554C12.8401 31.7554 13.6149 31.7554 14.3896 31.7554C14.3782 29.1576 14.3896 26.56 14.4238 23.9624C14.451 23.7756 14.5536 23.6503 14.7314 23.5864C15.9847 23.5408 17.238 23.5408 18.4912 23.5864C18.589 23.6182 18.6687 23.6752 18.7304 23.7573C18.7646 26.4233 18.776 29.0893 18.7646 31.7554C19.5393 31.7554 20.3141 31.7554 21.0888 31.7554C21.0774 28.0411 21.0888 24.3269 21.123 20.6128C21.1467 20.4523 21.2264 20.327 21.3623 20.2368C22.6611 20.1912 23.9599 20.1912 25.2588 20.2368C25.3157 20.2938 25.3727 20.3508 25.4297 20.4077C25.4638 24.1902 25.4753 27.9728 25.4638 31.7554C26.4665 31.7554 27.469 31.7554 28.4717 31.7554C28.4717 26.6284 28.4717 21.5015 28.4717 16.3745C27.7649 16.3859 27.0585 16.3745 26.3525 16.3403C27.5745 14.9477 28.7822 13.5463 29.9756 12.1362ZM22.1142 21.1597C22.9118 21.1597 23.7093 21.1597 24.5068 21.1597C24.5068 24.6916 24.5068 28.2234 24.5068 31.7554C23.7093 31.7554 22.9118 31.7554 22.1142 31.7554C22.1142 28.2234 22.1142 24.6916 22.1142 21.1597ZM15.415 24.5093C16.2126 24.5093 17.01 24.5093 17.8076 24.5093C17.8076 26.9246 17.8076 29.34 17.8076 31.7554C17.01 31.7554 16.2126 31.7554 15.415 31.7554C15.415 29.34 15.415 26.9246 15.415 24.5093ZM8.7158 26.9702C9.51335 26.9702 10.3108 26.9702 11.1084 26.9702C11.1084 28.5652 11.1084 30.1603 11.1084 31.7554C10.3108 31.7554 9.51335 31.7554 8.7158 31.7554C8.7158 30.1603 8.7158 28.5652 8.7158 26.9702Z" fill="#068FFF"/>
<path opacity="0.877" fill-rule="evenodd" clip-rule="evenodd" d="M18.6279 13.2983C19.0841 13.3556 19.255 13.6062 19.1406 14.0503C18.9697 14.2212 18.7988 14.3921 18.6279 14.563C18.0289 14.7619 17.7897 14.5455 17.9101 13.9136C18.1238 13.6647 18.3631 13.4596 18.6279 13.2983Z" fill="#068FFF"/>
<path opacity="0.912" fill-rule="evenodd" clip-rule="evenodd" d="M4.40916 14.0502C4.82057 13.9608 5.07123 14.1202 5.16111 14.5288C4.79446 15.2166 4.46406 15.9229 4.1699 16.6479C3.92339 17.2694 3.76388 17.9074 3.69139 18.562C5.03315 18.2728 6.2978 17.7829 7.48533 17.0922C7.97526 17.0353 8.19169 17.2517 8.13475 17.7417C8.02387 17.9061 7.87573 18.0314 7.69041 18.1176C6.22333 18.9562 4.65106 19.4347 2.97361 19.5532C2.70157 19.4521 2.58764 19.2584 2.63182 18.9721C2.83289 17.1835 3.42534 15.5429 4.40916 14.0502Z" fill="#068FFF"/>
</svg>
