<svg width="42" height="42" viewBox="0 0 42 42" fill="none" xmlns="http://www.w3.org/2000/svg">
<g clip-path="url(#clip0_770_1741)">
<path opacity="0.995" fill-rule="evenodd" clip-rule="evenodd" d="M21.1231 0.615234C27.5762 0.601563 34.0294 0.615234 40.4824 0.65625C40.8516 0.80664 41.1114 1.06641 41.2617 1.43555C41.3165 5.26367 41.3165 9.09177 41.2617 12.9199C41.1114 13.2891 40.8516 13.5489 40.4824 13.6992C37.6935 13.7402 34.9045 13.7539 32.1153 13.7402C32.1153 13.3028 32.1153 12.8652 32.1153 12.4277C34.7403 12.4277 37.3653 12.4277 39.9903 12.4277C39.9903 8.92771 39.9903 5.42774 39.9903 1.92773C33.8652 1.92773 27.7403 1.92773 21.6153 1.92773C21.6153 5.42774 21.6153 8.92771 21.6153 12.4277C22.4903 12.4277 23.3652 12.4277 24.2403 12.4277C24.2403 12.8652 24.2403 13.3028 24.2403 13.7402C23.2008 13.7539 22.1617 13.7402 21.1231 13.6992C20.7539 13.5489 20.4941 13.2891 20.3438 12.9199C20.2891 9.09177 20.2891 5.26367 20.3438 1.43555C20.5096 1.06477 20.7694 0.791331 21.1231 0.615234Z" fill="#068FFF"/>
<path opacity="0.898" fill-rule="evenodd" clip-rule="evenodd" d="M28.5879 3.4043C30.3856 5.07884 32.1493 6.8015 33.8789 8.57227C33.9336 8.62698 33.9336 8.68161 33.8789 8.73633C33.5918 9.02344 33.3047 9.31055 33.0176 9.59766C32.9629 9.65237 32.9083 9.65237 32.8535 9.59766C31.1446 7.88867 29.4355 6.17968 27.7266 4.4707C27.6719 4.41601 27.6719 4.36133 27.7266 4.30664C28.0304 4.0166 28.3175 3.71582 28.5879 3.4043Z" fill="#068FFF"/>
<path opacity="0.894" fill-rule="evenodd" clip-rule="evenodd" d="M33.1817 3.4043C34.323 4.4224 35.4305 5.48881 36.5039 6.60352C36.5586 6.65821 36.5586 6.71289 36.5039 6.76758C36.2168 7.05469 35.9297 7.3418 35.6426 7.62891C35.5879 7.6836 35.5333 7.6836 35.4785 7.62891C34.4258 6.57617 33.373 5.52343 32.3203 4.4707C32.2656 4.41601 32.2656 4.36133 32.3203 4.30664C32.6242 4.0166 32.9113 3.71582 33.1817 3.4043Z" fill="#068FFF"/>
<path opacity="0.887" fill-rule="evenodd" clip-rule="evenodd" d="M25.9629 6.0293C26.695 6.62452 27.3787 7.28077 28.0137 7.99805C27.7129 8.35349 27.3847 8.68161 27.0293 8.98242C26.3457 8.35349 25.6895 7.69726 25.0605 7.01367C25.3632 6.6839 25.6639 6.35577 25.9629 6.0293Z" fill="#068FFF"/>
<path opacity="0.973" fill-rule="evenodd" clip-rule="evenodd" d="M27.5215 9.80274C29.1592 9.57444 30.2393 10.2307 30.7617 11.7715C30.8027 12.4272 30.8164 13.0834 30.8027 13.7402C30.3653 13.7402 29.9277 13.7402 29.4902 13.7402C29.5139 13.1608 29.4728 12.5866 29.3672 12.0176C29.0465 11.3309 28.5133 11.0712 27.7676 11.2383C27.23 11.4516 26.9429 11.8481 26.9062 12.4277C26.8652 14.1775 26.8515 15.9275 26.8652 17.6777C27.3027 17.6777 27.7403 17.6777 28.1777 17.6777C28.1777 17.2403 28.1777 16.8027 28.1777 16.3652C28.6152 16.3652 29.0528 16.3652 29.4902 16.3652C29.4902 16.8027 29.4902 17.2403 29.4902 17.6777C32.7169 17.664 35.9435 17.6777 39.1699 17.7188C39.5391 17.8691 39.7989 18.1289 39.9492 18.498C40.0039 19.6465 40.0039 20.7949 39.9492 21.9434C39.508 24.1665 38.2365 25.6978 36.1348 26.5371C36.0254 29.9277 36.0254 33.3184 36.1348 36.709C36.7784 36.8598 37.3116 37.1879 37.7344 37.6934C38.1959 38.4385 38.6471 39.1904 39.0879 39.9492C39.6067 39.9902 40.1262 40.0039 40.6465 39.9902C40.6465 40.4277 40.6465 40.8653 40.6465 41.3027C27.3027 41.3027 13.959 41.3027 0.615234 41.3027C0.615234 40.8653 0.615234 40.4277 0.615234 39.9902C1.46289 39.9902 2.31055 39.9902 3.1582 39.9902C3.17188 36.2987 3.1582 32.6073 3.11719 28.916C2.33477 24.6484 1.5418 20.3828 0.738281 16.1191C0.553366 15.4747 0.580709 14.8458 0.820312 14.2324C0.979322 14.0186 1.1844 13.8683 1.43555 13.7813C2.41992 13.7265 3.4043 13.7265 4.38867 13.7813C4.94678 14.0128 5.26123 14.4367 5.33203 15.0527C6.14766 19.4271 6.95431 23.8021 7.75195 28.1777C11.4708 28.164 15.1896 28.1777 18.9082 28.2188C19.5782 28.4511 20.0293 28.9023 20.2617 29.5723C20.4466 32.197 19.3665 34.0974 17.0215 35.2734C16.671 35.3994 16.3155 35.5088 15.9551 35.6016C14.8917 35.734 13.8253 35.8298 12.7559 35.8887C13.0436 37.2311 13.3444 38.5709 13.6582 39.9082C16.6109 40.0039 19.564 40.0176 22.5176 39.9492C22.9584 39.1904 23.4096 38.4385 23.8711 37.6934C24.2939 37.1879 24.8271 36.8598 25.4707 36.709C25.5801 33.3184 25.5801 29.9277 25.4707 26.5371C22.7035 25.3523 21.4183 23.2468 21.6152 20.2207C21.6289 19.6465 21.6426 19.0723 21.6562 18.498C21.8066 18.1289 22.0664 17.8691 22.4355 17.7188C23.4742 17.6777 24.5133 17.664 25.5527 17.6777C25.539 15.7088 25.5527 13.7401 25.5938 11.7715C25.8685 10.7449 26.511 10.0886 27.5215 9.80274ZM2.00977 15.0527C2.67492 15.0024 3.3175 15.0571 3.9375 15.2168C4.71803 19.5158 5.52467 23.8088 6.35742 28.0957C5.70344 28.1776 5.04719 28.2049 4.38867 28.1777C3.5957 23.8028 2.80274 19.4277 2.00977 15.0527ZM11.1152 17.6777C12.8652 17.6777 14.6153 17.6777 16.3652 17.6777C16.3652 18.9902 16.3652 20.3027 16.3652 21.6152C14.6153 21.6152 12.8652 21.6152 11.1152 21.6152C11.1152 20.3027 11.1152 18.9902 11.1152 17.6777ZM22.9277 18.9902C28.1777 18.9902 33.4277 18.9902 38.6777 18.9902C38.7319 20.1529 38.6362 21.3013 38.3906 22.4355C37.7363 24.0192 36.5742 25.0172 34.9043 25.4297C32.1699 25.5938 29.4355 25.5938 26.7012 25.4297C25.0306 25.0165 23.8685 24.0184 23.2148 22.4355C22.9692 21.3013 22.8736 20.1529 22.9277 18.9902ZM12.4277 22.9277C13.3028 22.9277 14.1777 22.9277 15.0527 22.9277C15.0527 23.3652 15.0527 23.8028 15.0527 24.2402C14.1777 24.2402 13.3028 24.2402 12.4277 24.2402C12.4277 23.8028 12.4277 23.3652 12.4277 22.9277ZM26.8652 26.8652C29.4902 26.8652 32.1152 26.8652 34.7402 26.8652C34.7402 30.1465 34.7402 33.4277 34.7402 36.709C32.1152 36.709 29.4902 36.709 26.8652 36.709C26.8652 33.4277 26.8652 30.1465 26.8652 26.8652ZM4.55273 29.4902C9.14657 29.4765 13.7403 29.4902 18.334 29.5312C18.5796 29.5646 18.7573 29.6876 18.8672 29.9004C18.9081 30.2 18.9217 30.5007 18.9082 30.8027C14.1231 30.8027 9.33786 30.8027 4.55273 30.8027C4.55273 30.3653 4.55273 29.9277 4.55273 29.4902ZM4.55273 32.1152C9.17388 32.1015 13.795 32.1152 18.416 32.1562C17.808 33.1737 16.933 33.8573 15.791 34.207C13.581 34.422 11.3662 34.5861 9.14648 34.6992C9.08677 35.144 9.08677 35.5952 9.14648 36.0527C9.8855 36.0424 10.6238 36.0151 11.3613 35.9707C11.6347 37.3105 11.9082 38.6504 12.1816 39.9902C9.63867 39.9902 7.0957 39.9902 4.55273 39.9902C4.55273 37.3652 4.55273 34.7402 4.55273 32.1152ZM26.0449 38.0215C29.3837 37.9833 32.7196 38.0244 36.0527 38.1445C36.2031 38.2403 36.3535 38.3359 36.5039 38.4316C36.8081 38.9444 37.1225 39.4502 37.4473 39.9492C33.0176 40.0039 28.5879 40.0039 24.1582 39.9492C24.483 39.4502 24.7974 38.9444 25.1016 38.4316C25.3801 38.1892 25.6946 38.0526 26.0449 38.0215Z" fill="#068FFF"/>
<path opacity="0.987" fill-rule="evenodd" clip-rule="evenodd" d="M10.623 16.3652C12.7014 16.3515 14.7795 16.3652 16.8574 16.4063C17.2266 16.5566 17.4864 16.8164 17.6367 17.1856C17.6777 17.7865 17.6914 18.3881 17.6777 18.9902C18.1152 18.9902 18.5528 18.9902 18.9902 18.9902C18.9902 19.4277 18.9902 19.8653 18.9902 20.3027C18.5528 20.3027 18.1152 20.3027 17.6777 20.3027C17.7023 20.9363 17.675 21.5652 17.5957 22.1895C17.3503 22.7087 16.9402 22.9548 16.3652 22.9277C16.7756 25.0878 15.9005 25.9627 13.7402 25.5527C11.5799 25.9627 10.7049 25.0878 11.1152 22.9277C10.4984 22.9542 10.0746 22.6808 9.84375 22.1074C9.80273 21.5065 9.78912 20.9049 9.80273 20.3027C9.36526 20.3027 8.92771 20.3027 8.49023 20.3027C8.49023 19.8653 8.49023 19.4277 8.49023 18.9902C8.92771 18.9902 9.36526 18.9902 9.80273 18.9902C9.78912 18.3881 9.80273 17.7865 9.84375 17.1856C10.0096 16.8148 10.2694 16.5414 10.623 16.3652ZM11.1152 17.6777C11.1152 18.9902 11.1152 20.3027 11.1152 21.6152C12.8652 21.6152 14.6153 21.6152 16.3652 21.6152C16.3652 20.3027 16.3652 18.9902 16.3652 17.6777C14.6153 17.6777 12.8652 17.6777 11.1152 17.6777ZM12.4277 22.9277C12.4277 23.3652 12.4277 23.8028 12.4277 24.2402C13.3028 24.2402 14.1777 24.2402 15.0527 24.2402C15.0527 23.8028 15.0527 23.3652 15.0527 22.9277C14.1777 22.9277 13.3028 22.9277 12.4277 22.9277Z" fill="#068FFF"/>
</g>
<defs>
<clipPath id="clip0_770_1741">
<rect width="42" height="42" fill="white"/>
</clipPath>
</defs>
</svg>
