<svg width="30" height="30" viewBox="0 0 30 30" fill="none" xmlns="http://www.w3.org/2000/svg">
<path opacity="0.967" fill-rule="evenodd" clip-rule="evenodd" d="M11.9823 1.14252C12.2345 1.10128 12.4396 1.17941 12.5976 1.3769C12.6171 2.52924 12.6367 3.68158 12.6562 4.83393C12.9198 5.01948 13.1835 5.20502 13.4472 5.39057C13.5253 5.42963 13.6035 5.42963 13.6816 5.39057C13.9452 5.20502 14.2089 5.01948 14.4726 4.83393C14.4921 3.68158 14.5117 2.52924 14.5312 1.3769C14.804 1.09569 15.1067 1.06639 15.4394 1.28901C17.5383 2.54544 18.2316 4.35208 17.5195 6.70893C17.4023 6.9433 17.2851 7.17768 17.1679 7.41205C16.7968 7.86129 16.4257 8.31047 16.0546 8.75971C15.933 9.25951 15.8842 9.76735 15.9081 10.2831C16.8068 10.2929 17.7052 10.2831 18.6034 10.2538C18.7401 10.1172 18.8769 9.98039 19.0136 9.84369C18.6815 9.82418 18.3496 9.80461 18.0175 9.7851C17.9101 9.7558 17.8417 9.68742 17.8124 9.58002C17.7733 8.79879 17.7733 8.0175 17.8124 7.23627C17.8417 7.12887 17.9101 7.06049 18.0175 7.03119C18.3496 7.01168 18.6815 6.99211 19.0136 6.9726C18.8085 6.76752 18.6034 6.56244 18.3984 6.35737C18.279 6.13272 18.2985 5.91785 18.457 5.71283C18.9393 5.19122 19.4569 4.7127 20.0097 4.27729C20.1074 4.23822 20.205 4.23822 20.3027 4.27729C20.5644 4.48032 20.8085 4.70493 21.0351 4.95112C21.0546 4.61908 21.0742 4.28705 21.0937 3.95502C21.123 3.8476 21.1913 3.77924 21.2988 3.74994C22.08 3.71088 22.8613 3.71088 23.6425 3.74994C23.7499 3.77924 23.8183 3.8476 23.8476 3.95502C23.8671 4.28705 23.8867 4.61908 23.9062 4.95112C24.1113 4.74604 24.3163 4.54096 24.5214 4.33588C24.7461 4.2165 24.9609 4.23603 25.1659 4.39447C25.6875 4.87684 26.1661 5.39442 26.6015 5.94721C26.6429 6.09199 26.6233 6.22875 26.5429 6.35737C26.3378 6.56244 26.1327 6.76752 25.9277 6.9726C26.2597 6.99211 26.5917 7.01168 26.9238 7.03119C27.0312 7.06049 27.0995 7.12887 27.1288 7.23627C27.1679 8.0175 27.1679 8.79879 27.1288 9.58002C27.0995 9.68742 27.0312 9.7558 26.9238 9.7851C26.5917 9.80461 26.2597 9.82418 25.9277 9.84369C26.0644 9.98039 26.2011 10.1172 26.3378 10.2538C26.5952 10.2548 26.8394 10.3037 27.0702 10.4003C27.7148 11.6894 28.3593 12.9785 29.0038 14.2675C29.0429 14.4238 29.0429 14.58 29.0038 14.7363C28.9745 14.8437 28.9062 14.9121 28.7988 14.9413C28.2522 14.9706 27.7053 14.9804 27.1581 14.9706C27.1581 16.6699 27.1581 18.3691 27.1581 20.0683C28.4225 20.2717 28.9987 21.0139 28.8866 22.2949C28.7257 22.9834 28.3253 23.4814 27.6855 23.789C24.9783 25.3476 22.2634 26.8906 19.5409 28.4179C19.3847 28.457 19.2285 28.496 19.0722 28.5351C16.3183 28.5742 13.5644 28.5742 10.8105 28.5351C10.3103 28.4316 9.8415 28.2461 9.40422 27.9785C9.3557 28.2499 9.32641 28.5233 9.31633 28.7988C9.28703 28.9062 9.21865 28.9746 9.11125 29.0038C7.705 29.0429 6.29875 29.0429 4.8925 29.0038C4.78508 28.9746 4.71672 28.9062 4.68742 28.7988C4.6582 28.5652 4.64843 28.3308 4.65812 28.0956C3.44181 28.1236 2.23087 28.0943 1.02531 28.0078C0.988644 27.9638 0.959347 27.9149 0.937421 27.8613C0.927654 26.6894 0.917892 25.5175 0.908124 24.3456C0.898984 23.1297 0.928281 21.9187 0.996015 20.7128C1.03998 20.6762 1.08882 20.6469 1.1425 20.6249C2.31421 20.5956 3.48609 20.5859 4.65812 20.5956C4.64843 20.3605 4.6582 20.1261 4.68742 19.8925C4.71672 19.7851 4.78508 19.7167 4.8925 19.6874C6.29875 19.6484 7.705 19.6484 9.11125 19.6874C9.21865 19.7167 9.28703 19.7851 9.31633 19.8925C9.34557 20.224 9.35535 20.556 9.34562 20.8886C9.65518 20.8332 9.95793 20.7551 10.2538 20.6542C10.2831 18.7598 10.2929 16.8653 10.2831 14.9706C9.73592 14.9804 9.189 14.9706 8.6425 14.9413C8.5351 14.9121 8.46672 14.8437 8.43742 14.7363C8.39834 14.58 8.39834 14.4238 8.43742 14.2675C9.08195 12.9785 9.72648 11.6894 10.371 10.4003C10.415 10.3637 10.4638 10.3344 10.5175 10.3124C10.7511 10.2832 10.9854 10.2734 11.2206 10.2831C11.2446 9.76735 11.1957 9.25951 11.0741 8.75971C10.7031 8.31047 10.3319 7.86129 9.96086 7.41205C9.10621 5.89764 9.10621 4.3742 9.96086 2.84174C10.4685 2.06982 11.1423 1.50342 11.9823 1.14252ZM11.6308 2.49018C11.6795 3.43714 11.7088 4.39418 11.7187 5.36127C12.2205 5.78387 12.7576 6.16471 13.33 6.50385C13.533 6.55172 13.7283 6.53215 13.9159 6.44526C14.3945 6.12299 14.8729 5.80072 15.3515 5.47846C15.428 4.4877 15.467 3.49161 15.4687 2.49018C16.8338 3.65458 17.1463 5.06083 16.4062 6.70893C16.1204 7.17082 15.7688 7.58098 15.3515 7.9394C15.2538 8.13469 15.1562 8.33004 15.0585 8.52533C14.9768 9.1074 14.9475 9.69334 14.9706 10.2831C14.6581 10.2831 14.3456 10.2831 14.0331 10.2831C14.0429 9.73594 14.0331 9.18903 14.0038 8.64252C13.9142 8.4658 13.7678 8.3877 13.5644 8.40815C13.361 8.3877 13.2145 8.4658 13.1249 8.64252C13.0956 9.18903 13.0859 9.73594 13.0956 10.2831C12.7831 10.2831 12.4706 10.2831 12.1581 10.2831C12.4173 9.07137 12.0756 8.07528 11.1327 7.29487C10.352 6.33908 10.1372 5.26484 10.4882 4.07221C10.7251 3.43581 11.106 2.90847 11.6308 2.49018ZM22.0019 4.65815C22.3144 4.65815 22.6269 4.65815 22.9394 4.65815C22.9296 5.10779 22.9394 5.55701 22.9687 6.0058C23.2155 6.27082 23.5182 6.37822 23.8769 6.32807C24.1973 6.06633 24.5 5.78315 24.7851 5.47846C24.9902 5.68354 25.1952 5.88862 25.4003 6.09369C25.0956 6.37875 24.8124 6.68151 24.5507 7.0019C24.5005 7.36055 24.608 7.6633 24.873 7.9101C25.3217 7.9394 25.771 7.94912 26.2206 7.9394C26.2206 8.25188 26.2206 8.56442 26.2206 8.8769C25.771 8.86717 25.3217 8.8769 24.873 8.90619C24.3865 9.37998 24.406 9.82922 24.9316 10.2538C24.2675 10.2929 23.6034 10.2929 22.9394 10.2538C24.049 9.88149 24.508 9.10998 24.3163 7.9394C23.8761 6.73764 23.0264 6.29819 21.7675 6.62104C20.8213 7.07783 20.4404 7.82977 20.6249 8.8769C20.8105 9.60932 21.2695 10.0683 22.0019 10.2538C21.3378 10.2929 20.6737 10.2929 20.0097 10.2538C20.5353 9.82922 20.5548 9.37998 20.0683 8.90619C19.6195 8.8769 19.1703 8.86717 18.7206 8.8769C18.7206 8.56442 18.7206 8.25188 18.7206 7.9394C19.1703 7.94912 19.6195 7.9394 20.0683 7.9101C20.3333 7.6633 20.4407 7.36055 20.3905 7.0019C20.1288 6.68151 19.8456 6.37875 19.5409 6.09369C19.746 5.88862 19.9511 5.68354 20.1562 5.47846C20.4412 5.78315 20.744 6.06633 21.0644 6.32807C21.423 6.37822 21.7258 6.27082 21.9726 6.0058C22.0019 5.55701 22.0116 5.10779 22.0019 4.65815ZM22.1777 7.52924C23.1893 7.515 23.5311 7.98375 23.203 8.93549C22.8368 9.31699 22.4168 9.38531 21.9433 9.14057C21.5618 8.7743 21.4935 8.35436 21.7382 7.8808C21.8621 7.72723 22.0086 7.61004 22.1777 7.52924ZM11.0448 11.2206C13.3304 11.2011 15.6155 11.2206 17.9003 11.2792C17.4511 12.1777 17.0019 13.0761 16.5527 13.9746C14.2675 14.0527 11.9823 14.0527 9.69719 13.9746C10.163 13.0625 10.6122 12.1446 11.0448 11.2206ZM19.5409 11.2206C21.8264 11.2011 24.1116 11.2206 26.3964 11.2792C26.8456 12.1777 27.2948 13.0761 27.7441 13.9746C25.4589 14.0527 23.1738 14.0527 20.8886 13.9746C20.4228 13.0625 19.9735 12.1446 19.5409 11.2206ZM18.1933 12.8613C18.2615 15.7615 18.2713 18.6717 18.2226 21.5917C16.5998 21.1298 14.9689 20.6904 13.33 20.2734C12.6149 20.1413 11.9117 20.1902 11.2206 20.4199C11.2206 18.6035 11.2206 16.7871 11.2206 14.9706C13.1738 14.9804 15.127 14.9706 17.08 14.9413C17.1337 14.9194 17.1825 14.8901 17.2265 14.8535C17.5654 14.1953 17.8877 13.5312 18.1933 12.8613ZM19.1894 12.8613C19.5444 13.5126 19.8862 14.1766 20.2148 14.8535C20.2587 14.8901 20.3076 14.9194 20.3613 14.9413C22.3143 14.9706 24.2674 14.9804 26.2206 14.9706C26.2401 16.7289 26.2206 18.4867 26.162 20.2441C24.6327 21.1308 23.0995 22.0097 21.5624 22.8808C21.3797 22.7569 21.2137 22.6104 21.0644 22.4413C20.4657 22.1867 19.8504 21.9816 19.2187 21.8261C19.1894 18.8379 19.1796 15.8496 19.1894 12.8613ZM5.59562 20.5956C6.53312 20.5956 7.47062 20.5956 8.40812 20.5956C8.40812 23.0957 8.40812 25.5956 8.40812 28.0956C7.47062 28.0956 6.53312 28.0956 5.59562 28.0956C5.59562 25.5956 5.59562 23.0957 5.59562 20.5956ZM26.748 21.0644C27.4994 21.025 27.8802 21.3766 27.8905 22.1191C27.8357 22.3363 27.7283 22.5219 27.5683 22.6757C24.8239 24.2726 22.07 25.8546 19.3066 27.4218C19.0436 27.5279 18.7702 27.5865 18.4863 27.5976C16.123 27.6367 13.7597 27.6367 11.3964 27.5976C11.1586 27.5777 10.9243 27.5386 10.6933 27.4804C10.2565 27.2913 9.8268 27.0863 9.40422 26.8652C9.32641 25.2109 9.32641 23.5605 9.40422 21.914C10.3113 21.6848 11.2195 21.4602 12.1288 21.2402C12.3908 21.1808 12.6545 21.1711 12.9198 21.2109C15.4033 21.8629 17.8838 22.527 20.3613 23.2031C20.9286 23.5959 21.0165 24.0745 20.6249 24.6386C20.4326 24.808 20.208 24.9056 19.9511 24.9316C18.0715 24.4515 16.1965 23.9535 14.3261 23.4374C13.6816 23.3006 13.4375 23.5448 13.5937 24.1699C13.671 24.2863 13.7784 24.3547 13.9159 24.3749C15.918 24.9349 17.9297 25.4525 19.9511 25.9277C21.0947 25.8193 21.7392 25.1943 21.8847 24.0527C21.8784 23.9975 21.8588 23.9487 21.8261 23.9062C23.4766 22.9669 25.1172 22.0197 26.748 21.0644ZM1.84562 21.5331C2.78312 21.5331 3.72062 21.5331 4.65812 21.5331C4.65812 23.4081 4.65812 25.2831 4.65812 27.1581C3.72062 27.1581 2.78312 27.1581 1.84562 27.1581C1.84562 25.2831 1.84562 23.4081 1.84562 21.5331Z" fill="#068FFF"/>
</svg>
