<svg width="35" height="36" viewBox="0 0 35 36" fill="none" xmlns="http://www.w3.org/2000/svg">
<path opacity="0.97" fill-rule="evenodd" clip-rule="evenodd" d="M2.22168 1.47217C5.45744 1.46077 8.69312 1.47217 11.9287 1.50635C12.487 1.70003 12.863 2.07601 13.0566 2.63428C13.1022 3.24951 13.1022 3.86475 13.0566 4.47998C12.9328 4.70702 12.7391 4.79817 12.4756 4.75342C12.3077 5.10457 12.171 5.46915 12.0654 5.84717C12.0768 5.93831 12.0882 6.02946 12.0996 6.12061C12.6921 7.03206 12.6921 7.94355 12.0996 8.85498C12.054 9.0373 12.054 9.21954 12.0996 9.40186C12.6921 10.3133 12.6921 11.2248 12.0996 12.1362C12.054 12.3185 12.0085 12.5008 11.9629 12.6831C11.9287 12.8084 11.8489 12.8882 11.7236 12.9224C10.7213 12.9565 9.71865 12.968 8.71582 12.9565C8.71582 15.5086 8.71582 18.0607 8.71582 20.6128C8.35126 20.6128 7.98663 20.6128 7.62207 20.6128C7.62207 18.0607 7.62207 15.5086 7.62207 12.9565C7.25751 12.9565 6.89288 12.9565 6.52832 12.9565C6.52832 20.0659 6.52832 27.1753 6.52832 34.2847C6.25394 34.296 5.9805 34.2846 5.70801 34.2505C5.58268 34.2163 5.50293 34.1365 5.46875 34.0112C5.43457 26.993 5.42317 19.9748 5.43457 12.9565C4.06719 12.968 2.7 12.9565 1.33301 12.9224C1.20768 12.8882 1.12793 12.8084 1.09375 12.6831C0.978243 12.0727 1.11496 11.5259 1.50391 11.0425C1.54948 10.8602 1.54948 10.6779 1.50391 10.4956C0.911455 9.58417 0.911455 8.67267 1.50391 7.76123C1.54948 7.57892 1.54948 7.39667 1.50391 7.21436C0.981907 6.42757 0.924936 5.60726 1.33301 4.75342C1.21704 4.69438 1.13728 4.60324 1.09375 4.47998C1.04817 3.86475 1.04817 3.24951 1.09375 2.63428C1.30013 2.0748 1.67611 1.68743 2.22168 1.47217ZM2.70019 2.56592C5.61695 2.55452 8.53364 2.56592 11.4502 2.6001C11.7578 2.63428 11.9287 2.80518 11.9629 3.11279C11.9969 3.29367 12.0083 3.47597 11.9971 3.65967C8.71582 3.65967 5.43457 3.65967 2.15332 3.65967C2.11922 3.32713 2.18757 3.01952 2.3584 2.73682C2.48244 2.68508 2.59637 2.62811 2.70019 2.56592ZM2.63184 4.75342C3.01987 4.74206 3.40724 4.75346 3.79394 4.7876C3.68672 4.94511 3.60697 5.116 3.55469 5.30029C3.41005 6.00278 3.54677 6.6408 3.96484 7.21436C4.01042 7.39667 4.01042 7.57892 3.96484 7.76123C3.37239 8.67267 3.37239 9.58417 3.96484 10.4956C3.97624 10.5867 3.98763 10.6779 3.99902 10.769C3.89349 11.1471 3.75677 11.5116 3.58887 11.8628C3.20083 11.8741 2.81346 11.8627 2.42676 11.8286C2.53398 11.6711 2.61373 11.5002 2.66602 11.3159C2.81065 10.6135 2.67393 9.97539 2.25586 9.40186C2.21028 9.21954 2.21028 9.0373 2.25586 8.85498C2.84831 7.94355 2.84831 7.03206 2.25586 6.12061C2.24446 6.02946 2.23307 5.93831 2.22168 5.84717C2.32721 5.46915 2.46393 5.10457 2.63184 4.75342ZM5.09277 4.75342C5.48081 4.74206 5.86818 4.75346 6.25488 4.7876C6.14766 4.94511 6.06791 5.116 6.01562 5.30029C5.87099 6.00278 6.00771 6.6408 6.42578 7.21436C6.47136 7.39667 6.47136 7.57892 6.42578 7.76123C5.83333 8.67267 5.83333 9.58417 6.42578 10.4956C6.43718 10.5867 6.44857 10.6779 6.45996 10.769C6.35443 11.1471 6.21771 11.5116 6.0498 11.8628C5.66177 11.8741 5.2744 11.8627 4.88769 11.8286C4.99492 11.6711 5.07467 11.5002 5.12695 11.3159C5.27159 10.6135 5.13487 9.97539 4.7168 9.40186C4.67122 9.21954 4.67122 9.0373 4.7168 8.85498C5.30925 7.94355 5.30925 7.03206 4.7168 6.12061C4.7054 6.02946 4.69401 5.93831 4.68262 5.84717C4.78815 5.46915 4.92487 5.10457 5.09277 4.75342ZM7.55371 4.75342C7.94172 4.74206 8.32911 4.75346 8.71582 4.7876C8.60863 4.94511 8.52886 5.116 8.47656 5.30029C8.33191 6.00278 8.46863 6.6408 8.88672 7.21436C8.93231 7.39667 8.93231 7.57892 8.88672 7.76123C8.29425 8.67267 8.29425 9.58417 8.88672 10.4956C8.89813 10.5867 8.90948 10.6779 8.9209 10.769C8.81535 11.1471 8.67863 11.5116 8.51074 11.8628C8.12273 11.8741 7.73534 11.8627 7.34863 11.8286C7.45582 11.6711 7.5356 11.5002 7.58789 11.3159C7.73254 10.6135 7.59582 9.97539 7.17773 9.40186C7.13214 9.21954 7.13214 9.0373 7.17773 8.85498C7.7702 7.94355 7.7702 7.03206 7.17773 6.12061C7.16632 6.02946 7.15497 5.93831 7.14355 5.84717C7.2491 5.46915 7.38582 5.10457 7.55371 4.75342ZM10.0146 4.75342C10.4027 4.74206 10.79 4.75346 11.1768 4.7876C11.0696 4.94511 10.9898 5.116 10.9375 5.30029C10.7929 6.00278 10.9296 6.6408 11.3477 7.21436C11.3933 7.39667 11.3933 7.57892 11.3477 7.76123C10.7552 8.67267 10.7552 9.58417 11.3477 10.4956C11.3591 10.5867 11.3704 10.6779 11.3818 10.769C11.2763 11.1471 11.1396 11.5116 10.9717 11.8628C10.5837 11.8741 10.1963 11.8627 9.80957 11.8286C9.91676 11.6711 9.99653 11.5002 10.0488 11.3159C10.1935 10.6135 10.0568 9.97539 9.63867 9.40186C9.59308 9.21954 9.59308 9.0373 9.63867 8.85498C10.2311 7.94355 10.2311 7.03206 9.63867 6.12061C9.62726 6.02946 9.61591 5.93831 9.60449 5.84717C9.71004 5.46915 9.84676 5.10457 10.0146 4.75342Z" fill="#068FFF"/>
<path opacity="0.962" fill-rule="evenodd" clip-rule="evenodd" d="M19.7901 1.47211C23.1738 1.2259 25.5551 2.63865 26.9336 5.71039C27.026 5.93051 27.083 6.15838 27.1045 6.39398C28.2441 6.38259 29.3834 6.39399 30.5225 6.42816C31.0808 6.62184 31.4567 6.99782 31.6504 7.55609C31.696 8.17133 31.696 8.78656 31.6504 9.40179C31.6162 9.5271 31.5365 9.60687 31.4111 9.64105C30.3395 9.65247 29.2685 9.68665 28.1983 9.74359C28.6644 10.9071 28.4137 11.8756 27.4463 12.6489C27.0653 12.8709 26.6551 12.9734 26.2158 12.9565C26.3519 15.1915 25.4518 16.8549 23.5156 17.9467C23.4817 18.1046 23.4703 18.2641 23.4815 18.4252C24.1882 18.4139 24.8946 18.4252 25.6006 18.4594C26.0307 18.6158 26.3839 18.8778 26.6602 19.2455C28.1187 19.6301 29.5657 20.0516 31.001 20.5102C32.5815 21.2665 33.5271 22.5084 33.8379 24.2358C33.8835 27.4943 33.8835 30.7527 33.8379 34.0112C33.8037 34.1365 33.724 34.2162 33.5986 34.2504C25.031 34.296 16.4632 34.296 7.89552 34.2504C7.77022 34.2162 7.69045 34.1365 7.65627 34.0112C7.61067 30.7299 7.61067 27.4487 7.65627 24.1674C7.98754 22.4693 8.93315 21.2502 10.4932 20.5102C11.9285 20.0516 13.3755 19.6301 14.834 19.2455C15.1103 18.8778 15.4635 18.6158 15.8936 18.4594C16.5996 18.4252 17.3059 18.4139 18.0127 18.4252C18.0239 18.2641 18.0125 18.1046 17.9785 17.9467C16.0358 16.856 15.1358 15.1926 15.2783 12.9565C14.4775 12.9719 13.8509 12.653 13.3985 11.9995C13.0466 11.2912 13.001 10.5621 13.2617 9.81195C13.4384 9.39605 13.7232 9.07709 14.1162 8.85492C14.0049 5.71429 15.3265 3.42425 18.0811 1.9848C18.6432 1.75922 19.2129 1.58832 19.7901 1.47211ZM20.6787 2.56586C23.6455 2.80976 25.457 4.38202 26.1133 7.28265C26.1513 7.71571 26.1855 8.14863 26.2158 8.58148C25.3041 8.5929 24.3926 8.58148 23.4815 8.5473C22.8899 6.79642 21.6822 6.11283 19.8584 6.49652C18.8829 6.85679 18.2676 7.54037 18.0127 8.5473C17.1016 8.58148 16.19 8.5929 15.2783 8.58148C15.2784 5.55777 16.714 3.60953 19.585 2.73676C19.959 2.67748 20.3237 2.62052 20.6787 2.56586ZM27.3096 7.48773C28.2577 7.46675 29.2033 7.48951 30.1465 7.55609C30.3146 7.58275 30.4286 7.67394 30.4883 7.82953C30.5729 8.07289 30.607 8.32356 30.5908 8.58148C29.5198 8.58148 28.4489 8.58148 27.3779 8.58148C27.3552 8.21692 27.3323 7.85229 27.3096 7.48773ZM20.3369 7.55609C21.2127 7.43564 21.8507 7.76602 22.251 8.5473C21.2484 8.5929 20.2458 8.5929 19.2432 8.5473C19.4932 8.08034 19.8578 7.74996 20.3369 7.55609ZM16.3721 9.67523C19.2659 9.67523 22.1599 9.67523 25.0537 9.67523C25.0651 11.1793 25.0537 12.6832 25.0195 14.187C24.6436 15.839 23.6296 16.853 21.9776 17.2289C20.7259 17.4479 19.5183 17.3112 18.3545 16.8188C17.1349 16.0552 16.4855 14.95 16.4063 13.5034C16.3721 12.2275 16.3607 10.9515 16.3721 9.67523ZM14.9365 9.74359C15.0505 9.74359 15.1644 9.74359 15.2783 9.74359C15.2783 10.4272 15.2783 11.1108 15.2783 11.7944C14.4656 11.6974 14.1352 11.2417 14.2871 10.4272C14.4253 10.1182 14.6418 9.89036 14.9365 9.74359ZM26.2158 9.74359C26.8408 9.79862 27.2053 10.1404 27.3096 10.769C27.2053 11.3975 26.8408 11.7393 26.2158 11.7944C26.2158 11.1108 26.2158 10.4272 26.2158 9.74359ZM19.1065 18.3569C20.2002 18.448 21.294 18.448 22.3877 18.3569C22.513 19.395 22.1029 20.1128 21.1572 20.5102C20.193 20.6719 19.5436 20.296 19.209 19.3823C19.1372 19.044 19.103 18.7022 19.1065 18.3569ZM16.3721 19.519C16.5316 19.519 16.6911 19.519 16.8506 19.519C16.8506 22.2534 16.8506 24.9877 16.8506 27.7221C16.5088 27.7221 16.167 27.7221 15.8252 27.7221C15.8138 25.1699 15.8252 22.6179 15.8594 20.0659C15.9059 19.7575 16.0768 19.5752 16.3721 19.519ZM24.6436 19.519C24.9339 19.497 25.2073 19.5539 25.4639 19.6899C25.5471 19.8025 25.604 19.9278 25.6348 20.0659C25.669 22.6179 25.6804 25.1699 25.669 27.7221C25.3272 27.7221 24.9854 27.7221 24.6436 27.7221C24.6436 24.9877 24.6436 22.2534 24.6436 19.519ZM18.0127 19.5873C18.615 21.3129 19.8227 21.9851 21.6358 21.6039C22.6 21.2549 23.2039 20.5827 23.4473 19.5873C23.5098 21.3892 23.487 23.1894 23.3789 24.9877C22.818 26.6646 21.6673 27.3368 19.9268 27.0043C19.0723 26.6967 18.4912 26.1157 18.1836 25.2612C18.1157 24.9917 18.0701 24.7183 18.0469 24.4409C18.0127 22.8232 18.0013 21.2053 18.0127 19.5873ZM14.6631 20.476C14.7426 21.9455 14.754 23.4266 14.6973 24.9194C14.6635 25.7277 14.2648 26.2632 13.501 26.5258C13.0935 26.594 12.6833 26.6395 12.2705 26.6625C12.1452 26.6967 12.0654 26.7765 12.0313 26.9018C11.9971 28.998 11.9857 31.0944 11.9971 33.1909C10.9094 33.2131 9.82709 33.1902 8.75002 33.1225C8.70442 30.4337 8.70442 27.7449 8.75002 25.0561C8.86513 23.2552 9.76515 22.036 11.4502 21.3989C12.5349 21.1091 13.6059 20.8015 14.6631 20.476ZM26.7627 20.476C27.8522 20.7897 28.946 21.0973 30.044 21.3989C31.729 22.036 32.629 23.2552 32.7442 25.0561C32.7783 27.7676 32.7898 30.4792 32.7783 33.1909C31.7073 33.1909 30.6364 33.1909 29.5654 33.1909C29.5769 31.1855 29.5654 29.1803 29.5313 27.1752C29.5233 26.9421 29.4207 26.7712 29.2236 26.6625C28.6266 26.6733 28.0569 26.5593 27.5147 26.3207C27.0691 25.9879 26.8298 25.5436 26.7969 24.9877C26.7627 23.484 26.7513 21.9801 26.7627 20.476ZM14.6631 27.2436C14.7197 27.6642 14.7539 28.0972 14.7656 28.5424C14.7998 28.6677 14.8796 28.7475 15.0049 28.7817C15.9163 28.8273 16.8278 28.8273 17.7393 28.7817C17.8646 28.7475 17.9444 28.6677 17.9785 28.5424C17.9901 28.1077 18.0243 27.6747 18.0811 27.2436C19.2895 28.3049 20.6567 28.567 22.1826 28.0297C22.6508 27.8529 23.0609 27.5909 23.4131 27.2436C23.4699 27.6747 23.5041 28.1077 23.5156 28.5424C23.5498 28.6677 23.6296 28.7475 23.7549 28.7817C24.7184 28.8476 25.6754 28.8248 26.626 28.7133C26.6688 28.6621 26.703 28.605 26.7285 28.5424C26.7513 28.1095 26.7741 27.6765 26.7969 27.2436C27.2717 27.5988 27.8072 27.7583 28.4033 27.7221C28.4033 29.545 28.4033 31.3679 28.4033 33.1909C23.2991 33.1909 18.195 33.1909 13.0908 33.1909C13.0908 31.3679 13.0908 29.545 13.0908 27.7221C13.6841 27.7622 14.2082 27.6027 14.6631 27.2436Z" fill="#068FFF"/>
<path fill-rule="evenodd" clip-rule="evenodd" d="M18.0127 10.769C18.3773 10.769 18.7419 10.769 19.1064 10.769C19.1064 11.1336 19.1064 11.4982 19.1064 11.8628C18.7419 11.8628 18.3773 11.8628 18.0127 11.8628C18.0127 11.4982 18.0127 11.1336 18.0127 10.769Z" fill="#068FFF"/>
<path fill-rule="evenodd" clip-rule="evenodd" d="M22.3877 10.769C22.7523 10.769 23.1169 10.769 23.4814 10.769C23.4814 11.1336 23.4814 11.4982 23.4814 11.8628C23.1169 11.8628 22.7523 11.8628 22.3877 11.8628C22.3877 11.4982 22.3877 11.1336 22.3877 10.769Z" fill="#068FFF"/>
<path opacity="0.983" fill-rule="evenodd" clip-rule="evenodd" d="M19.1064 14.0503C20.2002 14.0503 21.2939 14.0503 22.3877 14.0503C22.399 14.3247 22.3876 14.5981 22.3535 14.8706C22.3279 14.9332 22.2937 14.9902 22.2509 15.0415C21.7565 15.119 21.2552 15.1531 20.747 15.144C20.2389 15.1531 19.7376 15.119 19.2431 15.0415C19.2003 14.9902 19.1662 14.9332 19.1406 14.8706C19.1065 14.5981 19.0951 14.3247 19.1064 14.0503Z" fill="#068FFF"/>
</svg>
