<svg width="42" height="42" viewBox="0 0 42 42" fill="none" xmlns="http://www.w3.org/2000/svg">
<path opacity="0.963" fill-rule="evenodd" clip-rule="evenodd" d="M5.20899 1.59961C15.9278 1.58594 26.6465 1.59961 37.3652 1.64063C37.461 1.73633 37.5566 1.83203 37.6523 1.92774C37.7071 6.52149 37.7071 11.1152 37.6523 15.709C37.5566 15.8047 37.461 15.9004 37.3652 15.9961C33.6465 16.0508 29.9277 16.0508 26.209 15.9961C26.0191 15.9051 25.896 15.7547 25.8398 15.5449C25.7988 14.178 25.7851 12.8108 25.7988 11.4434C22.7637 11.4434 19.7285 11.4434 16.6934 11.4434C16.7071 12.8655 16.6934 14.2874 16.6523 15.709C16.5566 15.8047 16.461 15.9004 16.3652 15.9961C12.585 16.0773 8.81155 16.0499 5.04492 15.9141C4.94509 15.7789 4.87674 15.6285 4.83985 15.4629C4.78516 11.0332 4.78516 6.60352 4.83985 2.17383C4.88335 1.92076 5.00639 1.72936 5.20899 1.59961ZM6.19336 2.91211C9.22852 2.91211 12.2637 2.91211 15.2988 2.91211C15.2988 6.82227 15.2988 10.7324 15.2988 14.6426C12.2637 14.6426 9.22852 14.6426 6.19336 14.6426C6.19336 10.7324 6.19336 6.82227 6.19336 2.91211ZM16.6934 2.91211C19.7285 2.91211 22.7637 2.91211 25.7988 2.91211C25.7988 5.31836 25.7988 7.72461 25.7988 10.1309C22.7637 10.1309 19.7285 10.1309 16.6934 10.1309C16.6934 7.72461 16.6934 5.31836 16.6934 2.91211ZM27.1934 2.91211C30.2285 2.91211 33.2637 2.91211 36.2988 2.91211C36.2988 6.82227 36.2988 10.7324 36.2988 14.6426C33.2637 14.6426 30.2285 14.6426 27.1934 14.6426C27.1934 10.7324 27.1934 6.82227 27.1934 2.91211Z" fill="#068FFF"/>
<path opacity="0.929" fill-rule="evenodd" clip-rule="evenodd" d="M39.9902 1.59964C40.2984 1.56443 40.5855 1.61912 40.8516 1.7637C40.9647 2.13579 41.0057 2.51861 40.9746 2.91214C41.4387 2.88407 41.6574 3.10281 41.6309 3.56839C41.6503 4.00021 41.4452 4.2463 41.0156 4.30667C40.9883 4.60745 40.9609 4.90823 40.9336 5.20901C40.6283 5.62064 40.2591 5.689 39.8262 5.41409C39.6165 5.04724 39.5345 4.65076 39.5801 4.22464C39.1812 4.19665 38.9625 3.97789 38.9238 3.56839C38.9625 3.15888 39.1812 2.94013 39.5801 2.91214C39.4928 2.38839 39.6295 1.95089 39.9902 1.59964Z" fill="#068FFF"/>
<path opacity="0.93" fill-rule="evenodd" clip-rule="evenodd" d="M1.51758 4.14258C1.73842 4.18431 1.9435 4.26634 2.13281 4.38867C2.23155 4.73451 2.28623 5.08997 2.29688 5.45508C2.91056 5.66856 3.07462 6.07872 2.78906 6.68555C2.63345 6.80993 2.45571 6.86462 2.25586 6.84961C2.26944 7.17887 2.25576 7.50699 2.21484 7.83398C2.08945 8.08139 1.88437 8.19077 1.59961 8.16211C1.18371 8.19343 0.951292 8.00202 0.902344 7.58789C0.861492 7.34331 0.847826 7.09721 0.861328 6.84961C0.449485 6.80857 0.230735 6.57615 0.205078 6.15234C0.255584 5.76188 0.474334 5.55681 0.861328 5.53711C0.815726 5.11099 0.897758 4.71451 1.10742 4.34766C1.25628 4.28558 1.39299 4.21721 1.51758 4.14258Z" fill="#068FFF"/>
<path opacity="0.908" fill-rule="evenodd" clip-rule="evenodd" d="M7.17774 7.50586C7.39818 7.4924 7.61693 7.50608 7.83399 7.54688C7.98437 7.58789 8.08008 7.6836 8.1211 7.83399C8.17579 8.49024 8.17579 9.14649 8.1211 9.80274C7.8158 10.2144 7.44666 10.2827 7.01367 10.0078C6.89939 9.91176 6.83103 9.78871 6.8086 9.63868C6.75391 9.09177 6.75391 8.54495 6.8086 7.99805C6.87456 7.781 6.9976 7.61694 7.17774 7.50586Z" fill="#068FFF"/>
<path opacity="0.908" fill-rule="evenodd" clip-rule="evenodd" d="M28.1778 7.50584C28.5687 7.428 28.8832 7.53738 29.1211 7.83396C29.1758 8.49021 29.1758 9.14646 29.1211 9.80271C28.8158 10.2143 28.4467 10.2827 28.0137 10.0078C27.8994 9.91173 27.831 9.78869 27.8086 9.63865C27.7539 9.09175 27.7539 8.54493 27.8086 7.99803C27.8578 7.7721 27.9808 7.60803 28.1778 7.50584Z" fill="#068FFF"/>
<path opacity="0.944" fill-rule="evenodd" clip-rule="evenodd" d="M20.3027 8.1621C20.9595 8.14845 21.6157 8.16212 22.2714 8.20311C22.7081 8.6095 22.7081 9.01965 22.2714 9.43358C21.6152 9.4883 20.9589 9.4883 20.3027 9.43358C19.7624 9.0103 19.7624 8.58644 20.3027 8.1621Z" fill="#068FFF"/>
<path opacity="0.879" fill-rule="evenodd" clip-rule="evenodd" d="M40.6464 12.7559C41.5097 12.6477 41.8242 13.0032 41.5898 13.8223C41.1683 14.2318 40.7582 14.2044 40.3593 13.7402C40.2439 13.3418 40.3396 13.0137 40.6464 12.7559Z" fill="#068FFF"/>
<path opacity="0.924" fill-rule="evenodd" clip-rule="evenodd" d="M20.9589 16.0371C21.3148 15.9834 21.6293 16.0655 21.9023 16.2832C22.0081 16.6302 22.0491 16.9857 22.0253 17.3496C22.4242 17.3781 22.643 17.5969 22.6816 18.0058C22.6486 18.4217 22.4298 18.6404 22.0253 18.6621C22.0388 18.9369 22.0252 19.2103 21.9843 19.4824C21.733 20.0492 21.3366 20.1722 20.7948 19.8515C20.7435 19.79 20.7025 19.7216 20.6718 19.6465C20.6445 19.3457 20.6171 19.0449 20.5898 18.7441C20.0365 18.5951 19.8451 18.2396 20.0155 17.6777C20.1562 17.4401 20.3613 17.3306 20.6308 17.3496C20.6172 17.0203 20.6309 16.6922 20.6718 16.3652C20.7847 16.2664 20.8803 16.157 20.9589 16.0371Z" fill="#068FFF"/>
<path opacity="0.864" fill-rule="evenodd" clip-rule="evenodd" d="M2.58398 18.6621C3.49114 18.6255 3.76459 19.0221 3.4043 19.8516C2.64862 20.2114 2.25214 19.979 2.21484 19.1543C2.26394 18.9284 2.38699 18.7643 2.58398 18.6621Z" fill="#068FFF"/>
<path opacity="0.966" fill-rule="evenodd" clip-rule="evenodd" d="M31.459 18.6621C31.8465 18.5845 32.1609 18.6938 32.4024 18.9903C32.4434 20.1931 32.4571 21.3962 32.4434 22.5996C32.6423 22.6249 32.8336 22.5975 33.0176 22.5176C33.1878 21.995 33.5433 21.8172 34.084 21.9844C34.3217 22.1251 34.4311 22.3302 34.4122 22.5996C34.9597 22.586 35.5066 22.5996 36.0528 22.6407C36.1485 22.7364 36.2442 22.832 36.3399 22.9278C36.3809 23.4739 36.3945 24.0208 36.3809 24.5684C36.7102 24.5548 37.0383 24.5685 37.3653 24.6094C37.461 24.7051 37.5567 24.8008 37.6524 24.8965C37.7071 29.9277 37.7071 34.959 37.6524 39.9903C37.5567 40.086 37.461 40.1816 37.3653 40.2774C32.006 40.2911 26.6465 40.3047 21.2872 40.3184C15.8665 40.3318 10.4524 40.2907 5.04499 40.1953C4.94515 40.0602 4.8768 39.9098 4.83991 39.7442C4.75883 34.7902 4.78617 29.841 4.92194 24.8965C4.96296 24.7461 5.05866 24.6504 5.20905 24.6094C12.5097 24.5684 19.8105 24.5547 27.1114 24.5684C27.0978 24.0755 27.1115 23.5833 27.1524 23.0918C27.1748 22.9418 27.2432 22.8187 27.3575 22.7227C27.9251 22.6329 28.4993 22.5644 29.0801 22.5176C29.2815 21.9636 29.6644 21.7996 30.2286 22.0254C30.4217 22.1686 30.5037 22.36 30.4747 22.5996C30.6661 22.5996 30.8575 22.5996 31.0489 22.5996C31.0352 21.4509 31.0489 20.3024 31.0899 19.1543C31.139 18.9284 31.2621 18.7643 31.459 18.6621ZM28.5059 23.9121C30.6661 23.9121 32.8263 23.9121 34.9864 23.9121C34.9864 24.1309 34.9864 24.3496 34.9864 24.5684C32.8263 24.5684 30.6661 24.5684 28.5059 24.5684C28.5059 24.3496 28.5059 24.1309 28.5059 23.9121ZM6.19342 25.8809C9.22858 25.8809 12.2637 25.8809 15.2989 25.8809C15.2989 27.8496 15.2989 29.8184 15.2989 31.7871C12.2637 31.7871 9.22858 31.7871 6.19342 31.7871C6.19342 29.8184 6.19342 27.8496 6.19342 25.8809ZM16.6934 25.8809C17.9786 25.8809 19.2637 25.8809 20.5489 25.8809C20.5489 30.2559 20.5489 34.6309 20.5489 39.0059C19.2637 39.0059 17.9786 39.0059 16.6934 39.0059C16.6934 34.6309 16.6934 30.2559 16.6934 25.8809ZM21.9434 25.8809C23.2286 25.8809 24.5137 25.8809 25.7989 25.8809C25.7989 30.2559 25.7989 34.6309 25.7989 39.0059C24.5137 39.0059 23.2286 39.0059 21.9434 39.0059C21.9434 34.6309 21.9434 30.2559 21.9434 25.8809ZM27.1934 25.8809C30.2286 25.8809 33.2637 25.8809 36.2989 25.8809C36.2989 30.2559 36.2989 34.6309 36.2989 39.0059C33.2637 39.0059 30.2286 39.0059 27.1934 39.0059C27.1934 34.6309 27.1934 30.2559 27.1934 25.8809ZM6.19342 33.1817C9.22858 33.1817 12.2637 33.1817 15.2989 33.1817C15.2989 35.1231 15.2989 37.0645 15.2989 39.0059C12.2637 39.0059 9.22858 39.0059 6.19342 39.0059C6.19342 37.0645 6.19342 35.1231 6.19342 33.1817Z" fill="#068FFF"/>
<path opacity="0.868" fill-rule="evenodd" clip-rule="evenodd" d="M37.3652 19.3184C38.2147 19.2158 38.5292 19.5713 38.3086 20.3848C37.9549 20.7848 37.572 20.8122 37.1601 20.4668C36.9483 20.0255 37.0167 19.6426 37.3652 19.3184Z" fill="#068FFF"/>
<path opacity="0.872" fill-rule="evenodd" clip-rule="evenodd" d="M14.3965 21.9434C15.3037 21.9068 15.5771 22.3033 15.2168 23.1328C14.5798 23.472 14.1697 23.2943 13.9863 22.5996C14.0432 22.3199 14.1799 22.1011 14.3965 21.9434Z" fill="#068FFF"/>
<path opacity="0.91" fill-rule="evenodd" clip-rule="evenodd" d="M10.0488 26.4551C10.5418 26.4415 11.0339 26.4552 11.5254 26.4961C12.0556 26.6402 12.2333 26.982 12.0586 27.5215C11.9629 27.6172 11.8672 27.7129 11.7715 27.8086C11.0521 27.8857 10.3412 27.8584 9.63868 27.7266C9.25953 27.1277 9.39628 26.7039 10.0488 26.4551Z" fill="#068FFF"/>
<path opacity="0.928" fill-rule="evenodd" clip-rule="evenodd" d="M1.27156 29.1621C2.17269 29.1362 2.50082 29.5736 2.25594 30.4746C2.8382 30.5532 3.04327 30.8813 2.87117 31.459C2.77754 31.7028 2.5998 31.8395 2.33797 31.8691C2.28673 32.2306 2.21837 32.5862 2.13289 32.9355C1.72743 33.2721 1.34463 33.2447 0.984453 32.8535C0.903004 32.5301 0.848314 32.202 0.82039 31.8691C0.137461 31.5041 0.069101 31.0529 0.615312 30.5156C0.69308 30.476 0.775111 30.4624 0.861406 30.4746C0.797749 29.9606 0.934471 29.5231 1.27156 29.1621Z" fill="#068FFF"/>
<path opacity="0.91" fill-rule="evenodd" clip-rule="evenodd" d="M18.9903 31.1309C19.3777 31.0532 19.6921 31.1626 19.9336 31.459C19.9883 32.1153 19.9883 32.7715 19.9336 33.4278C19.6283 33.8394 19.2592 33.9077 18.8262 33.6328C18.7119 33.5368 18.6435 33.4137 18.6211 33.2637C18.5664 32.7168 18.5664 32.17 18.6211 31.6231C18.6703 31.3972 18.7933 31.2331 18.9903 31.1309Z" fill="#068FFF"/>
<path opacity="0.91" fill-rule="evenodd" clip-rule="evenodd" d="M22.9278 31.1309C23.3152 31.0532 23.6296 31.1626 23.8711 31.459C23.9258 32.1153 23.9258 32.7715 23.8711 33.4278C23.5658 33.8394 23.1967 33.9077 22.7637 33.6328C22.6494 33.5368 22.581 33.4137 22.5586 33.2637C22.5039 32.7168 22.5039 32.17 22.5586 31.6231C22.6078 31.3972 22.7308 31.2331 22.9278 31.1309Z" fill="#068FFF"/>
<path opacity="0.908" fill-rule="evenodd" clip-rule="evenodd" d="M28.1778 31.1308C28.5687 31.053 28.8832 31.1623 29.1211 31.459C29.1758 32.1152 29.1758 32.7715 29.1211 33.4277C28.8158 33.8394 28.4467 33.9077 28.0137 33.6328C27.8994 33.5367 27.831 33.4137 27.8086 33.2637C27.7539 32.7168 27.7539 32.1699 27.8086 31.623C27.8578 31.3971 27.9808 31.2331 28.1778 31.1308Z" fill="#068FFF"/>
<path opacity="0.926" fill-rule="evenodd" clip-rule="evenodd" d="M39.9903 33.0996C40.2985 33.0644 40.5856 33.1191 40.8516 33.2637C40.9647 33.6358 41.0057 34.0186 40.9747 34.4121C41.5569 34.4907 41.762 34.8188 41.5899 35.3965C41.4705 35.6008 41.2927 35.7375 41.0567 35.8067C41.0054 36.1682 40.9371 36.5237 40.8516 36.8731C40.4962 37.2012 40.1406 37.2012 39.7852 36.8731C39.6301 36.5358 39.5481 36.1804 39.5391 35.8067C38.9739 35.5331 38.8373 35.1229 39.129 34.5762C39.2589 34.4646 39.4093 34.4098 39.5801 34.4121C39.4928 33.8884 39.6296 33.4509 39.9903 33.0996Z" fill="#068FFF"/>
<path opacity="0.944" fill-rule="evenodd" clip-rule="evenodd" d="M9.80283 33.7558C10.4597 33.7422 11.1159 33.7558 11.7716 33.7969C11.9219 33.8379 12.0177 33.9336 12.0587 34.084C12.1771 34.4705 12.0814 34.7849 11.7716 35.0273C11.1153 35.082 10.4591 35.082 9.80283 35.0273C9.26397 34.6004 9.26397 34.1767 9.80283 33.7558Z" fill="#068FFF"/>
</svg>
