<svg width="30" height="30" viewBox="0 0 30 30" fill="none" xmlns="http://www.w3.org/2000/svg">
<g clip-path="url(#clip0_474_1113)">
<path opacity="0.939" fill-rule="evenodd" clip-rule="evenodd" d="M29.9707 16.5527C29.9707 17.6855 29.9707 18.8184 29.9707 19.9512C29.8822 20.0295 29.7846 20.0978 29.6777 20.1562C27.5876 20.166 25.4978 20.1953 23.4082 20.2441C23.4958 20.7075 23.5447 21.1762 23.5547 21.6504C23.5938 22.8223 23.5938 23.9941 23.5547 25.166C23.5478 25.3659 23.4599 25.5124 23.291 25.6055C17.7441 25.6446 12.1973 25.6446 6.65039 25.6055C6.48146 25.5124 6.39357 25.3659 6.38672 25.166C6.34764 23.9941 6.34764 22.8223 6.38672 21.6504C6.39674 21.1762 6.44561 20.7075 6.5332 20.2441C4.44363 20.1953 2.35379 20.166 0.263672 20.1562C0.156852 20.0978 0.0591955 20.0295 -0.0292969 19.9512C-0.0292969 18.8184 -0.0292969 17.6855 -0.0292969 16.5527C0.4874 14.0926 1.97177 12.5593 4.42383 11.9531C2.89658 11.1547 2.24229 9.89496 2.46094 8.17383C3.00907 6.23936 4.28837 5.33115 6.29883 5.44922C8.12543 5.82984 9.10195 6.95291 9.22852 8.81836C9.16758 10.2797 8.48402 11.3247 7.17773 11.9531C8.11107 12.153 8.9509 12.5437 9.69727 13.125C10.1429 13.5411 10.5531 13.9805 10.9277 14.4434C11.6435 14.1267 12.3857 13.8923 13.1543 13.7402C10.8245 12.5769 9.83818 10.7019 10.1953 8.11523C10.8757 5.70662 12.4675 4.43708 14.9707 4.30664C17.4739 4.43708 19.0657 5.70662 19.7461 8.11523C20.1022 10.7041 19.1159 12.5791 16.7871 13.7402C17.5557 13.8923 18.2979 14.1267 19.0137 14.4434C19.5316 13.7791 20.137 13.2029 20.8301 12.7148C21.4281 12.3476 22.0726 12.0937 22.7637 11.9531C21.278 11.219 20.6042 10.0178 20.7422 8.34961C21.0453 6.71842 22.0121 5.7516 23.6426 5.44922C25.6545 5.33303 26.9338 6.24123 27.4805 8.17383C27.6991 9.89496 27.0448 11.1547 25.5176 11.9531C27.9696 12.5593 29.454 14.0926 29.9707 16.5527ZM14.3262 5.30273C16.3884 5.1368 17.8239 5.99619 18.6328 7.88086C19.1647 9.85266 18.5886 11.4054 16.9043 12.5391C15.0662 13.4252 13.4353 13.142 12.0117 11.6895C11.0638 10.4846 10.849 9.1565 11.3672 7.70508C11.9581 6.40969 12.9445 5.60889 14.3262 5.30273ZM5.41992 6.41602C6.90434 6.35191 7.83205 7.03547 8.20312 8.4668C8.29957 9.88506 7.66477 10.7933 6.29883 11.1914C4.84453 11.3485 3.89726 10.7333 3.45703 9.3457C3.29111 7.80504 3.9454 6.82852 5.41992 6.41602ZM23.7012 6.41602C25.6621 6.41402 26.5898 7.39061 26.4844 9.3457C26.0442 10.7333 25.0969 11.3485 23.6426 11.1914C22.1675 10.712 21.5522 9.70611 21.7969 8.17383C22.1261 7.24863 22.7608 6.6627 23.7012 6.41602ZM5.5957 12.8613C5.75196 12.8613 5.90818 12.8613 6.06445 12.8613C6.225 14.0726 6.37148 15.2835 6.50391 16.4941C6.28852 16.7582 6.06387 17.0122 5.83008 17.2559C5.56699 16.9829 5.31309 16.6997 5.06836 16.4062C5.26073 15.229 5.43651 14.0474 5.5957 12.8613ZM23.877 12.8613C24.0332 12.8613 24.1894 12.8613 24.3457 12.8613C24.5049 14.0474 24.6807 15.229 24.873 16.4062C24.6283 16.6997 24.3744 16.9829 24.1113 17.2559C23.8189 16.982 23.5846 16.6695 23.4082 16.3184C23.5864 15.1685 23.7427 14.0161 23.877 12.8613ZM4.42383 12.9785C4.49376 13.0061 4.53282 13.0646 4.54102 13.1543C4.34753 14.3619 4.20105 15.5728 4.10156 16.7871C4.55799 17.3804 5.03651 17.9565 5.53711 18.5156C5.76047 18.6298 5.97533 18.6103 6.18164 18.457C6.58201 17.9785 6.98244 17.5 7.38281 17.0215C7.48471 16.892 7.55309 16.7455 7.58789 16.582C7.38879 15.3749 7.23252 14.1738 7.11914 12.9785C8.33502 13.2775 9.29203 13.9415 9.99023 14.9707C8.44353 16.0035 7.36928 17.4 6.76758 19.1602C5.57633 19.1895 4.38493 19.1992 3.19336 19.1895C3.20312 18.3689 3.19335 17.5486 3.16406 16.7285C2.98381 16.3235 2.7006 16.2356 2.31445 16.4648C2.27779 16.5088 2.24849 16.5577 2.22656 16.6113C2.19727 17.4705 2.1875 18.3299 2.19727 19.1895C1.76758 19.1895 1.33789 19.1895 0.908203 19.1895C0.894076 18.348 0.923373 17.5082 0.996094 16.6699C1.42301 14.7686 2.56559 13.5381 4.42383 12.9785ZM22.7637 12.9785C22.815 12.9708 22.8541 12.9904 22.8809 13.0371C22.7024 14.2177 22.5267 15.3994 22.3535 16.582C22.3883 16.7455 22.4567 16.892 22.5586 17.0215C22.959 17.5 23.3594 17.9785 23.7598 18.457C23.9661 18.6103 24.1809 18.6298 24.4043 18.5156C24.9049 17.9565 25.3834 17.3804 25.8398 16.7871C25.7404 15.5728 25.5939 14.3619 25.4004 13.1543C25.4199 13.0957 25.4395 13.0371 25.459 12.9785C27.3553 13.5173 28.5174 14.7478 28.9453 16.6699C29.018 17.5082 29.0473 18.348 29.0332 19.1895C28.6035 19.1895 28.1738 19.1895 27.7441 19.1895C27.7539 18.3299 27.7441 17.4705 27.7148 16.6113C27.5324 16.33 27.2883 16.2616 26.9824 16.4062C26.866 16.4835 26.7976 16.5909 26.7773 16.7285C26.748 17.5486 26.7383 18.3689 26.748 19.1895C25.5565 19.1992 24.3651 19.1895 23.1738 19.1602C22.5721 17.4 21.4979 16.0035 19.9512 14.9707C20.6454 13.9598 21.5829 13.2958 22.7637 12.9785ZM14.3848 14.6777C14.7754 14.6777 15.166 14.6777 15.5566 14.6777C15.7913 16.5256 16.0453 18.3713 16.3184 20.2148C16.2974 20.3339 16.2485 20.4414 16.1719 20.5371C15.7709 20.9887 15.3705 21.4379 14.9707 21.8848C14.5709 21.4379 14.1705 20.9887 13.7695 20.5371C13.6929 20.4414 13.644 20.3339 13.623 20.2148C13.8962 18.3713 14.1501 16.5256 14.3848 14.6777ZM13.2715 14.7363C13.3299 14.7346 13.369 14.7639 13.3887 14.8242C13.1098 16.718 12.8363 18.6125 12.5684 20.5078C12.5977 20.5957 12.627 20.6836 12.6562 20.7715C13.2422 21.4746 13.8281 22.1777 14.4141 22.8809C14.6255 23.2167 14.9087 23.3046 15.2637 23.1445C15.8802 22.4675 16.4759 21.7742 17.0508 21.0645C17.2079 20.9074 17.3153 20.7219 17.373 20.5078C17.0767 18.5808 16.8229 16.657 16.6113 14.7363C19.9104 15.4475 21.8733 17.4592 22.5 20.7715C22.5764 22.0593 22.6057 23.3484 22.5879 24.6387C21.7673 24.6485 20.947 24.6387 20.127 24.6094C20.1949 23.2953 20.2047 21.9769 20.1562 20.6543C19.9549 20.3422 19.6912 20.2836 19.3652 20.4785C19.3017 20.5468 19.2529 20.6249 19.2188 20.7129C19.1703 22.016 19.1801 23.3148 19.248 24.6094C16.3963 24.6582 13.5447 24.6485 10.6934 24.5801C10.761 23.2935 10.7708 22.0045 10.7227 20.7129C10.5472 20.3692 10.2836 20.2813 9.93164 20.4492C9.86127 20.5021 9.8124 20.5704 9.78516 20.6543C9.7367 21.9769 9.74648 23.2953 9.81445 24.6094C8.99438 24.6387 8.17406 24.6485 7.35352 24.6387C7.3357 23.3484 7.365 22.0593 7.44141 20.7715C8.0683 17.4787 10.0117 15.467 13.2715 14.7363Z" fill="#068FFF"/>
</g>
<defs>
<clipPath id="clip0_474_1113">
<rect width="30" height="30" fill="white"/>
</clipPath>
</defs>
</svg>
