<svg width="80" height="80" viewBox="0 0 80 80" fill="none" xmlns="http://www.w3.org/2000/svg">
<g clip-path="url(#clip0_382_1698)">
<path d="M39.9972 0.57373L12.0518 20.2869V59.7132L39.9972 79.4263L67.9482 59.7132V20.2869L39.9972 0.57373Z" fill="#FDFFFF"/>
<path d="M40.0027 2.43303L66.6581 21.2338V58.8353L40.0027 77.643L13.3417 58.8353V21.2338L40.0027 2.43303ZM40.0027 0.0345518L11.6443 20.038V60.038L40.0027 80.0345L68.3555 60.038V20.0035L40.0027 0V0.0345518Z" fill="#068FFF"/>
<path d="M40.0027 4.89374L64.8984 22.4434V57.5566L40.0027 75.1063L15.1071 57.5566V22.478L40.0027 4.92829V4.89374ZM40.0027 4.09194L14.5413 22.0633V57.9644L40.0027 75.9357L65.4642 57.9644V22.0494L40.0027 4.07812V4.09194Z" fill="#068FFF"/>
<path d="M0 42.2809H9.40944C10.0232 42.2809 10.6118 41.983 11.0458 41.4529C11.4798 40.9227 11.7236 40.2036 11.7236 39.4539V31.9819H0L3.07801 37.1314L0 42.2809Z" fill="#068FFF"/>
<path d="M7.4348 29.3901H11.7237V39.7237C11.7237 38.8071 11.4256 37.928 10.895 37.2799C10.3645 36.6317 9.64491 36.2676 8.8946 36.2676L7.42915 36.3298C6.67884 36.3298 5.95925 35.9657 5.4287 35.3176C4.89815 34.6695 4.6001 33.7904 4.6001 32.8738V32.8462C4.6001 32.3917 4.67346 31.9418 4.81599 31.522C4.95852 31.1022 5.1674 30.721 5.4307 30.4C5.694 30.0789 6.00655 29.8245 6.35044 29.6512C6.69433 29.4779 7.06281 29.3892 7.4348 29.3901Z" fill="white"/>
<path d="M79.9999 42.2809H70.5961C69.9824 42.2809 69.3938 41.983 68.9598 41.4529C68.5258 40.9227 68.282 40.2036 68.282 39.4539V31.9819H79.9999L76.9276 37.1314L79.9999 42.2809Z" fill="#068FFF"/>
<path d="M72.5708 29.3902H68.282V39.7237C68.282 38.8071 68.58 37.928 69.1106 37.2799C69.6412 36.6318 70.3607 36.2677 71.111 36.2677L72.5821 36.3299C73.3325 36.3299 74.052 35.9657 74.5826 35.3176C75.1131 34.6695 75.4112 33.7904 75.4112 32.8738V32.8462C75.4112 32.3912 75.3377 31.9406 75.1948 31.5204C75.0519 31.1002 74.8425 30.7186 74.5786 30.3975C74.3147 30.0764 74.0015 29.8221 73.6569 29.6493C73.3124 29.4764 72.9433 29.3883 72.5708 29.3902Z" fill="white"/>
<path d="M71.5524 16.8306H8.44748C7.43155 16.8306 6.45724 17.3236 5.73888 18.2012C5.02051 19.0788 4.61694 20.269 4.61694 21.5101V32.8458C4.61694 31.9292 4.91499 31.0502 5.44554 30.402C5.97609 29.7539 6.69569 29.3898 7.446 29.3898H72.5708C73.3211 29.3898 74.0407 29.7539 74.5713 30.402C75.1018 31.0502 75.3999 31.9292 75.3999 32.8458V21.5101C75.3991 20.894 75.299 20.2843 75.1051 19.7156C74.9113 19.1469 74.6276 18.6305 74.2703 18.1959C73.9129 17.7612 73.4889 17.417 73.0226 17.1827C72.5562 16.9484 72.0566 16.8288 71.5524 16.8306Z" fill="#068FFF"/>
<path d="M9.73193 22.8582V23.508C9.73193 25.0355 10.094 26.024 10.8296 26.024C11.3954 26.024 11.8198 25.3328 12.2045 24.2476H12.3234L12.2781 26.1H12.2045C12.1536 25.9894 12.1253 25.9341 12.0178 25.9341C11.5764 26.0703 11.1256 26.1559 10.6712 26.1899C9.22836 26.1899 8.3457 25.2567 8.3457 23.2799C8.3457 21.303 9.29626 20.2109 10.6882 20.2109C11.1164 20.2462 11.5408 20.3319 11.9556 20.4667C12.0687 20.4667 12.0914 20.4114 12.1423 20.3008H12.2158L12.2724 22.0979H12.148C11.7745 21.0819 11.3671 20.3768 10.7843 20.3768C10.111 20.4045 9.73193 21.1371 9.73193 22.8582Z" fill="white"/>
<path d="M15.3392 20.3008V20.4874H14.6376V25.9341H14.8809C15.7239 25.9341 16.0974 25.1876 16.4991 24.1784H16.6406L16.5104 26.1207H12.9119V25.9341H13.3136V20.5012H12.9119V20.3146L15.3392 20.3008Z" fill="white"/>
<path d="M20.471 20.3008L20.5389 21.9459H20.4201C20.0466 20.8607 19.7241 20.4874 18.9037 20.4874H18.6661V23.0449H18.8981C19.3394 23.0449 19.6223 22.5887 19.7411 21.9597H19.843V24.4134H19.7298C19.5657 23.584 19.3111 23.2591 18.8358 23.2591H18.6717V25.9341H18.932C19.3194 25.9359 19.6956 25.7757 19.9982 25.4803C20.3008 25.1848 20.5116 24.7718 20.5955 24.3098H20.7313L20.6747 26.1207H16.9517V25.9341H17.3477V20.5012H16.9517V20.3146L20.471 20.3008Z" fill="white"/>
<path d="M23.4076 24.1574H22.0609L21.5404 25.9338H22.0496V26.0928H21.0085V25.9338H21.331L23.0624 20.2383H23.6283L25.3257 25.9338H25.6369V26.0928H23.4189V25.9338H23.8998L23.4076 24.1574ZM22.1232 23.9708H23.351L22.7852 21.8004L22.1232 23.9708Z" fill="white"/>
<path d="M29.688 26.1067H28.7374L26.4063 20.743V25.9339H26.7797V26.0929H25.8518V25.9339H26.2252V20.4458H25.8518V20.2868H27.7246L29.5013 24.434V20.4319H29.1278V20.2729H30.0558V20.4319H29.688V26.1067Z" fill="white"/>
<path d="M32.472 20.3005V20.4594H32.0986V25.9338H32.472V26.0928H30.4011V25.9338H30.7746V20.4456H30.4011V20.2866L32.472 20.3005Z" fill="white"/>
<path d="M36.6475 26.1067H35.6969L33.3658 20.743V25.9339H33.7392V26.0929H32.8113V25.9339H33.1847V20.4458H32.8113V20.2868H34.6841L36.4608 24.434V20.4319H36.0873V20.2729H37.0153V20.4319H36.6475V26.1067Z" fill="white"/>
<path d="M40.2858 25.3673V23.7568H39.8501V23.5771H41.7965V23.7568H41.5363V26.1H41.4344C41.3997 26.0281 41.3485 25.9702 41.2872 25.9334C41.2259 25.8966 41.1571 25.8824 41.0893 25.8926C40.6365 26.0264 40.1773 26.1257 39.7144 26.1899C38.2772 26.1899 37.3945 25.2567 37.3945 23.2799C37.3945 21.303 38.3451 20.2109 39.737 20.2109C40.1781 20.248 40.6155 20.3336 41.044 20.4667C41.1515 20.4667 41.1798 20.4114 41.2307 20.3008H41.3043L41.3609 22.0979H41.2307C40.8516 21.1717 40.4103 20.3768 39.8105 20.3768C39.2108 20.3768 38.7751 21.1371 38.7751 22.8582V23.508C38.7751 25.1945 39.1316 26.024 39.7596 26.024C40.2462 26.024 40.2858 25.789 40.2858 25.3673Z" fill="white"/>
<path d="M46.3229 25.1458C46.3229 24.4546 45.8986 24.2334 45.0668 23.9431C44.2351 23.6528 43.6184 23.2519 43.6184 22.0077C43.6191 21.7571 43.6625 21.5094 43.7457 21.2803C43.8289 21.0511 43.9501 20.8456 44.1017 20.6767C44.2533 20.5078 44.4319 20.3791 44.6263 20.2989C44.8207 20.2187 45.0266 20.1886 45.2309 20.2106C45.638 20.2531 46.0412 20.3387 46.4361 20.4663C46.5493 20.4663 46.5832 20.4111 46.6341 20.3005H46.7077L46.753 21.9732H46.6455C46.3003 21.2128 45.8364 20.3834 45.1404 20.3834C45.0406 20.3681 44.9394 20.3779 44.8428 20.4122C44.7463 20.4465 44.6565 20.5047 44.5791 20.5831C44.5017 20.6615 44.4383 20.7584 44.3927 20.8679C44.3472 20.9774 44.3205 21.0972 44.3143 21.2198C44.3143 21.8349 44.7726 22.0423 45.4459 22.2635C46.1193 22.4847 47.0359 22.8303 47.0359 24.2058C47.0469 24.474 47.0111 24.742 46.9309 24.9921C46.8506 25.2421 46.7278 25.4685 46.5705 25.6561C46.4131 25.8437 46.2249 25.9883 46.0184 26.0803C45.8118 26.1722 45.5916 26.2095 45.3724 26.1895C44.8947 26.149 44.42 26.0658 43.9522 25.9407C43.8447 25.9407 43.8051 26.0305 43.7485 26.1895H43.658L43.5901 24.2127H43.7032C44.0427 25.0421 44.6991 26.0167 45.4459 26.0167C45.5509 26.034 45.6576 26.0249 45.7596 25.9899C45.8615 25.9549 45.9565 25.8947 46.0387 25.8131C46.1209 25.7315 46.1885 25.6302 46.2374 25.5154C46.2863 25.4006 46.3154 25.2748 46.3229 25.1458Z" fill="white"/>
<path d="M50.9966 20.3008L51.0645 21.9459H50.9457C50.5722 20.8607 50.2497 20.4874 49.4293 20.4874H49.1916V23.0449H49.4236C49.865 23.0449 50.1479 22.5887 50.2667 21.9597H50.3685V24.4134H50.2497C50.0913 23.584 49.831 23.2591 49.3557 23.2591H49.1916V25.9341H49.4519C49.8393 25.9359 50.2155 25.7757 50.5181 25.4803C50.8207 25.1848 51.0315 24.7718 51.1154 24.3098H51.2512L51.1946 26.1207H47.4546V25.9341H47.8507V20.5012H47.4546V20.3146L50.9966 20.3008Z" fill="white"/>
<path d="M53.4296 23.169V25.9338H53.871V26.0928H51.6643V25.9338H52.1056V20.4456H51.6643V20.2866H53.7125C55.1327 20.2866 55.8117 20.4732 55.8117 21.669C55.8117 22.6782 55.376 22.9754 54.6801 23.0514C55.4156 23.162 55.6646 23.5146 55.6646 24.4753V24.9108C55.6646 25.4499 55.6646 25.6435 55.8739 25.6435C56.0833 25.6435 56.1003 25.5743 56.1851 24.9523H56.304C56.2021 25.8992 56.0097 26.1411 55.3817 26.1411C54.5273 26.1411 54.2501 25.7886 54.2501 24.6205V24.0191C54.2501 23.4316 54.1539 23.1206 53.7918 23.1206L53.4296 23.169ZM53.4296 23.01H53.6446C54.1482 23.01 54.4085 22.6713 54.4085 21.7796V21.5377C54.4085 20.6115 54.1312 20.4594 53.656 20.4594H53.4296V23.01Z" fill="white"/>
<path d="M60.0495 20.4597H59.5177V20.3008H60.5588V20.4597H60.2363L58.6011 26.1898H58.0353L56.3039 20.4597H55.9927V20.3008H58.205V20.4597H57.7241L58.8557 24.607L60.0495 20.4597Z" fill="white"/>
<path d="M62.8389 20.3005V20.4594H62.4655V25.9338H62.8389V26.0928H60.7681V25.9338H61.1415V20.4456H60.7681V20.2866L62.8389 20.3005Z" fill="white"/>
<path d="M64.6721 22.8582V23.508C64.6721 25.0355 65.0342 26.024 65.7755 26.024C66.3413 26.024 66.7656 25.3328 67.1447 24.2476H67.2579L67.2126 26.1H67.1391C67.0881 25.9894 67.0655 25.9341 66.958 25.9341C66.5147 26.0705 66.062 26.1561 65.6057 26.1899C64.1685 26.1899 63.2859 25.2567 63.2859 23.2799C63.2859 21.303 64.2364 20.2109 65.6227 20.2109C66.0527 20.2466 66.479 20.3323 66.8957 20.4667C67.0033 20.4667 67.0315 20.4114 67.0768 20.3008H67.1504L67.207 22.0979H67.0825C66.6921 21.0957 66.3073 20.4045 65.7245 20.4045C65.0399 20.4045 64.6721 21.1371 64.6721 22.8582Z" fill="white"/>
<path d="M71.3657 20.3008L71.4336 21.9459H71.3148C70.9414 20.8607 70.6188 20.4874 69.7984 20.4874H69.5608V23.0449H69.7928C70.2341 23.0449 70.517 22.5887 70.6358 21.9597H70.7377V24.4134H70.6188C70.4604 23.584 70.2001 23.2591 69.7248 23.2591H69.5608V25.9341H69.821C70.2084 25.9359 70.5846 25.7757 70.8872 25.4803C71.1898 25.1848 71.4006 24.7718 71.4845 24.3098H71.6203L71.5637 26.1207H67.8237V25.9341H68.2198V20.5012H67.8237V20.3146L71.3657 20.3008Z" fill="white"/>
<path d="M44.0596 12.1098C44.0585 12.3565 44.1174 12.598 44.2289 12.8037C44.3404 13.0093 44.4993 13.1699 44.6857 13.2649C44.872 13.3599 45.0772 13.3851 45.2753 13.3373C45.4734 13.2895 45.6554 13.1709 45.7982 12.9965C45.941 12.8221 46.0381 12.5998 46.0772 12.3578C46.1163 12.1158 46.0957 11.865 46.0179 11.6374C45.9401 11.4098 45.8087 11.2156 45.6403 11.0794C45.472 10.9432 45.2743 10.8712 45.0724 10.8726C44.8038 10.8726 44.5462 11.0029 44.3562 11.235C44.1663 11.467 44.0596 11.7817 44.0596 12.1098Z" fill="#068FFF"/>
<path d="M33.9148 12.1098C33.9137 12.3565 33.9726 12.598 34.0841 12.8037C34.1956 13.0093 34.3546 13.1699 34.5409 13.2649C34.7272 13.3599 34.9325 13.3851 35.1306 13.3373C35.3286 13.2895 35.5106 13.1709 35.6534 12.9965C35.7962 12.8221 35.8933 12.5998 35.9324 12.3578C35.9715 12.1158 35.9509 11.865 35.8731 11.6374C35.7953 11.4098 35.6639 11.2156 35.4956 11.0794C35.3272 10.9432 35.1295 10.8712 34.9276 10.8726C34.659 10.8726 34.4014 11.0029 34.2114 11.235C34.0215 11.467 33.9148 11.7817 33.9148 12.1098Z" fill="#068FFF"/>
<path d="M39.9971 9.51074L40.529 11.4876H42.2321L40.8515 12.711L41.3777 14.6948L39.9971 13.4713L38.6222 14.6948L39.1484 12.711L37.7678 11.4876H39.4709L39.9971 9.51074Z" fill="#068FFF"/>
<path d="M37.2699 34.2285C37.2927 34.7143 37.1971 35.1975 36.9952 35.6169C36.7932 36.0364 36.494 36.3733 36.1354 36.585C35.7767 36.7968 35.3747 36.8738 34.9802 36.8065C34.5857 36.7392 34.2164 36.5305 33.919 36.2068C33.6215 35.883 33.4094 35.4589 33.3093 34.9878C33.2092 34.5168 33.2256 34.0201 33.3566 33.5606C33.4875 33.101 33.7271 32.6992 34.045 32.4059C34.3628 32.1126 34.7448 31.9411 35.1424 31.9129C35.6756 31.877 36.1987 32.1005 36.5973 32.5344C36.996 32.9683 37.2378 33.5774 37.2699 34.2285Z" fill="#068FFF"/>
<path d="M34.1805 35.749C34.1468 35.7515 34.113 35.7447 34.0816 35.7291C34.0503 35.7136 34.0222 35.6897 33.9995 35.6591C33.8533 35.461 33.7413 35.2289 33.6703 34.9768C33.5992 34.7246 33.5705 34.4575 33.5858 34.1915C33.6011 33.9255 33.6603 33.6659 33.7596 33.4284C33.8589 33.1909 33.9964 32.9803 34.1639 32.8092C34.3313 32.6381 34.5253 32.51 34.7342 32.4326C34.9431 32.3552 35.1627 32.33 35.3797 32.3586C35.5968 32.3872 35.8069 32.469 35.9975 32.599C36.1881 32.729 36.3553 32.9047 36.489 33.1155C36.5073 33.1431 36.521 33.1749 36.5292 33.209C36.5374 33.2431 36.54 33.2789 36.5368 33.3142C36.5336 33.3495 36.5248 33.3837 36.5108 33.4149C36.4968 33.446 36.4778 33.4735 36.4551 33.4956C36.4329 33.5178 36.4074 33.5343 36.3799 33.5442C36.3524 33.5542 36.3236 33.5573 36.2952 33.5534C36.2667 33.5496 36.2392 33.5388 36.2142 33.5217C36.1892 33.5047 36.1672 33.4817 36.1495 33.4542C36.0305 33.2765 35.8787 33.1357 35.7066 33.0432C35.5346 32.9507 35.3471 32.9091 35.1594 32.9219C34.9393 32.9379 34.7273 33.0286 34.5473 33.184C34.3672 33.3393 34.2263 33.553 34.1404 33.801C34.0545 34.049 34.027 34.3214 34.0611 34.5874C34.0952 34.8534 34.1895 35.1025 34.3333 35.3066C34.3544 35.3311 34.3711 35.3606 34.3826 35.3933C34.394 35.426 34.3999 35.4611 34.3999 35.4967C34.3999 35.5322 34.394 35.5674 34.3826 35.6001C34.3711 35.6327 34.3544 35.6622 34.3333 35.6867C34.3132 35.7104 34.2891 35.7283 34.2627 35.739C34.2363 35.7498 34.2082 35.7532 34.1805 35.749Z" fill="white"/>
<path d="M32.8849 36.9933C32.9033 37.4255 32.8165 37.8547 32.6355 38.2267C32.4544 38.5988 32.1873 38.8969 31.8677 39.0837C31.5481 39.2705 31.1904 39.3375 30.8397 39.2762C30.489 39.2149 30.161 39.0281 29.8971 38.7394C29.6332 38.4507 29.4452 38.073 29.3568 37.6539C29.2684 37.2348 29.2836 36.7931 29.4004 36.3845C29.5172 35.976 29.7305 35.6188 30.0133 35.3581C30.2961 35.0974 30.6357 34.9449 30.9894 34.9197C31.2255 34.9029 31.4619 34.9433 31.6852 35.0386C31.9084 35.1339 32.1141 35.2821 32.2902 35.4748C32.4664 35.6676 32.6096 35.901 32.7117 36.1616C32.8137 36.4222 32.8726 36.7048 32.8849 36.9933Z" fill="#068FFF"/>
<path d="M30.1635 38.3755C30.1293 38.3771 30.0952 38.3693 30.0639 38.3525C30.0325 38.3358 30.0046 38.3105 29.9824 38.2787C29.7326 37.9121 29.6122 37.4392 29.6477 36.9641C29.6833 36.4891 29.8718 36.0507 30.172 35.7455C30.4721 35.4402 30.8592 35.2931 31.2481 35.3366C31.637 35.38 31.9958 35.6104 32.2457 35.977C32.2643 36.0042 32.2783 36.0357 32.287 36.0695C32.2956 36.1033 32.2987 36.1389 32.2961 36.1743C32.2935 36.2096 32.2852 36.2439 32.2717 36.2753C32.2581 36.3067 32.2397 36.3345 32.2174 36.3572C32.1948 36.3795 32.1687 36.3962 32.1408 36.4062C32.1129 36.4162 32.0837 36.4194 32.0547 36.4155C32.0258 36.4117 31.9978 36.4008 31.9723 36.3837C31.9468 36.3666 31.9243 36.3435 31.9062 36.3157C31.8023 36.1619 31.6704 36.04 31.5211 35.9596C31.3718 35.8792 31.2091 35.8425 31.0462 35.8526C30.854 35.8645 30.6686 35.9423 30.511 36.077C30.3533 36.2117 30.23 36.3979 30.155 36.6143C30.08 36.8307 30.0564 37.0685 30.0869 37.3006C30.1175 37.5326 30.2009 37.7494 30.3276 37.9262C30.3687 37.9767 30.3918 38.0451 30.3918 38.1163C30.3918 38.1875 30.3687 38.2559 30.3276 38.3064C30.2817 38.3533 30.2233 38.3779 30.1635 38.3755Z" fill="white"/>
<path d="M35.3744 37.3942C35.3906 37.7649 35.3166 38.1332 35.1617 38.4527C35.0068 38.7721 34.7779 39.0284 34.5039 39.1891C34.23 39.3499 33.9232 39.408 33.6222 39.356C33.3213 39.3041 33.0397 39.1444 32.8129 38.8972C32.5861 38.65 32.4244 38.3263 32.348 37.9669C32.2716 37.6075 32.284 37.2286 32.3837 36.8778C32.4834 36.5271 32.6658 36.2202 32.9081 35.996C33.1503 35.7717 33.4415 35.6401 33.7449 35.6178C34.1538 35.5895 34.5551 35.7607 34.8607 36.0938C35.1663 36.4269 35.351 36.8946 35.3744 37.3942Z" fill="#068FFF"/>
<path d="M33.032 38.6246C32.9989 38.6288 32.9655 38.6228 32.9349 38.6071C32.9042 38.5914 32.8773 38.5665 32.8566 38.5348C32.6662 38.2748 32.5544 37.9431 32.5397 37.5947C32.524 37.2609 32.5952 36.9295 32.7432 36.6482C32.8912 36.3668 33.1083 36.1499 33.3634 36.0287C33.6185 35.9074 33.8985 35.8879 34.1632 35.9731C34.4279 36.0582 34.6638 36.2436 34.8369 36.5026C34.8563 36.5294 34.8709 36.5608 34.88 36.5947C34.8891 36.6287 34.8925 36.6646 34.8898 36.7002C34.8872 36.7357 34.8786 36.7703 34.8646 36.8017C34.8507 36.8331 34.8316 36.8607 34.8086 36.8828C34.7673 36.933 34.7113 36.9612 34.653 36.9612C34.5947 36.9612 34.5388 36.933 34.4974 36.8828C34.3846 36.7136 34.2312 36.5919 34.0588 36.5347C33.8864 36.4776 33.7037 36.4878 33.5364 36.5641C33.369 36.6404 33.2254 36.7789 33.1258 36.96C33.0262 37.1412 32.9756 37.3559 32.9811 37.574C32.9915 37.8043 33.0652 38.0235 33.1904 38.1961C33.2315 38.2466 33.2546 38.3149 33.2546 38.3862C33.2546 38.4574 33.2315 38.5257 33.1904 38.5762C33.1682 38.5972 33.1426 38.6123 33.1153 38.6207C33.0881 38.629 33.0597 38.6303 33.032 38.6246Z" fill="white"/>
<path d="M42.8263 35.0649C42.8491 35.5507 42.7535 36.0339 42.5516 36.4534C42.3496 36.8728 42.0504 37.2097 41.6918 37.4215C41.3331 37.6332 40.9311 37.7103 40.5366 37.6429C40.1421 37.5756 39.7728 37.3669 39.4754 37.0432C39.1779 36.7195 38.9658 36.2953 38.8657 35.8243C38.7656 35.3533 38.782 34.8566 38.913 34.397C39.0439 33.9374 39.2835 33.5356 39.6014 33.2423C39.9192 32.949 40.3012 32.7775 40.6988 32.7493C41.232 32.7135 41.7551 32.9369 42.1537 33.3708C42.5524 33.8047 42.7942 34.4138 42.8263 35.0649Z" fill="#068FFF"/>
<path d="M39.7653 36.5922C39.7314 36.5958 39.6974 36.5895 39.6659 36.5739C39.6344 36.5583 39.6064 36.5338 39.5842 36.5024C39.438 36.3043 39.3261 36.0722 39.255 35.82C39.1839 35.5679 39.1552 35.3008 39.1705 35.0347C39.1859 34.7687 39.245 34.5092 39.3443 34.2717C39.4436 34.0342 39.5811 33.8236 39.7486 33.6525C39.916 33.4814 40.11 33.3533 40.3189 33.2759C40.5279 33.1984 40.7474 33.1733 40.9645 33.2019C41.1815 33.2304 41.3916 33.3122 41.5822 33.4423C41.7728 33.5723 41.94 33.748 42.0738 33.9587C42.092 33.9864 42.1057 34.0182 42.1139 34.0523C42.1221 34.0864 42.1247 34.1221 42.1215 34.1575C42.1184 34.1928 42.1095 34.227 42.0955 34.2581C42.0815 34.2893 42.0625 34.3167 42.0398 34.3389C42.018 34.362 41.9925 34.3793 41.9649 34.3898C41.9374 34.4003 41.9083 34.4037 41.8796 34.3998C41.8509 34.3959 41.8232 34.3848 41.7982 34.3672C41.7732 34.3496 41.7514 34.3258 41.7343 34.2974C41.6143 34.121 41.4624 33.9811 41.2906 33.8887C41.1187 33.7963 40.9316 33.7541 40.7441 33.7652C40.5241 33.7811 40.3121 33.8719 40.132 34.0272C39.952 34.1826 39.811 34.3963 39.7251 34.6443C39.6392 34.8923 39.6118 35.1646 39.6459 35.4307C39.6799 35.6967 39.7742 35.9458 39.918 36.1499C39.9391 36.1744 39.9558 36.2039 39.9673 36.2366C39.9787 36.2692 39.9847 36.3044 39.9847 36.3399C39.9847 36.3755 39.9787 36.4106 39.9673 36.4433C39.9558 36.476 39.9391 36.5055 39.918 36.53C39.898 36.5536 39.8738 36.5715 39.8474 36.5823C39.821 36.593 39.7929 36.5964 39.7653 36.5922Z" fill="white"/>
<path d="M33.5074 35.1339C33.5152 35.2937 33.4971 35.4537 33.4543 35.605C33.4114 35.7562 33.3446 35.8957 33.2577 36.0154C33.1707 36.1351 33.0653 36.2327 32.9475 36.3026C32.8297 36.3726 32.7017 36.4135 32.5709 36.423C32.4402 36.4325 32.3091 36.4105 32.1853 36.3582C32.0615 36.3058 31.9474 36.2242 31.8494 36.118C31.7514 36.0118 31.6715 35.883 31.6142 35.7391C31.557 35.5951 31.5235 35.4388 31.5157 35.279C31.4999 34.9564 31.5897 34.6393 31.7654 34.3976C31.941 34.1558 32.188 34.0092 32.4521 33.99C32.7162 33.9707 32.9758 34.0804 33.1737 34.295C33.3716 34.5095 33.4916 34.8113 33.5074 35.1339Z" fill="#068FFF"/>
<path d="M32.0532 35.8875C32.0285 35.8897 32.0038 35.8846 31.9812 35.8725C31.9585 35.8605 31.9386 35.8419 31.9231 35.8184C31.858 35.7235 31.809 35.614 31.7786 35.4959C31.7483 35.3779 31.7372 35.2537 31.7462 35.1305C31.7551 35.0072 31.7838 34.8874 31.8307 34.7777C31.8775 34.668 31.9416 34.5707 32.0192 34.4913C32.0969 34.4118 32.1866 34.3519 32.2832 34.3148C32.3798 34.2777 32.4815 34.2642 32.5823 34.2752C32.6832 34.2861 32.7814 34.3211 32.8711 34.3784C32.9609 34.4356 33.0406 34.5139 33.1056 34.6088C33.1347 34.646 33.1509 34.6955 33.1509 34.747C33.1509 34.7985 33.1347 34.848 33.1056 34.8853C33.0909 34.9036 33.0732 34.9182 33.0538 34.9282C33.0344 34.9382 33.0135 34.9433 32.9924 34.9433C32.9714 34.9433 32.9505 34.9382 32.9311 34.9282C32.9116 34.9182 32.894 34.9036 32.8793 34.8853C32.8183 34.7973 32.7364 34.7348 32.645 34.7064C32.5535 34.6781 32.4571 34.6854 32.3693 34.7273C32.2814 34.7692 32.2064 34.8435 32.1548 34.94C32.1032 35.0365 32.0776 35.1503 32.0815 35.2654C32.0883 35.3849 32.126 35.4986 32.189 35.5903C32.204 35.6083 32.216 35.6298 32.2242 35.6535C32.2323 35.6773 32.2365 35.7028 32.2365 35.7285C32.2365 35.7543 32.2323 35.7798 32.2242 35.8035C32.216 35.8272 32.204 35.8487 32.189 35.8668C32.1702 35.8853 32.1475 35.897 32.1235 35.9007C32.0995 35.9044 32.0752 35.8998 32.0532 35.8875Z" fill="white"/>
<path d="M38.3281 33.2398C38.339 33.4569 38.2969 33.673 38.2072 33.8609C38.1175 34.0487 37.9842 34.1998 37.8241 34.2951C37.664 34.3903 37.4844 34.4254 37.3081 34.3959C37.1317 34.3664 36.9664 34.2736 36.8332 34.1293C36.7 33.985 36.6049 33.7956 36.5598 33.5852C36.5148 33.3748 36.5218 33.1528 36.5801 32.9472C36.6384 32.7417 36.7453 32.562 36.8872 32.4307C37.0292 32.2995 37.1998 32.2226 37.3776 32.2099C37.6153 32.1929 37.8489 32.2917 38.0271 32.4848C38.2053 32.6779 38.3135 32.9494 38.3281 33.2398Z" fill="#068FFF"/>
<path d="M36.9644 34.0072C36.9391 34.0076 36.9141 34.0016 36.8907 33.9897C36.8674 33.9778 36.8462 33.9603 36.8286 33.9381C36.7341 33.7996 36.673 33.6317 36.6519 33.4532C36.6309 33.2748 36.6508 33.0926 36.7095 32.9272C36.7681 32.7617 36.8632 32.6193 36.9841 32.5159C37.105 32.4125 37.2471 32.3521 37.3944 32.3414C37.5198 32.3313 37.6453 32.3581 37.7605 32.4194C37.8757 32.4807 37.9772 32.5749 38.0564 32.694C38.0859 32.7324 38.1022 32.783 38.1022 32.8357C38.1022 32.8883 38.0859 32.9389 38.0564 32.9774C38.0247 33.0154 37.982 33.0366 37.9376 33.0366C37.8932 33.0366 37.8505 33.0154 37.8188 32.9774C37.7578 32.8845 37.6741 32.8178 37.58 32.787C37.4858 32.7561 37.3861 32.7628 37.2952 32.806C37.2044 32.8491 37.1272 32.9265 37.0748 33.027C37.0224 33.1274 36.9976 33.2456 37.004 33.3644C37.0091 33.4877 37.0491 33.605 37.1172 33.6962C37.147 33.7358 37.1636 33.7876 37.1636 33.8414C37.1636 33.8951 37.147 33.947 37.1172 33.9865C37.0698 34.015 37.0158 34.0223 36.9644 34.0072Z" fill="white"/>
<path d="M39.6464 34.5326C39.6643 34.8076 39.6144 35.0828 39.5033 35.3229C39.3921 35.563 39.2246 35.7569 39.0225 35.8798C38.8203 36.0027 38.5927 36.0489 38.3689 36.0125C38.1451 35.976 37.9353 35.8586 37.7665 35.6754C37.5978 35.4921 37.4777 35.2514 37.4219 34.9841C37.366 34.7169 37.3769 34.4353 37.4531 34.1756C37.5293 33.916 37.6674 33.6901 37.8495 33.5271C38.0316 33.364 38.2495 33.2713 38.4752 33.2608C38.767 33.2472 39.0519 33.3719 39.2702 33.6089C39.4884 33.846 39.6233 34.1769 39.6464 34.5326Z" fill="#068FFF"/>
<path d="M37.966 35.4242C37.9404 35.4276 37.9146 35.423 37.8909 35.4109C37.8671 35.3988 37.8463 35.3796 37.8302 35.3551C37.7176 35.1929 37.6442 34.9956 37.6181 34.7854C37.5919 34.5751 37.6142 34.3601 37.6822 34.1644C37.7503 33.9687 37.8616 33.7999 38.0036 33.677C38.1456 33.554 38.3128 33.4817 38.4866 33.4681C38.6347 33.458 38.7827 33.491 38.9184 33.5643C39.0542 33.6376 39.1737 33.7491 39.2674 33.8897C39.2951 33.931 39.3083 33.984 39.3041 34.0371C39.2999 34.0903 39.2785 34.1392 39.2447 34.1731C39.211 34.207 39.1676 34.2232 39.1241 34.218C39.0805 34.2128 39.0405 34.1867 39.0128 34.1455C38.9525 34.0547 38.8753 33.9829 38.7877 33.936C38.7001 33.8892 38.6046 33.8685 38.5092 33.8759C38.3495 33.8883 38.2004 33.9775 38.0944 34.1238C37.9884 34.2702 37.9341 34.4619 37.9434 34.657C37.9492 34.8187 38.0012 34.9728 38.0905 35.0924C38.1199 35.1308 38.1363 35.1815 38.1363 35.2341C38.1363 35.2867 38.1199 35.3374 38.0905 35.3758C38.0747 35.396 38.0551 35.411 38.0333 35.4195C38.0116 35.428 37.9884 35.4296 37.966 35.4242Z" fill="white"/>
<path d="M30.0218 43.7738C30.0447 44.2596 29.9491 44.7428 29.7471 45.1622C29.5452 45.5817 29.246 45.9186 28.8873 46.1303C28.5287 46.3421 28.1267 46.4191 27.7322 46.3518C27.3377 46.2845 26.9683 46.0758 26.6709 45.752C26.3735 45.4283 26.1613 45.0041 26.0612 44.5331C25.9611 44.0621 25.9776 43.5654 26.1085 43.1059C26.2395 42.6463 26.479 42.2445 26.7969 41.9512C27.1148 41.6579 27.4967 41.4864 27.8944 41.4582C28.1586 41.4395 28.4232 41.4846 28.6731 41.5909C28.923 41.6971 29.1533 41.8625 29.3508 42.0775C29.5484 42.2926 29.7093 42.553 29.8245 42.8441C29.9396 43.1351 30.0067 43.451 30.0218 43.7738Z" fill="#068FFF"/>
<path d="M26.961 45.2878C26.9279 45.292 26.8945 45.286 26.8639 45.2703C26.8332 45.2546 26.8063 45.2297 26.7856 45.198C26.5494 44.8689 26.41 44.4529 26.3895 44.016C26.3669 43.5961 26.4541 43.1783 26.6386 42.823C26.8232 42.4676 27.0954 42.1932 27.416 42.0393C27.7366 41.8854 28.089 41.86 28.4222 41.9669C28.7553 42.0737 29.0521 42.3072 29.2695 42.6336C29.2881 42.6608 29.3021 42.6923 29.3108 42.7261C29.3194 42.76 29.3225 42.7955 29.3199 42.8309C29.3173 42.8662 29.309 42.9005 29.2955 42.9319C29.282 42.9633 29.2635 42.9911 29.2412 43.0138C29.2186 43.0361 29.1925 43.0528 29.1646 43.0628C29.1367 43.0728 29.1075 43.076 29.0785 43.0721C29.0496 43.0683 29.0216 43.0575 28.9961 43.0403C28.9706 43.0232 28.9482 43.0001 28.93 42.9723C28.7723 42.7347 28.557 42.5643 28.315 42.4857C28.073 42.4072 27.8168 42.4245 27.5834 42.5352C27.35 42.6459 27.1513 42.8442 27.0161 43.1016C26.8808 43.3591 26.816 43.6623 26.8308 43.9676C26.8434 44.2854 26.9454 44.5881 27.1194 44.8247C27.1605 44.8752 27.1836 44.9436 27.1836 45.0148C27.1836 45.0861 27.1605 45.1544 27.1194 45.2049C27.0996 45.232 27.0751 45.2535 27.0477 45.2678C27.0204 45.2822 26.9907 45.289 26.961 45.2878Z" fill="white"/>
<path d="M31.6119 40.2971C31.6272 40.6042 31.5675 40.9099 31.4405 41.1756C31.3134 41.4412 31.1248 41.6549 30.8983 41.7895C30.6719 41.9241 30.4179 41.9737 30.1684 41.932C29.9188 41.8902 29.6851 41.7589 29.4967 41.5549C29.3082 41.3508 29.1735 41.083 29.1097 40.7854C29.0459 40.4878 29.0557 40.1738 29.138 39.883C29.2203 39.5922 29.3713 39.3378 29.572 39.1519C29.7726 38.966 30.0139 38.857 30.2653 38.8387C30.6022 38.8141 30.9332 38.9539 31.1857 39.2274C31.4382 39.5009 31.5915 39.8856 31.6119 40.2971Z" fill="#068FFF"/>
<path d="M29.756 41.2097C29.7307 41.21 29.7056 41.204 29.6822 41.1921C29.6589 41.1802 29.6378 41.1627 29.6202 41.1405C29.4858 40.9459 29.4064 40.7035 29.3938 40.4493C29.3836 40.2081 29.436 39.9692 29.5434 39.7664C29.6509 39.5637 29.808 39.4076 29.9923 39.3203C30.1766 39.233 30.3788 39.2189 30.57 39.2802C30.7612 39.3414 30.9318 39.4748 31.0573 39.6613C31.0868 39.6998 31.1031 39.7504 31.1031 39.803C31.1031 39.8557 31.0868 39.9063 31.0573 39.9447C31.0425 39.9642 31.0245 39.9797 31.0046 39.9904C30.9846 40.001 30.9631 40.0065 30.9413 40.0065C30.9196 40.0065 30.898 40.001 30.8781 39.9904C30.8581 39.9797 30.8402 39.9642 30.8253 39.9447C30.7633 39.8547 30.685 39.7836 30.5967 39.7368C30.5083 39.69 30.4123 39.6689 30.3161 39.6752C30.1565 39.6876 30.0073 39.7768 29.9013 39.9231C29.7953 40.0695 29.741 40.2611 29.7503 40.4562C29.7561 40.618 29.8081 40.7721 29.8974 40.8917C29.9272 40.9313 29.9438 40.9831 29.9438 41.0368C29.9438 41.0906 29.9272 41.1424 29.8974 41.182C29.854 41.2097 29.8043 41.2194 29.756 41.2097Z" fill="white"/>
<path d="M49.7399 60.7831C54.5881 54.4052 54.2859 44.4337 49.0651 38.5111C43.8442 32.5885 35.6816 32.9577 30.8335 39.3356C25.9854 45.7135 26.2875 55.685 31.5084 61.6075C36.7293 67.5301 44.8918 67.161 49.7399 60.7831Z" fill="#CFEDEC"/>
<path d="M49.7399 60.7831C54.5881 54.4052 54.2859 44.4337 49.0651 38.5111C43.8442 32.5885 35.6816 32.9577 30.8335 39.3356C25.9854 45.7135 26.2875 55.685 31.5084 61.6075C36.7293 67.5301 44.8918 67.161 49.7399 60.7831Z" fill="white"/>
<path d="M40.2857 35.6454C42.6237 35.644 44.9095 36.4897 46.854 38.0755C48.7985 39.6613 50.3144 41.9159 51.2098 44.5542C52.1053 47.1925 52.3402 50.096 51.8848 52.8974C51.4293 55.6988 50.3041 58.2722 48.6513 60.2923C46.9985 62.3124 44.8924 63.6882 42.5994 64.2459C40.3064 64.8036 37.9296 64.5181 35.7695 63.4254C33.6094 62.3328 31.763 60.4821 30.464 58.1074C29.165 55.7327 28.4716 52.9408 28.4716 50.0846C28.4746 46.2574 29.7201 42.5879 31.9349 39.881C34.1496 37.1741 37.1528 35.6509 40.2857 35.6454ZM40.2857 34.3252C37.7343 34.3252 35.2401 35.2495 33.1186 36.9811C30.9971 38.7128 29.3436 41.1741 28.3672 44.0538C27.3908 46.9334 27.1354 50.1021 27.6331 53.1592C28.1309 56.2162 29.3596 59.0243 31.1637 61.2283C32.9679 63.4323 35.2665 64.9332 37.769 65.5413C40.2714 66.1494 42.8653 65.8373 45.2225 64.6445C47.5798 63.4517 49.5946 61.4318 51.0121 58.8401C52.4296 56.2485 53.1862 53.2016 53.1862 50.0846C53.1862 45.905 51.8271 41.8965 49.4078 38.941C46.9885 35.9856 43.7072 34.3252 40.2857 34.3252Z" fill="#068FFF"/>
<path d="M40.2857 60.6738C38.5699 60.6738 36.8927 60.0521 35.4662 58.8875C34.0396 57.7229 32.9279 56.0676 32.2715 54.131C31.6152 52.1944 31.4438 50.0635 31.7789 48.0079C32.114 45.9522 32.9407 44.0642 34.1543 42.5826C35.368 41.1009 36.914 40.0923 38.597 39.6842C40.2799 39.2761 42.0241 39.487 43.609 40.29C45.1938 41.0931 46.5481 42.4523 47.5005 44.1957C48.4529 45.9392 48.9607 47.9885 48.9596 50.0845C48.9566 52.893 48.0416 55.5854 46.4154 57.5707C44.7892 59.5559 42.5847 60.672 40.2857 60.6738ZM40.2857 40.069C38.6642 40.069 37.0791 40.6564 35.7308 41.7569C34.3825 42.8574 33.3317 44.4216 32.7112 46.2517C32.0907 48.0819 31.9283 50.0956 32.2446 52.0385C32.561 53.9813 33.3418 55.7659 34.4884 57.1666C35.635 58.5673 37.0959 59.5212 38.6862 59.9076C40.2766 60.2941 41.9251 60.0958 43.4232 59.3377C44.9213 58.5796 46.2017 57.2959 47.1026 55.6489C48.0035 54.0018 48.4843 52.0654 48.4843 50.0845C48.4813 47.4294 47.6166 44.884 46.0797 43.0065C44.5428 41.129 42.4592 40.0726 40.2857 40.069Z" fill="#068FFF"/>
<path d="M56.3094 47.9142C56.2496 47.783 56.1688 47.6678 56.0718 47.5755C55.9733 47.4865 55.862 47.4208 55.7436 47.382C55.6278 47.3542 55.5086 47.3542 55.3928 47.382C55.2754 47.4017 55.1621 47.4487 55.059 47.5202C54.9522 47.5915 54.8594 47.6906 54.7874 47.8105L53.3955 50.0016L53.503 49.2068L53.7237 47.5617L54.5894 41.0851C54.6055 40.9657 54.6022 40.8436 54.5797 40.7258C54.5571 40.6079 54.5158 40.4967 54.4579 40.3984C54.4001 40.3002 54.327 40.2169 54.2427 40.1532C54.1585 40.0896 54.0648 40.0469 53.967 40.0276C53.7704 39.9876 53.5689 40.0444 53.4066 40.1856C53.2443 40.3269 53.1345 40.541 53.1013 40.781L52.2809 46.9465C52.2736 46.9883 52.2602 47.0281 52.2412 47.064C52.2233 47.0988 52.2003 47.1292 52.1733 47.1539C52.1159 47.2036 52.0447 47.2235 51.9753 47.2092C51.941 47.2033 51.9079 47.1891 51.8781 47.1674C51.8483 47.1457 51.8224 47.1169 51.8019 47.0828C51.7813 47.0486 51.7665 47.0098 51.7584 46.9686C51.7503 46.9274 51.749 46.8847 51.7547 46.8428L52.7278 39.5852C52.7561 39.3758 52.7243 39.1609 52.6376 38.977C52.551 38.7931 52.415 38.6514 52.2526 38.576L52.1055 38.5276C51.9089 38.4876 51.7074 38.5445 51.5451 38.6857C51.3828 38.8269 51.273 39.0411 51.2398 39.2811L50.2722 46.5387C50.2661 46.583 50.2526 46.6254 50.2326 46.6631C50.2146 46.6979 50.1916 46.7283 50.1647 46.753H50.1138H50.0742C50.0405 46.7598 50.0061 46.7598 49.9724 46.753C49.938 46.7471 49.905 46.7329 49.8752 46.7112C49.8454 46.6895 49.8194 46.6607 49.7989 46.6266C49.7783 46.5924 49.7636 46.5536 49.7555 46.5124C49.7474 46.4712 49.7461 46.4285 49.7517 46.3866L50.5042 40.7948C50.5204 40.6754 50.5171 40.5533 50.4945 40.4355C50.472 40.3176 50.4306 40.2064 50.3728 40.1082C50.315 40.0099 50.2418 39.9266 50.1576 39.8629C50.0733 39.7993 49.9796 39.7566 49.8818 39.7373C49.7596 39.7121 49.6342 39.7241 49.5168 39.7723C49.3993 39.8206 49.2934 39.9035 49.2085 40.0137C49.1081 40.1468 49.0413 40.3124 49.0161 40.4907L48.2693 46.0894C48.2563 46.1513 48.231 46.2083 48.1957 46.2553C48.1674 46.2929 48.1319 46.3214 48.0924 46.3383C48.053 46.3552 48.0107 46.3599 47.9694 46.3521C47.9181 46.3418 47.8704 46.3134 47.8322 46.2705C47.794 46.2275 47.7669 46.1717 47.7544 46.1102C47.7487 46.069 47.7487 46.0269 47.7544 45.9858L48.3202 41.8385C48.3474 41.6293 48.315 41.415 48.2286 41.2313C48.1421 41.0477 48.0067 40.9058 47.8449 40.8294L47.6978 40.781H47.545C47.3719 40.7921 47.207 40.8747 47.0775 41.0154C46.9479 41.1561 46.8614 41.3464 46.8321 41.5551L46.1531 45.9788L45.9381 47.6308L45.095 53.9208L43.3467 62.0217H43.392C43.3618 62.0148 43.3308 62.0155 43.3008 62.0237C43.2709 62.0319 43.2426 62.0475 43.2177 62.0694C43.1928 62.0914 43.1719 62.1194 43.1561 62.1516C43.1403 62.1837 43.1301 62.2195 43.126 62.2567C43.1204 62.2926 43.1208 62.3296 43.1272 62.3654C43.1336 62.4012 43.146 62.435 43.1634 62.4647C43.1809 62.4945 43.2032 62.5196 43.2288 62.5385C43.2545 62.5574 43.283 62.5697 43.3127 62.5747L52.0262 64.3165C52.0558 64.3269 52.0872 64.3269 52.1168 64.3165C52.1453 64.3099 52.1724 64.2958 52.196 64.275C52.2214 64.2533 52.243 64.2256 52.2595 64.1936C52.2761 64.1615 52.2872 64.1258 52.2922 64.0884C52.2971 64.0523 52.2962 64.0155 52.2894 63.9799C52.2826 63.9443 52.2701 63.9107 52.2526 63.881C52.2153 63.8214 52.1605 63.7818 52.0998 63.7704H52.196L52.6486 55.4207L52.7561 54.5982L56.2359 49.1031C56.3392 48.9338 56.4009 48.7322 56.414 48.5217C56.427 48.3112 56.3907 48.1005 56.3094 47.9142Z" fill="#068FFF"/>
<path d="M53.056 62.9339C53.0399 62.8577 53.0002 62.7921 52.9454 62.7509C52.8905 62.7096 52.8247 62.696 52.7617 62.7128H52.8579L50.5947 54.4183L50.4363 53.575L51.9809 46.5109C52.0468 46.2112 52.013 45.8919 51.8869 45.6225C51.7607 45.3532 51.5525 45.1557 51.3076 45.0732C51.1861 45.0324 51.0592 45.0213 50.9342 45.0406C50.8092 45.0599 50.6886 45.1092 50.5792 45.1856C50.4698 45.2621 50.3739 45.3641 50.2969 45.486C50.22 45.6079 50.1635 45.7471 50.1307 45.8958L49.5027 48.6951L49.3442 47.8726L49.0161 46.1722L47.743 39.4814C47.6909 39.238 47.5628 39.0292 47.3861 38.9C47.2094 38.7708 46.9983 38.7313 46.7981 38.7902C46.5981 38.8522 46.4263 39.0084 46.3202 39.2247C46.2142 39.441 46.1826 39.6998 46.2323 39.9445L47.4431 46.3036C47.4602 46.3906 47.4483 46.4824 47.4102 46.5588C47.372 46.6352 47.3106 46.6901 47.2394 46.7114C47.2045 46.7216 47.1682 46.7233 47.1328 46.7163C47.0973 46.7093 47.0633 46.6938 47.0328 46.6706C47.0023 46.6475 46.9758 46.6172 46.955 46.5815C46.9341 46.5458 46.9193 46.5053 46.9113 46.4626L45.4798 38.963C45.4277 38.7196 45.2996 38.5108 45.1229 38.3816C44.9462 38.2524 44.7351 38.2129 44.5349 38.2718C44.3348 38.3338 44.163 38.49 44.057 38.7063C43.951 38.9226 43.9193 39.1814 43.969 39.4261L45.3949 46.9187C45.4104 47.0057 45.398 47.0966 45.36 47.1726C45.3221 47.2485 45.2616 47.3037 45.1912 47.3266C45.1563 47.3368 45.12 47.3385 45.0846 47.3315C45.0491 47.3245 45.0151 47.309 44.9846 47.2858C44.9541 47.2627 44.9276 47.2324 44.9067 47.1966C44.8859 47.1609 44.871 47.1205 44.863 47.0777L43.7597 41.2923C43.7076 41.0489 43.5795 40.8402 43.4028 40.711C43.2261 40.5817 43.015 40.5423 42.8148 40.6011C42.6147 40.6631 42.4429 40.8194 42.3369 41.0357C42.2309 41.252 42.1993 41.5108 42.249 41.7555L43.3523 47.5339C43.3607 47.5766 43.3621 47.6209 43.3563 47.6642C43.3506 47.7075 43.3379 47.749 43.319 47.7863C43.3 47.8236 43.2752 47.8559 43.246 47.8814C43.2167 47.9069 43.1836 47.925 43.1486 47.9348C43.1129 47.945 43.076 47.9465 43.0398 47.9391C43.0037 47.9318 42.9691 47.9158 42.938 47.892C42.907 47.8682 42.8801 47.8372 42.859 47.8006C42.8378 47.7641 42.8228 47.7227 42.8148 47.6791L42.0057 43.4282C41.9536 43.1848 41.8255 42.976 41.6488 42.8468C41.4721 42.7175 41.261 42.6781 41.0608 42.737C40.8615 42.8006 40.6907 42.9571 40.5849 43.1729C40.4791 43.3888 40.4468 43.6467 40.495 43.8913L41.3663 48.4739L41.6888 50.1812L42.9336 56.6786L43.8842 65.367H43.9294C43.8675 65.3851 43.8138 65.4322 43.78 65.4981C43.7461 65.564 43.7348 65.6435 43.7484 65.7195C43.7632 65.7952 43.8017 65.8607 43.8557 65.9021C43.9096 65.9434 43.9747 65.9573 44.0369 65.9407L52.8749 63.2588C52.9323 63.2409 52.9823 63.198 53.0157 63.1382C53.049 63.0784 53.0633 63.0057 53.056 62.9339Z" fill="white"/>
<path d="M43.822 66.0793C43.7465 66.0779 43.6727 66.0522 43.608 66.0048C43.5432 65.9574 43.4898 65.8901 43.4532 65.8096C43.4165 65.729 43.3978 65.6381 43.3989 65.5459C43.4001 65.4538 43.4211 65.3636 43.4599 65.2845L43.5277 65.1808L42.5885 56.6237L40.1499 43.8571C40.0921 43.5511 40.1359 43.2295 40.2716 42.9627C40.4073 42.6959 40.6239 42.5056 40.8741 42.4332C40.9523 42.4127 41.0318 42.4012 41.1117 42.3987C41.3295 42.3995 41.5407 42.4899 41.7111 42.6555C41.8816 42.8211 42.0013 43.0521 42.051 43.3111L42.8658 47.5689C42.8686 47.5952 42.8795 47.6191 42.8964 47.6358C42.9132 47.6526 42.9346 47.6607 42.9563 47.6588C43.0298 47.6588 43.0638 47.5758 43.0525 47.5136L41.9208 41.7351C41.8915 41.5844 41.8868 41.4281 41.907 41.2752C41.9273 41.1223 41.9721 40.9757 42.0389 40.8441C42.1057 40.7124 42.1931 40.5981 42.2962 40.5079C42.3992 40.4176 42.5159 40.3531 42.6394 40.3182C42.7171 40.2942 42.797 40.2826 42.8771 40.2836C43.0954 40.2819 43.3076 40.3714 43.4784 40.5374C43.6493 40.7034 43.7685 40.9358 43.8163 41.196L44.9196 46.9745C44.9246 46.9995 44.9361 47.0218 44.9525 47.0381C44.9688 47.0543 44.9891 47.0635 45.0102 47.0643C45.0611 47.0643 45.0837 47.0643 45.095 47.009C45.101 46.9964 45.1041 46.9821 45.1041 46.9675C45.1041 46.953 45.101 46.9387 45.095 46.9261L43.6635 39.4265C43.605 39.1185 43.649 38.7948 43.7859 38.5265C43.9228 38.2581 44.1413 38.0672 44.3934 37.9957C44.6455 37.9242 44.9106 37.978 45.1302 38.1452C45.3499 38.3124 45.5061 38.5794 45.5647 38.8874L46.9962 46.38C47.0002 46.4056 47.0114 46.4287 47.028 46.4451C47.0446 46.4616 47.0654 46.4703 47.0867 46.4699C47.1376 46.4699 47.1603 46.4699 47.1716 46.4146C47.1793 46.3878 47.1793 46.3585 47.1716 46.3317L45.9551 39.9656C45.8975 39.6604 45.9414 39.3398 46.0772 39.0741C46.213 38.8084 46.4295 38.6194 46.6793 38.5487C46.757 38.5248 46.8368 38.5131 46.9169 38.5141C47.1352 38.5124 47.3474 38.602 47.5183 38.7679C47.6892 38.9339 47.8084 39.1663 47.8562 39.4265L49.4518 47.7901L49.8931 45.8271C49.958 45.5325 50.1009 45.2724 50.2994 45.0874C50.498 44.9024 50.7411 44.8027 50.9908 44.8041C51.0921 44.8027 51.1931 44.819 51.2907 44.8525C51.4412 44.902 51.5817 44.9889 51.7034 45.1078C51.8251 45.2268 51.9254 45.3752 51.9979 45.5437C52.0724 45.7011 52.1208 45.8749 52.1402 46.0552C52.1596 46.2355 52.1497 46.4187 52.1111 46.5943L50.5495 53.5547L50.6966 54.3496L52.9598 62.5611C53.0153 62.5951 53.0638 62.6438 53.102 62.7036C53.1401 62.7634 53.167 62.8327 53.1805 62.9067C53.2042 63.0412 53.1861 63.1817 53.1296 63.3007C53.0997 63.3582 53.0608 63.4079 53.0152 63.4471C52.9695 63.4862 52.918 63.514 52.8636 63.5288L43.8672 66.0932L43.822 66.0793ZM43.822 65.4849C43.809 65.4808 43.7954 65.4808 43.7824 65.4849C43.7824 65.4849 43.7824 65.5195 43.7824 65.5471C43.7836 65.5571 43.7866 65.5665 43.7911 65.5749C43.7957 65.5833 43.8016 65.5903 43.8086 65.5956C43.8156 65.6009 43.8235 65.6042 43.8317 65.6054C43.8398 65.6066 43.8481 65.6056 43.8559 65.6024L52.858 63.045C52.8723 63.0377 52.8844 63.0251 52.8925 63.009C52.9007 62.9929 52.9044 62.974 52.9032 62.9551C52.8996 62.938 52.8917 62.9227 52.8805 62.9115C52.8693 62.9003 52.8554 62.8938 52.841 62.8929L52.807 62.6924H52.7278L50.4646 54.398L50.2892 53.4787L51.8735 46.4077C51.9229 46.1743 51.8966 45.9266 51.7999 45.7165C51.7502 45.6077 51.683 45.5124 51.6023 45.4364C51.5215 45.3603 51.429 45.3051 51.3303 45.2741C51.2566 45.2488 51.1805 45.2349 51.104 45.2326C50.9343 45.2333 50.7693 45.3009 50.6337 45.4255C50.498 45.5501 50.399 45.7249 50.3514 45.9238L49.5367 49.5665L47.6186 39.5025C47.5796 39.3126 47.4816 39.1486 47.3453 39.0453C47.2091 38.9421 47.0453 38.9078 46.8887 38.9496C46.8099 38.97 46.7352 39.0094 46.669 39.0655C46.6029 39.1216 46.5465 39.1933 46.5033 39.2763C46.4601 39.3594 46.4309 39.4521 46.4174 39.5491C46.4039 39.6461 46.4064 39.7454 46.4247 39.8412L47.6355 46.2072C47.6505 46.2785 47.6531 46.3527 47.6434 46.4253C47.6337 46.4979 47.6117 46.5672 47.579 46.6289C47.5476 46.6911 47.5065 46.7452 47.4579 46.7879C47.4093 46.8306 47.3543 46.8611 47.296 46.8777C47.2366 46.9005 47.1738 46.9076 47.1119 46.8987C47.05 46.8897 46.9903 46.8648 46.9369 46.8256C46.8834 46.7864 46.8374 46.7338 46.8018 46.6713C46.7661 46.6088 46.7418 46.5378 46.7302 46.463L45.2987 38.9634C45.2805 38.8676 45.2471 38.7772 45.2002 38.6972C45.1534 38.6173 45.0942 38.5494 45.0259 38.4974C44.9576 38.4454 44.8816 38.4103 44.8022 38.3942C44.7228 38.3781 44.6416 38.3813 44.5632 38.4035C44.4848 38.4258 44.4108 38.4666 44.3453 38.5238C44.2798 38.581 44.2242 38.6534 44.1817 38.7369C44.1391 38.8203 44.1104 38.9132 44.0973 39.0102C44.0841 39.1071 44.0867 39.2063 44.1049 39.3021L45.5364 46.8017C45.5609 46.9459 45.5408 47.0962 45.4798 47.2233C45.4129 47.3479 45.3098 47.4369 45.1912 47.4721C45.1317 47.4949 45.069 47.5021 45.0071 47.4931C44.9452 47.4841 44.8855 47.4592 44.8321 47.42C44.7786 47.3808 44.7326 47.3283 44.6969 47.2658C44.6613 47.2033 44.6369 47.1322 44.6254 47.0574L43.4938 41.2928C43.4561 41.1033 43.3592 40.9394 43.2239 40.8361C43.0885 40.7327 42.9255 40.6982 42.7696 40.7398C42.6063 40.785 42.4641 40.9066 42.3735 41.0785C42.3295 41.1602 42.3002 41.2523 42.2875 41.3488C42.2749 41.4453 42.2791 41.544 42.2999 41.6384L43.4033 47.4168C43.4193 47.4895 43.4232 47.5653 43.4147 47.6399C43.4062 47.7144 43.3854 47.786 43.3537 47.8506C43.3221 47.9151 43.28 47.9711 43.2302 48.0154C43.1804 48.0596 43.1238 48.0911 43.0638 48.108C43.0043 48.1297 42.9418 48.136 42.8802 48.1265C42.8186 48.1171 42.7593 48.092 42.7061 48.053C42.6528 48.014 42.6069 47.9618 42.571 47.8999C42.5352 47.838 42.5103 47.7676 42.498 47.6933L41.6889 43.4355C41.6521 43.2421 41.5539 43.0745 41.416 42.9695C41.2781 42.8645 41.1116 42.8307 40.9533 42.8756C40.795 42.9205 40.6578 43.0404 40.5718 43.209C40.4859 43.3775 40.4582 43.5808 40.495 43.7742L42.9337 56.5615L43.8899 65.2706H43.7541L43.822 65.4849Z" fill="#068FFF"/>
<path d="M43.4599 47.1333H40.7384L38.9674 49.6285C38.6332 50.1115 38.4058 50.6908 38.3067 51.3115C38.2077 51.9322 38.2404 52.5735 38.4016 53.1744V53.2574C38.6707 54.2551 38.7099 55.324 38.5148 56.347V56.3954C38.0791 58.7008 37.8589 61.059 37.8584 63.425V68.1735C37.8577 68.2894 37.8757 68.4043 37.9115 68.5116C37.9473 68.6189 38.0001 68.7165 38.0669 68.7987C38.1337 68.881 38.2131 68.9463 38.3007 68.9908C38.3883 69.0354 38.4822 69.0583 38.577 69.0583H45.5874C45.7795 69.0583 45.9637 68.9651 46.0995 68.7992C46.2353 68.6332 46.3116 68.4082 46.3116 68.1735V63.425C46.3112 61.059 46.091 58.7008 45.6553 56.3954V56.347C45.4631 55.3237 45.5022 54.2557 45.7684 53.2574V53.1744C45.9308 52.5737 45.964 51.9321 45.8649 51.3111C45.7659 50.6902 45.5378 50.1108 45.2026 49.6285L43.4599 47.1333Z" fill="white"/>
<path d="M42.9281 48.5157L44.3369 50.5271C44.5457 50.8281 44.688 51.1894 44.7504 51.5765C44.8128 51.9636 44.7932 52.3637 44.6934 52.739V52.8288C44.3643 54.0663 44.3154 55.3895 44.552 56.6581V56.7065C44.9701 58.9094 45.1809 61.1636 45.18 63.425V67.6759H39.024V63.425C39.0241 61.164 39.2328 58.9103 39.6464 56.7065V56.6581C39.8886 55.3878 39.8397 54.0605 39.5049 52.8219V52.739C39.4052 52.3637 39.3855 51.9636 39.4479 51.5765C39.5103 51.1894 39.6526 50.8281 39.8614 50.5271L41.2759 48.5157H42.9281ZM43.4486 47.1333H40.7271L38.9674 49.6285C38.6332 50.1115 38.4058 50.6908 38.3067 51.3115C38.2077 51.9322 38.2404 52.5735 38.4016 53.1744V53.2574C38.6707 54.2551 38.7099 55.324 38.5148 56.347V56.3954C38.0791 58.7008 37.8589 61.059 37.8584 63.425V68.1735C37.8577 68.2894 37.8757 68.4043 37.9115 68.5116C37.9473 68.6189 38.0001 68.7165 38.0669 68.7987C38.1337 68.881 38.2131 68.9463 38.3007 68.9908C38.3883 69.0354 38.4822 69.0583 38.577 69.0583H45.5874C45.7795 69.0583 45.9637 68.9651 46.0995 68.7992C46.2353 68.6332 46.3116 68.4082 46.3116 68.1735V63.425C46.3112 61.059 46.091 58.7008 45.6553 56.3954V56.347C45.4631 55.3237 45.5022 54.2557 45.7684 53.2574V53.1744C45.9308 52.5737 45.964 51.9321 45.8649 51.3111C45.7659 50.6902 45.5378 50.1108 45.2026 49.6285L43.4543 47.1333H43.4486Z" fill="#068FFF"/>
<path d="M44.965 56.3469H39.239C39.6213 55.1872 39.6213 53.8917 39.239 52.7319H44.965C44.5827 53.8917 44.5827 55.1872 44.965 56.3469Z" fill="#068FFF"/>
<path d="M43.0864 45.6749L42.1019 45.3569L41.14 45.6749C41.0263 45.7099 40.9252 45.79 40.8525 45.9025C40.7799 46.015 40.7397 46.1537 40.7383 46.297V47.1333H43.4938V46.297C43.493 46.1524 43.4524 46.0124 43.3785 45.8995C43.3046 45.7867 43.2017 45.7075 43.0864 45.6749Z" fill="#068FFF"/>
<path d="M42.9732 44.2026H41.2532V45.6334H42.9732V44.2026Z" fill="#068FFF"/>
<path d="M43.0185 43.5942H41.2079C41.1079 43.5942 41.0269 43.6933 41.0269 43.8154V43.9813C41.0269 44.1035 41.1079 44.2025 41.2079 44.2025H43.0185C43.1185 44.2025 43.1996 44.1035 43.1996 43.9813V43.8154C43.1996 43.6933 43.1185 43.5942 43.0185 43.5942Z" fill="#068FFF"/>
<path d="M29.2865 56.0499C29.2876 56.3865 29.2069 56.7159 29.0546 56.9965C28.9024 57.277 28.6854 57.496 28.4312 57.6258C28.1769 57.7555 27.8969 57.7902 27.6265 57.7254C27.3561 57.6605 27.1076 57.4991 26.9124 57.2616C26.7171 57.0241 26.584 56.7211 26.5299 56.3911C26.4757 56.0611 26.5029 55.7188 26.6081 55.4077C26.7133 55.0966 26.8917 54.8307 27.1207 54.6435C27.3497 54.4564 27.619 54.3565 27.8946 54.3565C28.0771 54.3555 28.2579 54.3987 28.4268 54.4834C28.5956 54.5681 28.7491 54.6927 28.8784 54.85C29.0078 55.0074 29.1104 55.1943 29.1804 55.4002C29.2504 55.6062 29.2865 55.8269 29.2865 56.0499Z" fill="#068FFF"/>
<path d="M27.1306 56.9552C27.1073 56.9549 27.0843 56.9479 27.0637 56.9347C27.043 56.9215 27.0252 56.9024 27.0118 56.8791C26.8606 56.6422 26.7789 56.3501 26.7798 56.0497C26.7884 55.766 26.8684 55.4924 27.0088 55.2661C27.1492 55.0398 27.3433 54.8718 27.5646 54.785C27.7858 54.6981 28.0236 54.6967 28.2457 54.7807C28.4677 54.8648 28.6631 55.0303 28.8054 55.2548C28.828 55.2945 28.837 55.3434 28.8307 55.3911C28.8243 55.4388 28.8031 55.4816 28.7715 55.5106C28.7552 55.5253 28.7366 55.5359 28.717 55.5418C28.6973 55.5476 28.6768 55.5487 28.6568 55.5448C28.6368 55.541 28.6176 55.5323 28.6004 55.5193C28.5832 55.5063 28.5682 55.4892 28.5564 55.4691C28.4571 55.2963 28.3151 55.167 28.1512 55.1C27.9873 55.033 27.8101 55.0318 27.6456 55.0967C27.4812 55.1616 27.338 55.2892 27.2372 55.4607C27.1364 55.6322 27.0832 55.8386 27.0853 56.0497C27.0849 56.2688 27.1425 56.4821 27.2494 56.658C27.2616 56.6769 27.2706 56.6986 27.2757 56.7218C27.2809 56.745 27.2822 56.7693 27.2796 56.7931C27.277 56.817 27.2704 56.84 27.2604 56.8607C27.2503 56.8814 27.237 56.8994 27.2211 56.9137C27.1959 56.9401 27.1638 56.9548 27.1306 56.9552Z" fill="white"/>
<path d="M36.9757 60.5841L36.4947 61.1509C36.3534 61.3173 36.1648 61.4103 35.9685 61.4103C35.7722 61.4103 35.5836 61.3173 35.4423 61.1509L35.2499 60.9228C35.1083 60.76 34.9211 60.6694 34.7266 60.6694C34.532 60.6694 34.3449 60.76 34.2032 60.9228L34.0108 61.1509C33.8704 61.3169 33.6828 61.4097 33.4874 61.4097C33.2921 61.4097 33.1044 61.3169 32.9641 61.1509L32.7717 60.9228C32.63 60.76 32.4428 60.6694 32.2483 60.6694C32.0538 60.6694 31.8666 60.76 31.7249 60.9228L31.5325 61.1509C31.3922 61.3169 31.2045 61.4097 31.0092 61.4097C30.8138 61.4097 30.6262 61.3169 30.4858 61.1509L30.2934 60.9228C30.1508 60.7595 29.9627 60.6687 29.7672 60.6687C29.5718 60.6687 29.3836 60.7595 29.241 60.9228L29.0543 61.1509C28.913 61.3173 28.7244 61.4103 28.5281 61.4103C28.3318 61.4103 28.1432 61.3173 28.0019 61.1509L27.5209 60.5841C27.4457 60.4944 27.3862 60.3868 27.3463 60.2679C27.3064 60.149 27.2869 60.0214 27.289 59.8929V56.4023H37.2076V59.8929C37.2097 60.0214 37.1902 60.149 37.1503 60.2679C37.1104 60.3868 37.0509 60.4944 36.9757 60.5841Z" fill="white"/>
<path d="M36.7776 56.9482V59.9134C36.778 59.9672 36.7698 60.0205 36.7532 60.0703C36.7367 60.1201 36.7123 60.1655 36.6814 60.2037L36.1948 60.7705C36.1338 60.8415 36.0528 60.8811 35.9685 60.8811C35.8843 60.8811 35.8032 60.8415 35.7422 60.7705L35.5498 60.5493C35.3302 60.2881 35.0359 60.1418 34.7294 60.1415C34.4212 60.1414 34.1249 60.2877 33.9033 60.5493L33.7166 60.7705C33.6869 60.8066 33.6515 60.835 33.6127 60.854C33.5738 60.873 33.5321 60.8822 33.4903 60.8811C33.4475 60.8824 33.405 60.8733 33.3652 60.8543C33.3254 60.8353 33.289 60.8068 33.2583 60.7705L33.0716 60.5493C32.8499 60.2877 32.5537 60.1414 32.2455 60.1415C31.939 60.1418 31.6446 60.2881 31.4251 60.5493L31.2327 60.7705C31.2032 60.807 31.1679 60.8356 31.1289 60.8546C31.09 60.8736 31.0483 60.8827 31.0063 60.8811C30.9645 60.8822 30.9228 60.873 30.884 60.854C30.8451 60.835 30.8097 60.8066 30.78 60.7705L30.5877 60.5493C30.368 60.2884 30.0736 60.1424 29.7672 60.1424C29.4608 60.1424 29.1665 60.2884 28.9468 60.5493L28.7544 60.7705C28.6934 60.8415 28.6124 60.8811 28.5281 60.8811C28.4438 60.8811 28.3628 60.8415 28.3018 60.7705L27.8152 60.2037C27.7843 60.1655 27.7599 60.1201 27.7434 60.0703C27.7269 60.0205 27.7186 59.9672 27.719 59.9134V56.9482H36.7776ZM37.2076 56.4229H27.289V59.9134C27.2869 60.0419 27.3064 60.1695 27.3463 60.2884C27.3862 60.4073 27.4457 60.5149 27.5209 60.6047L28.0019 61.1714C28.1439 61.3363 28.3322 61.4282 28.5281 61.4282C28.724 61.4282 28.9123 61.3363 29.0543 61.1714L29.241 60.9433C29.3843 60.7812 29.5719 60.6901 29.7672 60.6876C29.9627 60.6887 30.1507 60.7801 30.2934 60.9433L30.4858 61.1714C30.6249 61.3374 30.812 61.4293 31.0063 61.4272C31.2024 61.4296 31.3914 61.3378 31.5325 61.1714L31.7249 60.9433C31.866 60.779 32.0534 60.6873 32.2483 60.6873C32.4432 60.6873 32.6306 60.779 32.7717 60.9433L32.9641 61.1714C33.1051 61.3358 33.2925 61.4275 33.4874 61.4275C33.6824 61.4275 33.8698 61.3358 34.0108 61.1714L34.2032 60.9433C34.3459 60.7801 34.5339 60.6887 34.7294 60.6876C34.9232 60.6891 35.1093 60.7805 35.2499 60.9433L35.4423 61.1714C35.5843 61.3363 35.7727 61.4282 35.9685 61.4282C36.1644 61.4282 36.3527 61.3363 36.4947 61.1714L36.9757 60.6047C37.0509 60.5149 37.1104 60.4073 37.1503 60.2884C37.1902 60.1695 37.2097 60.0419 37.2076 59.9134V56.4229Z" fill="#068FFF"/>
<path d="M37.2077 55.7251H27.2891V56.4232H37.2077V55.7251Z" fill="#068FFF"/>
<path d="M32.1154 59.8031C32.1022 59.8829 32.0669 59.9547 32.0153 60.0063C31.9637 60.0579 31.8991 60.0861 31.8325 60.0861C31.7658 60.0861 31.7012 60.0579 31.6496 60.0063C31.5981 59.9547 31.5627 59.8829 31.5496 59.8031C31.5627 59.7232 31.5981 59.6514 31.6496 59.5998C31.7012 59.5482 31.7658 59.52 31.8325 59.52C31.8991 59.52 31.9637 59.5482 32.0153 59.5998C32.0669 59.6514 32.1022 59.7232 32.1154 59.8031Z" fill="#068FFF"/>
<path d="M27.5437 58.5312C27.6531 58.5312 27.7418 58.4229 27.7418 58.2893C27.7418 58.1557 27.6531 58.0474 27.5437 58.0474C27.4344 58.0474 27.3457 58.1557 27.3457 58.2893C27.3457 58.4229 27.4344 58.5312 27.5437 58.5312Z" fill="#068FFF"/>
<path d="M28.5509 59.9342C28.5509 59.9711 28.5419 60.0072 28.5252 60.0379C28.5084 60.0685 28.4845 60.0925 28.4566 60.1066C28.4287 60.1207 28.398 60.1244 28.3683 60.1172C28.3387 60.11 28.3115 60.0922 28.2901 60.0661C28.2688 60.04 28.2542 60.0068 28.2483 59.9706C28.2424 59.9344 28.2454 59.8969 28.257 59.8628C28.2686 59.8287 28.2881 59.7995 28.3133 59.779C28.3384 59.7585 28.3679 59.7476 28.3981 59.7476C28.4387 59.7476 28.4775 59.7672 28.5062 59.8022C28.5348 59.8372 28.5509 59.8847 28.5509 59.9342Z" fill="#068FFF"/>
<path d="M29.6315 59.8028C29.6315 59.8479 29.6205 59.892 29.6 59.9295C29.5795 59.967 29.5504 59.9963 29.5162 60.0135C29.4821 60.0308 29.4446 60.0353 29.4083 60.0265C29.3721 60.0177 29.3389 59.996 29.3127 59.9641C29.2866 59.9322 29.2689 59.8915 29.2616 59.8473C29.2544 59.8031 29.2581 59.7572 29.2723 59.7155C29.2864 59.6738 29.3103 59.6382 29.341 59.6131C29.3717 59.5881 29.4079 59.5747 29.4448 59.5747C29.4939 59.5764 29.5405 59.601 29.5752 59.6434C29.6099 59.6858 29.6301 59.7428 29.6315 59.8028Z" fill="#068FFF"/>
<path d="M31.1591 57.1904C31.1591 57.252 31.1442 57.3121 31.1162 57.3632C31.0882 57.4144 31.0485 57.4543 31.002 57.4778C30.9554 57.5013 30.9042 57.5075 30.8548 57.4955C30.8054 57.4835 30.7601 57.4539 30.7245 57.4104C30.6889 57.3669 30.6646 57.3115 30.6548 57.2511C30.645 57.1908 30.65 57.1282 30.6693 57.0714C30.6886 57.0146 30.7212 56.966 30.7631 56.9318C30.8049 56.8976 30.8542 56.8794 30.9045 56.8794C30.972 56.8794 31.0368 56.9122 31.0846 56.9705C31.1323 57.0288 31.1591 57.108 31.1591 57.1904Z" fill="#068FFF"/>
<path d="M33.6204 60.8676C33.6215 60.9091 33.6124 60.9501 33.5942 60.9853C33.576 61.0204 33.5495 61.0481 33.5183 61.0646C33.487 61.0811 33.4525 61.0858 33.419 61.0781C33.3856 61.0703 33.3548 61.0504 33.3307 61.021C33.3067 60.9916 33.2904 60.954 33.284 60.9131C33.2776 60.8723 33.2815 60.83 33.295 60.7919C33.3086 60.7537 33.3312 60.7214 33.36 60.6992C33.3887 60.6769 33.4223 60.6657 33.4563 60.6671C33.4998 60.6671 33.5416 60.6882 33.5723 60.7258C33.6031 60.7634 33.6204 60.8144 33.6204 60.8676Z" fill="#068FFF"/>
<path d="M33.0378 56.8793C33.0378 56.9217 33.0275 56.9631 33.0083 56.9984C32.989 57.0336 32.9616 57.0611 32.9295 57.0773C32.8975 57.0935 32.8622 57.0977 32.8282 57.0895C32.7942 57.0812 32.7629 57.0608 32.7384 57.0308C32.7139 57.0009 32.6972 56.9627 32.6904 56.9211C32.6836 56.8796 32.6871 56.8365 32.7004 56.7973C32.7136 56.7582 32.7361 56.7247 32.765 56.7012C32.7938 56.6776 32.8277 56.665 32.8624 56.665C32.9089 56.665 32.9536 56.6876 32.9864 56.7278C33.0193 56.768 33.0378 56.8225 33.0378 56.8793Z" fill="#068FFF"/>
<path d="M35.2218 58.2961C35.3562 58.2961 35.4651 58.163 35.4651 57.9989C35.4651 57.8347 35.3562 57.7017 35.2218 57.7017C35.0874 57.7017 34.9785 57.8347 34.9785 57.9989C34.9785 58.163 35.0874 58.2961 35.2218 58.2961Z" fill="#068FFF"/>
<path d="M35.4593 57.2592C35.5874 57.2592 35.6913 57.1323 35.6913 56.9758C35.6913 56.8193 35.5874 56.6924 35.4593 56.6924C35.3312 56.6924 35.2273 56.8193 35.2273 56.9758C35.2273 57.1323 35.3312 57.2592 35.4593 57.2592Z" fill="#068FFF"/>
<path d="M36.7042 59.1949C36.7042 59.2318 36.6953 59.2679 36.6785 59.2986C36.6617 59.3293 36.6378 59.3532 36.6099 59.3673C36.582 59.3815 36.5513 59.3852 36.5217 59.378C36.492 59.3708 36.4648 59.353 36.4434 59.3269C36.4221 59.3008 36.4075 59.2675 36.4016 59.2313C36.3957 59.1951 36.3988 59.1576 36.4103 59.1235C36.4219 59.0894 36.4415 59.0603 36.4666 59.0398C36.4917 59.0192 36.5212 59.0083 36.5515 59.0083C36.592 59.0083 36.6308 59.028 36.6595 59.063C36.6881 59.098 36.7042 59.1454 36.7042 59.1949Z" fill="#068FFF"/>
<path d="M27.8662 60.2936C27.8662 60.345 27.8495 60.3942 27.8198 60.4305C27.7901 60.4668 27.7498 60.4872 27.7077 60.4872C27.6657 60.4872 27.6254 60.4668 27.5957 60.4305C27.566 60.3942 27.5493 60.345 27.5493 60.2936C27.5493 60.2423 27.566 60.1931 27.5957 60.1568C27.6254 60.1205 27.6657 60.1001 27.7077 60.1001C27.7498 60.1001 27.7901 60.1205 27.8198 60.1568C27.8495 60.1931 27.8662 60.2423 27.8662 60.2936Z" fill="#068FFF"/>
<path d="M28.7828 57.7295C28.7814 57.7876 28.7618 57.8429 28.7282 57.884C28.6945 57.9251 28.6493 57.9489 28.6017 57.9507C28.5537 57.9507 28.5077 57.9274 28.4737 57.8859C28.4397 57.8444 28.4207 57.7882 28.4207 57.7295C28.4207 57.6708 28.4397 57.6146 28.4737 57.5731C28.5077 57.5316 28.5537 57.5083 28.6017 57.5083C28.6497 57.5083 28.6958 57.5316 28.7298 57.5731C28.7637 57.6146 28.7828 57.6708 28.7828 57.7295Z" fill="#068FFF"/>
<path d="M28.7037 60.7982C28.7023 60.8489 28.6851 60.8972 28.6557 60.9331C28.6263 60.969 28.5868 60.99 28.5453 60.9917C28.5032 60.9917 28.463 60.9713 28.4332 60.935C28.4035 60.8987 28.3868 60.8495 28.3868 60.7982C28.386 60.7725 28.3896 60.7469 28.3973 60.723C28.405 60.699 28.4166 60.6773 28.4315 60.6592C28.4463 60.641 28.4641 60.6268 28.4837 60.6174C28.5033 60.608 28.5242 60.6037 28.5453 60.6046C28.5873 60.6046 28.6276 60.625 28.6573 60.6613C28.687 60.6976 28.7037 60.7468 28.7037 60.7982Z" fill="#068FFF"/>
<path d="M29.4109 57.5703C29.5515 57.5703 29.6655 57.4311 29.6655 57.2593C29.6655 57.0875 29.5515 56.9482 29.4109 56.9482C29.2702 56.9482 29.1562 57.0875 29.1562 57.2593C29.1562 57.4311 29.2702 57.5703 29.4109 57.5703Z" fill="#068FFF"/>
<path d="M33.2356 60.494C33.2342 60.5814 33.2051 60.6648 33.1545 60.7266C33.1039 60.7885 33.0356 60.824 32.964 60.8258C32.892 60.8258 32.8229 60.7908 32.772 60.7286C32.7211 60.6664 32.6924 60.582 32.6924 60.494C32.6917 60.4501 32.6982 60.4066 32.7115 60.3659C32.7249 60.3252 32.7449 60.2883 32.7703 60.2573C32.7956 60.2263 32.8259 60.2019 32.8592 60.1855C32.8925 60.1692 32.9282 60.1612 32.964 60.1622C33.0361 60.1622 33.1051 60.1971 33.1561 60.2594C33.207 60.3216 33.2356 60.406 33.2356 60.494Z" fill="#068FFF"/>
<path d="M32.3813 57.5841C32.3813 57.6388 32.3681 57.6922 32.3432 57.7377C32.3184 57.7832 32.283 57.8186 32.2416 57.8395C32.2003 57.8604 32.1548 57.8659 32.1109 57.8553C32.067 57.8446 32.0266 57.8183 31.995 57.7796C31.9633 57.7409 31.9418 57.6917 31.9331 57.638C31.9243 57.5844 31.9288 57.5288 31.9459 57.4783C31.9631 57.4278 31.9921 57.3846 32.0293 57.3542C32.0665 57.3238 32.1103 57.3076 32.155 57.3076C32.2151 57.3076 32.2726 57.3367 32.3151 57.3886C32.3575 57.4404 32.3813 57.5108 32.3813 57.5841Z" fill="#068FFF"/>
<path d="M34.6786 58.241C34.6797 58.2908 34.6685 58.3398 34.6466 58.3818C34.6247 58.4238 34.5929 58.4567 34.5555 58.4764C34.518 58.4961 34.4766 58.5016 34.4366 58.4922C34.3965 58.4828 34.3597 58.459 34.3309 58.4238C34.3021 58.3886 34.2826 58.3436 34.2749 58.2947C34.2672 58.2458 34.2717 58.1952 34.2878 58.1495C34.3039 58.1037 34.3309 58.065 34.3653 58.0382C34.3996 58.0114 34.4398 57.9978 34.4805 57.9991C34.5326 58.0009 34.5821 58.0269 34.619 58.0719C34.6558 58.1169 34.6771 58.1774 34.6786 58.241Z" fill="#068FFF"/>
<path d="M34.4804 57.7224C34.5648 57.7224 34.6332 57.6388 34.6332 57.5357C34.6332 57.4327 34.5648 57.3491 34.4804 57.3491C34.396 57.3491 34.3276 57.4327 34.3276 57.5357C34.3276 57.6388 34.396 57.7224 34.4804 57.7224Z" fill="#068FFF"/>
<path d="M36.8568 57.4252C36.8568 57.4935 36.8402 57.5604 36.8091 57.6172C36.7781 57.674 36.7339 57.7183 36.6822 57.7445C36.6305 57.7706 36.5736 57.7775 36.5187 57.7641C36.4639 57.7508 36.4134 57.7179 36.3739 57.6696C36.3343 57.6212 36.3074 57.5596 36.2964 57.4926C36.2855 57.4256 36.2911 57.3561 36.3126 57.2929C36.334 57.2298 36.3702 57.1758 36.4167 57.1378C36.4633 57.0999 36.518 57.0796 36.5739 57.0796C36.6489 57.0796 36.7209 57.116 36.774 57.1808C36.827 57.2456 36.8568 57.3335 36.8568 57.4252Z" fill="#068FFF"/>
<path d="M28.1547 58.9665C28.1532 59.0533 28.124 59.1359 28.0732 59.1966C28.0224 59.2573 27.9542 59.2914 27.8831 59.2913C27.8126 59.2913 27.745 59.2571 27.6951 59.1962C27.6452 59.1353 27.6172 59.0526 27.6172 58.9665C27.6172 58.8803 27.6452 58.7977 27.6951 58.7368C27.745 58.6758 27.8126 58.6416 27.8831 58.6416C27.9542 58.6416 28.0224 58.6756 28.0732 58.7363C28.124 58.797 28.1532 58.8797 28.1547 58.9665Z" fill="#068FFF"/>
<path d="M30.056 57.9645C30.0567 58.0068 30.0506 58.0489 30.0378 58.0883C30.0251 58.1277 30.006 58.1636 29.9818 58.1938C29.9575 58.2241 29.9286 58.2481 29.8966 58.2645C29.8647 58.2809 29.8304 58.2894 29.7957 58.2894C29.7252 58.2894 29.6575 58.2552 29.6077 58.1942C29.5578 58.1333 29.5298 58.0507 29.5298 57.9645C29.5298 57.8784 29.5578 57.7957 29.6077 57.7348C29.6575 57.6739 29.7252 57.6396 29.7957 57.6396C29.8304 57.6396 29.8647 57.6481 29.8966 57.6645C29.9286 57.6809 29.9575 57.7049 29.9818 57.7352C30.006 57.7655 30.0251 57.8013 30.0378 57.8407C30.0506 57.8801 30.0567 57.9222 30.056 57.9645Z" fill="#068FFF"/>
<path d="M31.612 58.7246C31.6175 58.7698 31.6149 58.8159 31.6045 58.8598C31.5941 58.9037 31.5761 58.9444 31.5516 58.979C31.5272 59.0136 31.4969 59.0414 31.4629 59.0604C31.4289 59.0794 31.3919 59.0893 31.3545 59.0893C31.3171 59.0893 31.2801 59.0794 31.2461 59.0604C31.2121 59.0414 31.1818 59.0136 31.1574 58.979C31.133 58.9444 31.1149 58.9037 31.1045 58.8598C31.0941 58.8159 31.0916 58.7698 31.0971 58.7246C31.0916 58.6794 31.0941 58.6332 31.1045 58.5893C31.1149 58.5454 31.133 58.5048 31.1574 58.4702C31.1818 58.4356 31.2121 58.4078 31.2461 58.3888C31.2801 58.3697 31.3171 58.3599 31.3545 58.3599C31.3919 58.3599 31.4289 58.3697 31.4629 58.3888C31.4969 58.4078 31.5272 58.4356 31.5516 58.4702C31.5761 58.5048 31.5941 58.5454 31.6045 58.5893C31.6149 58.6332 31.6175 58.6794 31.612 58.7246Z" fill="#068FFF"/>
<path d="M31.1705 60.4943C31.1705 60.5805 31.1425 60.6631 31.0926 60.724C31.0428 60.7849 30.9751 60.8192 30.9046 60.8192C30.8341 60.8192 30.7664 60.7849 30.7166 60.724C30.6667 60.6631 30.6387 60.5805 30.6387 60.4943C30.6387 60.4081 30.6667 60.3255 30.7166 60.2646C30.7664 60.2037 30.8341 60.1694 30.9046 60.1694C30.9751 60.1694 31.0428 60.2037 31.0926 60.2646C31.1425 60.3255 31.1705 60.4081 31.1705 60.4943Z" fill="#068FFF"/>
<path d="M32.8396 59.5748C33.0021 59.5748 33.1339 59.4139 33.1339 59.2154C33.1339 59.0169 33.0021 58.856 32.8396 58.856C32.6771 58.856 32.5454 59.0169 32.5454 59.2154C32.5454 59.4139 32.6771 59.5748 32.8396 59.5748Z" fill="#068FFF"/>
<path d="M33.6261 57.854C33.6261 57.8984 33.6189 57.9425 33.605 57.9836C33.591 58.0247 33.5706 58.062 33.5449 58.0935C33.5191 58.1249 33.4886 58.1499 33.4549 58.1669C33.4213 58.1839 33.3852 58.1927 33.3488 58.1927C33.2738 58.1927 33.2018 58.1563 33.1488 58.0914C33.0957 58.0266 33.0659 57.9387 33.0659 57.8471C33.0659 57.7554 33.0957 57.6675 33.1488 57.6027C33.2018 57.5379 33.2738 57.5015 33.3488 57.5015C33.3862 57.5014 33.4232 57.5106 33.4576 57.5285C33.492 57.5464 33.5231 57.5726 33.549 57.6055C33.5749 57.6384 33.595 57.6774 33.6083 57.7201C33.6215 57.7628 33.6276 57.8083 33.6261 57.854Z" fill="#068FFF"/>
<path d="M36.8626 58.5659C36.8626 58.6246 36.8435 58.6808 36.8096 58.7223C36.7756 58.7638 36.7296 58.7871 36.6815 58.7871C36.6335 58.7871 36.5875 58.7638 36.5535 58.7223C36.5196 58.6808 36.5005 58.6246 36.5005 58.5659C36.5005 58.5072 36.5196 58.451 36.5535 58.4095C36.5875 58.368 36.6335 58.3447 36.6815 58.3447C36.7296 58.3447 36.7756 58.368 36.8096 58.4095C36.8435 58.451 36.8626 58.5072 36.8626 58.5659Z" fill="#068FFF"/>
<path d="M33.7563 59.3191C33.7563 59.3851 33.7348 59.4484 33.6966 59.4951C33.6584 59.5418 33.6066 59.568 33.5526 59.568C33.4985 59.568 33.4467 59.5418 33.4085 59.4951C33.3703 59.4484 33.3489 59.3851 33.3489 59.3191C33.3489 59.2531 33.3703 59.1899 33.4085 59.1432C33.4467 59.0965 33.4985 59.0703 33.5526 59.0703C33.6066 59.0703 33.6584 59.0965 33.6966 59.1432C33.7348 59.1899 33.7563 59.2531 33.7563 59.3191Z" fill="#068FFF"/>
<path d="M30.5368 59.5751C30.5368 59.6668 30.5069 59.7547 30.4539 59.8195C30.4008 59.8843 30.3289 59.9207 30.2539 59.9207C30.1793 59.9189 30.1081 59.8819 30.0554 59.8175C30.0027 59.7531 29.9724 59.6662 29.9709 59.5751C29.9709 59.4834 30.0008 59.3955 30.0538 59.3307C30.1069 59.2659 30.1788 59.2295 30.2539 59.2295C30.3289 59.2295 30.4008 59.2659 30.4539 59.3307C30.5069 59.3955 30.5368 59.4834 30.5368 59.5751Z" fill="#068FFF"/>
<path d="M30.2143 60.363C30.2143 60.4012 30.205 60.4387 30.1876 60.4705C30.1702 60.5023 30.1455 60.5271 30.1165 60.5418C30.0876 60.5564 30.0557 60.5603 30.025 60.5528C29.9943 60.5453 29.966 60.5269 29.9439 60.4998C29.9217 60.4728 29.9066 60.4383 29.9005 60.4007C29.8944 60.3632 29.8975 60.3243 29.9095 60.2889C29.9215 60.2535 29.9418 60.2233 29.9679 60.202C29.9939 60.1808 30.0246 60.1694 30.0559 60.1694C30.0979 60.1694 30.1382 60.1898 30.1679 60.2261C30.1976 60.2624 30.2143 60.3116 30.2143 60.363Z" fill="#068FFF"/>
<path d="M34.6163 59.575C34.6082 59.6347 34.583 59.689 34.5452 59.7282C34.5073 59.7673 34.4594 59.7888 34.4098 59.7888C34.3602 59.7888 34.3122 59.7673 34.2744 59.7282C34.2366 59.689 34.2114 59.6347 34.2033 59.575C34.1983 59.5384 34.1999 59.5009 34.208 59.4651C34.2161 59.4293 34.2304 59.3961 34.2501 59.3677C34.2697 59.3394 34.2942 59.3166 34.3218 59.301C34.3494 59.2854 34.3794 59.2773 34.4098 59.2773C34.4402 59.2773 34.4702 59.2854 34.4978 59.301C34.5254 59.3166 34.5499 59.3394 34.5695 59.3677C34.5892 59.3961 34.6035 59.4293 34.6116 59.4651C34.6197 59.5009 34.6213 59.5384 34.6163 59.575Z" fill="#068FFF"/>
<path d="M35.7197 61.1508C35.8791 61.1508 36.0083 60.993 36.0083 60.7983C36.0083 60.6036 35.8791 60.4458 35.7197 60.4458C35.5603 60.4458 35.4312 60.6036 35.4312 60.7983C35.4312 60.993 35.5603 61.1508 35.7197 61.1508Z" fill="#068FFF"/>
<path d="M35.0916 60.2939C35.0916 60.3459 35.079 60.3966 35.0554 60.4398C35.0318 60.483 34.9982 60.5167 34.9589 60.5366C34.9196 60.5565 34.8764 60.5617 34.8347 60.5515C34.793 60.5414 34.7547 60.5164 34.7246 60.4796C34.6945 60.4429 34.6741 60.3961 34.6658 60.3452C34.6575 60.2942 34.6617 60.2414 34.678 60.1934C34.6943 60.1454 34.7218 60.1044 34.7572 60.0755C34.7925 60.0467 34.8341 60.0312 34.8766 60.0312C34.9336 60.0312 34.9883 60.0589 35.0287 60.1082C35.069 60.1574 35.0916 60.2242 35.0916 60.2939Z" fill="#068FFF"/>
<path d="M28.3981 57.3009C28.3892 57.3711 28.3601 57.4351 28.316 57.4813C28.2719 57.5275 28.2157 57.5529 28.1576 57.5529C28.0995 57.5529 28.0433 57.5275 27.9992 57.4813C27.9551 57.4351 27.926 57.3711 27.9171 57.3009C27.9118 57.2586 27.914 57.2153 27.9237 57.1741C27.9333 57.1329 27.9501 57.0947 27.9729 57.0622C27.9958 57.0297 28.0241 57.0036 28.056 56.9857C28.0879 56.9678 28.1225 56.9585 28.1576 56.9585C28.1927 56.9585 28.2273 56.9678 28.2592 56.9857C28.2911 57.0036 28.3194 57.0297 28.3423 57.0622C28.3651 57.0947 28.3819 57.1329 28.3916 57.1741C28.4012 57.2153 28.4034 57.2586 28.3981 57.3009Z" fill="#068FFF"/>
<path d="M35.5385 59.5542C35.5429 59.5812 35.5422 59.6091 35.5367 59.6358C35.5312 59.6625 35.5209 59.6873 35.5065 59.7086C35.4922 59.7298 35.4742 59.747 35.4538 59.7587C35.4334 59.7705 35.4111 59.7766 35.3886 59.7766C35.3661 59.7766 35.3438 59.7705 35.3234 59.7587C35.303 59.747 35.285 59.7298 35.2707 59.7086C35.2564 59.6873 35.2461 59.6625 35.2405 59.6358C35.235 59.6091 35.2344 59.5812 35.2387 59.5542C35.2455 59.5117 35.2641 59.4734 35.2915 59.4459C35.3188 59.4184 35.3532 59.4033 35.3886 59.4033C35.424 59.4033 35.4584 59.4184 35.4857 59.4459C35.5131 59.4734 35.5318 59.5117 35.5385 59.5542Z" fill="#068FFF"/>
<path d="M36.2346 60.0864C36.2391 60.1163 36.2382 60.1471 36.2319 60.1765C36.2256 60.2059 36.2141 60.2333 36.1982 60.2567C36.1823 60.2801 36.1623 60.2989 36.1398 60.3118C36.1172 60.3247 36.0926 60.3314 36.0677 60.3314C36.0428 60.3314 36.0182 60.3247 35.9956 60.3118C35.9731 60.2989 35.9531 60.2801 35.9372 60.2567C35.9213 60.2333 35.9098 60.2059 35.9035 60.1765C35.8972 60.1471 35.8962 60.1163 35.9008 60.0864C35.8962 60.0565 35.8972 60.0257 35.9035 59.9962C35.9098 59.9668 35.9213 59.9394 35.9372 59.916C35.9531 59.8927 35.9731 59.8738 35.9956 59.8609C36.0182 59.848 36.0428 59.8413 36.0677 59.8413C36.0926 59.8413 36.1172 59.848 36.1398 59.8609C36.1623 59.8738 36.1823 59.8927 36.1982 59.916C36.2141 59.9394 36.2256 59.9668 36.2319 59.9962C36.2382 60.0257 36.2391 60.0565 36.2346 60.0864Z" fill="#068FFF"/>
<path d="M28.7261 56.8378C28.7272 56.8793 28.7181 56.9203 28.6999 56.9555C28.6817 56.9906 28.6552 57.0183 28.624 57.0348C28.5927 57.0514 28.5582 57.056 28.5247 57.0483C28.4913 57.0405 28.4605 57.0206 28.4364 56.9912C28.4124 56.9618 28.3961 56.9242 28.3897 56.8833C28.3833 56.8425 28.3872 56.8002 28.4007 56.7621C28.4143 56.7239 28.4369 56.6916 28.4657 56.6694C28.4944 56.6471 28.528 56.636 28.562 56.6373C28.5836 56.6373 28.6049 56.6425 28.6248 56.6526C28.6447 56.6626 28.6628 56.6774 28.6781 56.696C28.6933 56.7146 28.7054 56.7367 28.7136 56.7611C28.7219 56.7854 28.7261 56.8114 28.7261 56.8378Z" fill="#068FFF"/>
<path d="M28.8903 57.3493C28.8903 57.527 28.8472 57.7007 28.7663 57.8485C28.6855 57.9962 28.5706 58.1114 28.4362 58.1794C28.3018 58.2474 28.1539 58.2652 28.0112 58.2305C27.8686 58.1959 27.7375 58.1103 27.6346 57.9846C27.5318 57.859 27.4617 57.6989 27.4333 57.5246C27.4049 57.3502 27.4195 57.1696 27.4752 57.0054C27.5309 56.8412 27.6251 56.7009 27.7461 56.6021C27.867 56.5034 28.0093 56.4507 28.1547 56.4507C28.3498 56.4507 28.5369 56.5454 28.6749 56.7139C28.8128 56.8824 28.8903 57.1109 28.8903 57.3493Z" fill="#068FFF"/>
<path d="M27.7475 57.8951C27.7269 57.8949 27.7067 57.8892 27.6881 57.8785C27.6695 57.8677 27.6531 57.8522 27.64 57.8329C27.5519 57.6945 27.5041 57.5243 27.5042 57.349C27.5049 57.1816 27.549 57.0187 27.63 56.8837C27.711 56.7486 27.8249 56.6482 27.9553 56.5969C28.0858 56.5455 28.2262 56.5458 28.3565 56.5977C28.4868 56.6496 28.6004 56.7505 28.681 56.8859C28.7009 56.9218 28.7084 56.9658 28.7021 57.0084C28.6958 57.051 28.676 57.0889 28.6471 57.114C28.6332 57.1273 28.6171 57.1369 28.6 57.1424C28.583 57.1478 28.5651 57.149 28.5477 57.1458C28.5302 57.1425 28.5134 57.135 28.4984 57.1236C28.4834 57.1122 28.4705 57.0972 28.4604 57.0795C28.4249 57.0208 28.379 56.9729 28.326 56.9393C28.273 56.9058 28.2145 56.8875 28.1548 56.8859C28.1051 56.8859 28.0558 56.8979 28.0098 56.9212C27.9638 56.9445 27.922 56.9786 27.8868 57.0216C27.8516 57.0646 27.8237 57.1156 27.8046 57.1718C27.7855 57.228 27.7757 57.2882 27.7757 57.349C27.7752 57.4496 27.8032 57.5473 27.855 57.6255C27.869 57.6507 27.8773 57.6799 27.8791 57.7103C27.8809 57.7406 27.876 57.771 27.8651 57.7984C27.8542 57.8257 27.8376 57.8491 27.8169 57.8661C27.7963 57.883 27.7723 57.893 27.7475 57.8951Z" fill="white"/>
<path d="M26.8702 59.1116C26.8702 59.5111 26.7732 59.9016 26.5914 60.2336C26.4096 60.5657 26.1513 60.8244 25.849 60.9769C25.5468 61.1295 25.2143 61.169 24.8937 61.0906C24.573 61.0122 24.2787 60.8193 24.0478 60.5363C23.817 60.2533 23.6601 59.8931 23.597 59.5011C23.5339 59.1091 23.5674 58.7031 23.6933 58.3344C23.8192 57.9657 24.0319 57.651 24.3043 57.4301C24.5768 57.2091 24.8967 57.0919 25.2237 57.0933C25.4404 57.0933 25.655 57.1455 25.8551 57.247C26.0553 57.3486 26.237 57.4973 26.39 57.6849C26.543 57.8724 26.6641 58.0949 26.7465 58.3398C26.829 58.5846 26.871 58.8469 26.8702 59.1116Z" fill="#068FFF"/>
<path d="M24.3128 60.1833C24.2848 60.1834 24.2572 60.176 24.2317 60.1617C24.2063 60.1474 24.1838 60.1264 24.1657 60.1004C23.9902 59.8154 23.8949 59.4686 23.8941 59.112C23.8919 58.7676 23.9797 58.4314 24.1448 58.1522C24.3099 57.8731 24.5435 57.6656 24.8118 57.5599C25.0801 57.4543 25.369 57.456 25.6365 57.5648C25.9039 57.6737 26.1359 57.8839 26.2988 58.165C26.3129 58.188 26.3231 58.2142 26.3288 58.2421C26.3344 58.27 26.3354 58.299 26.3317 58.3273C26.328 58.3557 26.3197 58.3829 26.3073 58.4072C26.2948 58.4316 26.2784 58.4527 26.2592 58.4691C26.2399 58.4866 26.218 58.4991 26.1947 58.5061C26.1715 58.5131 26.1473 58.5144 26.1236 58.5099C26.0999 58.5054 26.0772 58.4952 26.0568 58.4799C26.0363 58.4646 26.0186 58.4445 26.0046 58.4208C25.9163 58.2683 25.7993 58.1441 25.6633 58.0586C25.5274 57.9732 25.3766 57.9291 25.2237 57.93C25.0431 57.9297 24.866 57.9911 24.7124 58.1074C24.5589 58.2237 24.4351 58.3902 24.355 58.588C24.2749 58.7858 24.2418 59.0071 24.2593 59.2267C24.2768 59.4464 24.3444 59.6556 24.4542 59.8308C24.4687 59.8534 24.4792 59.8792 24.4853 59.9068C24.4914 59.9344 24.4929 59.9633 24.4898 59.9916C24.4866 60.02 24.4788 60.0473 24.4669 60.0719C24.455 60.0965 24.4391 60.1179 24.4203 60.135C24.3901 60.1658 24.3521 60.1829 24.3128 60.1833Z" fill="white"/>
<path d="M28.3414 58.7869C28.3414 59.1423 28.2551 59.4898 28.0935 59.7853C27.9318 60.0809 27.7021 60.3112 27.4333 60.4472C27.1644 60.5833 26.8686 60.6188 26.5833 60.5495C26.2979 60.4802 26.0358 60.309 25.8301 60.0577C25.6243 59.8063 25.4842 59.4861 25.4274 59.1375C25.3707 58.7889 25.3998 58.4276 25.5112 58.0992C25.6225 57.7708 25.811 57.4901 26.053 57.2926C26.2949 57.0952 26.5793 56.9898 26.8703 56.9898C27.0637 56.9888 27.2553 57.0347 27.4341 57.1247C27.613 57.2147 27.7754 57.347 27.9122 57.5141C28.0489 57.6812 28.1573 57.8796 28.2309 58.0981C28.3046 58.3165 28.3421 58.5506 28.3414 58.7869Z" fill="#068FFF"/>
<path d="M26.0612 59.803C26.0328 59.8018 26.005 59.7931 25.9796 59.7776C25.9542 59.7621 25.9319 59.7401 25.914 59.7132C25.81 59.559 25.7327 59.3805 25.6869 59.1886C25.6411 58.9967 25.6277 58.7955 25.6476 58.5971C25.6676 58.3987 25.7204 58.2074 25.8028 58.0347C25.8852 57.8621 25.9956 57.7117 26.1271 57.5929C26.2586 57.474 26.4086 57.3891 26.5679 57.3433C26.7271 57.2976 26.8923 57.2919 27.0535 57.3266C27.2146 57.3614 27.3682 57.4359 27.505 57.5455C27.6418 57.6552 27.7589 57.7977 27.8491 57.9644C27.8727 58.0122 27.8807 58.0691 27.8714 58.1237C27.8622 58.1783 27.8363 58.2267 27.7991 58.259C27.7619 58.2914 27.7161 58.3053 27.6708 58.2981C27.6255 58.2909 27.5841 58.2631 27.5549 58.2202C27.4508 58.0431 27.3034 57.911 27.1339 57.8429C26.9644 57.7747 26.7815 57.774 26.6117 57.8409C26.4419 57.9077 26.2938 58.0387 26.1888 58.2149C26.0837 58.3911 26.0272 58.6035 26.0272 58.8215C26.0276 59.0469 26.0893 59.2657 26.2026 59.4436C26.2172 59.4667 26.2278 59.4931 26.234 59.5213C26.2402 59.5494 26.2418 59.5788 26.2386 59.6077C26.2355 59.6366 26.2277 59.6645 26.2157 59.6897C26.2036 59.7149 26.1877 59.737 26.1687 59.7546C26.1385 59.7855 26.1005 59.8026 26.0612 59.803Z" fill="white"/>
<path d="M26.4065 57.3009C26.4076 57.4806 26.3649 57.6566 26.2839 57.8066C26.2029 57.9565 26.0872 58.0737 25.9515 58.1431C25.8159 58.2124 25.6664 58.231 25.5221 58.1962C25.3778 58.1615 25.2452 58.0752 25.1412 57.9481C25.0372 57.8211 24.9665 57.6591 24.938 57.4828C24.9096 57.3065 24.9248 57.1239 24.9816 56.9582C25.0384 56.7924 25.1343 56.6511 25.257 56.5521C25.3798 56.4531 25.5239 56.401 25.6709 56.4024C25.866 56.4024 26.0531 56.497 26.191 56.6656C26.329 56.8341 26.4065 57.0626 26.4065 57.3009Z" fill="#068FFF"/>
<path d="M25.2636 57.8468C25.2424 57.8468 25.2215 57.8405 25.2028 57.8285C25.1841 57.8164 25.168 57.799 25.1561 57.7777C25.0672 57.6425 25.0193 57.4741 25.0203 57.3007C25.0203 57.0899 25.0888 56.8877 25.2109 56.7387C25.3329 56.5896 25.4984 56.5059 25.671 56.5059C25.7731 56.5063 25.8737 56.5367 25.9642 56.5944C26.0548 56.6522 26.1328 56.7355 26.1915 56.8376C26.206 56.8543 26.2174 56.8746 26.2248 56.8972C26.2321 56.9198 26.2354 56.9442 26.2342 56.9684C26.233 56.9927 26.2275 57.0164 26.218 57.0378C26.2085 57.0592 26.1952 57.0778 26.1792 57.0922C26.1631 57.1066 26.1447 57.1166 26.1252 57.1213C26.1056 57.1261 26.0855 57.1255 26.0661 57.1197C26.0468 57.1139 26.0287 57.103 26.0132 57.0876C25.9978 57.0723 25.9852 57.053 25.9765 57.0312C25.9294 56.9528 25.8633 56.8946 25.7876 56.8646C25.7119 56.8347 25.6304 56.8347 25.5546 56.8645C25.4789 56.8943 25.4128 56.9525 25.3656 57.0308C25.3184 57.1091 25.2926 57.2035 25.2919 57.3007C25.2931 57.4009 25.3209 57.498 25.3711 57.5772C25.3851 57.6024 25.3934 57.6316 25.3952 57.662C25.397 57.6923 25.3922 57.7227 25.3813 57.7501C25.3704 57.7774 25.3537 57.8008 25.3331 57.8178C25.3124 57.8347 25.2884 57.8448 25.2636 57.8468Z" fill="white"/>
<path d="M25.75 54.7366C26.1562 54.7366 26.4855 54.3343 26.4855 53.838C26.4855 53.3418 26.1562 52.9395 25.75 52.9395C25.3437 52.9395 25.0144 53.3418 25.0144 53.838C25.0144 54.3343 25.3437 54.7366 25.75 54.7366Z" fill="#068FFF"/>
<path d="M25.3879 54.2735C25.3702 54.2747 25.3525 54.2702 25.3366 54.2605C25.3207 54.2508 25.3072 54.2362 25.2974 54.2182C25.2364 54.1164 25.1994 53.9962 25.1904 53.8707C25.1814 53.7451 25.2006 53.6189 25.2461 53.5057C25.2915 53.3925 25.3614 53.2966 25.4483 53.2285C25.5351 53.1604 25.6355 53.1226 25.7387 53.1191C25.828 53.1189 25.916 53.1444 25.9957 53.1936C26.0754 53.2429 26.1443 53.3145 26.197 53.4025C26.2134 53.4343 26.2196 53.4724 26.2143 53.5094C26.2091 53.5464 26.1929 53.5797 26.1687 53.603C26.1466 53.6288 26.1172 53.6432 26.0867 53.6432C26.0561 53.6432 26.0267 53.6288 26.0046 53.603C25.963 53.544 25.9079 53.5015 25.8465 53.4807C25.785 53.4599 25.7199 53.4618 25.6594 53.4862C25.5988 53.5106 25.5455 53.5564 25.5063 53.6178C25.467 53.6792 25.4436 53.7534 25.4388 53.8311C25.4379 53.9189 25.4619 54.0044 25.5067 54.073C25.5278 54.1 25.5396 54.1359 25.5396 54.1732C25.5396 54.2106 25.5278 54.2465 25.5067 54.2735C25.4888 54.2869 25.4683 54.2941 25.4473 54.2941C25.4263 54.2941 25.4058 54.2869 25.3879 54.2735Z" fill="white"/>
<path d="M30.7292 59.0149C31.2448 59.0149 31.6628 58.5042 31.6628 57.8744C31.6628 57.2445 31.2448 56.7339 30.7292 56.7339C30.2136 56.7339 29.7957 57.2445 29.7957 57.8744C29.7957 58.5042 30.2136 59.0149 30.7292 59.0149Z" fill="#068FFF"/>
<path d="M30.2143 58.5656C30.1879 58.5656 30.1619 58.5581 30.1384 58.5437C30.1148 58.5293 30.0943 58.5084 30.0785 58.4827C29.9668 58.3094 29.9069 58.0948 29.9087 57.8744C29.908 57.7422 29.9287 57.6111 29.9696 57.4887C30.0105 57.3663 30.0708 57.255 30.147 57.1612C30.2233 57.0674 30.314 56.993 30.4139 56.9422C30.5138 56.8914 30.6209 56.8652 30.7292 56.8652C30.8606 56.866 30.99 56.9046 31.107 56.9779C31.224 57.0511 31.3252 57.157 31.4025 57.2869C31.4198 57.3325 31.4234 57.3841 31.4127 57.4327C31.402 57.4812 31.3776 57.5237 31.3439 57.5525C31.3102 57.5813 31.2692 57.5948 31.2282 57.5904C31.1872 57.5861 31.1487 57.5643 31.1196 57.5288C31.0593 57.4306 30.9754 57.3579 30.8796 57.321C30.7838 57.284 30.6809 57.2847 30.5854 57.3228C30.4899 57.3609 30.4066 57.4346 30.3471 57.5336C30.2877 57.6325 30.2551 57.7517 30.2539 57.8744C30.2547 58.0014 30.2883 58.1248 30.3501 58.2269C30.3663 58.2462 30.3792 58.2693 30.3881 58.2949C30.3969 58.3204 30.4014 58.3478 30.4014 58.3755C30.4014 58.4032 30.3969 58.4307 30.3881 58.4562C30.3792 58.4817 30.3663 58.5048 30.3501 58.5241C30.3109 58.5589 30.2622 58.5738 30.2143 58.5656Z" fill="white"/>
</g>
<defs>
<clipPath id="clip0_382_1698">
<rect width="80" height="80" fill="white"/>
</clipPath>
</defs>
</svg>
