<svg width="228" height="54" viewBox="0 0 228 54" fill="none" xmlns="http://www.w3.org/2000/svg">
<path d="M52 6.99998C38 0.999983 20.1667 4.49998 13 6.99998V18.5L13.5 30C15.5 42 28 49 32.5 51C39.5 49 47.8333 38.3333 51 33C52.5 29.5 52.3333 14.6667 52 6.99998Z" fill="white"/>
<path d="M44.3647 6.56423C46.6088 6.941 48.8491 7.42587 51.0857 8.01883V23.0573C51.0813 26.0585 50.5384 29.0337 49.4836 31.8365C49.6203 31.9842 49.7257 32.159 49.7932 32.35C49.8673 32.3979 49.937 32.4525 50.0014 32.5132C50.3138 32.8043 50.6262 33.0784 50.9399 33.3483C52.297 30.0279 52.9995 26.5528 52.9995 23.0601V6.5289L52.2929 6.33392C49.9961 5.69857 47.6903 5.17532 45.3755 4.76416C45.0983 5.27375 44.7613 5.87378 44.3647 6.56423Z" fill="#54B435"/>
<path d="M15.2086 32.5154C15.273 32.4547 15.3427 32.4 15.4168 32.3522C15.4843 32.161 15.5897 31.9859 15.7263 31.8379C14.6719 29.0363 14.1289 26.0623 14.124 23.0622V8.02377C16.3585 7.42893 18.5981 6.94407 20.8428 6.56917C20.4472 5.87919 20.1095 5.27752 19.8296 4.76416C17.5165 5.17532 15.2114 5.69857 12.9144 6.33392L12.208 6.5289V23.0601C12.208 26.5528 12.9103 30.0314 14.2669 33.3483C14.5834 33.0834 14.8964 32.8064 15.2086 32.5154Z" fill="#54B435"/>
<path d="M19.0545 45.3446C18.2056 47.2064 15.8947 50.3747 13.7572 51.1299C12.4231 50.4019 10.9689 49.4679 9.50199 48.4493C13.1899 46.3457 14.8857 42.2399 14.8857 42.2399C13.2334 45.0204 9.78146 46.5302 7.76127 47.2071C6.88354 46.5651 6.01914 45.9105 5.19337 45.2692C9.0554 44.493 11.5313 41.4344 11.5313 41.4344C9.11228 43.6043 6.00791 44.0815 3.91048 44.2638C1.31238 42.168 0 41.0341 0 41.0341C0 41.0341 8.316 40.7861 16.1608 33.6462L26.2021 41.7006C24.4403 45.557 22.7473 48.7567 18.7217 53.0001C18.7217 53.0001 16.5365 52.5222 14.689 51.6133C18.471 48.9977 19.0545 45.3446 19.0545 45.3446Z" fill="#068FFF"/>
<path d="M44.2891 3.2948C41.0826 9.37648 25.4146 34.1159 25.4146 34.1159C25.1151 34.5591 24.9923 35.0995 25.0705 35.6297C25.1487 36.1599 25.4222 36.6411 25.8367 36.9776L26.2264 37.2941C26.5879 37.5771 26.8657 37.9541 27.0298 38.3844C27.5018 39.724 26.7329 41.0904 26.7329 41.0904L21.7044 37.0109L16.6738 32.9293C16.6738 32.9293 17.7783 31.9381 19.1304 32.0514C19.6221 32.1064 20.0869 32.3056 20.467 32.6242C21.4463 33.4193 22.9208 33.2033 23.5792 32.1243C37.2184 9.78215 40.0168 4.41556 41.2866 1.74712C42.6042 -1.01547 45.7354 0.549201 44.2891 3.2948Z" fill="#54B435"/>
<path d="M46.1527 45.3446C47.0016 47.2064 49.3125 50.3747 51.45 51.1299C52.7841 50.4019 54.2384 49.4679 55.7052 48.4493C52.0174 46.3457 50.3216 42.2399 50.3216 42.2399C51.9738 45.0204 55.4258 46.5302 57.446 47.2071C58.3237 46.5651 59.1881 45.9105 60.0139 45.2692C56.1518 44.493 53.6759 41.4344 53.6759 41.4344C56.095 43.6043 59.1993 44.0815 61.2968 44.2638C63.8949 42.168 65.2072 41.0341 65.2072 41.0341C65.2072 41.0341 56.8912 40.7861 49.0464 33.6462L39.0051 41.7006C40.7669 45.557 42.4599 48.7567 46.4855 53.0001C46.4855 53.0001 48.6707 52.5222 50.5182 51.6133C46.7362 48.9977 46.1527 45.3446 46.1527 45.3446Z" fill="#068FFF"/>
<path d="M20.6242 3.2953C23.8644 9.37689 39.6975 34.116 39.6975 34.116C40.0001 34.5592 40.1243 35.0996 40.0452 35.6298C39.9662 36.16 39.6898 36.6411 39.2709 36.9777L38.8771 37.2942C38.5118 37.5772 38.2311 37.9542 38.0653 38.3845C37.5882 39.724 38.3653 41.0904 38.3653 41.0904L43.4496 37.0088L48.5332 32.9273C48.5332 32.9273 47.4171 31.9361 46.0508 32.0494C45.5539 32.1044 45.0842 32.3036 44.7001 32.6222C43.7105 33.4172 42.2204 33.2013 41.555 32.1223C27.7658 9.78044 24.9379 4.41391 23.6547 1.74552C22.3268 -1.01492 19.1626 0.54973 20.6242 3.2953Z" fill="#54B435"/>
<path d="M27.7509 6.02686C28.8517 8.04383 30.3881 10.7719 32.6036 14.5898C34.8191 10.7697 36.3555 8.04383 37.4563 6.02686V2.55663L38.112 2.80805V2.10975L36.5025 1.49291V0.0184141H35.0407V0.934128L32.6036 0L27.0952 2.11117V2.80663L27.7509 2.55522V6.02686Z" fill="#54B435"/>
<path d="M38.9655 45.2586C36.9773 46.8011 34.8557 48.1561 32.627 49.3069L32.6033 49.319L32.5796 49.3062C30.3508 48.1554 28.2292 46.8004 26.2411 45.2579C25.9506 45.8311 25.6427 46.4064 25.3091 46.9887C27.2692 48.4965 32.604 51.5107 32.604 51.5107C32.604 51.5107 37.9388 48.4965 39.8989 46.988C39.5639 46.4071 39.256 45.8318 38.9655 45.2586Z" fill="#54B435"/>
<path d="M38.4099 43.9126L38.1807 44.0875C36.4225 45.4222 34.5572 46.6105 32.6038 47.6402C30.6503 46.6105 28.785 45.4223 27.0268 44.0875L26.7976 43.9126L27.6158 42.5079L27.6229 42.4959L27.784 42.4357L28.268 42.6162V36.3978L29.3537 35.9928V30.9865L32.6038 29.7751L35.8538 30.9865V35.9928L36.9396 36.3978V42.6162L37.4235 42.4357L37.5846 42.4959C37.5846 42.4959 38.2808 43.6372 38.4099 43.9126Z" fill="#54B435"/>
<path d="M45.2583 13.1013L46.522 14.517L47.9381 15.7811L46.6744 14.3647L45.2583 13.1013Z" fill="#54B435"/>
<path d="M45.2583 15.7811L46.6744 14.517L47.9381 13.1013L46.522 14.3647L45.2583 15.7811Z" fill="#54B435"/>
<path d="M47.4985 14.6992L49.4266 14.5951L47.4985 14.4917C47.293 14.4803 47.0991 14.3977 46.9536 14.2598C46.808 14.1219 46.721 13.9382 46.7088 13.7435L46.5976 11.9103L46.4877 13.7381C46.4756 13.9328 46.3885 14.1165 46.243 14.2544C46.0975 14.3923 45.9036 14.4748 45.6981 14.4863L43.7693 14.5897L45.6981 14.6938C45.9036 14.7053 46.0975 14.7878 46.243 14.9257C46.3885 15.0636 46.4756 15.2473 46.4877 15.442L46.5976 17.2698L46.7074 15.442C46.7209 15.2481 46.8088 15.0655 46.9545 14.9287C47.1002 14.7919 47.2937 14.7102 47.4985 14.6992Z" fill="#54B435"/>
<path d="M50.0222 38.4103L50.5842 39.1974L51.2132 39.899L50.6519 39.1127L50.0222 38.4103Z" fill="white"/>
<path d="M50.0222 39.899L50.6519 39.1974L51.2132 38.4103L50.5842 39.1127L50.0222 39.899Z" fill="white"/>
<path d="M51.1935 39.2061L52.1068 39.1543L51.1935 39.1019C51.0959 39.0965 51.0037 39.0554 50.9346 38.9862C50.8655 38.9171 50.8243 38.8249 50.8189 38.7273L50.7672 37.8145L50.7148 38.7273C50.7095 38.8249 50.6683 38.9171 50.5992 38.9862C50.5301 39.0554 50.4379 39.0965 50.3403 39.1019L49.427 39.1543L50.3403 39.2061C50.4378 39.2116 50.5299 39.2528 50.599 39.3219C50.6681 39.391 50.7093 39.4831 50.7148 39.5807L50.7672 40.4942L50.8189 39.5807C50.8245 39.4831 50.8657 39.391 50.9348 39.3219C51.0038 39.2528 51.0959 39.2116 51.1935 39.2061Z" fill="white"/>
<path d="M44.9604 41.0897L45.2409 41.4041L45.556 41.6852L45.2749 41.3702L44.9604 41.0897Z" fill="white"/>
<path d="M44.9604 41.6852L45.2749 41.4041L45.556 41.0897L45.2409 41.3702L44.9604 41.6852Z" fill="white"/>
<path d="M45.6445 41.4105L46.1516 41.3869L45.6445 41.364C45.5902 41.3616 45.539 41.3433 45.5006 41.3125C45.4622 41.2818 45.4393 41.2408 45.4362 41.1974L45.4068 40.7917L45.3782 41.1974C45.375 41.2408 45.352 41.2817 45.3136 41.3124C45.2753 41.3431 45.2241 41.3615 45.17 41.364L44.6628 41.3869L45.17 41.4105C45.2242 41.4129 45.2754 41.4312 45.3138 41.462C45.3523 41.4927 45.3752 41.5337 45.3782 41.5771L45.4068 41.9828L45.4362 41.5771C45.4391 41.5336 45.462 41.4926 45.5004 41.4618C45.5389 41.431 45.5902 41.4128 45.6445 41.4105Z" fill="white"/>
<path d="M15.1854 38.4103L14.6241 39.1974L13.9944 39.899L14.5557 39.1127L15.1854 38.4103Z" fill="white"/>
<path d="M15.1854 39.899L14.5557 39.1974L13.9944 38.4103L14.6241 39.1127L15.1854 39.899Z" fill="white"/>
<path d="M14.0141 39.2061L13.1008 39.1543L14.0141 39.1019C14.1117 39.0965 14.2039 39.0554 14.273 38.9862C14.3421 38.9171 14.3833 38.8249 14.3887 38.7273L14.4404 37.8145L14.4928 38.7273C14.4981 38.8249 14.5393 38.9171 14.6084 38.9862C14.6775 39.0554 14.7697 39.0965 14.8673 39.1019L15.7806 39.1543L14.8673 39.2061C14.7698 39.2116 14.6777 39.2528 14.6086 39.3219C14.5395 39.391 14.4983 39.4831 14.4928 39.5807L14.4404 40.4942L14.3887 39.5807C14.3831 39.4831 14.3419 39.391 14.2728 39.3219C14.2037 39.2528 14.1117 39.2116 14.0141 39.2061Z" fill="white"/>
<path d="M20.2469 41.0897L19.9658 41.4041L19.6514 41.6852L19.9324 41.3702L20.2469 41.0897Z" fill="white"/>
<path d="M20.2469 41.6852L19.9324 41.4041L19.6514 41.0897L19.9658 41.3702L20.2469 41.6852Z" fill="white"/>
<path d="M19.563 41.4105L19.0559 41.3869L19.563 41.364C19.6173 41.3616 19.6685 41.3433 19.7069 41.3125C19.7453 41.2818 19.7682 41.2408 19.7713 41.1974L19.8007 40.7917L19.8293 41.1974C19.8325 41.2408 19.8555 41.2817 19.8939 41.3124C19.9322 41.3431 19.9834 41.3615 20.0376 41.364L20.5447 41.3869L20.0376 41.4105C19.9833 41.4129 19.9321 41.4312 19.8937 41.462C19.8553 41.4927 19.8323 41.5337 19.8293 41.5771L19.8007 41.9828L19.7713 41.5771C19.7684 41.5336 19.7455 41.4926 19.7071 41.4618C19.6686 41.431 19.6173 41.4128 19.563 41.4105Z" fill="white"/>
<path d="M31.8594 5.0614L32.5612 6.00542L33.3481 6.84791L32.6463 5.90389L31.8594 5.0614Z" fill="white"/>
<path d="M31.8594 6.84791L32.6463 6.00542L33.3481 5.0614L32.5612 5.90389L31.8594 6.84791Z" fill="white"/>
<path d="M33.2202 6.02582L34.539 5.9558L33.2202 5.88579C33.0793 5.87826 32.9463 5.82315 32.8466 5.73096C32.7469 5.63877 32.6874 5.51594 32.6794 5.38586L32.6036 4.16895L32.5278 5.38586C32.5198 5.51594 32.4603 5.63877 32.3606 5.73096C32.2609 5.82315 32.1279 5.87826 31.987 5.88579L30.6682 5.9558L31.987 6.02582C32.1279 6.03299 32.2609 6.08779 32.3608 6.17973C32.4606 6.27168 32.5203 6.39435 32.5285 6.52435L32.6044 7.74196L32.6802 6.52435C32.6883 6.39458 32.7478 6.27209 32.8474 6.18018C32.9469 6.08826 33.0796 6.03332 33.2202 6.02582Z" fill="white"/>
<path d="M31.5618 33.051L32.5449 33.9952L33.646 34.8375L32.6629 33.8934L31.5618 33.051Z" fill="white"/>
<path d="M31.5618 34.8375L32.6629 33.9952L33.646 33.051L32.5449 33.8934L31.5618 34.8375Z" fill="white"/>
<path d="M33.2193 34.0264L34.539 33.9457L33.2193 33.8643C33.0788 33.8553 32.9463 33.7912 32.8469 33.684C32.7474 33.5769 32.6878 33.4342 32.6795 33.2829L32.6026 31.86L32.5277 33.2815C32.5194 33.4327 32.4598 33.5754 32.3603 33.6826C32.2609 33.7897 32.1284 33.8539 31.9879 33.8628L30.6682 33.9442L31.9879 34.0249C32.1284 34.0339 32.2609 34.098 32.3603 34.2052C32.4598 34.3123 32.5194 34.455 32.5277 34.6063L32.6026 36.0285L32.6775 34.6063C32.6862 34.4549 32.7462 34.3123 32.846 34.2054C32.9459 34.0985 33.0787 34.0348 33.2193 34.0264Z" fill="white"/>
<path d="M33.9438 39.3029L34.3655 39.7745L34.8371 40.1961L34.4161 39.7238L33.9438 39.3029Z" fill="white"/>
<path d="M33.9438 40.1961L34.4161 39.7745L34.8371 39.3029L34.3655 39.7238L33.9438 40.1961Z" fill="white"/>
<path d="M34.7227 39.6355L35.4326 39.6009L34.7227 39.5663C34.6467 39.5627 34.5749 39.5351 34.5211 39.489C34.4672 39.4428 34.4351 39.3813 34.4308 39.3161L34.3905 38.7076L34.3502 39.3161C34.3459 39.3812 34.3139 39.4427 34.2602 39.4888C34.2066 39.5349 34.135 39.5625 34.0591 39.5663L33.3484 39.6009L34.0591 39.6355C34.1348 39.6393 34.2063 39.6668 34.26 39.7128C34.3137 39.7588 34.3458 39.8201 34.3502 39.885L34.3905 40.4941L34.4308 39.885C34.4353 39.8199 34.4675 39.7586 34.5213 39.7126C34.5751 39.6666 34.6468 39.6391 34.7227 39.6355Z" fill="white"/>
<path d="M19.949 13.1013L18.6854 14.517L17.2693 15.7811L18.533 14.3647L19.949 13.1013Z" fill="#54B435"/>
<path d="M19.949 15.7811L18.533 14.517L17.2693 13.1013L18.6854 14.3647L19.949 15.7811Z" fill="#54B435"/>
<path d="M17.7089 14.6964L15.7808 14.5924L17.7089 14.4891C17.9143 14.4777 18.1082 14.3952 18.2538 14.2574C18.3993 14.1197 18.4864 13.9361 18.4985 13.7416L18.6098 11.9103L18.7196 13.7362C18.7317 13.9307 18.8188 14.1142 18.9643 14.252C19.1099 14.3898 19.3037 14.4722 19.5092 14.4837L21.438 14.587L19.5106 14.6964C19.3052 14.7079 19.1113 14.7903 18.9658 14.9281C18.8202 15.0658 18.7331 15.2494 18.721 15.4439L18.6112 17.2698L18.4999 15.4439C18.4878 15.2492 18.4005 15.0654 18.2547 14.9276C18.1088 14.7898 17.9146 14.7075 17.7089 14.6964Z" fill="#54B435"/>
<path d="M22.7332 22.0284L21.1404 20.2469L22.9252 21.8367H22.9292L24.7134 20.2469L23.1212 22.0284L23.1207 22.0304L23.1212 22.0325L24.7134 23.8146L22.9292 22.2295H22.9252L21.1404 23.82L22.7332 22.0378L22.7366 22.0364L22.7379 22.0331L22.7366 22.0298L22.7332 22.0284Z" fill="#54B435"/>
<path d="M21.9385 22.1991L19.0559 22.0349L21.9385 21.8707C22.153 21.8586 22.3555 21.7679 22.5075 21.616C22.6594 21.4641 22.7502 21.2616 22.7626 21.047L22.9267 18.1627L23.0908 21.047C23.1031 21.2616 23.1939 21.4641 23.3459 21.616C23.4979 21.7679 23.7004 21.8586 23.9149 21.8707L26.7974 22.0349L23.9149 22.1991C23.7008 22.2113 23.4986 22.3017 23.3467 22.4532C23.1948 22.6046 23.1038 22.8065 23.0908 23.0206L22.9267 25.9043L22.7626 23.0206C22.7496 22.8065 22.6585 22.6046 22.5066 22.4532C22.3547 22.3017 22.1526 22.2113 21.9385 22.1991Z" fill="#54B435"/>
<path d="M42.3415 22.0284L44.0671 20.2469L42.1335 21.8367H42.1291L40.1963 20.2469L41.9212 22.0284L41.9217 22.0304L41.9212 22.0325L40.1963 23.8146L42.1291 22.2295H42.1335L44.0671 23.82L42.3415 22.0378L42.3395 22.0375L42.3379 22.0364L42.3368 22.0349L42.3364 22.0331L42.3368 22.0313L42.3379 22.0298L42.3395 22.0288L42.3415 22.0284Z" fill="#54B435"/>
<path d="M43.2686 22.1991L46.1512 22.0349L43.2686 21.8707C43.0542 21.8586 42.8516 21.7679 42.6997 21.616C42.5477 21.4641 42.4569 21.2616 42.4445 21.047L42.2804 18.1627L42.1163 21.047C42.104 21.2616 42.0132 21.4641 41.8612 21.616C41.7092 21.7679 41.5067 21.8586 41.2922 21.8707L38.4097 22.0349L41.2922 22.1991C41.5063 22.2113 41.7085 22.3017 41.8604 22.4532C42.0123 22.6046 42.1033 22.8065 42.1163 23.0206L42.2804 25.9043L42.4445 23.0206C42.4575 22.8065 42.5486 22.6046 42.7005 22.4532C42.8524 22.3017 43.0546 22.2113 43.2686 22.1991Z" fill="#54B435"/>
<path d="M95.8433 41L85.4593 27.36V41H77.9353V10.112H85.4593V23.664L95.7553 10.112H104.599L92.6313 25.248L105.039 41H95.8433ZM116.139 35.192H125.995V41H108.615V10.112H116.139V35.192ZM148.812 35.544H137.284L135.436 41H127.56L138.736 10.112H147.448L158.624 41H150.66L148.812 35.544ZM146.876 29.736L143.048 18.428L139.264 29.736H146.876ZM189.657 41H182.133L169.549 21.948V41H162.025V10.112H169.549L182.133 29.252V10.112H189.657V41ZM209.719 41.308C206.815 41.308 204.146 40.6333 201.711 39.284C199.306 37.9347 197.384 36.0573 195.947 33.652C194.539 31.2173 193.835 28.4893 193.835 25.468C193.835 22.4467 194.539 19.7333 195.947 17.328C197.384 14.9227 199.306 13.0453 201.711 11.696C204.146 10.3467 206.815 9.672 209.719 9.672C212.623 9.672 215.278 10.3467 217.683 11.696C220.118 13.0453 222.024 14.9227 223.403 17.328C224.811 19.7333 225.515 22.4467 225.515 25.468C225.515 28.4893 224.811 31.2173 223.403 33.652C221.995 36.0573 220.088 37.9347 217.683 39.284C215.278 40.6333 212.623 41.308 209.719 41.308ZM209.719 34.444C212.183 34.444 214.148 33.6227 215.615 31.98C217.111 30.3373 217.859 28.1667 217.859 25.468C217.859 22.74 217.111 20.5693 215.615 18.956C214.148 17.3133 212.183 16.492 209.719 16.492C207.226 16.492 205.231 17.2987 203.735 18.912C202.268 20.5253 201.535 22.7107 201.535 25.468C201.535 28.196 202.268 30.3813 203.735 32.024C205.231 33.6373 207.226 34.444 209.719 34.444Z" fill="white"/>
</svg>
