<svg width="42" height="42" viewBox="0 0 42 42" fill="none" xmlns="http://www.w3.org/2000/svg">
<path opacity="0.915" fill-rule="evenodd" clip-rule="evenodd" d="M5.45508 1.43555C16.7481 1.42187 28.0411 1.43555 39.334 1.47656C39.484 1.499 39.6071 1.56736 39.7031 1.68164C39.7441 13.1113 39.7578 24.541 39.7441 35.9707C41.3277 36.4296 41.9156 37.4687 41.5078 39.0879C41.2074 39.8202 40.6742 40.2987 39.9082 40.5234C34.084 40.5371 28.2598 40.5508 22.4355 40.5645C16.4984 40.5776 10.5648 40.5366 4.63477 40.4414C3.44147 39.8184 2.9903 38.8477 3.28125 37.5293C3.60264 36.7017 4.19053 36.1822 5.04492 35.9707C5.04492 32.9355 5.04492 29.9004 5.04492 26.8652C4.30578 27.0614 3.5675 27.2664 2.83008 27.4805C1.34963 27.5863 0.501975 26.9026 0.287109 25.4297C0.337406 24.4775 0.80225 23.8212 1.68164 23.4609C2.79389 23.1077 3.91498 22.7933 5.04492 22.5176C5.03125 15.5996 5.04492 8.68161 5.08594 1.76367C5.20052 1.63486 5.32357 1.52549 5.45508 1.43555ZM6.11133 2.50195C16.9942 2.50195 27.8769 2.50195 38.7598 2.50195C38.7598 13.6309 38.7598 24.7597 38.7598 35.8887C27.8769 35.8887 16.9942 35.8887 6.11133 35.8887C6.09765 32.7714 6.11133 29.6542 6.15234 26.5371C6.70656 26.3541 7.26711 26.19 7.83398 26.0449C7.82032 28.6701 7.83398 31.2951 7.875 33.9199C7.94336 33.9883 8.01172 34.0567 8.08008 34.125C17.6844 34.2067 27.282 34.1794 36.8731 34.043C36.9244 33.9814 36.9654 33.913 36.9961 33.8379C37.0508 24.0762 37.0508 14.3145 36.9961 4.55274C36.9551 4.40235 36.8594 4.30664 36.709 4.26563C27.166 4.21094 17.623 4.21094 8.08008 4.26563C8.01172 4.33398 7.94336 4.40235 7.875 4.4707C7.84766 10.1856 7.82031 15.9004 7.79297 21.6152C7.24567 21.8238 6.68512 21.9879 6.11133 22.1074C6.11133 15.5722 6.11133 9.03714 6.11133 2.50195ZM8.81836 5.20899C13.1933 5.20899 17.5684 5.20899 21.9434 5.20899C21.9434 14.5332 21.9434 23.8574 21.9434 33.1816C17.5684 33.1816 13.1933 33.1816 8.81836 33.1816C8.76471 30.6613 8.81934 28.1594 8.98242 25.6758C9.56091 25.5107 10.1351 25.333 10.7051 25.1426C11.0955 25.7974 11.6697 26.0298 12.4277 25.8398C12.7372 25.7275 13.0517 25.6318 13.3711 25.5527C13.4486 25.586 13.5033 25.6407 13.5352 25.7168C13.874 26.9248 14.2295 28.1279 14.6016 29.3262C14.6426 29.4765 14.7383 29.5723 14.8887 29.6133C16.2721 29.7206 17.653 29.8436 19.0313 29.9824C19.6777 29.9237 19.9922 29.5682 19.9746 28.916C18.4772 23.5624 16.9049 18.2304 15.2578 12.9199C14.9029 12.4462 14.4517 12.3231 13.9043 12.5508C12.8191 13.4418 11.7117 14.3031 10.582 15.1348C10.5273 15.3535 10.5273 15.5722 10.582 15.791C10.9239 16.9258 11.2656 18.0606 11.6074 19.1953C11.5955 19.2586 11.5682 19.3134 11.5254 19.3594C11.0155 19.4731 10.5233 19.6371 10.0488 19.8516C9.68018 20.1908 9.5025 20.6147 9.51563 21.123C9.29266 21.1925 9.07397 21.2746 8.85938 21.3691C8.81836 15.9825 8.80466 10.5958 8.81836 5.20899ZM22.9277 5.20899C27.2754 5.20899 31.623 5.20899 35.9707 5.20899C35.9707 14.5332 35.9707 23.8574 35.9707 33.1816C31.623 33.1816 27.2754 33.1816 22.9277 33.1816C22.9277 23.8574 22.9277 14.5332 22.9277 5.20899ZM17.0215 7.66992C17.2484 8.05472 17.4671 8.45119 17.6777 8.85938C18.0606 9.05076 18.4433 9.24222 18.8262 9.43359C18.4459 9.62374 18.0631 9.81512 17.6777 10.0078C17.4622 10.3979 17.2571 10.7943 17.0625 11.1973C16.8552 10.892 16.6911 10.5639 16.5703 10.2129C16.4746 10.1172 16.3789 10.0215 16.2832 9.92578C15.9179 9.7842 15.5625 9.62013 15.2168 9.43359C15.6368 9.26461 16.047 9.07323 16.4473 8.85938C16.6626 8.47252 16.854 8.07601 17.0215 7.66992ZM30.4746 9.22852C30.5465 9.21777 30.6012 9.24509 30.6387 9.31055C30.8092 9.67911 31.0006 10.0346 31.2129 10.377C31.5859 10.5771 31.9686 10.7549 32.3613 10.9102C31.981 11.1003 31.5983 11.2917 31.2129 11.4844C30.9866 11.8757 30.7679 12.2721 30.5566 12.6738C30.3263 12.2813 30.1075 11.8849 29.9004 11.4844C29.5075 11.3082 29.1247 11.1168 28.752 10.9102C29.1172 10.7686 29.4727 10.6045 29.8184 10.418C30.112 10.0632 30.3307 9.66673 30.4746 9.22852ZM14.3145 13.4941C14.4481 13.6876 14.5437 13.9063 14.6016 14.1504C16.0331 19.0703 17.496 23.9785 18.9902 28.875C17.8103 28.8484 16.6345 28.7527 15.4629 28.5879C14.1837 24.2775 12.8986 19.9708 11.6074 15.668C12.5155 14.9417 13.4179 14.2172 14.3145 13.4941ZM11.7715 20.3027C11.874 20.3091 11.9424 20.3638 11.9766 20.4668C12.3649 21.8095 12.7614 23.1494 13.166 24.4863C12.7818 24.6542 12.3853 24.791 11.9766 24.8965C11.8214 24.8738 11.712 24.7917 11.6484 24.6504C11.2708 23.4219 10.9017 22.1914 10.541 20.959C10.5853 20.8566 10.64 20.7609 10.7051 20.6719C11.0825 20.5852 11.4379 20.4621 11.7715 20.3027ZM9.7207 22.1074C9.77132 22.1165 9.81233 22.1438 9.84375 22.1895C10.0799 22.8664 10.2577 23.5363 10.377 24.1992C7.72834 24.9912 5.076 25.7705 2.41992 26.5371C1.61053 26.3702 1.26873 25.878 1.39453 25.0605C1.54492 24.8008 1.75 24.5957 2.00977 24.4453C4.59674 23.6875 7.16705 22.9082 9.7207 22.1074ZM5.12695 36.9551C16.6387 36.9414 28.1504 36.9551 39.6621 36.9961C40.2743 37.1933 40.6024 37.6171 40.6465 38.2676C40.569 38.9301 40.2136 39.3539 39.5801 39.5391C28.123 39.5938 16.666 39.5938 5.20898 39.5391C4.31035 39.1769 4.02324 38.5343 4.34766 37.6113C4.572 37.3432 4.83176 37.1244 5.12695 36.9551Z" fill="#068FFF"/>
<path opacity="0.907" fill-rule="evenodd" clip-rule="evenodd" d="M17.0214 5.86523C17.1923 5.90862 17.3427 5.99065 17.4726 6.11133C17.7957 6.73026 18.0965 7.35917 18.3749 7.99805C19.0359 8.34906 19.7058 8.69088 20.3847 9.02344C20.6198 9.34689 20.5924 9.6477 20.3027 9.92578C19.6412 10.2087 18.9986 10.5231 18.3749 10.8691C18.0965 11.508 17.7957 12.1369 17.4726 12.7559C17.2216 13.0377 16.9482 13.065 16.6523 12.8379C16.3602 12.1716 16.0457 11.5154 15.7089 10.8691C15.0482 10.4841 14.3646 10.1423 13.6581 9.84375C13.4182 9.54056 13.4455 9.26715 13.7402 9.02344C14.3789 8.6972 15.0216 8.38269 15.6679 8.08008C15.991 7.46114 16.2918 6.83224 16.5702 6.19336C16.6933 6.03186 16.8437 5.92249 17.0214 5.86523ZM17.0214 7.66992C16.8539 8.07601 16.6625 8.47252 16.4472 8.85938C16.0469 9.07323 15.6367 9.26461 15.2167 9.43359C15.5624 9.62013 15.9179 9.7842 16.2831 9.92578C16.3789 10.0215 16.4745 10.1172 16.5702 10.2129C16.6911 10.5639 16.8551 10.892 17.0624 11.1973C17.257 10.7943 17.4621 10.3979 17.6777 10.0078C18.0631 9.81512 18.4458 9.62374 18.8261 9.43359C18.4433 9.24221 18.0605 9.05075 17.6777 8.85938C17.467 8.45119 17.2483 8.05472 17.0214 7.66992Z" fill="#068FFF"/>
<path opacity="0.905" fill-rule="evenodd" clip-rule="evenodd" d="M30.2286 7.42383C30.449 7.41037 30.6678 7.42404 30.8849 7.46485C31.2458 8.11839 31.5739 8.78834 31.8692 9.47461C32.5827 9.8586 33.2937 10.2414 34.0021 10.6231C34.1302 10.8785 34.1029 11.1109 33.92 11.3203C33.3011 11.6434 32.6722 11.9442 32.0333 12.2227C31.6378 12.8632 31.2961 13.533 31.0079 14.2324C30.7071 14.5606 30.4064 14.5606 30.1056 14.2324C29.8272 13.5936 29.5263 12.9646 29.2032 12.3457C28.5423 11.9947 27.8723 11.6529 27.1935 11.3203C26.9821 11.0527 26.9821 10.7793 27.1935 10.5C27.8999 10.2015 28.5836 9.85967 29.2442 9.47461C29.5511 8.77891 29.8792 8.09527 30.2286 7.42383ZM30.4747 9.22852C30.3308 9.66673 30.112 10.0632 29.8185 10.418C29.4728 10.6045 29.1173 10.7686 28.7521 10.9102C29.1248 11.1168 29.5076 11.3082 29.9005 11.4844C30.1076 11.8849 30.3264 12.2813 30.5567 12.6738C30.768 12.2721 30.9867 11.8757 31.213 11.4844C31.5984 11.2917 31.9811 11.1003 32.3614 10.9102C31.9687 10.7549 31.586 10.5771 31.213 10.377C31.0007 10.0346 30.8093 9.67912 30.6388 9.31055C30.6013 9.24509 30.5466 9.21777 30.4747 9.22852Z" fill="#068FFF"/>
<path opacity="0.892" fill-rule="evenodd" clip-rule="evenodd" d="M30.9668 15.627C31.6422 15.5493 31.8746 15.8227 31.6641 16.4473C30.4525 18.5605 29.2085 20.6523 27.9316 22.7227C27.4968 22.8613 27.2507 22.7109 27.1934 22.2715C28.3868 20.0215 29.6446 17.8066 30.9668 15.627Z" fill="#068FFF"/>
<path opacity="0.888" fill-rule="evenodd" clip-rule="evenodd" d="M28.6699 16.1192C29.2577 16.0369 29.4901 16.283 29.3672 16.8574C28.711 18.0059 28.0547 19.1543 27.3985 20.3028C27.0976 20.6309 26.7969 20.6309 26.4961 20.3028C26.4414 20.1387 26.4414 19.9746 26.4961 19.8106C27.1803 18.5508 27.9049 17.3203 28.6699 16.1192Z" fill="#068FFF"/>
<path opacity="0.885" fill-rule="evenodd" clip-rule="evenodd" d="M31.7871 17.8418C32.346 17.841 32.5511 18.1144 32.4023 18.6621C31.7074 19.875 30.9828 21.0645 30.2285 22.2305C29.6679 22.3262 29.4355 22.0937 29.5312 21.5332C30.1874 20.3848 30.8437 19.2363 31.4999 18.0879C31.5939 17.9947 31.6896 17.9127 31.7871 17.8418Z" fill="#068FFF"/>
</svg>
