<svg width="48" height="42" viewBox="0 0 48 42" fill="none" xmlns="http://www.w3.org/2000/svg">
<path opacity="0.885" fill-rule="evenodd" clip-rule="evenodd" d="M34.7116 0.00843973C34.9364 -0.0174416 35.1489 0.0162021 35.3491 0.109381C35.4282 0.706578 35.4119 1.2954 35.3 1.87585C35.0775 1.95237 34.865 1.93555 34.6626 1.82538C34.5853 1.21146 34.6017 0.605809 34.7116 0.00843973Z" fill="#068FFF"/>
<path opacity="0.893" fill-rule="evenodd" clip-rule="evenodd" d="M23.3356 0.916954C23.5022 0.900784 23.6657 0.91761 23.8259 0.967425C30.6288 6.65606 37.3956 12.3928 44.1262 18.1779C44.25 18.3873 44.2336 18.5892 44.0772 18.7835C43.3744 19.5742 42.6716 20.365 41.9687 21.1556C41.7462 21.2322 41.5337 21.2153 41.3313 21.1052C41.2822 23.6958 41.2659 26.2866 41.2822 28.8776C42.4922 28.8608 43.7017 28.8776 44.9108 28.9281C45.9852 29.2359 46.6227 29.9593 46.8232 31.0983C47.2723 34.6958 47.6646 38.296 48 41.899C42.3677 42.0334 36.7287 42.0334 31.083 41.899C31.0408 41.819 31.008 41.7348 30.985 41.6467C31.1192 40.8608 31.2173 40.0702 31.2792 39.2746C27.1929 39.2746 23.1068 39.2746 19.0205 39.2746C19.0682 40.0385 19.1663 40.7955 19.3147 41.5457C19.2752 41.6944 19.2098 41.829 19.1186 41.9495C13.9209 42.0168 8.72325 42.0168 3.52558 41.9495C3.46456 41.7911 3.43187 41.6228 3.42751 41.4448C3.89758 37.9577 4.3389 34.4752 4.75144 30.9974C5.09246 30.5611 5.53377 30.3592 6.07538 30.3917C6.10806 26.959 6.07537 23.527 5.97731 20.0958C5.50093 20.502 5.01058 20.889 4.50627 21.2566C4.37551 21.3239 4.24475 21.3239 4.11399 21.2566C3.34388 20.427 2.60836 19.569 1.90744 18.6826C1.84205 18.5143 1.84205 18.3461 1.90744 18.1779C4.5048 16.0338 7.11998 13.914 9.75298 11.8186C9.78563 9.53056 9.81839 7.24263 9.85104 4.9546C10.0783 4.21637 10.5686 3.81261 11.3221 3.7433C12.0755 3.81261 12.5659 4.21637 12.7931 4.9546C12.8095 6.4026 12.8585 7.84938 12.9402 9.29506C16.4121 6.50041 19.8773 3.70766 23.3356 0.916954ZM23.5317 1.92636C30.1087 7.39939 36.6466 12.9344 43.1456 18.5312C42.6029 19.0559 42.0962 19.611 41.6255 20.1967C41.5274 20.0958 41.4293 19.9948 41.3313 19.8939C41.2986 19.2882 41.2659 18.6826 41.2332 18.0769C40.7355 17.0022 39.9347 16.6489 38.8305 17.0171C38.6258 17.097 38.446 17.2148 38.2911 17.3703C33.4149 13.2594 28.5115 9.18806 23.5807 5.15648C19.9933 7.85595 16.4464 10.615 12.9402 13.4336C12.826 12.4597 12.8096 11.4839 12.8912 10.5064C16.4563 7.66012 20.0032 4.80012 23.5317 1.92636ZM11.175 4.65177C11.6157 4.61773 11.8936 4.81961 12.0086 5.25742C12.0576 11.9868 12.074 18.7162 12.0576 25.4456C11.5999 25.4456 11.1423 25.4456 10.6846 25.4456C10.6683 18.6489 10.6846 11.8522 10.7337 5.05554C10.8707 4.89703 11.0178 4.76245 11.175 4.65177ZM23.4336 6.26683C23.5368 6.25179 23.6349 6.26855 23.7278 6.3173C27.0991 9.21552 30.4988 12.0755 33.927 14.8973C32.8809 14.9309 31.8349 14.9646 30.7888 14.9982C30.4392 15.2181 30.4065 15.4872 30.6908 15.8058C32.1618 15.8394 33.6328 15.8731 35.1039 15.9067C36.0477 16.6425 36.9631 17.4163 37.8498 18.2283C37.7521 21.7708 37.7195 25.3205 37.7517 28.8776C36.5418 28.8608 35.3323 28.8776 34.1232 28.9281C32.7482 29.451 32.0943 30.4772 32.1618 32.0068C31.5407 32.0068 30.9196 32.0068 30.2985 32.0068C30.3727 30.4756 30.2583 28.9615 29.9552 27.4645C29.5904 26.2829 28.9856 25.2567 28.141 24.3858C30.985 24.3521 33.829 24.3184 36.673 24.2848C36.9345 24.0493 36.9345 23.8137 36.673 23.5782C33.4694 23.5446 30.2658 23.5109 27.0622 23.4773C24.3548 21.798 21.6415 21.798 18.9225 23.4773C17.1245 23.5109 15.3265 23.5446 13.5286 23.5782C13.3104 23.7826 13.2777 24.0181 13.4306 24.2848C14.9343 24.3184 16.4381 24.3521 17.9418 24.3858C16.3429 26.0411 15.6238 28.043 15.7842 30.3917C15.0323 30.3917 14.2805 30.3917 13.5286 30.3917C13.545 28.7764 13.5286 27.1613 13.4796 25.5466C13.2794 25.4534 13.0669 25.4198 12.8422 25.4456C12.8422 22.2491 12.8422 19.0527 12.8422 15.8562C14.0195 15.8731 15.1963 15.8562 16.3727 15.8058C16.7626 15.5416 16.7626 15.2724 16.3727 14.9982C15.1963 14.9478 14.0195 14.9309 12.8422 14.9478C12.8317 14.7052 12.9297 14.5202 13.1364 14.3926C16.6109 11.7309 20.0433 9.02232 23.4336 6.26683ZM25.1989 10.9101C25.9964 11.1071 26.1761 11.5781 25.7383 12.3233C25.1581 12.7014 24.8148 12.5332 24.7085 11.8186C24.7972 11.4674 24.9607 11.1646 25.1989 10.9101ZM21.2761 11.0111C21.9397 11.1304 22.1849 11.5341 22.0116 12.2224C21.6187 12.775 21.259 12.7414 20.9329 12.1214C20.8018 11.6543 20.9162 11.2841 21.2761 11.0111ZM9.60587 13.0299C9.73601 13.4792 9.80142 13.967 9.80201 14.4935C9.78563 14.9814 9.76935 15.4693 9.75298 15.9572C7.98066 17.4457 6.16638 18.842 4.31013 20.1462C3.83407 19.6059 3.37642 19.0507 2.93716 18.4807C5.19254 16.6967 7.41545 14.8797 9.60587 13.0299ZM28.141 13.5346C28.4929 13.5468 28.6564 13.7318 28.6313 14.0898C28.6098 14.488 28.4137 14.7403 28.0429 14.8468C27.7681 14.7993 27.6373 14.631 27.6506 14.3421C27.6675 13.9693 27.831 13.7002 28.141 13.5346ZM18.4321 13.6355C19.1232 13.8297 19.3193 14.2503 19.0205 14.8973C18.4308 14.9509 18.153 14.6649 18.1869 14.0393C18.2519 13.8895 18.3336 13.7549 18.4321 13.6355ZM23.1394 14.6449C23.5778 14.6735 23.9701 14.8249 24.3163 15.0992C24.5735 15.4436 24.8187 15.7969 25.0518 16.1591C25.4786 16.4977 25.8709 16.8678 26.2286 17.2694C26.5976 18.5281 26.1563 19.3021 24.9047 19.5911C23.9231 19.1967 22.9424 19.1967 21.9626 19.5911C20.5536 19.2479 20.145 18.4067 20.7367 17.0675C21.3497 16.4942 21.8563 15.8381 22.2568 15.0992C22.5338 14.8893 22.828 14.7379 23.1394 14.6449ZM9.70394 17.0675C9.80181 19.8429 9.83447 22.6356 9.80201 25.4456C9.54909 25.4035 9.33657 25.4709 9.16456 25.6475C9.11553 27.2286 9.09915 28.81 9.11553 30.3917C8.36366 30.3917 7.6118 30.3917 6.85993 30.3917C6.85993 28.3729 6.85993 26.3541 6.85993 24.3353C7.64516 24.352 8.42972 24.3353 9.21359 24.2848C9.34432 24.0493 9.34432 23.8137 9.21359 23.5782C8.42972 23.5278 7.64516 23.511 6.85993 23.5278C6.84359 22.1478 6.85994 20.7683 6.90897 19.3892C7.85908 18.629 8.79072 17.8552 9.70394 17.0675ZM39.2228 17.7741C39.8303 17.6575 40.2389 17.893 40.4487 18.4807C40.4977 20.5329 40.5141 22.5854 40.4977 24.6381C39.8766 24.6381 39.2554 24.6381 38.6344 24.6381C38.618 22.5518 38.6344 20.4656 38.6834 18.3798C38.8168 18.1251 38.9965 17.9232 39.2228 17.7741ZM21.9626 23.124C25.223 22.8656 27.5603 24.2451 28.9745 27.2626C29.1669 27.7851 29.2976 28.3235 29.3668 28.8776C29.4159 32.0403 29.4322 35.2031 29.4159 38.3661C25.8854 38.3661 22.3549 38.3661 18.8244 38.3661C18.5066 36.0524 18.2615 33.7308 18.0889 31.4012C17.8392 30.7262 17.3652 30.3897 16.6669 30.3917C16.6137 26.5458 18.379 24.1232 21.9626 23.124ZM38.6344 25.5466C39.2554 25.5466 39.8766 25.5466 40.4977 25.5466C40.4977 26.6569 40.4977 27.7673 40.4977 28.8776C39.8766 28.8776 39.2554 28.8776 38.6344 28.8776C38.6344 27.7673 38.6344 26.6569 38.6344 25.5466ZM9.90008 26.2532C10.8481 26.2532 11.7961 26.2532 12.7441 26.2532C12.7441 27.6327 12.7441 29.0122 12.7441 30.3917C11.7961 30.3917 10.8481 30.3917 9.90008 30.3917C9.90008 29.0122 9.90008 27.6327 9.90008 26.2532ZM32.456 37.1548C32.6362 35.2004 32.8486 33.2489 33.0935 31.3002C33.2137 30.6043 33.5897 30.1165 34.2213 29.8366C37.6163 29.671 41.0161 29.6374 44.4205 29.7356C45.0787 29.8301 45.5527 30.1834 45.8425 30.7955C46.2088 32.9713 46.4704 35.1584 46.627 37.3567C46.1291 35.7856 45.5735 34.2378 44.9598 32.7134C44.6694 32.3141 44.2934 32.0281 43.832 31.8554C40.9554 31.7881 38.0786 31.7881 35.2019 31.8554C34.781 31.9963 34.4378 32.2487 34.1722 32.6124C33.5878 34.1326 33.0158 35.6467 32.456 37.1548ZM5.87924 31.1993C9.508 31.1824 13.1366 31.1993 16.7649 31.2497C17.0101 31.3675 17.1899 31.5526 17.3043 31.8049C17.3532 32.1736 17.3695 32.5436 17.3533 32.9153C13.3325 32.9153 9.31166 32.9153 5.29082 32.9153C5.15028 32.1981 5.34642 31.6261 5.87924 31.1993ZM35.6923 32.6124C38.2749 32.5956 40.8575 32.6124 43.4398 32.6629C43.8657 32.7649 44.1763 33.0172 44.3714 33.42C45.2679 36.0031 46.1341 38.5938 46.9703 41.1924C42.001 41.2261 37.0321 41.1924 32.0637 41.0915C32.9917 38.5121 33.8907 35.9214 34.7606 33.319C35.0087 32.9773 35.3192 32.7419 35.6923 32.6124ZM30.2985 32.9153C30.8869 32.9153 31.4753 32.9153 32.0637 32.9153C31.8353 34.6614 31.6228 36.4111 31.4263 38.1642C31.0836 38.3537 30.7077 38.421 30.2985 38.3661C30.2985 36.5491 30.2985 34.7322 30.2985 32.9153ZM5.29082 33.7228C9.31215 33.6892 13.333 33.7228 17.3533 33.8237C17.735 36.2713 18.062 38.7275 18.334 41.1924C17.8437 41.1924 17.3533 41.1924 16.863 41.1924C16.7103 39.0707 16.5304 36.9509 16.3236 34.8331C15.926 34.511 15.6482 34.5951 15.49 35.0855C15.7009 37.1162 15.8644 39.1518 15.9804 41.1924C15.392 41.1924 14.8035 41.1924 14.2151 41.1924C14.1592 39.4096 14.1102 37.6263 14.068 35.8426C13.8486 35.4872 13.5871 35.4536 13.2835 35.7416C13.2801 37.5582 13.2965 39.3751 13.3325 41.1924C12.7767 41.1924 12.2211 41.1924 11.6653 41.1924C11.6817 39.1397 11.6653 37.0873 11.6163 35.035C11.3068 34.7424 11.0453 34.7761 10.8317 35.136C10.7827 37.1545 10.7663 39.1733 10.7827 41.1924C10.2924 41.1924 9.80201 41.1924 9.31166 41.1924C9.40091 39.3762 9.41728 37.5593 9.3607 35.7416C9.1319 35.4724 8.90301 35.4724 8.67421 35.7416C8.54585 37.5559 8.49682 39.3729 8.52711 41.1924C7.90601 41.1924 7.2849 41.1924 6.66379 41.1924C6.85983 39.0742 7.00694 36.9544 7.10511 34.8331C6.79562 34.5405 6.5341 34.5742 6.32055 34.9341C6.14628 36.952 5.98283 38.9708 5.83021 40.9906C5.35377 41.1838 4.84708 41.2511 4.31013 41.1924C4.6462 38.7038 4.97309 36.2139 5.29082 33.7228Z" fill="#068FFF"/>
<path opacity="0.881" fill-rule="evenodd" clip-rule="evenodd" d="M32.7503 2.02727C33.307 2.01051 33.8627 2.02733 34.4175 2.07774C34.6363 2.2995 34.6363 2.53503 34.4175 2.78433C33.8617 2.85163 33.3061 2.85163 32.7503 2.78433C32.6249 2.53222 32.6249 2.27987 32.7503 2.02727Z" fill="#068FFF"/>
<path opacity="0.881" fill-rule="evenodd" clip-rule="evenodd" d="M35.5942 2.02727C36.1509 2.01051 36.7066 2.02733 37.2614 2.07774C37.4068 2.33936 37.374 2.57489 37.1633 2.78433C36.6403 2.85163 36.1172 2.85163 35.5942 2.78433C35.3394 2.52403 35.3394 2.27168 35.5942 2.02727Z" fill="#068FFF"/>
<path opacity="0.879" fill-rule="evenodd" clip-rule="evenodd" d="M34.8097 2.83474C35.0139 2.83191 35.1937 2.89921 35.3491 3.03662C35.4145 3.57497 35.4145 4.11333 35.3491 4.65168C35.1456 4.86853 34.9168 4.90219 34.6626 4.75262C34.5972 4.18062 34.5972 3.60863 34.6626 3.03662C34.7329 2.98169 34.7819 2.91439 34.8097 2.83474Z" fill="#068FFF"/>
<path opacity="0.826" fill-rule="evenodd" clip-rule="evenodd" d="M40.6939 9.19414C40.8868 9.17002 41.0667 9.20363 41.2333 9.29508C41.266 9.76618 41.2987 10.2372 41.3314 10.7083C41.6985 10.5946 42.0744 10.5777 42.4592 10.6578C42.8514 10.927 42.8514 11.1961 42.4592 11.4653C42.0683 11.5157 41.676 11.5325 41.2823 11.5158C41.2986 11.9545 41.2822 12.3919 41.2333 12.828C40.9791 12.9776 40.7503 12.9439 40.5468 12.7271C40.4979 12.3247 40.4815 11.921 40.4978 11.5158C40.1041 11.5325 39.7118 11.5157 39.3209 11.4653C38.9353 11.2008 38.9353 10.9316 39.3209 10.6578C39.7118 10.6074 40.1041 10.5906 40.4978 10.6073C40.445 10.1059 40.5104 9.63485 40.6939 9.19414ZM40.6939 10.8092C40.8104 10.9287 40.9249 10.9287 41.0372 10.8092C41.0856 10.9741 41.1019 11.1424 41.0862 11.3139C40.9555 11.3139 40.8246 11.3139 40.6939 11.3139C40.6939 11.1456 40.6939 10.9775 40.6939 10.8092Z" fill="#068FFF"/>
<path opacity="0.868" fill-rule="evenodd" clip-rule="evenodd" d="M25.1988 10.0017C26.235 10.042 26.7581 10.5972 26.768 11.6672C26.6491 13.0692 25.93 13.6076 24.6104 13.2823C23.8354 12.4909 23.7209 11.5992 24.2672 10.6074C24.5472 10.3321 24.8578 10.1302 25.1988 10.0017ZM25.1988 10.9102C24.9606 11.1647 24.7972 11.4675 24.7085 11.8186C24.8148 12.5332 25.1581 12.7015 25.7382 12.3234C26.1761 11.5782 25.9963 11.1071 25.1988 10.9102Z" fill="#068FFF"/>
<path opacity="0.863" fill-rule="evenodd" clip-rule="evenodd" d="M21.2762 10.1026C22.6752 10.3639 23.1819 11.2051 22.7963 12.6261C22.2591 13.6066 21.5236 13.7916 20.5897 13.1813C19.7775 12.2045 19.8103 11.2624 20.6878 10.355C20.8948 10.2697 21.0909 10.1856 21.2762 10.1026ZM21.2762 11.0111C20.9163 11.2841 20.8018 11.6543 20.933 12.1214C21.2591 12.7414 21.6188 12.775 22.0117 12.2224C22.185 11.5341 21.9398 11.1304 21.2762 11.0111Z" fill="#068FFF"/>
<path opacity="0.862" fill-rule="evenodd" clip-rule="evenodd" d="M27.8467 12.727C29.1145 12.6358 29.6539 13.2414 29.4649 14.544C28.9255 15.8493 28.1083 16.0848 27.0131 15.2506C26.5555 14.1367 26.8334 13.2954 27.8467 12.727ZM28.1409 13.5346C27.8309 13.7002 27.6675 13.9693 27.6506 14.3421C27.6373 14.631 27.7681 14.7993 28.0429 14.8468C28.4137 14.7403 28.6098 14.488 28.6313 14.0897C28.6564 13.7318 28.4929 13.5468 28.1409 13.5346Z" fill="#068FFF"/>
<path opacity="0.869" fill-rule="evenodd" clip-rule="evenodd" d="M18.138 12.828C19.6029 12.8059 20.2077 13.5461 19.9523 15.0487C19.5577 15.8438 18.9529 16.0624 18.138 15.7048C17.3174 15.0393 17.1376 14.2149 17.5986 13.2318C17.7763 13.0827 17.9561 12.9481 18.138 12.828ZM18.4322 13.6355C18.3337 13.7549 18.2519 13.8895 18.187 14.0393C18.1531 14.6649 18.4309 14.9509 19.0206 14.8973C19.3194 14.2503 19.1233 13.8297 18.4322 13.6355Z" fill="#068FFF"/>
<path opacity="0.865" fill-rule="evenodd" clip-rule="evenodd" d="M22.7471 13.8374C23.4038 13.7717 24.0249 13.8894 24.6104 14.1907C25.3447 15.1482 26.1456 16.04 27.0131 16.8657C27.5816 18.5377 27.0749 19.6986 25.4931 20.3481C24.7969 20.4237 24.1104 20.3733 23.4336 20.1967C22.755 20.3643 22.0685 20.4147 21.3742 20.3481C19.9906 19.8634 19.4186 18.8708 19.6579 17.3704C19.729 17.1232 19.8271 16.8876 19.9522 16.6638C20.6481 15.9196 21.2855 15.129 21.8645 14.2917C22.1415 14.0818 22.4357 13.9304 22.7471 13.8374ZM23.1394 14.6449C22.8279 14.7379 22.5337 14.8893 22.2568 15.0992C21.8563 15.8381 21.3496 16.4942 20.7367 17.0675C20.145 18.4067 20.5536 19.2479 21.9626 19.5911C22.9424 19.1967 23.9231 19.1967 24.9047 19.5911C26.1563 19.3021 26.5976 18.5282 26.2286 17.2694C25.8708 16.8678 25.4786 16.4977 25.0518 16.1591C24.8186 15.7969 24.5735 15.4436 24.3162 15.0992C23.9701 14.8249 23.5778 14.6735 23.1394 14.6449Z" fill="#068FFF"/>
<path opacity="0.799" fill-rule="evenodd" clip-rule="evenodd" d="M1.5642 25.4457C1.81372 25.4057 2.02621 25.473 2.20165 25.6476C2.25056 26.0499 2.26691 26.4537 2.25068 26.8589C2.64431 26.8421 3.03659 26.859 3.42751 26.9093C3.71179 27.2279 3.67911 27.497 3.32944 27.7169C2.97133 27.7672 2.61174 27.784 2.25068 27.7673C2.26691 28.1725 2.25056 28.5763 2.20165 28.9786C1.89216 29.2712 1.63064 29.2375 1.41709 28.8777C1.36819 28.509 1.35185 28.139 1.36806 27.7673C1.007 27.784 0.647405 27.7672 0.289295 27.7169C-0.0603708 27.497 -0.0930602 27.2279 0.191226 26.9093C0.58215 26.859 0.974427 26.8421 1.36806 26.8589C1.3153 26.3575 1.38068 25.8864 1.5642 25.4457ZM1.66226 27.4645C1.67894 27.3311 1.64624 27.2133 1.5642 27.1112C1.72445 27.0613 1.8879 27.0446 2.05454 27.0607C2.07025 27.2322 2.0539 27.4005 2.00551 27.5654C1.90633 27.481 1.79192 27.4473 1.66226 27.4645Z" fill="#068FFF"/>
</svg>
